<svg xmlns="http://www.w3.org/2000/svg" viewBox="-848.165 1302 80.165 80"><defs><style>.a{fill:#ba374a;}</style></defs><path class="a" d="M49.558,79.988a27.1,27.1,0,0,1-7.2-1.924,1.567,1.567,0,1,1,1.218-2.887,23.962,23.962,0,0,0,6.37,1.7A1.566,1.566,0,0,1,49.752,80,1.547,1.547,0,0,1,49.558,79.988Zm5.668-1.41a1.565,1.565,0,0,1,1.317-1.78,23.96,23.96,0,0,0,6.326-1.863,1.566,1.566,0,1,1,1.29,2.854,27.06,27.06,0,0,1-7.153,2.107,1.59,1.59,0,0,1-.233.017A1.566,1.566,0,0,1,55.225,78.577ZM35.951,74.252a27.4,27.4,0,0,1-5.137-5.4,1.567,1.567,0,0,1,2.542-1.832,24.246,24.246,0,0,0,4.55,4.78,1.566,1.566,0,1,1-1.955,2.448Zm32.308-.628a1.566,1.566,0,0,1,.192-2.207,24.216,24.216,0,0,0,4.428-4.893,1.566,1.566,0,0,1,2.588,1.766,27.405,27.405,0,0,1-5,5.525,1.567,1.567,0,0,1-2.207-.192ZM27.326,62.267a27.169,27.169,0,0,1-1.563-7.288,1.575,1.575,0,0,1,.047-.509A27.254,27.254,0,1,1,54.465,25.732a27.259,27.259,0,0,1,5.193.791,1.566,1.566,0,1,1-.77,3.036,24.071,24.071,0,0,0-4.428-.691c0,.019,0,.039,0,.058l0,0A27.291,27.291,0,0,1,28.838,54.461a1.621,1.621,0,0,1,.049.287A24.034,24.034,0,0,0,30.269,61.2a1.566,1.566,0,1,1-2.943,1.072ZM3.133,27.254a24.152,24.152,0,0,0,22.6,24.074h0A27.292,27.292,0,0,1,51.33,25.737v0a24.122,24.122,0,0,0-48.2,1.519ZM28.875,51.322A24.161,24.161,0,0,0,51.322,28.875,24.16,24.16,0,0,0,28.875,51.322ZM76.8,62.6a1.566,1.566,0,0,1-.986-1.983,24.062,24.062,0,0,0,1.219-6.481,1.567,1.567,0,1,1,3.129.153,27.171,27.171,0,0,1-1.378,7.325A1.564,1.564,0,0,1,76.8,62.6Zm-.339-15.037A23.952,23.952,0,0,0,74.128,41.4a1.566,1.566,0,0,1,2.749-1.5,27.066,27.066,0,0,1,2.64,6.974,1.566,1.566,0,0,1-3.055.7ZM70.2,36.094A24.217,24.217,0,0,0,65,32.044a1.566,1.566,0,0,1,1.568-2.712,27.367,27.367,0,0,1,5.882,4.574A1.566,1.566,0,1,1,70.2,36.094ZM7.048,27.254a20.113,20.113,0,0,1,7.64-15.824,1.566,1.566,0,1,1,1.95,2.451,17,17,0,0,0-6.457,13.372,1.566,1.566,0,0,1-3.133,0ZM20.58,9.774a1.567,1.567,0,0,1,1.072-1.939,20.223,20.223,0,0,1,5.6-.787,1.566,1.566,0,0,1,0,3.133,17.1,17.1,0,0,0-4.735.665A1.566,1.566,0,0,1,20.58,9.774Z" transform="translate(-848.165 1302)"/></svg>