<svg xmlns="http://www.w3.org/2000/svg" viewBox="868.3 1359 87 80"><defs><style>.a{fill:#ba374a;}</style></defs><path class="a" d="M5.365,80H1.7a1.707,1.707,0,0,1,0-3.414H4.46L23.832,47.707a4.92,4.92,0,0,1,8.18,0l2.74,4.084L46.274,34.615a4.923,4.923,0,0,1,2.39-1.881V17.042a1.7,1.7,0,0,1,2.388-1.562l9.285,4.132a1.711,1.711,0,0,1,.216,3.007l-8.491,5.356v4.759a4.922,4.922,0,0,1,2.391,1.882L82.584,76.548c.008.013.014.025.022.038H85.3A1.707,1.707,0,0,1,85.3,80ZM26.651,49.616,8.558,76.586H78.511L51.636,36.524a1.529,1.529,0,0,0-2.543,0L29.5,65.734a1.694,1.694,0,0,1-2.359.462,1.713,1.713,0,0,1-.46-2.37l6.025-8.98-3.509-5.23a1.529,1.529,0,0,0-2.543,0ZM52.063,23.944l3.977-2.509-3.977-1.77ZM22.09,71.108a1.7,1.7,0,1,1,1.7,1.707A1.7,1.7,0,0,1,22.09,71.108ZM13.863,52.05l-.02-.033A1.7,1.7,0,1,1,16.2,52.6a1.682,1.682,0,0,1-.893.256A1.7,1.7,0,0,1,13.863,52.05Zm57.932-3.161a1.711,1.711,0,0,1-.905-2.237l.024-.054a1.705,1.705,0,1,1,.881,2.291ZM11.415,47.24l-.014-.033a1.791,1.791,0,1,1,.014.033ZM73.7,44.12a1.717,1.717,0,1,1,2.1-1.237c0,.007-.008.032-.011.04a1.7,1.7,0,0,1-1.638,1.259A1.678,1.678,0,0,1,73.7,44.12ZM9.754,42.1l-.009-.04a1.706,1.706,0,1,1,.009.04Zm65.158-2.971a1.71,1.71,0,0,1-1.543-1.855l0-.042a1.7,1.7,0,1,1,3.38.35l-1.69-.175,1.69.177a1.7,1.7,0,0,1-1.689,1.553C75.014,39.135,74.964,39.133,74.912,39.128ZM8.924,36.752v-.016a1.7,1.7,0,1,1,1.82,1.585c-.042,0-.085.005-.128.005A1.7,1.7,0,0,1,8.924,36.752Zm64.552-4.361a1.712,1.712,0,0,1,1.6-1.813,1.693,1.693,0,0,1,1.8,1.6v.017a1.705,1.705,0,0,1-1.6,1.8l-.1,0A1.7,1.7,0,0,1,73.477,32.391Zm-62.97.81a1.707,1.707,0,0,1-1.57-1.832c0-.008,0-.033,0-.042a1.7,1.7,0,1,1,1.694,1.878C10.591,33.206,10.549,33.2,10.507,33.2Zm62.32-5.638a1.7,1.7,0,1,1,3.316-.752c0,.012.008.04.011.051a1.708,1.708,0,0,1-1.322,2.016,1.658,1.658,0,0,1-.345.035A1.7,1.7,0,0,1,72.826,27.564Zm-61.783.516A1.7,1.7,0,0,1,9.79,26.026l0-.016a1.7,1.7,0,1,1,1.647,2.118A1.673,1.673,0,0,1,11.043,28.08Zm60.391-5.148-.013-.033a1.7,1.7,0,1,1,3.165-1.243L73,22.278l1.585-.617a1.713,1.713,0,0,1-.951,2.214,1.69,1.69,0,0,1-2.2-.943Zm-59.053.193a1.711,1.711,0,0,1-.905-2.237l.005-.012a1.7,1.7,0,1,1,3.134,1.32l-.008.019a1.693,1.693,0,0,1-2.226.91ZM69.31,18.541a1.713,1.713,0,0,1,.582-2.336,1.7,1.7,0,0,1,2.332.579l.032.055a1.71,1.71,0,0,1-.64,2.327,1.693,1.693,0,0,1-2.306-.625ZM14.5,18.435a1.7,1.7,0,0,1-.553-2.344l.009-.014a1.694,1.694,0,0,1,2.34-.55,1.712,1.712,0,0,1-.907,3.163A1.672,1.672,0,0,1,14.5,18.435Zm52.035-3.878a1.719,1.719,0,0,1,.233-2.4,1.686,1.686,0,0,1,2.382.224l.019.024a1.712,1.712,0,0,1-.244,2.4,1.694,1.694,0,0,1-2.39-.245Zm-49.224-.416a1.706,1.706,0,0,1-.173-2.4l.02-.024a1.694,1.694,0,0,1,2.4-.154,1.711,1.711,0,0,1-1.132,2.992A1.68,1.68,0,0,1,17.309,14.141Zm45.882-3.062-.041-.036a1.714,1.714,0,0,1-.123-2.411,1.694,1.694,0,0,1,2.4-.127A1.707,1.707,0,0,1,64.3,11.493,1.684,1.684,0,0,1,63.191,11.079Zm-42.429-.718a1.713,1.713,0,0,1,.2-2.406l.025-.021a1.693,1.693,0,0,1,2.392.222,1.713,1.713,0,0,1-.221,2.4,1.7,1.7,0,0,1-2.4-.2ZM59.3,8.133a1.712,1.712,0,0,1-.535-2.344A1.693,1.693,0,0,1,61.1,5.239l.06.039a1.708,1.708,0,0,1-.944,3.128A1.682,1.682,0,0,1,59.3,8.133Zm-34.529-.96a1.711,1.711,0,0,1,.546-2.35l.062-.037a1.708,1.708,0,1,1-.608,2.387Zm30.287-1.3L55,5.847A1.693,1.693,0,1,1,55.7,6,1.671,1.671,0,0,1,55.058,5.871ZM29.211,4.635a1.71,1.71,0,0,1,.922-2.229L30.2,2.38a1.706,1.706,0,0,1,1.219,3.186,1.674,1.674,0,0,1-.635.125A1.7,1.7,0,0,1,29.211,4.635Zm21.23-.346A1.707,1.707,0,0,1,51.252.973l.063.016a1.707,1.707,0,0,1-.874,3.3ZM34,2.845A1.707,1.707,0,0,1,35.26.788L35.32.775A1.708,1.708,0,1,1,34,2.845Zm11.68.627a1.707,1.707,0,0,1,.282-3.4l.017,0a1.708,1.708,0,0,1-.148,3.408C45.785,3.478,45.734,3.476,45.684,3.471ZM39.013,1.808a1.708,1.708,0,1,1,1.862,1.6l-.067,0c-.034,0-.068,0-.1,0A1.7,1.7,0,0,1,39.013,1.808Z" transform="translate(868.3 1359)"/></svg>