<svg xmlns="http://www.w3.org/2000/svg" viewBox="-1360.958 6182 97.399 134"><g transform="translate(-1360.958 6182)"><g transform="translate(0)"><path d="M156.038,93.016h0a21.413,21.413,0,0,0-4.165-2.139L139.76,85.828l-8.54-5.635a2.114,2.114,0,0,0-.254-.141V76.4a22.283,22.283,0,0,0,12.128-16.89,10.118,10.118,0,0,0,6.653-16.91V29.642A29.675,29.675,0,0,0,120.105,0h-2.295a29.674,29.674,0,0,0-29.64,29.642V42.454a10.115,10.115,0,0,0,6.515,17.055A22.283,22.283,0,0,0,106.815,76.4v3.415l-8.9,5.874a2.117,2.117,0,0,0-.359.111L85.376,90.874a23.771,23.771,0,0,0-7.741,4.949c-3.518,3.322-7.711,9.3-7.711,18.909v17.139A2.128,2.128,0,0,0,72.052,134H97.183a2.128,2.128,0,1,0,0-4.255H90.629V113.953a2.128,2.128,0,1,0-4.255,0v15.791H74.179V114.733c0-15.327,12.129-19.68,12.637-19.855.048-.016.094-.034.141-.053L97.1,90.6l10.966,39.147h-4.227a2.128,2.128,0,0,0,0,4.255H165.2a2.131,2.131,0,0,0,2.127-2.132V114.733C167.323,102.211,160.254,95.752,156.038,93.016Zm-19.714-4.358-6.408,13.171-7.949-5.85,8.4-8.723a2.121,2.121,0,0,0,.576-1.751,2.143,2.143,0,0,0,.019-.27v-.111ZM123.4,102.314l-1.672,4.452H116l-1.881-4.49,4.615-3.4Zm-12.36-16.723a2.136,2.136,0,0,0,.032-.357V78a22.176,22.176,0,0,0,5.64.727h4.362a22.185,22.185,0,0,0,5.64-.727v6.917l-7.92,8.222Zm37.1-36.171a5.877,5.877,0,0,1-4.838,5.774V43.645A5.877,5.877,0,0,1,148.141,49.42ZM94.477,55.194a5.865,5.865,0,0,1,0-11.549Zm2.136-17.945H96.6a2.125,2.125,0,0,0-.217.011c-.023,0-.044.007-.066.01-.048.007-.1.013-.144.022-.031.006-.06.016-.09.023s-.076.018-.114.029-.068.025-.1.037-.063.021-.093.034-.076.036-.114.054-.049.022-.072.035-.071.043-.107.065-.046.027-.068.042-.065.048-.1.072-.045.032-.066.049-.056.05-.084.076-.046.04-.068.061-.049.053-.073.08-.044.046-.064.07-.042.056-.063.084-.041.052-.06.08-.034.056-.052.084-.038.06-.055.091-.027.057-.041.085-.034.066-.048.1-.021.057-.031.085-.028.072-.04.11-.015.059-.023.088-.021.076-.03.115-.01.063-.015.094-.014.077-.018.116,0,.067-.006.1,0,.06-.005.091a10.041,10.041,0,0,0-2.052.43V29.641A25.414,25.414,0,0,1,117.81,4.255H120.1a25.415,25.415,0,0,1,25.387,25.387v10.18a10.037,10.037,0,0,0-2.19-.477c0-.009,0-.018,0-.026,0-.047,0-.094-.007-.14,0-.028-.007-.055-.011-.083s-.011-.081-.018-.121-.015-.067-.023-.1-.016-.066-.025-.1-.024-.075-.037-.111-.019-.054-.03-.08-.033-.077-.051-.115-.022-.048-.034-.071-.04-.072-.061-.108-.028-.047-.043-.07-.044-.064-.067-.1-.036-.049-.055-.073-.045-.054-.068-.081-.045-.051-.069-.076-.045-.044-.068-.066-.054-.051-.082-.075-.047-.038-.071-.057-.06-.047-.091-.068-.053-.035-.08-.052-.061-.038-.093-.057-.064-.034-.1-.049-.057-.029-.087-.042-.078-.031-.118-.046-.05-.02-.077-.028c-.044-.014-.089-.026-.134-.038l-.057-.016c-8.326-1.894-10.838-12.381-10.862-12.483a2.128,2.128,0,0,0-3.8-.777c-9.462,13.081-30.035,13.207-30.371,13.207ZM98.732,56.5V41.429c5.439-.334,19.892-2.144,29.188-11.875,1.6,3.772,4.924,9.281,11.129,11.422V56.5a18,18,0,0,1-17.976,17.977H116.71A18,18,0,0,1,98.732,56.5Zm8.083,28.413v.322a2.131,2.131,0,0,0,.1.646,2.126,2.126,0,0,0,.542,2.165l8.1,7.889-8.011,5.9-6.408-13.171Zm3.5,37.074-4.172-14.895c.033.01.065.022.1.03a2.129,2.129,0,0,0,1.771-.352l2.578-1.9,1.794,4.284Zm3.058,7.759,3.021-18.723h5l3.02,18.723Zm12.018-20.632,1.569-4.178,2.492,1.834a2.109,2.109,0,0,0,2.271.156l-4.242,15.142Zm37.678,20.632h-12.2V113.954a2.128,2.128,0,1,0-4.255,0v15.791H129.748L140.655,90.81l9.635,4.015c.041.017.091.036.133.051a17.038,17.038,0,0,1,3.3,1.708h0c4.264,2.768,9.347,8.163,9.347,18.149Z" transform="translate(-69.924)"/><path d="M250.094,191.4a2.128,2.128,0,1,0,0-4.255h-1.57v-4.926a2.128,2.128,0,1,0-4.255,0v7.054A2.127,2.127,0,0,0,246.4,191.4Z" transform="translate(-198.639 -132.959)"/></g></g></svg>