<svg xmlns="http://www.w3.org/2000/svg" viewBox="-720.172 6180 137.08 137.08"><defs><style>.a{fill:none;stroke:#000;stroke-width:4px;}</style></defs><g transform="translate(-2096 -1.836)"><path class="a" d="M0,74.2V62.632l10.02-5.791,10.02,5.791V74.2l-10.02,5.782Zm48.973,3.085L4.4,32.563H35.453c6.152,0,5.614-5.773,5.614-5.773v-4.16c0-4.468-4.618-7.085-7.544-7.085H15.2L.793,0H33.074C43.843,0,52,4.451,56.163,10.3s4.16,13.245,2.617,20.63C55.855,45.411,41.9,46.645,41.9,46.645L72.22,77.287Z" transform="translate(1414.208 6210.8)"/><ellipse class="a" cx="66.54" cy="66.54" rx="66.54" ry="66.54" transform="translate(1377.828 6183.836)"/></g></svg>