<svg xmlns="http://www.w3.org/2000/svg" viewBox="-1597 2142 44.6 38.8"><defs><style>.a{fill:#fff;}</style></defs><g transform="translate(-1597 2142)"><path class="a" d="M31.8,36.2a2.647,2.647,0,0,0-2.6-2.6H29v-.2a2.647,2.647,0,0,0-2.6-2.6H18a2.647,2.647,0,0,0-2.6,2.6v.2h-.2a2.647,2.647,0,0,0-2.6,2.6v1.6h-3v1H33.4v-1H31.8V36.2Zm-1,1.6H13.6V36.2a1.58,1.58,0,0,1,1.6-1.6h6.3v-1H16.4v-.2A1.58,1.58,0,0,1,18,31.8h8.4A1.58,1.58,0,0,1,28,33.4v.2H26.4v1h2.8a1.58,1.58,0,0,1,1.6,1.6v1.6Z"/><rect class="a" width="1.4" height="1" transform="translate(22.9 33.6)"/><rect class="a" width="1" height="16.8" transform="translate(23.1 13.8)"/><rect class="a" width="1" height="16.8" transform="translate(20.3 13.8)"/><path class="a" d="M43,24.5v-.9L37.7,12.2h.6a2.6,2.6,0,0,0,0-5.2,6.882,6.882,0,0,0-1.3.2,6.87,6.87,0,0,1-5.5-.8c-3.9-2.2-6.8-3.1-9.4-.8-2.6-2.3-5.5-1.4-9.4.8a6.87,6.87,0,0,1-5.5.8A3.6,3.6,0,0,0,6.1,7,2.647,2.647,0,0,0,3.5,9.6a2.582,2.582,0,0,0,2.6,2.6L1.4,23.4v1.1H0v2l.1.1a8.833,8.833,0,0,0,7.8,4.5,8.833,8.833,0,0,0,7.8-4.5l.1-.1v-2H14.4v-.9L8.8,11.9c.4-.1,1-.2,1.6-.4.3-.1.6-.2,1-.3a17.845,17.845,0,0,1,5.2-1.1,5.618,5.618,0,0,1,2.6,1,6.046,6.046,0,0,0,3,1.1,6.046,6.046,0,0,0,3-1.1,4.9,4.9,0,0,1,2.6-1A18.564,18.564,0,0,1,33,11.2c.4.1.7.2,1,.3.4.1.7.2,1,.3L30.2,23.5v1.1H28.8v2l.1.1a9.01,9.01,0,0,0,15.6,0l.1-.1v-2H43ZM14.7,26.3a7.94,7.94,0,0,1-6.9,3.8A7.94,7.94,0,0,1,.9,26.3v-.8H14.6v.8Zm-1.4-2.6v.8H2.4v-.8L7.2,12.2a1.952,1.952,0,0,0,.7-.1Zm20-13.5a19.187,19.187,0,0,0-5.5-1.1,6.413,6.413,0,0,0-3.1,1.1,4.911,4.911,0,0,1-2.5,1,4.911,4.911,0,0,1-2.5-1,5.54,5.54,0,0,0-3.1-1.1,24.38,24.38,0,0,0-5.5,1.1c-.4.1-.7.2-1,.3a12.389,12.389,0,0,1-4.1.7A1.58,1.58,0,0,1,4.4,9.6,1.735,1.735,0,0,1,6.1,8a5.16,5.16,0,0,1,1.1.2,7.851,7.851,0,0,0,6.2-.9c4.4-2.5,6.5-2.7,8.5-.7l.3.4.4-.4c2-2,4.1-1.9,8.5.7a7.824,7.824,0,0,0,6.2.9,4.4,4.4,0,0,1,1-.2,1.6,1.6,0,0,1,0,3.2,13.19,13.19,0,0,1-4.1-.7A9.2,9.2,0,0,1,33.3,10.2ZM31.1,23.7,36,12c.2,0,.4.1.6.1L42,23.7v.8H31.1Zm12.3,2.6a8.164,8.164,0,0,1-13.8,0v-.8H43.3v.8Z"/><path class="a" d="M22.2,1a1.685,1.685,0,0,1,1.7,1.7h1A2.628,2.628,0,0,0,22.2,0a2.689,2.689,0,0,0-2.7,2.7h1A1.752,1.752,0,0,1,22.2,1Z"/><rect class="a" width="1.4" height="1" transform="translate(6.8 37.8)"/><rect class="a" width="1.4" height="1" transform="translate(34.8 37.8)"/><rect class="a" width="1.4" height="1" transform="translate(37.6 37.8)"/></g></svg>