<svg xmlns="http://www.w3.org/2000/svg" viewBox="232.9 1016.907 14.195 17.693"><defs><style>.a{fill:#ba374a;stroke:#ba374a;stroke-width:0.2px;}</style></defs><path class="a" d="M-4028.542,17.493V16.035H-4030V0h12.537V4.252L-4016,5.71V17.493Zm.583-1.458v.875h11.37V6.123h-4.081V2.041h-7.289Zm-1.458-.583h.875V1.458h8.283l2.213,2.212V.583h-11.371Zm9.331-9.914H-4017l-.462-.462-2.624-2.623Zm-5.831,9.33a.292.292,0,0,1-.293-.291.292.292,0,0,1,.293-.291h7.288a.29.29,0,0,1,.291.291.29.29,0,0,1-.291.291Zm0-2.332a.292.292,0,0,1-.293-.291.292.292,0,0,1,.293-.291h7.288a.29.29,0,0,1,.291.291.291.291,0,0,1-.291.291Zm0-2.333a.292.292,0,0,1-.293-.291.292.292,0,0,1,.293-.291h7.288a.291.291,0,0,1,.291.291.29.29,0,0,1-.291.291Zm0-2.332a.292.292,0,0,1-.293-.291.292.292,0,0,1,.293-.291h7.288a.29.29,0,0,1,.291.291.291.291,0,0,1-.291.291Zm0-2.333a.292.292,0,0,1-.293-.291.292.292,0,0,1,.293-.291H-4023a.292.292,0,0,1,.292.291.291.291,0,0,1-.292.291Z" transform="translate(4263 1017.007)"/></svg>