<svg xmlns="http://www.w3.org/2000/svg" viewBox="-1003.7 2141.7 42.3 37.7"><defs><style>.a{fill:#fff;}</style></defs><g transform="translate(-1006 1965)"><path class="a" d="M43.9,209l.3-.6v-.1c.1-.2.1-.4.2-.6v-.2c0-.2.1-.5.1-.7v-9.3a3.159,3.159,0,0,0-3.2-3.2H39.4a2.2,2.2,0,0,0-1.5.6l-2.5,2.6-2.6-4H30v-2.7c0-2.8-4.5-4.2-7-4.2s-7,1.4-7,4.2v2.7H14l-2.6,4-2.5-2.6a2.035,2.035,0,0,0-1.5-.6H5.5a3.159,3.159,0,0,0-3.2,3.2v9.3a1.7,1.7,0,0,0,.1.7v.2a1.421,1.421,0,0,0,.2.6v.1l.3.6a.1.1,0,0,0,.1.1,2.652,2.652,0,0,0,.5.6l-1.1,1.8v2.9H44.6v-2.9l-1.1-1.8a1.612,1.612,0,0,1,.4-.7ZM17.1,190.9c0-2,3.9-3.2,6-3.2s6,1.2,6,3.2v2.7h-12Zm26.4,22.5H3.3v-1.6l.9-1.5c.1,0,.1.1.2.1l.5-.9c-.1,0-.1-.1-.2-.1l3.7-6-.8-.5L4,208.7l-.2-.2c-.1-.1-.1-.2-.2-.3s-.1-.3-.2-.5a.349.349,0,0,0-.1-.2,1.7,1.7,0,0,1-.1-.7v-9.3a2.22,2.22,0,0,1,2.2-2.2H7.3a.908.908,0,0,1,.7.3l4.1,4.3h4.1a2.436,2.436,0,0,1-.5,1.5,1.755,1.755,0,0,1-1.5.6H10l-3.6-3.7-.6.7,3.9,4h4.6a3.013,3.013,0,0,0,2.3-.9,4.222,4.222,0,0,0,.8-2.7l-.1-.4H12.6l-.6-.6,2.5-3.7H32.3l2.5,3.7-.6.6H29.5l-.1.4a3.645,3.645,0,0,0,.8,2.7,2.869,2.869,0,0,0,2.3.9h4.6l3.9-4-.7-.7L36.7,202H32.5a1.755,1.755,0,0,1-1.5-.6,2.26,2.26,0,0,1-.5-1.5h4.1l4.1-4.3a1.08,1.08,0,0,1,.7-.3h1.9a2.22,2.22,0,0,1,2.2,2.2v9.3a1.483,1.483,0,0,1-.1.7.349.349,0,0,1-.1.2c-.1.2-.1.3-.2.4s-.1.2-.2.3l-.2.2-3.6-5.8-.8.5,3.7,6c-.1,0-.1.1-.2.1l.5.9c.1,0,.1-.1.2-.1l.9,1.5v1.7Z"/><path class="a" d="M39.4,193a3.7,3.7,0,0,0,3.6-3.8v-1.1a3.605,3.605,0,1,0-7.2,0v1.1A3.832,3.832,0,0,0,39.4,193Zm-2.5-4.9a2.607,2.607,0,1,1,5.2,0v1.1a2.607,2.607,0,1,1-5.2,0Z"/><path class="a" d="M7.4,193a3.7,3.7,0,0,0,3.6-3.8v-1.1a3.7,3.7,0,0,0-3.6-3.8,3.7,3.7,0,0,0-3.6,3.8v1.1A3.7,3.7,0,0,0,7.4,193Zm-2.6-4.9a2.693,2.693,0,0,1,2.6-2.8,2.633,2.633,0,0,1,2.6,2.8v1.1A2.693,2.693,0,0,1,7.4,192a2.633,2.633,0,0,1-2.6-2.8Z"/><path class="a" d="M23.4,185.4a3.7,3.7,0,0,0,3.6-3.8v-1.1a3.605,3.605,0,1,0-7.2,0v1.1A3.832,3.832,0,0,0,23.4,185.4Zm-2.5-4.9a2.607,2.607,0,1,1,5.2,0v1.1a2.607,2.607,0,1,1-5.2,0Z"/></g></svg>