<svg xmlns="http://www.w3.org/2000/svg" viewBox="-1173 1302 82.993 80"><defs><style>.a{fill:#ba374a;}</style></defs><path class="a" d="M2131,79.842a1.315,1.315,0,0,1-1.2-1.334,1.268,1.268,0,0,1,1.334-1.2c.65.034,1.689.148,2.454.148A37.4,37.4,0,0,0,2170.452,40a37.354,37.354,0,0,0-74.619-2.645l1-1.008a1.271,1.271,0,0,1,1.8,1.794l-3.234,3.242a1.267,1.267,0,0,1-1.8,0l-3.234-3.242a1.27,1.27,0,0,1,1.8-1.794l1.112,1.114A39.941,39.941,0,0,1,2133.1,0h0a39.949,39.949,0,0,1,39.9,40,39.947,39.947,0,0,1-39.9,40A19.011,19.011,0,0,1,2131,79.842Zm-5.206-.609c-.686-.127-1.377-.272-2.054-.434a1.27,1.27,0,0,1,.591-2.471c.634.152,1.281.289,1.922.407a1.27,1.27,0,0,1-.228,2.519A1.311,1.311,0,0,1,2125.795,79.233Zm-7.065-1.988c-.65-.25-1.3-.521-1.942-.805a1.27,1.27,0,0,1,1.034-2.32c.6.266,1.209.52,1.818.753a1.27,1.27,0,1,1-.91,2.372Zm-6.582-3.252c-.594-.365-1.185-.75-1.76-1.145a1.27,1.27,0,0,1,1.441-2.092c.539.371,1.093.732,1.649,1.073a1.27,1.27,0,1,1-1.33,2.164ZM2100.549,40A32.627,32.627,0,0,1,2133.1,7.368a1.27,1.27,0,1,1,0,2.541,30.091,30.091,0,1,0,30,30.779l-1.123,1.127a1.27,1.27,0,1,1-1.8-1.794l3.234-3.242a1.27,1.27,0,0,1,1.8,0l3.234,3.242a1.27,1.27,0,0,1-1.8,1.794l-1.006-1.008A32.546,32.546,0,0,1,2100.549,40Zm5.725,29.6c-.517-.467-1.029-.953-1.52-1.446a1.27,1.27,0,1,1,1.8-1.794c.46.461.94.916,1.424,1.354a1.27,1.27,0,0,1-1.7,1.887ZM2108.01,40a25.087,25.087,0,1,1,50.175,0,25.5,25.5,0,0,1-.362,4.278,1.271,1.271,0,1,1-2.5-.428,22.725,22.725,0,0,0,.289-2.58h-4.13a33.1,33.1,0,0,1-1.405,8.492q1.417.529,2.781,1.145a23.107,23.107,0,0,0,1.078-2.248,1.27,1.27,0,1,1,2.347.971,25.021,25.021,0,0,1-22.684,15.51c-.166.006-.331.009-.5.009A25.147,25.147,0,0,1,2108.01,40Zm26.358,17.445v4.7c1.2-.852,2.4-2.843,3.388-5.677a39.865,39.865,0,0,0,1.626-6.744,47.978,47.978,0,0,0-5.014-.395v3.034a1.271,1.271,0,0,1-2.541,0V49.33a48.012,48.012,0,0,0-5.015.395,39.769,39.769,0,0,0,1.627,6.744c.983,2.836,2.188,4.827,3.388,5.677v-4.7a1.271,1.271,0,0,1,2.541,0Zm3.96,3.9c3.593-1.794,6.6-5.382,8.489-10.008a45.1,45.1,0,0,0-4.941-1.215A32.839,32.839,0,0,1,2138.328,61.345Zm-18.951-10.008c1.888,4.625,4.895,8.213,8.488,10.008a32.824,32.824,0,0,1-3.547-11.223A45.036,45.036,0,0,0,2119.377,51.337Zm26.866,6.289q-.608.847-1.264,1.6a22.488,22.488,0,0,0,6.517-6.146q-1.116-.5-2.271-.928A26.2,26.2,0,0,1,2146.243,57.627Zm-31.529-4.549a22.74,22.74,0,0,0,6.455,6.1q-.631-.734-1.22-1.551a26.225,26.225,0,0,1-2.98-5.47Q2115.822,52.586,2114.714,53.078Zm-1.364-2.174q1.358-.615,2.771-1.141a33.025,33.025,0,0,1-1.405-8.492h-4.13A22.5,22.5,0,0,0,2113.351,50.9Zm28.869-3.3a47.266,47.266,0,0,1,5.445,1.337,30.589,30.589,0,0,0,1.269-7.671h-.669a1.27,1.27,0,1,1,0-2.54h.669a30.64,30.64,0,0,0-1.268-7.671,47.331,47.331,0,0,1-5.446,1.337c.239,2.072.38,4.207.421,6.334h.713a1.27,1.27,0,1,1,0,2.541h-.713C2142.6,43.4,2142.458,45.532,2142.219,47.6Zm-23.691,1.337a47.34,47.34,0,0,1,5.445-1.337c-.239-2.072-.38-4.207-.42-6.333h-6.294A30.606,30.606,0,0,0,2118.528,48.941Zm15.839-2.15a50.255,50.255,0,0,1,5.353.418c.213-1.9.341-3.895.379-5.938h-5.732Zm-7.894.418a50.225,50.225,0,0,1,5.353-.418V41.27h-5.732C2126.131,43.314,2126.26,45.305,2126.473,47.208Zm23.6-16.971a33.086,33.086,0,0,1,1.405,8.492h4.13a22.492,22.492,0,0,0-2.765-9.633C2151.938,29.506,2151.012,29.886,2150.072,30.237Zm-15.7,2.973v5.52h5.732c-.038-2.044-.167-4.035-.379-5.938A50.481,50.481,0,0,1,2134.367,33.21Zm-8.273,5.52h5.732V33.21a50.41,50.41,0,0,1-5.351-.418C2126.261,34.707,2126.133,36.7,2126.094,38.73Zm-8.835,0h6.294c.04-2.162.178-4.292.411-6.336a47.523,47.523,0,0,1-5.436-1.334A30.593,30.593,0,0,0,2117.259,38.73Zm-6.673,0h4.13a33.012,33.012,0,0,1,1.405-8.492q-1.412-.527-2.771-1.141A22.5,22.5,0,0,0,2110.586,38.73Zm23.781-8.061a47.979,47.979,0,0,0,5.014-.395,39.885,39.885,0,0,0-1.626-6.744c-.983-2.835-2.189-4.826-3.388-5.677Zm-8.14-4.109a1.271,1.271,0,0,1,.988,1.5c-.148.718-.282,1.457-.4,2.213a47.938,47.938,0,0,0,5.012.395V17.857c-1.145.816-2.3,2.673-3.255,5.3a1.271,1.271,0,1,1-2.388-.868,21.17,21.17,0,0,1,1.68-3.634c-3.592,1.794-6.6,5.382-8.485,10.006a44.783,44.783,0,0,0,4.927,1.213c.126-.795.266-1.572.422-2.326a1.269,1.269,0,0,1,1.5-.988Zm15.648,3.317a44.7,44.7,0,0,0,4.941-1.215c-1.889-4.625-4.9-8.213-8.489-10.008A32.846,32.846,0,0,1,2141.875,29.877Zm4.368-7.5a26.189,26.189,0,0,1,2.981,5.469q1.147-.428,2.255-.921a22.752,22.752,0,0,0-6.455-6.1Q2145.656,21.555,2146.243,22.373Zm-31.529,4.548q1.108.491,2.255.921a26.155,26.155,0,0,1,2.981-5.469q.587-.818,1.219-1.552A22.752,22.752,0,0,0,2114.714,26.922ZM2101.3,64.207c-.424-.553-.838-1.125-1.231-1.7a1.27,1.27,0,1,1,2.094-1.438c.369.537.757,1.072,1.154,1.59a1.271,1.271,0,0,1-2.017,1.545Zm-3.907-6.2c-.315-.618-.616-1.255-.9-1.893a1.27,1.27,0,1,1,2.322-1.03c.265.6.548,1.194.842,1.773a1.269,1.269,0,0,1-.558,1.707,1.256,1.256,0,0,1-.574.138A1.27,1.27,0,0,1,2097.392,58Zm-2.7-6.819c-.2-.669-.376-1.351-.535-2.03a1.27,1.27,0,1,1,2.473-.582c.15.634.318,1.273.5,1.9a1.27,1.27,0,0,1-.863,1.576,1.256,1.256,0,0,1-.357.052A1.271,1.271,0,0,1,2094.69,51.184Zm67.943-16.947c-.122-.628-.267-1.259-.429-1.875a1.27,1.27,0,0,1,2.457-.646c.176.669.333,1.353.466,2.036a1.27,1.27,0,0,1-1,1.489,1.246,1.246,0,0,1-.245.024A1.271,1.271,0,0,1,2162.633,34.237Zm-2.024-6.409c-.259-.583-.542-1.165-.839-1.731a1.27,1.27,0,1,1,2.249-1.182c.323.614.629,1.246.91,1.879a1.27,1.27,0,1,1-2.32,1.033Zm-3.41-5.795c-.383-.51-.788-1.015-1.2-1.5a1.271,1.271,0,0,1,1.931-1.652c.451.527.89,1.075,1.306,1.629a1.27,1.27,0,1,1-2.032,1.525Zm-4.612-4.9c-.487-.414-.994-.817-1.507-1.2A1.27,1.27,0,1,1,2152.6,13.9c.556.415,1.106.852,1.634,1.3a1.27,1.27,0,0,1-1.645,1.937Zm-5.582-3.754c-.567-.3-1.151-.577-1.736-.834a1.271,1.271,0,0,1,1.028-2.325c.633.28,1.267.585,1.882.9a1.271,1.271,0,1,1-1.174,2.254Zm-6.275-2.418c-.619-.161-1.251-.3-1.878-.426a1.27,1.27,0,0,1,.483-2.494c.68.132,1.365.287,2.036.462a1.27,1.27,0,0,1-.32,2.5A1.244,1.244,0,0,1,2140.732,10.967Z" transform="translate(-3263 1302)"/></svg>