<svg xmlns="http://www.w3.org/2000/svg" viewBox="-1700 6187 139.676 129"><g transform="translate(-1700 6187)"><path d="M56.328,21.293A2.327,2.327,0,0,0,54,23.621v2.328a2.328,2.328,0,0,0,4.656,0V23.621A2.327,2.327,0,0,0,56.328,21.293Z" transform="translate(71.709 22.938)"/><path d="M56.328,13.127A2.327,2.327,0,0,0,54,15.455v5.431a2.328,2.328,0,0,0,4.656,0V15.455A2.327,2.327,0,0,0,56.328,13.127Z" transform="translate(71.709 12.094)"/><path d="M55.328,10.949a2.328,2.328,0,1,0,4.656,0V6.293H55.328a2.328,2.328,0,1,0,0,4.656Z" transform="translate(70.381 3.019)"/><path d="M19.583,10.949h4.754a2.328,2.328,0,0,0,0-4.656H19.583a2.328,2.328,0,1,0,0,4.656Z" transform="translate(22.914 3.019)"/><path d="M26.732,10.949h4.754a2.328,2.328,0,0,0,0-4.656H26.732a2.328,2.328,0,1,0,0,4.656Z" transform="translate(32.407 3.019)"/><path d="M33.881,10.949h4.754a2.328,2.328,0,1,0,0-4.656H33.881a2.328,2.328,0,0,0,0,4.656Z" transform="translate(41.9 3.019)"/><path d="M48.179,10.949h4.754a2.328,2.328,0,1,0,0-4.656H48.179a2.328,2.328,0,0,0,0,4.656Z" transform="translate(60.887 3.019)"/><path d="M41.03,10.949h4.754a2.328,2.328,0,1,0,0-4.656H41.03a2.328,2.328,0,1,0,0,4.656Z" transform="translate(51.394 3.019)"/><path d="M12.434,10.949h4.754a2.328,2.328,0,1,0,0-4.656H12.434a2.328,2.328,0,1,0,0,4.656Z" transform="translate(13.42 3.019)"/><path d="M6.328,13.277a2.327,2.327,0,0,0,2.328-2.328,2.328,2.328,0,1,0,0-4.656H4v4.656A2.327,2.327,0,0,0,6.328,13.277Z" transform="translate(5.312 3.019)"/><path d="M6.328,21.9A2.327,2.327,0,0,0,8.656,19.57v-4.8a2.328,2.328,0,1,0-4.656,0v4.8A2.327,2.327,0,0,0,6.328,21.9Z" transform="translate(5.312 11.187)"/><path d="M6.328,43.535a2.327,2.327,0,0,0,2.328-2.328v-4.8a2.328,2.328,0,1,0-4.656,0v4.8A2.329,2.329,0,0,0,6.328,43.535Z" transform="translate(5.312 39.92)"/><path d="M6.328,29.11a2.327,2.327,0,0,0,2.328-2.328v-4.8a2.328,2.328,0,1,0-4.656,0v4.8A2.327,2.327,0,0,0,6.328,29.11Z" transform="translate(5.312 20.764)"/><path d="M6.328,36.322a2.327,2.327,0,0,0,2.328-2.328V29.2A2.328,2.328,0,1,0,4,29.2v4.8A2.329,2.329,0,0,0,6.328,36.322Z" transform="translate(5.312 30.341)"/><path d="M10.984,45.949a2.327,2.327,0,0,0-2.328-2.328,2.328,2.328,0,1,0-4.656,0v4.656H8.656A2.327,2.327,0,0,0,10.984,45.949Z" transform="translate(5.312 49.497)"/><path d="M30.984,42.293H26.328a2.328,2.328,0,1,0,0,4.656h4.656a2.328,2.328,0,1,0,0-4.656Z" transform="translate(31.871 50.825)"/><path d="M12.328,46.949h4.656a2.328,2.328,0,1,0,0-4.656H12.328a2.328,2.328,0,1,0,0,4.656Z" transform="translate(13.279 50.825)"/><path d="M23.984,42.293H19.328a2.328,2.328,0,1,0,0,4.656h4.656a2.328,2.328,0,1,0,0-4.656Z" transform="translate(22.575 50.825)"/><path d="M35.656,42.293H33.328a2.328,2.328,0,1,0,0,4.656h2.328a2.328,2.328,0,0,0,0-4.656Z" transform="translate(41.166 50.825)"/><path d="M139.676,2.293H0V109.378H88.462v21.915l16.3-16.3,16.3,16.3V109.378h18.624ZM116.4,120.054l-11.64-11.64-11.64,11.64V94.6c.028.016.061.028.088.044a23.1,23.1,0,0,0,23.1,0c.028-.016.061-.026.088-.044v25.456Zm.682-31.669c-.365.324-.74.629-1.127.92-.074.056-.147.112-.223.168q-.576.423-1.178.8l-.275.168c-.391.235-.791.456-1.2.659-.116.058-.235.114-.352.17-.391.186-.785.361-1.187.519-.154.061-.31.114-.466.17-.375.137-.754.268-1.138.379-.207.061-.417.109-.626.161-.345.088-.689.175-1.038.242-.3.058-.6.1-.9.137-.275.04-.547.088-.826.114-.589.056-1.187.091-1.79.091s-1.2-.035-1.79-.091c-.277-.028-.549-.074-.826-.114-.3-.042-.6-.081-.9-.137-.349-.068-.694-.156-1.038-.242-.21-.054-.419-.1-.626-.161-.384-.112-.761-.242-1.138-.379-.156-.056-.312-.109-.466-.17-.4-.158-.8-.333-1.187-.519-.119-.056-.235-.112-.352-.17-.407-.2-.805-.426-1.2-.659-.093-.056-.184-.109-.275-.168q-.6-.374-1.178-.8c-.075-.056-.149-.109-.223-.168-.384-.291-.761-.6-1.127-.92a18.626,18.626,0,1,1,24.648,0Zm17.941,16.337H121.053V91.055a23.279,23.279,0,1,0-32.591,0v13.667H4.656V6.949H135.021Z" transform="translate(0 -2.293)"/><path d="M13.752,20.073a8,8,0,0,0-1.848,6.06,8.495,8.495,0,0,0,3.22,5.8l5.189,4.037V48.627a6.974,6.974,0,0,1-4.656-6.555,2.328,2.328,0,0,0-4.656,0,11.662,11.662,0,0,0,9.312,11.4V55.52a2.328,2.328,0,0,0,4.656,0V53.467a11.619,11.619,0,0,0,6.562-3.883,8.018,8.018,0,0,0,1.846-6.064,8.489,8.489,0,0,0-3.22-5.792l-5.189-4.034V21.034a6.974,6.974,0,0,1,4.656,6.555,2.328,2.328,0,1,0,4.656,0,11.662,11.662,0,0,0-9.312-11.4V13.622a2.328,2.328,0,1,0-4.656,0v2.57A11.6,11.6,0,0,0,13.752,20.073ZM27.3,41.4a3.822,3.822,0,0,1,1.448,2.6,3.391,3.391,0,0,1-.771,2.572,6.955,6.955,0,0,1-3.008,2.037V39.588ZM17.981,28.258a3.823,3.823,0,0,1-1.448-2.607,3.4,3.4,0,0,1,.771-2.57,6.955,6.955,0,0,1,3.008-2.037v9.025Z" transform="translate(14.607 9.66)"/><path d="M26.328,19.949H79.871a2.328,2.328,0,0,0,0-4.656H26.328a2.328,2.328,0,1,0,0,4.656Z" transform="translate(31.871 14.97)"/><path d="M26.328,25.949H51.935a2.328,2.328,0,1,0,0-4.656H26.328a2.328,2.328,0,0,0,0,4.656Z" transform="translate(31.871 22.938)"/><path d="M26.328,31.949H44.951a2.328,2.328,0,1,0,0-4.656H26.328a2.328,2.328,0,1,0,0,4.656Z" transform="translate(31.871 30.906)"/><path d="M12.328,38.949H61.215a2.328,2.328,0,0,0,0-4.656H12.328a2.328,2.328,0,0,0,0,4.656Z" transform="translate(13.279 40.201)"/></g></svg>