<svg xmlns="http://www.w3.org/2000/svg" viewBox="-1492 1302 80.045 80"><defs><style>.a{fill:#ba374a;}</style></defs><path class="a" d="M12.062,68.627l-.229-.229.049,4.477a1.5,1.5,0,0,1-1.471,1.5H10.4a1.489,1.489,0,0,1-1.487-1.471l-.1-8.057a1.5,1.5,0,0,1,1.471-1.5l8.056-.114h.016a1.487,1.487,0,0,1,.016,2.974l-4.477.049.229.229A37.058,37.058,0,0,0,74.9,27.445a1.483,1.483,0,1,1,2.794-1A40.031,40.031,0,0,1,12.062,68.627Zm15.459-9.511a3.863,3.863,0,0,1-3.856-3.857V38.786a3.863,3.863,0,0,1,3.856-3.857h.524V28.948a11.97,11.97,0,0,1,23.94-.016v6h.524a3.863,3.863,0,0,1,3.856,3.857V55.258a3.863,3.863,0,0,1-3.856,3.857Zm-.866-20.329V55.258a.879.879,0,0,0,.882.883H52.524a.879.879,0,0,0,.883-.883V38.786a.89.89,0,0,0-.883-.883H27.537A.879.879,0,0,0,26.655,38.786Zm4.363-9.854v6H49.027v-6a9,9,0,0,0-18.009,0ZM2.355,53.559A40.026,40.026,0,0,1,67.983,11.381l.229.229-.049-4.477a1.5,1.5,0,0,1,1.471-1.5,1.482,1.482,0,0,1,1.5,1.471l.1,8.056a1.469,1.469,0,0,1-.424,1.046,1.488,1.488,0,0,1-1.046.441l-8.056.1h-.016a1.487,1.487,0,0,1-.016-2.974l4.478-.049-.229-.229A37.055,37.055,0,0,0,5.166,52.546a1.486,1.486,0,0,1-.9,1.9,1.816,1.816,0,0,1-.507.082A1.519,1.519,0,0,1,2.355,53.559Zm36.442-2.6V47.724a.554.554,0,0,0-.245-.506,2.443,2.443,0,0,1-.817-3.023,2.52,2.52,0,0,1,4.82.964,2.386,2.386,0,0,1-1.013,2.011.568.568,0,0,0-.261.539v3.235a1.168,1.168,0,0,1-.605,1.095,1.407,1.407,0,0,1-.648.165A1.234,1.234,0,0,1,38.8,50.961Z" transform="translate(-1492 1302)"/></svg>