<svg xmlns="http://www.w3.org/2000/svg" viewBox="-1059 6182 134 134.001"><g transform="translate(-1059 6182)"><g transform="translate(0 58.744)"><path d="M45.518,277.467,37.7,273.559a33.971,33.971,0,0,0,10.157-4.571A4.03,4.03,0,0,0,49.3,264.12,53.14,53.14,0,0,1,45.887,245.5a21.15,21.15,0,0,0-18.88-20.956,21.53,21.53,0,0,0-3.931,0A21.15,21.15,0,0,0,4.2,245.5,53.146,53.146,0,0,1,.788,264.12a4.03,4.03,0,0,0,1.437,4.867,33.964,33.964,0,0,0,10.157,4.571l-7.817,3.909A8.212,8.212,0,0,0,0,284.853v12.894a1.963,1.963,0,1,0,3.926,0V284.853a4.308,4.308,0,0,1,2.394-3.874l6.2-3.1a14.552,14.552,0,0,0,25.049,0l6.2,3.1a4.307,4.307,0,0,1,2.394,3.874v12.894a1.963,1.963,0,1,0,3.926,0V284.853A8.212,8.212,0,0,0,45.518,277.467ZM25.042,281.1a10.667,10.667,0,0,1-9-4.981l1.262-.631a6.126,6.126,0,0,0,3.4-5.509v-2.312a16.577,16.577,0,0,0,8.662,0v2.314a6.126,6.126,0,0,0,3.4,5.509l1.267.634A10.608,10.608,0,0,1,25.042,281.1Zm8.339-10.52a2.248,2.248,0,0,1-.082-.6V266.04a16.669,16.669,0,0,0,6.227-6.234,12.163,12.163,0,0,0-2.366-14.871c-2.891-2.644-8.069-5.8-16.314-5.8a1.964,1.964,0,0,0-1.388.575l-4.2,4.2a1.963,1.963,0,0,0,2.776,2.776l3.61-3.61c5.245.147,9.569,1.745,12.862,4.757a8.208,8.208,0,0,1,1.6,10.034,12.725,12.725,0,0,1-23.794-6.275,1.963,1.963,0,0,0-3.926,0,16.656,16.656,0,0,0,8.392,14.448v3.939a2.259,2.259,0,0,1-.082.6c-6.619-1.371-10.493-3.591-12.225-4.8a.126.126,0,0,1-.064-.148,57.392,57.392,0,0,0,3.708-20.11,17.192,17.192,0,0,1,15.313-17.063,17.563,17.563,0,0,1,3.213,0,17.192,17.192,0,0,1,15.313,17.063,57.391,57.391,0,0,0,3.708,20.11.126.126,0,0,1-.063.148C43.873,266.987,40,269.206,33.38,270.577Z" transform="translate(-0.001 -224.452)"/></g><g transform="translate(8.392 121.683)"><path d="M34.028,464.936a1.963,1.963,0,0,0-1.963,1.963v8.392a1.963,1.963,0,1,0,3.926,0V466.9A1.962,1.962,0,0,0,34.028,464.936Z" transform="translate(-32.065 -464.936)"/></g><g transform="translate(37.764 121.683)"><path d="M146.254,464.936a1.963,1.963,0,0,0-1.963,1.963v8.392a1.963,1.963,0,1,0,3.926,0V466.9A1.962,1.962,0,0,0,146.254,464.936Z" transform="translate(-144.291 -464.936)"/></g><g transform="translate(96.507 72.841)"><path d="M388.578,281.333c-.285-.19-7.1-4.621-18.258-2.389a1.962,1.962,0,0,0-1.578,1.925v2.1a1.963,1.963,0,1,0,3.926,0v-.444a24.455,24.455,0,0,1,9.668.454,15.371,15.371,0,0,1,4.072,1.628,1.963,1.963,0,0,0,2.17-3.272Z" transform="translate(-368.743 -278.317)"/></g><g transform="translate(79.723 60.841)"><path d="M353.533,281.412l-9.977-3.742a2.243,2.243,0,0,1-1.449-2.091v-5.033q.641-.511,1.238-1.09a16.517,16.517,0,0,0,5.055-11.949v-3.733l.562-1.124a14.625,14.625,0,0,0,1.536-6.507V234.43a1.963,1.963,0,0,0-1.963-1.963H326.674a13.686,13.686,0,0,0-13.669,13.677,14.623,14.623,0,0,0,1.536,6.507l.562,1.124v3.117a17.55,17.55,0,0,0,6.294,13.466v5.222a2.243,2.243,0,0,1-1.449,2.091l-9.977,3.742a8.3,8.3,0,0,0-5.358,7.731v14.52a1.963,1.963,0,0,0,3.926,0v-14.52a4.351,4.351,0,0,1,2.81-4.055l9.977-3.741a6.1,6.1,0,0,0,1.488-.815l6.975,5.231v17.9a1.963,1.963,0,0,0,3.926,0v-17.9l6.975-5.231a6.08,6.08,0,0,0,1.488.815l9.978,3.741a4.351,4.351,0,0,1,2.81,4.055v14.52a1.963,1.963,0,0,0,3.926,0v-14.52A8.294,8.294,0,0,0,353.533,281.412Zm-21.781.916-6.685-5.013a6.091,6.091,0,0,0,.256-1.734V272.8a15.811,15.811,0,0,0,5.919,1.351c.173.005.345.008.517.008a16.591,16.591,0,0,0,6.423-1.284v2.707a6.09,6.09,0,0,0,.256,1.734Zm8.859-15.689a12.63,12.63,0,0,1-9.253,3.586c-6.8-.2-12.33-6.185-12.33-13.333v-3.58a1.961,1.961,0,0,0-.207-.878l-.769-1.538a10.685,10.685,0,0,1-1.122-4.759,9.755,9.755,0,0,1,9.744-9.744h19.9v9.751a10.677,10.677,0,0,1-1.122,4.751l-.769,1.538a1.963,1.963,0,0,0-.207.878v4.2A12.622,12.622,0,0,1,340.611,266.639Z" transform="translate(-304.613 -232.467)"/></g><g transform="translate(90.213 119.585)"><path d="M346.657,456.919a1.963,1.963,0,0,0-1.963,1.963v10.49a1.963,1.963,0,0,0,3.926,0v-10.49A1.963,1.963,0,0,0,346.657,456.919Z" transform="translate(-344.694 -456.919)"/></g><g transform="translate(119.585 119.585)"><path d="M458.883,456.919a1.963,1.963,0,0,0-1.963,1.963v10.49a1.963,1.963,0,0,0,3.926,0v-10.49A1.963,1.963,0,0,0,458.883,456.919Z" transform="translate(-456.92 -456.919)"/></g><g transform="translate(20.98)"><path d="M155.554,8.392h-.135V8.257A8.266,8.266,0,0,0,147.162,0H88.419a8.266,8.266,0,0,0-8.257,8.257V41.824a8.266,8.266,0,0,0,8.257,8.257h8.527v.135a8.266,8.266,0,0,0,8.257,8.257h1.682l-.788,3.152a3.007,3.007,0,0,0,4.694,3.166l8.688-6.318h1.915l16.373,10.915a3.012,3.012,0,0,0,4.642-3l-1.319-7.914h14.467a8.266,8.266,0,0,0,8.257-8.257V16.649A8.266,8.266,0,0,0,155.554,8.392ZM107.866,54.547H105.2a4.336,4.336,0,0,1-4.331-4.331v-.135h8.111Zm2.649,5.59L113.4,48.595a1.963,1.963,0,0,0-1.9-2.439H88.419a4.336,4.336,0,0,1-4.331-4.331V8.257a4.336,4.336,0,0,1,4.331-4.331h58.743a4.336,4.336,0,0,1,4.331,4.331V41.824a4.336,4.336,0,0,1-4.331,4.331H130.378a1.962,1.962,0,0,0-1.154.376Zm49.37-9.921a4.336,4.336,0,0,1-4.331,4.331H138.77a1.962,1.962,0,0,0-1.936,2.286l1.353,8.119-14.409-9.606,7.238-5.264h16.145a8.266,8.266,0,0,0,8.257-8.257V12.318h.135a4.336,4.336,0,0,1,4.331,4.331V50.216Z" transform="translate(-80.162)"/></g><g transform="translate(35.666 12.588)"><path d="M144.531,48.1h-6.293a1.963,1.963,0,0,0,0,3.926h6.293a1.963,1.963,0,0,0,0-3.926Z" transform="translate(-136.275 -48.097)"/></g><g transform="translate(50.352 12.588)"><path d="M221.626,48.1H194.353a1.963,1.963,0,0,0,0,3.926h27.273a1.963,1.963,0,0,0,0-3.926Z" transform="translate(-192.39 -48.097)"/></g><g transform="translate(35.666 23.078)"><path d="M180.2,88.178H138.238a1.963,1.963,0,0,0,0,3.926H180.2a1.963,1.963,0,1,0,0-3.926Z" transform="translate(-136.275 -88.178)"/></g><g transform="translate(35.666 33.568)"><path d="M165.511,128.258H138.238a1.963,1.963,0,0,0,0,3.926h27.273a1.963,1.963,0,0,0,0-3.926Z" transform="translate(-136.275 -128.258)"/></g><g transform="translate(71.332 33.568)"><path d="M280.809,128.258h-6.293a1.963,1.963,0,1,0,0,3.926h6.293a1.963,1.963,0,0,0,0-3.926Z" transform="translate(-272.553 -128.258)"/></g></g></svg>