<svg xmlns="http://www.w3.org/2000/svg" viewBox="-1087 671.403 16.918 21.597"><defs><style>.a{fill:#fff;}</style></defs><path class="a" d="M4569,21.6V0h11.668l5.25,5.25V21.6Zm.72-.719H4585.2V5.759h-5.039V.72H4569.72ZM4580.878,5.04h3.811l-3.811-3.811Zm-1.08,11.518a.36.36,0,0,1,0-.72h2.52a.36.36,0,1,1,0,.72Zm-5.4,0a.36.36,0,0,1,0-.72h3.6a.36.36,0,1,1,0,.72Zm-2.054-.1a.357.357,0,0,1-.1-.256.365.365,0,0,1,.1-.256.372.372,0,0,1,.511,0,.357.357,0,0,1,.1.252.38.38,0,0,1-.1.256.371.371,0,0,1-.255.1A.382.382,0,0,1,4572.344,16.453Zm9.718-2.519a.383.383,0,0,1-.1-.256.36.36,0,1,1,.721,0,.383.383,0,0,1-.1.256.367.367,0,0,1-.511,0Zm-1.8,0a.376.376,0,0,1-.1-.256.371.371,0,0,1,.1-.256.359.359,0,0,1,.614.256.381.381,0,0,1-.1.256.372.372,0,0,1-.255.1A.355.355,0,0,1,4580.264,13.934Zm-7.664.1a.36.36,0,1,1,0-.719h6.119a.36.36,0,1,1,0,.719Zm7.2-2.519a.36.36,0,1,1,0-.719h2.52a.36.36,0,1,1,0,.719Zm-5.4,0a.36.36,0,0,1,0-.719h3.6a.36.36,0,1,1,0,.719Zm-2.054-.1a.378.378,0,0,1-.1-.256.374.374,0,0,1,.1-.256.361.361,0,0,1,.511.511.364.364,0,0,1-.511,0Zm9.718-2.519a.363.363,0,0,1,0-.511.376.376,0,0,1,.511,0,.363.363,0,0,1,0,.511.364.364,0,0,1-.511,0ZM4578,9a.36.36,0,1,1,0-.72h2.519a.36.36,0,1,1,0,.72Zm-2.056-.1a.365.365,0,1,1,.255.1A.379.379,0,0,1,4575.943,8.894ZM4572.6,9a.36.36,0,1,1,0-.72h1.8a.36.36,0,1,1,0,.72Zm0-2.88a.36.36,0,1,1,0-.72h3.24a.36.36,0,1,1,0,.72Z" transform="translate(-5656 671.403)"/></svg>