<svg xmlns="http://www.w3.org/2000/svg" viewBox="-1594 15251.371 66.657 66.658"><defs><style>.a{fill:#fff;}</style></defs><path class="a" d="M2154.7,65.681V58.458a2.165,2.165,0,0,0-1.4-2.018l-4.964-1.861a3.037,3.037,0,0,1-.74-.4l-3.47,2.6v8.9a.976.976,0,1,1-1.952,0v-8.9l-3.47-2.6a3.034,3.034,0,0,1-.74.4l-4.964,1.861a2.166,2.166,0,0,0-1.4,2.018v7.223a.976.976,0,1,1-1.952,0V58.458a4.124,4.124,0,0,1,2.665-3.846l4.962-1.862a1.116,1.116,0,0,0,.721-1.04v-2.6a8.731,8.731,0,0,1-3.131-6.7V40.865l-.28-.559a7.278,7.278,0,0,1-.764-3.237,6.807,6.807,0,0,1,6.8-6.8h10.874a.976.976,0,0,1,.977.976v5.828a7.281,7.281,0,0,1-.764,3.237l-.28.559v1.857a8.212,8.212,0,0,1-2.515,5.943c-.2.192-.4.373-.615.542v2.5a1.117,1.117,0,0,0,.721,1.04l4.963,1.861a4.123,4.123,0,0,1,2.665,3.846v7.223a.977.977,0,0,1-1.953,0Zm-14.745-13.97a3.02,3.02,0,0,1-.127.863l3.326,2.494,3.325-2.494a3.017,3.017,0,0,1-.127-.863V50.365a8.261,8.261,0,0,1-3.195.638c-.086,0-.171,0-.257,0a7.871,7.871,0,0,1-2.944-.672Zm-4.174-14.646a5.311,5.311,0,0,0,.558,2.367l.382.765a.976.976,0,0,1,.1.437v1.781a6.538,6.538,0,0,0,6.133,6.632,6.327,6.327,0,0,0,6.525-6.326V40.634a.97.97,0,0,1,.1-.437l.382-.765a5.308,5.308,0,0,0,.558-2.363V32.218h-9.9A4.853,4.853,0,0,0,2135.785,37.065Zm13.7,28.616V60.463a.976.976,0,1,1,1.953,0v5.218a.976.976,0,1,1-1.953,0Zm-14.611,0V60.463a.976.976,0,1,1,1.953,0v5.218a.976.976,0,1,1-1.953,0Zm-21.916,0V59.267a2.143,2.143,0,0,0-1.191-1.927l-3.082-1.541a7.239,7.239,0,0,1-12.46,0l-3.083,1.541a2.144,2.144,0,0,0-1.191,1.927v6.414a.977.977,0,0,1-1.953,0V59.267a4.085,4.085,0,0,1,2.271-3.674l3.888-1.944a16.907,16.907,0,0,1-5.053-2.274,2.006,2.006,0,0,1-.715-2.422,26.438,26.438,0,0,0,1.7-9.263,10.52,10.52,0,0,1,9.391-10.424,10.69,10.69,0,0,1,1.955,0,10.521,10.521,0,0,1,9.392,10.424,26.43,26.43,0,0,0,1.7,9.263,2,2,0,0,1-.714,2.422,16.923,16.923,0,0,1-5.053,2.274l3.888,1.944a4.086,4.086,0,0,1,2.271,3.674v6.414a.977.977,0,0,1-1.953,0ZM2100.3,51.868a3.046,3.046,0,0,1-1.694,2.74l-.627.314a5.285,5.285,0,0,0,8.954,0l-.63-.315a3.047,3.047,0,0,1-1.694-2.74V50.716a8.249,8.249,0,0,1-4.309,0Zm8.183-12.457a6.051,6.051,0,0,1,1.177,7.4,8.3,8.3,0,0,1-3.1,3.1v1.959a1.108,1.108,0,0,0,.041.3,16.405,16.405,0,0,0,6.081-2.389.063.063,0,0,0,.032-.074,28.547,28.547,0,0,1-1.845-10,8.552,8.552,0,0,0-7.617-8.488,8.8,8.8,0,0,0-1.6,0,8.553,8.553,0,0,0-7.618,8.488,28.539,28.539,0,0,1-1.844,10c-.014.034.014.061.032.074a16.405,16.405,0,0,0,6.081,2.389,1.109,1.109,0,0,0,.041-.3V49.908a8.286,8.286,0,0,1-4.175-7.187.977.977,0,0,1,1.953,0,6.33,6.33,0,0,0,11.835,3.121,4.083,4.083,0,0,0-.8-4.992,9.569,9.569,0,0,0-6.4-2.366l-1.8,1.8a.976.976,0,0,1-1.38-1.38l2.087-2.087a.975.975,0,0,1,.69-.286A11.654,11.654,0,0,1,2108.484,39.41Zm.3,26.27V61.506a.976.976,0,1,1,1.953,0V65.68a.976.976,0,1,1-1.953,0Zm-14.611,0V61.506a.977.977,0,0,1,1.953,0V65.68a.977.977,0,0,1-1.953,0Zm52.62-26.319a7.633,7.633,0,0,0-2.025-.81,12.168,12.168,0,0,0-4.809-.226v.221a.977.977,0,0,1-1.953,0V37.5a.976.976,0,0,1,.785-.958c5.551-1.11,8.941,1.095,9.083,1.189a.977.977,0,0,1-1.08,1.628Zm-16.873-4.594a1.5,1.5,0,0,1-.832-.252l-8.144-5.43h-.953l-4.322,3.143a1.5,1.5,0,0,1-2.335-1.575l.392-1.568h-.837a4.111,4.111,0,0,1-4.107-4.107v-.067h-4.242a4.112,4.112,0,0,1-4.107-4.107V4.107A4.112,4.112,0,0,1,2104.543,0h29.222a4.112,4.112,0,0,1,4.107,4.107v.067h.067a4.112,4.112,0,0,1,4.108,4.107v16.7a4.112,4.112,0,0,1-4.108,4.108h-7.2l.656,3.936a1.5,1.5,0,0,1-1.474,1.744Zm-7.789-7.237,7.167,4.779-.673-4.039a.976.976,0,0,1,.963-1.137h8.349a2.157,2.157,0,0,0,2.155-2.155V8.282a2.157,2.157,0,0,0-2.155-2.154h-.067V20.805a4.112,4.112,0,0,1-4.107,4.108h-8.031ZM2102.389,4.107v16.7a2.157,2.157,0,0,0,2.154,2.155h11.48a.976.976,0,0,1,.947,1.213l-1.435,5.742,9.307-6.768a.972.972,0,0,1,.574-.187h8.349a2.158,2.158,0,0,0,2.155-2.155V4.107a2.157,2.157,0,0,0-2.155-2.154h-29.222A2.157,2.157,0,0,0,2102.389,4.107Zm8.349,20.872a2.157,2.157,0,0,0,2.154,2.155h1.325l.556-2.221h-4.035Zm15.721-6.329a.976.976,0,0,1,0-1.952h3.131a.976.976,0,0,1,0,1.952Zm-17.742,0a.976.976,0,0,1,0-1.952h13.566a.976.976,0,1,1,0,1.952Zm0-5.218a.977.977,0,0,1,0-1.953h20.872a.977.977,0,1,1,0,1.953Zm7.306-5.218a.977.977,0,1,1,0-1.953h13.566a.977.977,0,1,1,0,1.953Zm-7.305,0a.977.977,0,1,1,0-1.953h3.13a.977.977,0,1,1,0,1.953Z" transform="translate(-3684 15251.371)"/></svg>