<svg xmlns="http://www.w3.org/2000/svg" viewBox="6643.244 488.337 165.507 206.833"><defs><style>.a{stroke:#000;stroke-width:0.2px;opacity:0.2;}.b{font-size:47px;font-family:Lato-Black, Lato;font-weight:800;letter-spacing:-0.05em;opacity:0.25;}</style></defs><g transform="translate(6600.344 42.43)"><path class="a" d="M108.541,25h-86.1a3.444,3.444,0,0,0,0,6.888h86.1a3.444,3.444,0,1,0,0-6.888Z" transform="translate(68.771 507.104)"/><path class="a" d="M22.444,23.888H56.883a3.444,3.444,0,1,0,0-6.888H22.444a3.444,3.444,0,0,0,0,6.888Z" transform="translate(68.771 487.553)"/><path class="a" d="M108.541,49h-86.1a3.444,3.444,0,0,0,0,6.888h86.1a3.444,3.444,0,1,0,0-6.888Z" transform="translate(68.771 565.757)"/><path class="a" d="M154.087,50.233V0H6V189.414H23.219v17.219H171.307V67.452Zm-31-21.256,31,31,5.462,5.462H123.092ZM12.888,182.526V6.888H147.2V43.345L121.074,17.219H23.219V182.526Zm17.219,17.219V24.107h86.1V72.322h48.214V199.746Z" transform="translate(37 446.007)"/><text class="b" transform="translate(90.656 595.57)"><tspan x="0" y="0">PDF</tspan></text></g></svg>