<svg xmlns="http://www.w3.org/2000/svg" viewBox="-4212 1321 39.772 32.481"><defs><style>.a{opacity:0.2;}</style></defs><g class="a" transform="translate(-4212 1315.5)"><path d="M36.591,12.129h-5.65L28.29,5.5H11.483L8.831,12.129H7.954V8.814H3.977v3.314h-.8A3.184,3.184,0,0,0,0,15.31V34.777a3.207,3.207,0,0,0,3.2,3.2H36.569a3.207,3.207,0,0,0,3.2-3.2V15.31A3.184,3.184,0,0,0,36.591,12.129ZM5.3,10.14H6.629v1.989H5.3ZM38.447,34.777a1.88,1.88,0,0,1-1.878,1.878H3.2a1.88,1.88,0,0,1-1.878-1.878V15.31a1.858,1.858,0,0,1,1.855-1.855H9.729l2.651-6.629H27.392l2.651,6.629h6.548a1.858,1.858,0,0,1,1.855,1.855Z" transform="translate(0 0)"/><path d="M23.932,14.5A11.932,11.932,0,1,0,35.863,26.432,11.945,11.945,0,0,0,23.932,14.5Zm0,22.538A10.606,10.606,0,1,1,34.538,26.432,10.618,10.618,0,0,1,23.932,37.038Z" transform="translate(-4.046 -3.034)"/><path d="M25.955,20.5a7.954,7.954,0,1,0,7.955,7.955A7.963,7.963,0,0,0,25.955,20.5Zm0,14.583a6.629,6.629,0,1,1,6.629-6.629A6.636,6.636,0,0,1,25.955,35.083Z" transform="translate(-6.068 -5.057)"/><path d="M50.651,19.5A2.651,2.651,0,1,0,53.3,22.151,2.654,2.654,0,0,0,50.651,19.5Zm0,3.977a1.326,1.326,0,1,1,1.326-1.326A1.327,1.327,0,0,1,50.651,23.477Z" transform="translate(-16.182 -4.72)"/></g></svg>