<svg xmlns="http://www.w3.org/2000/svg" viewBox="230.322 989.282 16.878 14.769"><defs><style>.a{fill:#ba374a;}</style></defs><path class="a" d="M-4259.753-165.232v-3.317a1.81,1.81,0,0,1,1.809-1.807h1.231a1.811,1.811,0,0,1,1.781-1.506,1.81,1.81,0,0,1,1.809,1.808,1.811,1.811,0,0,1-1.809,1.809,1.812,1.812,0,0,1-1.781-1.507h-1.231a1.206,1.206,0,0,0-1.206,1.2v3.317Zm3.617-4.823a1.207,1.207,0,0,0,1.205,1.206,1.208,1.208,0,0,0,1.206-1.206,1.207,1.207,0,0,0-1.206-1.2A1.207,1.207,0,0,0-4256.136-170.054Zm-5.726,4.823v-9.341a1.208,1.208,0,0,0-1.206-1.208h-1.311a1.81,1.81,0,0,1-1.7,1.206,1.811,1.811,0,0,1-1.808-1.809,1.81,1.81,0,0,1,1.808-1.808,1.81,1.81,0,0,1,1.809,1.808h1.206a1.812,1.812,0,0,1,1.809,1.811v9.341Zm-5.425-11.152a1.207,1.207,0,0,0,1.205,1.206,1.208,1.208,0,0,0,1.206-1.206,1.207,1.207,0,0,0-1.206-1.2A1.206,1.206,0,0,0-4267.287-176.384Zm3.314,11.152v-4.822a1.206,1.206,0,0,0-1.205-1.206h-1.232a1.811,1.811,0,0,1-1.781,1.506,1.811,1.811,0,0,1-1.809-1.808,1.811,1.811,0,0,1,1.809-1.809,1.811,1.811,0,0,1,1.781,1.507h1.232a1.81,1.81,0,0,1,1.808,1.809v4.822Zm-5.425-6.329a1.207,1.207,0,0,0,1.206,1.2,1.206,1.206,0,0,0,1.205-1.2,1.206,1.206,0,0,0-1.205-1.206A1.207,1.207,0,0,0-4269.4-171.561Zm12.686-2.412h-.973a1.465,1.465,0,0,1-1.463-1.463V-180h.6v4.564a.862.862,0,0,0,.86.861h.973a1.81,1.81,0,0,1,1.781-1.507,1.81,1.81,0,0,1,1.808,1.809,1.81,1.81,0,0,1-1.808,1.808A1.81,1.81,0,0,1-4256.711-173.973Zm.575-.3a1.207,1.207,0,0,0,1.206,1.2,1.206,1.206,0,0,0,1.205-1.2,1.206,1.206,0,0,0-1.205-1.206A1.207,1.207,0,0,0-4256.136-174.273Z" transform="translate(4500.322 1169.282)"/></svg>