<svg xmlns="http://www.w3.org/2000/svg" viewBox="-798 11544.999 95.654 95.575"><defs><style>.a{font-size:16px;font-family:Lato-Black, Lato;font-weight:800;}.b{fill:#dbc6ca;}.c{fill:#ba374a;}</style></defs><g transform="translate(-2074 1936)"><text class="a" transform="translate(1324 9662)"><tspan x="-15.968" y="0">10%</tspan></text><g transform="translate(-33.761 0.647)"><path class="b" d="M3086.151,311.491a47.829,47.829,0,1,0,44.178-24.291v12.563a35.293,35.293,0,1,1-32.84,17.176,43.026,43.026,0,0,1,6.959-8.81c-3.388-2.685-9.044-7.35-9.044-7.35S3088.184,307.478,3086.151,311.491Z" transform="translate(-1770.239 9321.152)"/><path class="c" d="M3160,306a34.994,34.994,0,0,1,15.795-5.812V287.6a47.59,47.59,0,0,0-25.594,10.035Z" transform="translate(-1822.142 9320.857)"/></g></g></svg>