<svg xmlns="http://www.w3.org/2000/svg" viewBox="-1561 11544.999 95.654 95.731">
  <defs>
    <style>
      .cls-1 {
        fill: #ba374a;
      }

      .cls-2 {
        fill: #dbc6ca;
      }
    </style>
  </defs>
  <g id="Group_643" data-name="Group 643" transform="translate(-2090)">
    <g id="Group_482" data-name="Group 482" transform="translate(18 1936)">
      <path id="Path_2299" data-name="Path 2299" d="M-15.264-8.328a4.377,4.377,0,0,1,.492-1.52,3.658,3.658,0,0,1,.9-1.08,3.668,3.668,0,0,1,1.236-.644,5.11,5.11,0,0,1,1.5-.212A4.485,4.485,0,0,1-9.6-11.54a3.436,3.436,0,0,1,1.136.66,2.786,2.786,0,0,1,.7.964A2.85,2.85,0,0,1-7.52-8.76a3.79,3.79,0,0,1-.112.972,2.227,2.227,0,0,1-.332.728,2.022,2.022,0,0,1-.544.52,3.342,3.342,0,0,1-.74.356,2.6,2.6,0,0,1,1.936,2.64,3.644,3.644,0,0,1-.336,1.616,3.323,3.323,0,0,1-.9,1.144A3.851,3.851,0,0,1-9.856-.1a5.267,5.267,0,0,1-1.552.228,5.541,5.541,0,0,1-1.48-.18,3.408,3.408,0,0,1-1.152-.56,3.709,3.709,0,0,1-.884-.972,6.52,6.52,0,0,1-.66-1.408l1.1-.448a1.378,1.378,0,0,1,.8-.088.75.75,0,0,1,.528.368,2.9,2.9,0,0,0,.764.964,1.546,1.546,0,0,0,.948.3,1.736,1.736,0,0,0,.724-.14A1.578,1.578,0,0,0-10.2-2.4,1.493,1.493,0,0,0-9.9-2.9a1.62,1.62,0,0,0,.1-.568,3.981,3.981,0,0,0-.052-.676.883.883,0,0,0-.292-.516,1.651,1.651,0,0,0-.724-.332A6.082,6.082,0,0,0-12.208-5.1V-6.816a5.007,5.007,0,0,0,1.176-.112,1.8,1.8,0,0,0,.692-.308.929.929,0,0,0,.324-.476,2.237,2.237,0,0,0,.08-.616,1.54,1.54,0,0,0-.332-1.06A1.288,1.288,0,0,0-11.28-9.76a1.484,1.484,0,0,0-.932.292,1.5,1.5,0,0,0-.524.724,1.043,1.043,0,0,1-.44.584,1.259,1.259,0,0,1-.776.064Zm17.536,2.5a9.479,9.479,0,0,1-.328,2.648,5.435,5.435,0,0,1-.908,1.856A3.662,3.662,0,0,1-.34-.232a4.134,4.134,0,0,1-1.724.36A4.08,4.08,0,0,1-3.78-.232a3.646,3.646,0,0,1-1.364-1.1,5.427,5.427,0,0,1-.9-1.856,9.589,9.589,0,0,1-.324-2.648A9.589,9.589,0,0,1-6.044-8.48a5.427,5.427,0,0,1,.9-1.856A3.609,3.609,0,0,1-3.78-11.428a4.119,4.119,0,0,1,1.716-.356,4.174,4.174,0,0,1,1.724.356,3.625,3.625,0,0,1,1.376,1.092A5.435,5.435,0,0,1,1.944-8.48,9.479,9.479,0,0,1,2.272-5.832Zm-2.56,0A10.565,10.565,0,0,0-.44-7.812a4.059,4.059,0,0,0-.4-1.212,1.465,1.465,0,0,0-.572-.6,1.407,1.407,0,0,0-.648-.164,1.384,1.384,0,0,0-.644.164,1.429,1.429,0,0,0-.56.6A4.164,4.164,0,0,0-3.66-7.812a10.844,10.844,0,0,0-.148,1.98A10.831,10.831,0,0,0-3.66-3.848a4.22,4.22,0,0,0,.392,1.212,1.426,1.426,0,0,0,.56.608,1.384,1.384,0,0,0,.644.164,1.407,1.407,0,0,0,.648-.164,1.461,1.461,0,0,0,.572-.608,4.113,4.113,0,0,0,.4-1.212A10.553,10.553,0,0,0-.288-5.832Zm9.008-3a2.872,2.872,0,0,1-.232,1.168,2.907,2.907,0,0,1-.616.908,2.72,2.72,0,0,1-.892.588,2.771,2.771,0,0,1-1.06.208A2.918,2.918,0,0,1,4.8-6.168a2.59,2.59,0,0,1-.88-.588,2.69,2.69,0,0,1-.58-.908,3.161,3.161,0,0,1-.208-1.168,3.326,3.326,0,0,1,.208-1.2,2.709,2.709,0,0,1,.58-.924,2.61,2.61,0,0,1,.88-.6,2.87,2.87,0,0,1,1.116-.212,2.929,2.929,0,0,1,1.124.212,2.591,2.591,0,0,1,.888.6,2.709,2.709,0,0,1,.58.924A3.326,3.326,0,0,1,8.72-8.832Zm-1.9,0a2.81,2.81,0,0,0-.068-.676,1.2,1.2,0,0,0-.188-.428.65.65,0,0,0-.284-.224.971.971,0,0,0-.356-.064.94.94,0,0,0-.352.064.606.606,0,0,0-.272.224,1.254,1.254,0,0,0-.176.428,2.978,2.978,0,0,0-.064.676,2.693,2.693,0,0,0,.064.64,1.16,1.16,0,0,0,.176.408.623.623,0,0,0,.272.216A.94.94,0,0,0,5.92-7.5a.971.971,0,0,0,.356-.064.67.67,0,0,0,.284-.216,1.116,1.116,0,0,0,.188-.408A2.541,2.541,0,0,0,6.816-8.832Zm5.568-2.456a1.471,1.471,0,0,1,.3-.252.881.881,0,0,1,.488-.116h1.808L6.192-.352a.988.988,0,0,1-.3.252.886.886,0,0,1-.436.1H3.6Zm3.04,8.552a2.9,2.9,0,0,1-.232,1.172,2.9,2.9,0,0,1-.616.912,2.72,2.72,0,0,1-.892.588,2.771,2.771,0,0,1-1.06.208,2.918,2.918,0,0,1-1.116-.208,2.59,2.59,0,0,1-.88-.588,2.682,2.682,0,0,1-.58-.912A3.193,3.193,0,0,1,9.84-2.736a3.326,3.326,0,0,1,.208-1.2,2.709,2.709,0,0,1,.58-.924,2.61,2.61,0,0,1,.88-.6,2.87,2.87,0,0,1,1.116-.212,2.929,2.929,0,0,1,1.124.212,2.591,2.591,0,0,1,.888.6,2.709,2.709,0,0,1,.58.924A3.326,3.326,0,0,1,15.424-2.736Zm-1.9,0a2.769,2.769,0,0,0-.068-.668,1.2,1.2,0,0,0-.188-.428.65.65,0,0,0-.284-.224.971.971,0,0,0-.356-.064.94.94,0,0,0-.352.064A.606.606,0,0,0,12-3.832a1.254,1.254,0,0,0-.176.428,2.935,2.935,0,0,0-.064.668,2.693,2.693,0,0,0,.064.64A1.16,1.16,0,0,0,12-1.688a.623.623,0,0,0,.272.216.94.94,0,0,0,.352.064.971.971,0,0,0,.356-.064.67.67,0,0,0,.284-.216,1.116,1.116,0,0,0,.188-.408A2.54,2.54,0,0,0,13.52-2.736Z" transform="translate(559 9662)"/>
      <g id="Group_475" data-name="Group 475" transform="translate(-18.415 -0.134)">
        <path id="Path_1642" data-name="Path 1642" class="cls-1" d="M284.6,290.2v12.589a35.267,35.267,0,0,1,29.009,47.7l11.051,6.125A47.817,47.817,0,0,0,284.6,290.2Z" transform="translate(296.577 9318.934)"/>
        <path id="Path_1643" data-name="Path 1643" class="cls-2" d="M133.827,373.839a35.282,35.282,0,0,1-2.5-70.476V290.8A47.821,47.821,0,1,0,174.9,363.048l-10.973-6.1A35.286,35.286,0,0,1,133.827,373.839Z" transform="translate(443.415 9318.49)"/>
      </g>
    </g>
  </g>
</svg>
