<?xml version="1.0" encoding="UTF-8"?>
<svg width="106px" height="107px" viewBox="0 0 106 107" version="1.1" xmlns="http://www.w3.org/2000/svg" xmlns:xlink="http://www.w3.org/1999/xlink">
    <!-- Generator: Sketch 46.2 (44496) - http://www.bohemiancoding.com/sketch -->
    <title>icon-justice</title>
    <desc>Created with Sketch.</desc>
    <defs></defs>
    <g id="Page-1" stroke="none" stroke-width="1" fill="none" fill-rule="evenodd">
        <g id="roadmap" transform="translate(-547.000000, -1798.000000)" fill-rule="nonzero" fill="#BA374A">
            <g id="icon-justice" transform="translate(547.000000, 1797.396000)">
                <path d="M51.418,93.159 L75.132,93.159 C76.4428479,93.159 77.5055,94.2216521 77.5055,95.5325 C77.5055,96.8433479 76.4428479,97.906 75.132,97.906 L51.418,97.906 C48.4030069,97.9101749 45.7168289,99.8110823 44.71,102.653 L100.81,102.653 C99.8031711,99.8110823 97.1169931,97.9101749 94.102,97.906 L89.361,97.906 C88.0501521,97.906 86.9875,96.8433479 86.9875,95.5325 C86.9875,94.2216521 88.0501521,93.159 89.361,93.159 L94.104,93.159 C100.651838,93.1694751 105.955597,98.4781548 105.96,105.026 C105.960265,105.655094 105.710613,106.258526 105.265964,106.70355 C104.821316,107.148574 104.218094,107.398735 103.589,107.399 L41.932,107.399 C40.6222094,107.397896 39.5609995,106.335791 39.561,105.026 C39.5654039,98.477765 44.8697711,93.1689243 51.418,93.159 L51.418,93.159 Z" id="Shape"></path>
                <path d="M79.923,95.07 C79.9527851,94.9171464 79.9980171,94.767713 80.058,94.624 C80.1163458,94.4808196 80.1894044,94.3440861 80.276,94.216 C80.6242066,93.6922327 81.1670038,93.3290481 81.784,93.207 C82.0892184,93.1450186 82.4037816,93.1450186 82.709,93.207 C82.8613277,93.2362932 83.0101479,93.2815426 83.153,93.342 C83.297035,93.3998694 83.4344805,93.4729502 83.563,93.56 C83.8231341,93.7317586 84.045639,93.9546038 84.217,94.215 C84.3026344,94.3436633 84.3756401,94.4802978 84.435,94.623 C84.4939882,94.7670682 84.5391903,94.9164025 84.57,95.069 C84.6334261,95.3744084 84.6334261,95.6895916 84.57,95.995 C84.5394481,96.1470134 84.4942368,96.2957083 84.435,96.439 C84.3762575,96.5829441 84.3032253,96.7206332 84.217,96.85 C84.0454445,97.1102378 83.8229754,97.3330471 83.563,97.505 C83.4338992,97.5910806 83.2965565,97.6641068 83.153,97.723 C83.0101178,97.7833741 82.8613064,97.8286208 82.709,97.858 C82.4039259,97.9214015 82.0890741,97.9214015 81.784,97.858 C81.6317024,97.8285853 81.4828947,97.7833397 81.34,97.723 C81.1964096,97.6641791 81.0590598,97.5911492 80.93,97.505 C80.8001126,97.4197721 80.6794609,97.32124 80.57,97.211 C80.4600059,97.1009531 80.3614983,96.9799964 80.276,96.85 C80.1898494,96.7205887 80.1168213,96.5829072 80.058,96.439 C79.9977491,96.2960732 79.9525064,96.1472748 79.923,95.995 C79.8916645,95.8426436 79.8755851,95.6875444 79.875,95.532 C79.8759429,95.3768058 79.892019,95.2220734 79.923,95.07 L79.923,95.07 Z" id="Shape"></path>
                <path d="M0.694,94.434 L49.322,45.769 L40.099,36.539 L38.422,38.217 C37.9774451,38.6621694 37.3741303,38.9123147 36.745,38.9123147 C36.1158697,38.9123147 35.5125549,38.6621694 35.068,38.217 L28.362,31.504 C27.4357903,30.5770492 27.4357903,29.0749508 28.362,28.148 L55.191,1.298 C55.6356853,0.853076009 56.2389512,0.603100236 56.868,0.603100236 C57.4970488,0.603100236 58.1003147,0.853076009 58.545,1.298 L65.252,8.01 C66.1782097,8.93695084 66.1782097,10.4390492 65.252,11.366 L63.575,13.044 L90.404,39.894 L92.081,38.216 C92.5256853,37.771076 93.1289512,37.5211002 93.758,37.5211002 C94.3870488,37.5211002 94.9903147,37.771076 95.435,38.216 L102.142,44.928 C103.06821,45.8549508 103.06821,47.3570492 102.142,48.284 L75.31,75.136 C74.8654451,75.5811694 74.2621303,75.8313147 73.633,75.8313147 C73.0038697,75.8313147 72.4005549,75.5811694 71.956,75.136 L65.249,68.424 C64.3227903,67.4970492 64.3227903,65.9949508 65.249,65.068 L66.926,63.39 L59.38,55.839 L10.756,104.504 C10.3114451,104.949169 9.70813026,105.199315 9.079,105.199315 C8.44986974,105.199315 7.84655494,104.949169 7.402,104.504 L0.695,97.792 C-0.230773428,96.8644782 -0.230773428,95.3625218 0.695,94.435 L0.694,94.434 Z M56.868,6.334 L33.392,29.826 L36.746,33.182 L60.222,9.689 L56.868,6.334 Z M73.636,70.104 L97.11,46.604 L93.756,43.248 L92.079,44.926 L92.079,44.926 L71.959,65.067 L71.959,65.067 L70.284,66.743 L73.636,70.104 Z M70.283,60.033 L87.051,43.252 L60.222,16.404 L43.454,33.183 L70.283,60.033 Z M9.083,99.468 L56.03,52.481 L54.269,50.719 L52.676,49.125 L5.724,96.112 L9.083,99.468 Z" id="icon-hammer"></path>
            </g>
        </g>
    </g>
</svg>