<?xml version="1.0" encoding="UTF-8"?>
<svg width="68px" height="89px" viewBox="0 0 68 89" version="1.1" xmlns="http://www.w3.org/2000/svg" xmlns:xlink="http://www.w3.org/1999/xlink">
    <!-- Generator: Sketch 46.2 (44496) - http://www.bohemiancoding.com/sketch -->
    <title>icon-cardboard</title>
    <desc>Created with Sketch.</desc>
    <defs></defs>
    <g id="Page-1" stroke="none" stroke-width="1" fill="none" fill-rule="evenodd">
        <g id="roadmap" transform="translate(-84.000000, -1807.000000)" fill-rule="nonzero" fill="#BA374A">
            <path d="M88.49,1895.089 C86.0129122,1895.0835 84.006049,1893.07709 84,1890.6 L84,1820.469 C84.006049,1817.99191 86.0129122,1815.9855 88.49,1815.98 L104.911,1815.98 L104.911,1813.734 C104.911552,1812.49435 105.916349,1811.48955 107.156,1811.489 L112.027,1811.489 C112.979863,1808.79805 115.524826,1806.99941 118.3795,1806.99941 C121.234174,1806.99941 123.779137,1808.79805 124.732,1811.489 L129.604,1811.489 C130.843651,1811.48955 131.848448,1812.49435 131.849,1813.734 L131.849,1815.979 L147.457,1815.979 C149.933697,1815.98505 151.939953,1817.9913 151.946,1820.468 L151.946,1890.6 C151.940503,1893.07709 149.934086,1895.08395 147.457,1895.09 L88.49,1895.089 Z M88.49,1890.599 L147.456,1890.599 L147.456,1820.469 L131.848,1820.469 L131.848,1822.714 C131.848,1823.95388 130.842879,1824.959 129.603,1824.959 L107.155,1824.959 C105.915121,1824.959 104.91,1823.95388 104.91,1822.714 L104.91,1820.469 L88.49,1820.469 L88.49,1890.599 Z M109.4,1820.469 L127.358,1820.469 L127.358,1815.979 L122.868,1815.979 C121.627959,1815.97845 120.623,1814.97304 120.623,1813.733 C120.597223,1812.51186 119.599916,1811.53538 118.3785,1811.53538 C117.157084,1811.53538 116.159777,1812.51186 116.134,1813.733 C116.134,1814.97304 115.129041,1815.97845 113.889,1815.979 L109.399,1815.979 L109.4,1820.469 Z M105.57,1882.969 L101.081,1878.479 C100.204801,1877.60252 100.205025,1876.1817 101.0815,1875.3055 C101.957976,1874.4293 103.3788,1874.42952 104.255,1875.306 L107.155,1878.206 L114.545,1870.812 C115.425319,1869.94874 116.836695,1869.95564 117.708528,1870.82747 C118.58036,1871.6993 118.587263,1873.11068 117.724,1873.991 L108.745,1882.97 C107.867241,1883.84337 106.448759,1883.84337 105.571,1882.97 L105.57,1882.969 Z M125.113,1879.135 C124.310939,1879.135 123.569804,1878.70711 123.168773,1878.0125 C122.767742,1877.31789 122.767742,1876.46211 123.168773,1875.7675 C123.569804,1875.07289 124.310939,1874.645 125.113,1874.645 L134.092,1874.645 C135.331879,1874.645 136.337,1875.65012 136.337,1876.89 C136.337,1878.12988 135.331879,1879.135 134.092,1879.135 L125.113,1879.135 Z M105.571,1863 L101.082,1858.511 C100.240951,1857.62869 100.257614,1856.23646 101.119539,1855.37454 C101.981463,1854.51261 103.373693,1854.49595 104.256,1855.337 L107.156,1858.242 L114.546,1850.848 C115.426319,1849.98474 116.837695,1849.99164 117.709528,1850.86347 C118.58136,1851.7353 118.588263,1853.14668 117.725,1854.027 L108.746,1863.005 C108.323731,1863.4249 107.752508,1863.66073 107.157,1863.661 C106.56113,1863.66203 105.98977,1863.4239 105.571,1863 L105.571,1863 Z M125.114,1859.17 C124.300824,1859.18717 123.541963,1858.76316 123.130339,1858.06165 C122.718715,1857.36014 122.718715,1856.49086 123.130339,1855.78935 C123.541963,1855.08784 124.300824,1854.66383 125.114,1854.681 L134.093,1854.681 C134.906176,1854.66383 135.665037,1855.08784 136.076661,1855.78935 C136.488285,1856.49086 136.488285,1857.36014 136.076661,1858.06165 C135.665037,1858.76316 134.906176,1859.18717 134.093,1859.17 L125.114,1859.17 Z M105.571,1845 L101.082,1840.511 C100.240951,1839.62869 100.257614,1838.23646 101.119539,1837.37454 C101.981463,1836.51261 103.373693,1836.49595 104.256,1837.337 L107.156,1840.242 L114.546,1832.848 C115.426319,1831.98474 116.837695,1831.99164 117.709528,1832.86347 C118.58136,1833.7353 118.588263,1835.14668 117.725,1836.027 L108.746,1845.005 C108.323731,1845.4249 107.752508,1845.66073 107.157,1845.661 C106.56113,1845.66203 105.98977,1845.4239 105.571,1845 L105.571,1845 Z M125.114,1841.17 C124.300824,1841.18717 123.541963,1840.76316 123.130339,1840.06165 C122.718715,1839.36014 122.718715,1838.49086 123.130339,1837.78935 C123.541963,1837.08784 124.300824,1836.66383 125.114,1836.681 L134.093,1836.681 C134.906176,1836.66383 135.665037,1837.08784 136.076661,1837.78935 C136.488285,1838.49086 136.488285,1839.36014 136.076661,1840.06165 C135.665037,1840.76316 134.906176,1841.18717 134.093,1841.17 L125.114,1841.17 Z" id="icon-cardboard"></path>
        </g>
    </g>
</svg>