<?xml version="1.0" encoding="UTF-8"?>
<svg width="88px" height="77px" viewBox="0 0 88 77" version="1.1" xmlns="http://www.w3.org/2000/svg" xmlns:xlink="http://www.w3.org/1999/xlink">
    <!-- Generator: Sketch 46.2 (44496) - http://www.bohemiancoding.com/sketch -->
    <title>icon-verified</title>
    <desc>Created with Sketch.</desc>
    <defs></defs>
    <g id="Page-1" stroke="none" stroke-width="1" fill="none" fill-rule="evenodd">
        <g id="roadmap" transform="translate(-311.000000, -1812.000000)" fill-rule="nonzero" fill="#BA374A">
            <path d="M349.754,1812.001 C358.105389,1811.97632 366.235309,1814.68594 372.902,1819.716 C373.937258,1820.49389 374.145893,1821.96374 373.368,1822.999 C372.590107,1824.03426 371.120258,1824.24289 370.085,1823.465 C364.229657,1819.04808 357.08942,1816.66929 349.755,1816.692 C331.032547,1816.692 315.855,1831.86955 315.855,1850.592 C315.855,1869.31445 331.032547,1884.492 349.755,1884.492 C368.477453,1884.492 383.655,1869.31445 383.655,1850.592 C383.655,1849.777 383.626,1848.958 383.569,1848.16 C383.491681,1847.31495 383.876934,1846.49405 384.576356,1846.01353 C385.275778,1845.53301 386.180234,1845.46784 386.941321,1845.84312 C387.702409,1846.21841 388.201369,1846.97559 388.246,1847.823 C388.311,1848.733 388.346,1849.664 388.346,1850.592 C388.237901,1871.82662 370.99339,1888.98356 349.7585,1888.98356 C328.52361,1888.98356 311.279099,1871.82662 311.171,1850.592 C311.191797,1829.28727 328.453268,1812.0258 349.754,1812.001 Z M324.615,1852.041 C322.303491,1849.73038 321.400268,1846.36211 322.245565,1843.20498 C323.090862,1840.04785 325.556259,1837.5815 328.713065,1836.73498 C331.869871,1835.88846 335.238492,1836.79038 337.55,1839.101 L349.525,1851.077 L383.308,1817.301 C386.887055,1813.771 392.644028,1813.79075 396.198776,1817.34523 C399.753524,1820.8997 399.773721,1826.65667 396.244,1830.236 L353.813,1872.668 C351.443813,1875.03097 347.609187,1875.03097 345.24,1872.668 L324.615,1852.041 Z M327.931,1848.721 L348.556,1869.346 C349.09222,1869.8805 349.95978,1869.8805 350.496,1869.346 L392.928,1826.914 C394.575138,1825.15928 394.531735,1822.41383 392.829953,1820.71205 C391.128171,1819.01027 388.382725,1818.96686 386.628,1820.614 L352.502,1854.74 C351.714173,1855.52897 350.644964,1855.9723 349.53,1855.9723 C348.415036,1855.9723 347.345827,1855.52897 346.558,1854.74 L334.238,1842.42 C332.496883,1840.68373 329.679117,1840.68373 327.938,1842.42 C326.195833,1844.16257 326.195833,1846.97943 327.931,1848.721 Z" id="icon-verified"></path>
        </g>
    </g>
</svg>