<svg xmlns="http://www.w3.org/2000/svg" viewBox="-967.632 6864 229.632 229.632"><defs><style>.a{fill:#2d2d2f;}.b{fill:#19191f;}</style></defs><g transform="translate(-2162 63.316)"><path class="a" d="M114.815,229.632A115.641,115.641,0,0,1,91.677,227.3a114.212,114.212,0,0,1-41.055-17.276,115.155,115.155,0,0,1-41.6-50.515,114.375,114.375,0,0,1-6.69-21.553,115.947,115.947,0,0,1,0-46.28A114.205,114.205,0,0,1,19.609,50.62a115.15,115.15,0,0,1,50.517-41.6,114.134,114.134,0,0,1,21.551-6.69,115.933,115.933,0,0,1,46.279,0A114.194,114.194,0,0,1,179.01,19.609a115.139,115.139,0,0,1,41.6,50.515,114.3,114.3,0,0,1,6.69,21.551,115.947,115.947,0,0,1,0,46.28,114.183,114.183,0,0,1-17.276,41.055,115.151,115.151,0,0,1-50.516,41.6,114.3,114.3,0,0,1-21.552,6.69A115.672,115.672,0,0,1,114.815,229.632Zm0-218.562a104.467,104.467,0,0,0-20.907,2.108,103.17,103.17,0,0,0-37.1,15.61A104.035,104.035,0,0,0,19.223,74.434a103.234,103.234,0,0,0-6.045,19.474,104.774,104.774,0,0,0,0,41.817,103.2,103.2,0,0,0,15.61,37.1,104.059,104.059,0,0,0,45.646,37.587,103.226,103.226,0,0,0,19.475,6.045,104.775,104.775,0,0,0,41.816,0,103.186,103.186,0,0,0,37.1-15.61A104.043,104.043,0,0,0,210.41,155.2a103.2,103.2,0,0,0,6.045-19.474,104.774,104.774,0,0,0,0-41.817,103.173,103.173,0,0,0-15.61-37.1A104.056,104.056,0,0,0,155.2,19.223a103.13,103.13,0,0,0-19.474-6.045A104.467,104.467,0,0,0,114.816,11.07Zm0,201.807a98.83,98.83,0,0,1-19.763-1.992A97.567,97.567,0,0,1,59.989,196.13a98.368,98.368,0,0,1-35.528-43.144,97.588,97.588,0,0,1-5.713-18.408,99.044,99.044,0,0,1,0-39.526A97.51,97.51,0,0,1,33.5,59.989,98.349,98.349,0,0,1,76.646,24.461a97.527,97.527,0,0,1,18.406-5.713,98.99,98.99,0,0,1,39.526,0A97.51,97.51,0,0,1,169.643,33.5a98.341,98.341,0,0,1,35.528,43.144,97.539,97.539,0,0,1,5.714,18.406,99.044,99.044,0,0,1,0,39.526,97.523,97.523,0,0,1-14.755,35.064,98.328,98.328,0,0,1-43.145,35.528,97.555,97.555,0,0,1-18.407,5.714A98.823,98.823,0,0,1,114.816,212.876Zm-31.4-71.14h0l-15.621,9.028V168.8l15.621,9.014L99.035,168.8v-18.04l-15.623-9.028Zm-8.768-37.855,69.5,69.733h36.248L133.112,125.84h.006a32.278,32.278,0,0,0,11.447-3.784,29.237,29.237,0,0,0,8.835-7.363,30.912,30.912,0,0,0,6.038-13.352,57.05,57.05,0,0,0,1.3-16.986,34.194,34.194,0,0,0-1.663-7.93,28.417,28.417,0,0,0-3.713-7.251,36.11,36.11,0,0,0-14.136-11.452,46.854,46.854,0,0,0-10.068-3.383,55.72,55.72,0,0,0-11.8-1.228H69.027L91.493,77.35h28.564a12.959,12.959,0,0,1,7.593,2.912,11.567,11.567,0,0,1,2.975,3.471,9.6,9.6,0,0,1,1.2,4.665v6.484a9.368,9.368,0,0,1-2.068,6.5c-1.509,1.656-3.758,2.5-6.685,2.5H74.644Zm10,70.378V161.922l10.68,6.169L84.65,174.258Zm-2.472-.013h0L71.5,168.077l10.678-6.155v12.322Zm14.385-8.311h0l-10.674-6.155,10.677-6.17v12.326Zm-26.3,0V153.608l10.676,6.17-10.674,6.155Zm14.388-8.3h0V145.309l10.68,6.169L84.65,157.634Zm-2.474,0h0L71.5,151.478l10.678-6.169v12.324Z" transform="translate(1194.368 6800.684)"/><path class="b" d="M119.361,229.543l-47.1-8.057c-.713-.284-1.432-.58-2.136-.878A114.974,114.974,0,0,1,35.258,197.6l7.43-8.214a103.912,103.912,0,0,0,31.745,21.022,103.225,103.225,0,0,0,19.475,6.045,104.75,104.75,0,0,0,41.816,0,103.187,103.187,0,0,0,37.1-15.611A104.048,104.048,0,0,0,210.41,155.2a103.151,103.151,0,0,0,6.044-19.474,104.754,104.754,0,0,0,0-41.817,103.163,103.163,0,0,0-15.61-37.1,104.568,104.568,0,0,0-12.669-15.354c-2.028-2.028-4.171-4-6.371-5.862l7.43-8.214c2.338,1.991,4.614,4.093,6.768,6.247a115.009,115.009,0,0,1,24.608,36.5A114.33,114.33,0,0,1,227.3,91.677a116.012,116.012,0,0,1,0,46.278,114.179,114.179,0,0,1-17.277,41.055,115.125,115.125,0,0,1-50.515,41.6,114.334,114.334,0,0,1-21.552,6.691A115.662,115.662,0,0,1,119.361,229.543Zm-4.544-16.666a98.776,98.776,0,0,1-19.763-1.993,97.528,97.528,0,0,1-35.064-14.756A98.861,98.861,0,0,1,46.5,185.168l21.287-23.533V168.8l15.622,9.015L99.036,168.8v-18.04l-14.062-8.124,13.464-14.885,45.707,45.859h36.246l-47.28-47.776a32.185,32.185,0,0,0,11.452-3.782,29.247,29.247,0,0,0,8.836-7.365,30.871,30.871,0,0,0,6.036-13.352,57.023,57.023,0,0,0,1.3-16.984,34.235,34.235,0,0,0-1.662-7.934,28.44,28.44,0,0,0-3.714-7.249c-.563-.792-1.178-1.573-1.828-2.322l24.459-27.039c2.135,1.8,4.21,3.705,6.168,5.663a98.21,98.21,0,0,1,21.016,31.17,97.634,97.634,0,0,1,5.714,18.407,99.042,99.042,0,0,1,0,39.525,97.523,97.523,0,0,1-14.755,35.065,98.355,98.355,0,0,1-43.144,35.527,97.607,97.607,0,0,1-18.407,5.714A98.776,98.776,0,0,1,114.817,212.877ZM84.65,174.259h0V161.921l10.678,6.17L84.65,174.259Zm-2.473-.014h0L71.5,168.077l10.679-6.156v12.323l0,0Zm-11.914-8.311h0V158.9l3.146-3.478,7.529,4.352-10.674,6.157Zm26.3,0h0l-10.674-6.157,10.676-6.169v12.324h0Zm-11.912-8.3h0V145.31l10.678,6.168L84.65,157.633Zm-2.473,0h0L75.1,153.554l7.077-7.823v11.9Zm40.891-53.752h-3.035l11.787-13.031v4.031a9.452,9.452,0,0,1-2.068,6.5C128.245,103.042,126,103.882,123.069,103.882Z" transform="translate(1194.368 6800.684)"/></g></svg>