<svg xmlns="http://www.w3.org/2000/svg" viewBox="-1176 102.454 91.178 91.178"><defs><style>.a{opacity:0.8;}.b{fill:#fff;}.c{fill:#f4dee2;}</style></defs><g class="a" transform="translate(-1760 -425.546)"><path class="b" d="M45.589,91.178a45.917,45.917,0,0,1-9.187-.926,45.349,45.349,0,0,1-16.3-6.86A45.724,45.724,0,0,1,3.583,63.335,45.414,45.414,0,0,1,.926,54.777a46.038,46.038,0,0,1,0-18.376,45.347,45.347,0,0,1,6.86-16.3A45.722,45.722,0,0,1,27.844,3.583,45.318,45.318,0,0,1,36.4.926a46.032,46.032,0,0,1,18.376,0,45.342,45.342,0,0,1,16.3,6.86A45.717,45.717,0,0,1,87.6,27.844,45.383,45.383,0,0,1,90.252,36.4a46.038,46.038,0,0,1,0,18.376,45.338,45.338,0,0,1-6.86,16.3A45.722,45.722,0,0,1,63.334,87.6a45.383,45.383,0,0,1-8.557,2.657A45.929,45.929,0,0,1,45.589,91.178Zm0-86.783a41.48,41.48,0,0,0-8.3.837,40.965,40.965,0,0,0-14.73,6.2A41.308,41.308,0,0,0,7.633,29.555a40.99,40.99,0,0,0-2.4,7.732,41.6,41.6,0,0,0,0,16.6,40.975,40.975,0,0,0,6.2,14.73A41.318,41.318,0,0,0,29.555,83.545a40.987,40.987,0,0,0,7.733,2.4,41.6,41.6,0,0,0,16.6,0,40.971,40.971,0,0,0,14.73-6.2A41.312,41.312,0,0,0,83.546,61.623a40.975,40.975,0,0,0,2.4-7.732,41.6,41.6,0,0,0,0-16.6,40.966,40.966,0,0,0-6.2-14.73A41.317,41.317,0,0,0,61.623,7.633a40.949,40.949,0,0,0-7.732-2.4A41.48,41.48,0,0,0,45.589,4.4Zm0,80.13a39.242,39.242,0,0,1-7.847-.791,38.74,38.74,0,0,1-13.922-5.859A39.058,39.058,0,0,1,9.713,60.745a38.748,38.748,0,0,1-2.269-7.309,39.327,39.327,0,0,1,0-15.694A38.717,38.717,0,0,1,13.3,23.819,39.051,39.051,0,0,1,30.433,9.712a38.724,38.724,0,0,1,7.308-2.269,39.305,39.305,0,0,1,15.694,0A38.718,38.718,0,0,1,67.359,13.3,39.048,39.048,0,0,1,81.466,30.433a38.729,38.729,0,0,1,2.269,7.309,39.327,39.327,0,0,1,0,15.694,38.723,38.723,0,0,1-5.859,13.922A39.042,39.042,0,0,1,60.745,81.465a38.735,38.735,0,0,1-7.309,2.269A39.239,39.239,0,0,1,45.589,84.525ZM33.12,56.278h0l-6.2,3.585v7.163l6.2,3.579,6.2-3.579V59.863l-6.2-3.585ZM29.638,41.247l27.6,27.688H71.627L52.854,49.966h0a12.816,12.816,0,0,0,4.545-1.5,11.609,11.609,0,0,0,3.508-2.924,12.274,12.274,0,0,0,2.4-5.3,22.653,22.653,0,0,0,.515-6.744,13.577,13.577,0,0,0-.66-3.149,11.283,11.283,0,0,0-1.474-2.879,14.338,14.338,0,0,0-5.613-4.547,18.6,18.6,0,0,0-4-1.343,22.124,22.124,0,0,0-4.684-.487H27.408l8.92,9.624H47.67a5.146,5.146,0,0,1,3.015,1.156,4.593,4.593,0,0,1,1.181,1.378,3.812,3.812,0,0,1,.475,1.852v2.575a3.72,3.72,0,0,1-.821,2.582,3.426,3.426,0,0,1-2.654.991H29.638Zm3.973,27.944h0v-4.9l4.24,2.449-4.24,2.449Zm-.982-.005h0l-4.24-2.449,4.24-2.444v4.893Zm5.712-3.3h0L34.1,63.442l4.239-2.45v4.893Zm-10.442,0h0V60.992l4.239,2.45L27.9,65.886Zm5.713-3.3h0V57.7l4.24,2.449-4.24,2.444Zm-.982,0h0l-4.24-2.444,4.24-2.449V62.59Z" transform="translate(584 528)"/><path class="c" d="M33.394,80.271l-18.7-3.2c-.283-.113-.568-.23-.848-.348A45.652,45.652,0,0,1,0,67.588l2.95-3.262a41.26,41.26,0,0,0,12.6,8.347,40.987,40.987,0,0,0,7.733,2.4,41.592,41.592,0,0,0,16.6,0,40.972,40.972,0,0,0,14.73-6.2A41.313,41.313,0,0,0,69.546,50.752a40.958,40.958,0,0,0,2.4-7.732,41.594,41.594,0,0,0,0-16.6,40.962,40.962,0,0,0-6.2-14.73,41.521,41.521,0,0,0-5.031-6.1c-.805-.805-1.656-1.588-2.53-2.328L61.138,0c.928.791,1.832,1.625,2.687,2.48A45.665,45.665,0,0,1,73.6,16.972a45.4,45.4,0,0,1,2.657,8.558,46.064,46.064,0,0,1,0,18.375,45.337,45.337,0,0,1-6.86,16.3A45.712,45.712,0,0,1,49.335,76.724a45.4,45.4,0,0,1-8.558,2.657A45.925,45.925,0,0,1,33.394,80.271Zm-1.8-6.618a39.221,39.221,0,0,1-7.847-.791A38.725,38.725,0,0,1,9.82,67a39.254,39.254,0,0,1-5.355-4.352l8.452-9.344v2.846l6.2,3.58,6.2-3.58V48.991L19.74,45.765l5.346-5.91L43.235,58.064H57.627L38.854,39.094a12.779,12.779,0,0,0,4.547-1.5,11.613,11.613,0,0,0,3.509-2.924,12.258,12.258,0,0,0,2.4-5.3,22.641,22.641,0,0,0,.515-6.744,13.594,13.594,0,0,0-.66-3.15,11.293,11.293,0,0,0-1.475-2.878c-.224-.314-.468-.625-.726-.922L56.673,4.936c.848.715,1.672,1.471,2.449,2.249a39,39,0,0,1,8.345,12.376,38.767,38.767,0,0,1,2.269,7.309,39.325,39.325,0,0,1,0,15.694,38.722,38.722,0,0,1-5.859,13.923A39.053,39.053,0,0,1,46.745,70.594a38.756,38.756,0,0,1-7.309,2.269A39.221,39.221,0,0,1,31.59,73.654ZM19.612,58.32h0v-4.9l4.24,2.45L19.612,58.32Zm-.982-.005h0l-4.24-2.449,4.24-2.444v4.893h0Zm-4.73-3.3h0V52.223l1.249-1.381,2.99,1.728L13.9,55.014Zm10.442,0h0L20.1,52.57l4.239-2.45v4.893h0Zm-4.73-3.3h0V46.825l4.24,2.449-4.239,2.444Zm-.982,0h0L15.82,50.1l2.81-3.106v4.725ZM34.866,30.376H33.661l4.68-5.174v1.6a3.753,3.753,0,0,1-.821,2.583A3.423,3.423,0,0,1,34.866,30.376Z" transform="translate(598 538.872)"/></g></svg>