<svg xmlns="http://www.w3.org/2000/svg" viewBox="-1047.518 1628 78.822 62.018"><defs><style>.a,.b,.c,.d,.e,.f,.g{fill-rule:evenodd;}.b{fill:#0080c8;}.c{fill:#6758a1;}.d{fill:#ca0538;}.e{fill:#eb6608;}.f{fill:#fab900;}.g{fill:#13a438;}</style></defs><g transform="translate(-1047.518 1628)"><path class="a" d="M13.812,74.861c-.318-1.5-1.461-1.906-2.731-2.042-4.191-.408-4.89,2.928-4.89,4.357,0,2.451.635,4.425,4.763,4.425.762,0,2.858-.817,2.858-2.179h5.906c-.254,4.017-6.541,4.97-9.272,4.97-5.716,0-10.606-1.157-10.352-7.149.191-4.289,3.937-7.353,11.495-7.149,4.191.136,8.256,1.5,8.256,4.766H13.812Z" transform="translate(-0.085 -22.374)"/><path class="a" d="M106.812,74.861c-.318-1.5-1.461-1.906-2.731-2.042-4.191-.408-4.89,2.928-4.89,4.357,0,2.451.635,4.425,4.763,4.425.762,0,2.858-.817,2.858-2.179h5.906c-.254,4.017-6.541,4.97-9.272,4.97-5.716,0-10.606-1.157-10.352-7.149.191-4.289,3.937-7.353,11.495-7.149,4.191.136,8.256,1.5,8.256,4.766h-6.033Z" transform="translate(-34.023 -22.374)"/><path class="a" d="M32.7,70.5h7.684l6.541,9.8h.064V70.5h4.89V84.116H44.512l-6.8-9.8h-.064v9.8H32.7Z" transform="translate(-11.987 -22.507)"/><path class="a" d="M65.3,70.5h9.272c4.446,0,7.113,1.362,7.113,3.336,0,1.225-1.08,2.655-3.556,3.132h0c2.985.2,4.064,2.179,4.064,3.4,0,2.383-2.54,3.745-7.557,3.745H65.3V70.5Zm5.4,5.31h1.524c2.35,0,3.62-.2,3.62-1.294,0-1.157-1.08-1.5-3.175-1.5H70.7V75.81Zm0,5.447h1.524c2.858,0,3.937-.34,3.937-1.362,0-1.157-1.334-1.5-3.493-1.5H70.7v2.859Z" transform="translate(-23.884 -22.507)"/><path class="b" d="M91.11,31.944,69.2,47.671,76.567,28.88,80.06,20.1a8.049,8.049,0,0,1,6.986-4.7A7.938,7.938,0,0,1,93.9,19.417a9.693,9.693,0,0,1,.063,9.4,9.354,9.354,0,0,1-2.858,3.132Z" transform="translate(-25.307 -4.92)"/><path class="c" d="M77.731,12.189l-10.8,27.505-.508-3L63.188,14.163a3.5,3.5,0,0,1,1.4-3.268L66.11,9.874c.064-.34-.381-.477-.572-.613H62.49A8.842,8.842,0,0,1,66.173,1.3a7.426,7.426,0,0,1,7.24-.613,8.954,8.954,0,0,1,4.954,7.9,9.782,9.782,0,0,1-.635,3.608Z" transform="translate(-22.852 -0.006)"/><path class="d" d="M47.222,39.79,36.553,12.285a9.854,9.854,0,0,1,1.27-9.191A7.717,7.717,0,0,1,45.952.371,8.585,8.585,0,0,1,51.6,6.5a10.562,10.562,0,0,1,.191,3.472L47.222,39.79Z" transform="translate(-13.172 -0.034)"/><path class="e" d="M16.125,30.993a9.214,9.214,0,0,1-2.858-7.9,9.016,9.016,0,0,1,5.462-7.285,7.535,7.535,0,0,1,8.065,2.111,8.85,8.85,0,0,1,1.842,3.064L38.924,47.741l-22.8-16.748Z" transform="translate(-4.875 -4.922)"/><path class="f" d="M9.945,58.82a7.936,7.936,0,0,1-6.414-4.766,9.735,9.735,0,0,1,.826-9.327,7.715,7.715,0,0,1,7.748-3.2,8.166,8.166,0,0,1,3.112,1.362L37.444,58.82Z" transform="translate(-1.045 -13.209)"/><path class="g" d="M93.2,58.82a7.936,7.936,0,0,0,6.414-4.766,9.735,9.735,0,0,0-.826-9.327,7.715,7.715,0,0,0-7.748-3.2,8.166,8.166,0,0,0-3.112,1.362L65.7,58.82Z" transform="translate(-24.03 -13.209)"/></g></svg>