<svg xmlns="http://www.w3.org/2000/svg" viewBox="-1582.339 3557 294.677 65.124"><defs><style>.a,.b{fill:#ba374a;}.b,.c{fill-rule:evenodd;}.c{fill:#f7f7fa;}</style></defs><g transform="translate(-2090 38)"><rect class="a" width="64.263" height="64.871" transform="translate(507.661 3519)"/><path class="b" d="M98.4,103.56A28.344,28.344,0,0,0,106,94.9v7.6c-.3.354-.658.709-1.013,1.063Z" transform="translate(459.092 3472.158)"/><path class="b" d="M14.2,94.9a28.757,28.757,0,0,0,7.6,8.609H15.213c-.354-.354-.658-.709-.962-1.063V94.9Z" transform="translate(500.652 3472.158)"/><path class="c" d="M14.2,76.413H30.3c.608-12.1-1.519-19.6,9.115-19.9,11.141-.3,8.508,10.786,9.115,20l15.952-.1V39.8H57.093l-.1,8H50.509l-.1-8H43.014l-.2,7.9-6.887.152V39.8H28.481l-.2,7.951H21.543l-.1-7.951H14.3l-.1,21.168h0Z" transform="translate(500.652 3499.355)"/><path class="c" d="M27.846,22.686c0,3.038-.557,1.924,1.874,2.127v7.545h3.8V24.813H44.3v7.545H48V24.813H58.433v7.444l4.153.1V24.813c1.924-.2,1.671,1.62,1.57-5.368V11.9h-7.7v7.849l-6.381.152-.152-7.8-7.951-.2v7.9l-6.279.152-.1-8H27.846Z" transform="translate(493.944 3513.126)"/><path class="c" d="M59.312,81.07,62.3,83.8l-2.937,2.988-3.038-2.887Zm5.115,2.937L60.578,87.3v1.114h-.456V99.3h.608v1.215H57.894V99.452H58.5V98.389H55.919V96.768h.608v1.114h1.924V94.945H56.426v.81h-.608V94.034h2.633V88.615h-.557V87.248L54.4,83.754,59.211,79.5Z" transform="translate(480.81 3479.759)"/><path class="a" d="M358.353,94.817V101.5h3.7a4.7,4.7,0,0,0,1.317-.152,1.793,1.793,0,0,0,.81-.456,2.686,2.686,0,0,0,.405-.76q.076-.456.152-1.063h.456v5.874h-.456c-.051-.506-.152-.861-.2-1.215a1.237,1.237,0,0,0-.405-.76,1.558,1.558,0,0,0-.76-.405,4.7,4.7,0,0,0-1.317-.152h-3.7V109a.815.815,0,0,0,.152.557,1.1,1.1,0,0,0,.405.253,3.6,3.6,0,0,0,.81.051h2.887a8.241,8.241,0,0,0,1.215-.051c.354-.051.608-.1.861-.152.253-.1.456-.2.658-.3a2.686,2.686,0,0,0,.608-.506,9.143,9.143,0,0,0,1.57-2.38h.506l-1.469,4.254H353.542v-.456h.608a1.9,1.9,0,0,0,.506-.051c.152-.051.3-.1.506-.152a1.062,1.062,0,0,0,.658-.658,5.626,5.626,0,0,0,.152-1.671V96.741a3.952,3.952,0,0,0-.3-2.026,2.1,2.1,0,0,0-1.519-.506h-.608v-.456h13.015v3.7h-.3a6.6,6.6,0,0,0-.405-1.469,2.116,2.116,0,0,0-.557-.861,1.82,1.82,0,0,0-.912-.354,9.67,9.67,0,0,0-1.418-.1h-4.608ZM351.01,93.5l.456,5.368h-.456a6.5,6.5,0,0,0-2.178-3.393,5.529,5.529,0,0,0-3.393-1.063,5.817,5.817,0,0,0-2.684.608,5.575,5.575,0,0,0-1.975,1.62,7.388,7.388,0,0,0-1.266,2.431,11.31,11.31,0,0,0-.405,3.038,9.85,9.85,0,0,0,.962,4.406,5.937,5.937,0,0,0,1.114,1.722,6.2,6.2,0,0,0,1.367,1.215,6.826,6.826,0,0,0,1.519.709,5.925,5.925,0,0,0,1.621.2,6.489,6.489,0,0,0,3.494-.962V104.54a5.834,5.834,0,0,0-.051-1.013c-.051-.253-.1-.456-.152-.658a.908.908,0,0,0-.253-.354.816.816,0,0,0-.354-.2,3.2,3.2,0,0,0-1.418-.2V101.6h6.533v.506h-.3a2.64,2.64,0,0,0-.709.1.856.856,0,0,0-.506.354,1.5,1.5,0,0,0-.3.76,9.007,9.007,0,0,0-.051,1.266v5.165a8.882,8.882,0,0,1-1.418.658,6.628,6.628,0,0,1-1.418.456,12.389,12.389,0,0,1-3.14.405,10.411,10.411,0,0,1-3.849-.658,8.945,8.945,0,0,1-2.988-1.823,7.978,7.978,0,0,1-1.874-2.735,8.28,8.28,0,0,1-.658-3.393,8.813,8.813,0,0,1,9.014-9.065h.912a5.049,5.049,0,0,1,.81.1c.253.051.557.152.911.253l1.215.405a2.62,2.62,0,0,0,.962.253c.152,0,.253-.1.405-.2a2.356,2.356,0,0,0,.2-.861h.3Zm-33.625.354h4.558l10.331,12.711V96.792a9.473,9.473,0,0,0-.1-1.367,1.333,1.333,0,0,0-.355-.76,1.207,1.207,0,0,0-.557-.3,3.354,3.354,0,0,0-.76-.051h-.608v-.456h5.874v.456h-.608a3.065,3.065,0,0,0-.76.1,1.207,1.207,0,0,0-.557.3,1.5,1.5,0,0,0-.3.76,8.164,8.164,0,0,0-.1,1.317v14.281h-.456L321.841,97.45v10.432a8.9,8.9,0,0,0,.1,1.367,1.851,1.851,0,0,0,.354.709,1.207,1.207,0,0,0,.557.3,3.587,3.587,0,0,0,.76.051h.608v.456H318.3v-.456h.608a4.094,4.094,0,0,0,.81-.051.963.963,0,0,0,.557-.354,1.85,1.85,0,0,0,.354-.709,4.95,4.95,0,0,0,.1-1.317V96.133c-.253-.3-.456-.557-.608-.709-.152-.2-.354-.3-.456-.456l-.456-.3c-.152-.051-.405-.152-.658-.253a3.305,3.305,0,0,0-1.114-.1v-.456Zm-6.026,10.331-2.887-6.836-2.937,6.836Zm.354.962H305.13l-1.165,2.684a4.985,4.985,0,0,0-.405,1.469.751.751,0,0,0,.051.354.86.86,0,0,0,.3.3,3.675,3.675,0,0,0,.608.253,4.776,4.776,0,0,0,1.013.152v.456h-5.317v-.456a4.2,4.2,0,0,0,1.013-.253,2.271,2.271,0,0,0,.658-.506,2.761,2.761,0,0,0,.506-.861c.152-.354.354-.76.557-1.266l5.925-13.926h.405l5.874,14.078c.253.557.456,1.063.658,1.418a2.8,2.8,0,0,0,.608.81,1.444,1.444,0,0,0,.709.405,2.453,2.453,0,0,0,.912.152v.456h-6.685v-.456a2.712,2.712,0,0,0,1.367-.3.884.884,0,0,0,.354-.709,5.34,5.34,0,0,0-.506-1.772Zm-24.1-3.393h7.849V95.931a1.889,1.889,0,0,0-.1-.608,1.018,1.018,0,0,0-.2-.405.908.908,0,0,0-.354-.253,2.168,2.168,0,0,0-1.114-.3h-.608v-.456h7.14v.456h-.608a1.723,1.723,0,0,0-.506.051c-.2.051-.354.1-.506.152a1.1,1.1,0,0,0-.405.253,1.777,1.777,0,0,0-.253.405,6.318,6.318,0,0,0-.1,1.671v11.9a1.889,1.889,0,0,0,.1.608,1.018,1.018,0,0,0,.2.405,2.143,2.143,0,0,0,.354.253,2.22,2.22,0,0,0,1.165.3h.608v.456h-7.191v-.456h.608a3.354,3.354,0,0,0,.76-.051,1.207,1.207,0,0,0,.557-.3,1.52,1.52,0,0,0,.354-.76,5.585,5.585,0,0,0,.1-1.418v-5.165h-7.849v6.128a1.889,1.889,0,0,0,.1.608,1.019,1.019,0,0,0,.2.405,2.144,2.144,0,0,0,.354.253,2.168,2.168,0,0,0,1.114.3h.608v.456h-7.242v-.456h.608a1.911,1.911,0,0,0,1.519-.608,3.737,3.737,0,0,0,.3-1.924V95.88a1.889,1.889,0,0,0-.1-.608,2.2,2.2,0,0,0-.2-.354.908.908,0,0,0-.354-.253,2.169,2.169,0,0,0-1.114-.3H282.8v-.456h7.242v.456h-.608a1.9,1.9,0,0,0-.506.051c-.2.051-.354.1-.506.152a1.1,1.1,0,0,0-.405.253,1.775,1.775,0,0,0-.253.405,6.113,6.113,0,0,0-.152,1.671v4.861ZM281.481,93.5l.354,5.773h-.354a7.266,7.266,0,0,0-2.228-3.747,5.341,5.341,0,0,0-3.444-1.165,5.658,5.658,0,0,0-2.431.506,4.542,4.542,0,0,0-1.874,1.519,7.245,7.245,0,0,0-1.266,2.583,12.79,12.79,0,0,0-.456,3.646,11.987,11.987,0,0,0,.405,3.089,6.36,6.36,0,0,0,1.215,2.329,5.748,5.748,0,0,0,1.975,1.519,6.345,6.345,0,0,0,2.684.557,6.088,6.088,0,0,0,2.887-.709,8.406,8.406,0,0,0,2.785-2.785l.405.253a9.728,9.728,0,0,1-2.988,3.342,7.432,7.432,0,0,1-4.051,1.063,7.8,7.8,0,0,1-3.292-.658,7.131,7.131,0,0,1-2.583-1.772,8.382,8.382,0,0,1-1.722-2.735,9.967,9.967,0,0,1,.557-8.1,8.189,8.189,0,0,1,3.14-3.292,8.765,8.765,0,0,1,4.355-1.165,8.09,8.09,0,0,1,3.646.912,1.6,1.6,0,0,0,.76.253.821.821,0,0,0,.709-.354,3.028,3.028,0,0,0,.405-.81h.405Zm-22.687,7.951,3.646,5.419c.506.76.962,1.367,1.317,1.823a6.924,6.924,0,0,0,.962,1.063,1.791,1.791,0,0,0,.861.456,2.845,2.845,0,0,0,1.013.152v.456h-7.242v-.456a2.568,2.568,0,0,0,1.367-.3,1.113,1.113,0,0,0,.3-.861V109a.855.855,0,0,0-.1-.253,4.675,4.675,0,0,0-.253-.405c-.1-.152-.253-.405-.405-.658l-2.887-4.355-3.545,4.558q-.3.38-.456.608c-.1.152-.2.253-.253.354a.551.551,0,0,0-.051.253v.253a.738.738,0,0,0,.354.658,2.282,2.282,0,0,0,1.266.3v.456h-6.128v-.456a3,3,0,0,0,1.165-.253,6.486,6.486,0,0,0,1.013-.557,7.363,7.363,0,0,0,.962-.861c.3-.354.658-.709,1.013-1.165l4-5.064-3.342-4.861a19.122,19.122,0,0,0-1.215-1.62,4.57,4.57,0,0,0-1.063-.962,3.5,3.5,0,0,0-1.013-.456,7.96,7.96,0,0,0-1.165-.2v-.456h7.8v.456a2.629,2.629,0,0,0-1.367.354.8.8,0,0,0-.354.658,2.617,2.617,0,0,0,.608,1.317l2.583,3.9,2.988-3.849c.2-.253.354-.405.456-.557a2.9,2.9,0,0,0,.2-.354c.051-.1.1-.152.1-.253v-.253a.7.7,0,0,0-.405-.709,3.922,3.922,0,0,0-1.418-.253v-.456h5.976v.456a4.566,4.566,0,0,0-1.367.3,3.345,3.345,0,0,0-1.013.709,17.223,17.223,0,0,0-1.57,1.772Zm-19.9-6.634V101.5h3.7a4.7,4.7,0,0,0,1.317-.152,1.793,1.793,0,0,0,.81-.456,1.826,1.826,0,0,0,.405-.76q.076-.456.152-1.063h.456v5.874h-.456c-.051-.506-.152-.861-.2-1.215a1.237,1.237,0,0,0-.405-.76,1.558,1.558,0,0,0-.76-.405,4.459,4.459,0,0,0-1.317-.152h-3.7V109a.815.815,0,0,0,.152.557.8.8,0,0,0,.405.253,3.6,3.6,0,0,0,.81.051H243.1a8.24,8.24,0,0,0,1.215-.051c.355-.051.608-.1.861-.152a3.372,3.372,0,0,0,.608-.3,2.685,2.685,0,0,0,.608-.506,9.144,9.144,0,0,0,1.57-2.38h.506l-1.469,4.254H233.98v-.456h.608a1.9,1.9,0,0,0,.506-.051c.152-.051.3-.1.506-.152a1.062,1.062,0,0,0,.658-.658,5.628,5.628,0,0,0,.152-1.671V96.741a3.951,3.951,0,0,0-.3-2.026,2.1,2.1,0,0,0-1.519-.506h-.608v-.456h13.015v3.7h-.3a6.6,6.6,0,0,0-.405-1.469,2.811,2.811,0,0,0-.557-.861,1.82,1.82,0,0,0-.912-.354,9.671,9.671,0,0,0-1.418-.1h-4.507ZM216.408,101.4l6.178,6.178c.506.506,1.013.962,1.418,1.317a6.992,6.992,0,0,0,1.165.81,5.166,5.166,0,0,0,1.114.456,3.855,3.855,0,0,0,1.063.152v.456h-8.052v-.456a1.811,1.811,0,0,0,1.063-.253.8.8,0,0,0,.253-.608V109.2a.384.384,0,0,0-.1-.2,1.343,1.343,0,0,0-.253-.3l-.506-.506-5.722-5.824v6.431a1.888,1.888,0,0,0,.1.608,1.018,1.018,0,0,0,.2.405,2.142,2.142,0,0,0,.354.253,2.309,2.309,0,0,0,1.114.3h.608v.456h-7.191v-.456h.608a1.842,1.842,0,0,0,1.519-.608,3.869,3.869,0,0,0,.3-1.924V95.981a1.889,1.889,0,0,0-.1-.608,1.018,1.018,0,0,0-.2-.405.909.909,0,0,0-.354-.253,2.465,2.465,0,0,0-1.114-.3h-.608v-.456h7.191v.456h-.608a2.349,2.349,0,0,0-.962.2,1.223,1.223,0,0,0-.709.709,5.445,5.445,0,0,0-.152,1.62v5.216l.253-.253.506-.506a5.547,5.547,0,0,0,.557-.506c.2-.152.3-.3.405-.354q1.367-1.215,2.279-2.127c.608-.608,1.114-1.114,1.469-1.519a5.337,5.337,0,0,0,.81-1.013,1.509,1.509,0,0,0,.253-.709.7.7,0,0,0-.253-.506,1.523,1.523,0,0,0-.912-.2h-.405v-.456h6.178v.456c-.2,0-.456.051-.658.051a2.669,2.669,0,0,0-.76.253,3.878,3.878,0,0,0-.962.557,15.693,15.693,0,0,0-1.266,1.063l-.76.76c-.405.456-1.013,1.013-1.772,1.772ZM207.9,93.5l.354,5.773H207.9a7.266,7.266,0,0,0-2.228-3.747,5.442,5.442,0,0,0-3.444-1.165,5.658,5.658,0,0,0-2.431.506,4.887,4.887,0,0,0-1.874,1.519,8.2,8.2,0,0,0-1.266,2.583,12.791,12.791,0,0,0-.456,3.646,11.99,11.99,0,0,0,.405,3.089,7.231,7.231,0,0,0,1.215,2.329,5.748,5.748,0,0,0,1.975,1.519,6.345,6.345,0,0,0,2.684.557,6.446,6.446,0,0,0,2.937-.709,8.407,8.407,0,0,0,2.785-2.785l.405.253a9.728,9.728,0,0,1-2.988,3.342,7.375,7.375,0,0,1-4,1.063,8.04,8.04,0,0,1-3.342-.658,7.132,7.132,0,0,1-2.583-1.772,8.381,8.381,0,0,1-1.722-2.735,9.659,9.659,0,0,1-.608-3.444,10.2,10.2,0,0,1,1.114-4.659,8.189,8.189,0,0,1,3.14-3.292,8.765,8.765,0,0,1,4.355-1.165,8.09,8.09,0,0,1,3.646.912,1.6,1.6,0,0,0,.76.253.821.821,0,0,0,.709-.354,2.036,2.036,0,0,0,.405-.81h.405Zm-24,.912a4.742,4.742,0,0,0-2.279.557,4.484,4.484,0,0,0-1.671,1.57,7.976,7.976,0,0,0-1.063,2.481,12.708,12.708,0,0,0-.354,3.241,12.975,12.975,0,0,0,.354,3.241,7.582,7.582,0,0,0,1.013,2.532,5.264,5.264,0,0,0,1.671,1.671,4.413,4.413,0,0,0,2.329.557,5.079,5.079,0,0,0,2.178-.456,4.194,4.194,0,0,0,1.722-1.418,6.964,6.964,0,0,0,1.165-2.38,11.829,11.829,0,0,0,.405-3.494,14.4,14.4,0,0,0-.354-3.444,7.482,7.482,0,0,0-1.063-2.583,5.241,5.241,0,0,0-1.722-1.62A6.141,6.141,0,0,0,183.9,94.412Zm.253-.912a7.21,7.21,0,0,1,3.089.658,8.437,8.437,0,0,1,2.583,1.874,9.087,9.087,0,0,1,1.772,2.735,8.768,8.768,0,0,1,.658,3.494,9.321,9.321,0,0,1-2.431,6.381,8.074,8.074,0,0,1-2.633,1.874,8.025,8.025,0,0,1-6.482.051,8.753,8.753,0,0,1-2.633-1.823,8.443,8.443,0,0,1-1.772-2.836,10.536,10.536,0,0,1-.658-3.6,8.692,8.692,0,0,1,.658-3.444,9.334,9.334,0,0,1,1.772-2.785A8.409,8.409,0,0,1,184.15,93.5Zm-8.913.354V97.8h-.253a3.519,3.519,0,0,0-.962-2.228,3.114,3.114,0,0,0-2.178-.658h-2.38v12.913a9.473,9.473,0,0,0,.1,1.367,2.125,2.125,0,0,0,.354.76,1.207,1.207,0,0,0,.557.3,3.843,3.843,0,0,0,.81.051h.557v.456h-7.191v-.456h.608a4.094,4.094,0,0,0,.81-.051.963.963,0,0,0,.557-.354,1.85,1.85,0,0,0,.354-.709,4.951,4.951,0,0,0,.1-1.317V94.969h-2.026a10.786,10.786,0,0,0-1.367.1,2.239,2.239,0,0,0-1.671,1.317,4.939,4.939,0,0,0-.3,1.418h-.456v-3.95ZM158.728,93.5v5.824h-.456a5.789,5.789,0,0,0-1.57-3.6,4.123,4.123,0,0,0-3.14-1.266,4.353,4.353,0,0,0-1.215.2,3.114,3.114,0,0,0-.962.608,3.536,3.536,0,0,0-.658.81,2.055,2.055,0,0,0-.2.962,1.986,1.986,0,0,0,.2.912,5.273,5.273,0,0,0,1.165,1.317,31.4,31.4,0,0,0,2.887,1.671c.81.456,1.874,1.114,3.241,1.975a5.022,5.022,0,0,1,1.367,1.57,4.3,4.3,0,0,1,.456,1.924,4.552,4.552,0,0,1-.405,1.823,4.376,4.376,0,0,1-1.063,1.469,5.455,5.455,0,0,1-1.671,1.013,5.954,5.954,0,0,1-2.178.405,10.788,10.788,0,0,1-1.367-.1,4.553,4.553,0,0,1-.608-.152,5.924,5.924,0,0,0-1.013-.253,9.845,9.845,0,0,0-1.013-.253,1.733,1.733,0,0,0-.557-.1.65.65,0,0,0-.506.2,1.417,1.417,0,0,0-.253.76h-.456V105.4h.456a8.268,8.268,0,0,0,.861,2.735,3.545,3.545,0,0,0,.709.81,5.131,5.131,0,0,0,1.013.709,4.644,4.644,0,0,0,1.165.456,5.838,5.838,0,0,0,1.317.152,4.158,4.158,0,0,0,1.418-.253,3.642,3.642,0,0,0,1.063-.608,2.61,2.61,0,0,0,.658-.861,2.722,2.722,0,0,0,.253-1.063,2.4,2.4,0,0,0-.354-1.266,5.189,5.189,0,0,0-1.165-1.266c-.506-.3-1.165-.709-1.924-1.114-1.418-.81-2.633-1.57-3.747-2.329a6.751,6.751,0,0,1-1.418-1.57,4,4,0,0,1-.456-1.924,4.977,4.977,0,0,1,.354-1.722,4.814,4.814,0,0,1,1.013-1.418,5.446,5.446,0,0,1,1.57-.962,6.214,6.214,0,0,1,1.975-.354,6.771,6.771,0,0,1,2.836.658,5.273,5.273,0,0,0,.608.253,1.566,1.566,0,0,0,.405.1.762.762,0,0,0,.557-.2,1.067,1.067,0,0,0,.3-.76h.506Z" transform="translate(434.313 3472.849)"/><path class="a" d="M348.48,14.277h1.165a11.58,11.58,0,0,0,3.444-.456,7.17,7.17,0,0,0,2.481-1.266,5.572,5.572,0,0,0,1.519-1.924,5.658,5.658,0,0,0,.506-2.431,6.809,6.809,0,0,0-.405-2.329A6.629,6.629,0,0,0,355.974,4,5.1,5.1,0,0,0,354.1,2.832a6.043,6.043,0,0,0-2.38-.456,17.6,17.6,0,0,0-3.19.405v11.5Zm19.5,14.179h-7.292l-9.318-12.913c-.355,0-.658.051-.962.051h-1.317a3.114,3.114,0,0,1-.658-.051v8a9.2,9.2,0,0,0,.2,2.279,3.278,3.278,0,0,0,.557,1.266,2.026,2.026,0,0,0,.912.506,8.4,8.4,0,0,0,1.215.1h1.063v.76h-11.85V27.7h1.063a2.785,2.785,0,0,0,2.481-1.114,7.114,7.114,0,0,0,.405-2.988V5.82a6.047,6.047,0,0,0-.557-3.241,2.906,2.906,0,0,0-2.329-.912h-1.063V.958h10.027c1.469,0,2.735.051,3.849.152a14.314,14.314,0,0,1,2.633.506,9.535,9.535,0,0,1,1.924.912,7.249,7.249,0,0,1,1.621,1.418,6.206,6.206,0,0,1,1.063,1.874A6.161,6.161,0,0,1,362.051,8a6.481,6.481,0,0,1-1.621,4.406,9.782,9.782,0,0,1-5.115,2.633l5.672,7.9a26.3,26.3,0,0,0,1.772,2.228,9.725,9.725,0,0,0,1.519,1.418,5.247,5.247,0,0,0,1.621.76,16.558,16.558,0,0,0,2.026.354v.76ZM329.641,17.72,324.982,6.579l-4.76,11.141Zm.557,1.519H319.513l-1.874,4.355a6.77,6.77,0,0,0-.658,2.38,2.541,2.541,0,0,0,.1.608,1.076,1.076,0,0,0,.456.506,3.433,3.433,0,0,0,.962.405,6.684,6.684,0,0,0,1.621.2v.76h-8.66V27.7a5.589,5.589,0,0,0,1.671-.456,3.02,3.02,0,0,0,1.114-.81,6.938,6.938,0,0,0,.861-1.418c.253-.557.557-1.266.912-2.076L325.691.3h.709l9.571,22.89a16.6,16.6,0,0,0,1.063,2.279,6.379,6.379,0,0,0,1.013,1.367,3,3,0,0,0,1.165.658,4.414,4.414,0,0,0,1.519.2v.76H329.894V27.7a3.529,3.529,0,0,0,2.178-.557,1.332,1.332,0,0,0,.608-1.114,8.193,8.193,0,0,0-.81-2.836ZM314.449.958V7.44h-.456a5.559,5.559,0,0,0-1.519-3.646,5.2,5.2,0,0,0-3.545-1.063h-3.9V23.8a8.578,8.578,0,0,0,.2,2.178,2.5,2.5,0,0,0,.557,1.165,2.026,2.026,0,0,0,.912.506,9.165,9.165,0,0,0,1.266.1h.962v.76h-11.7v-.76h.962a8.537,8.537,0,0,0,1.266-.1,2.026,2.026,0,0,0,.912-.506,3.021,3.021,0,0,0,.557-1.215,7.911,7.911,0,0,0,.2-2.127V2.68h-3.292a9.369,9.369,0,0,0-2.178.2,4.512,4.512,0,0,0-1.671.709,4.474,4.474,0,0,0-1.114,1.418,7.248,7.248,0,0,0-.506,2.38h-.76V.958Zm-20.56,19.9.658.1-2.38,7.444h-21.32v-.76h1.063a2.843,2.843,0,0,0,2.481-1.114,7.115,7.115,0,0,0,.405-2.988V5.82a6.047,6.047,0,0,0-.557-3.241,2.906,2.906,0,0,0-2.329-.912h-1.063V.958h12.458v.76a18.1,18.1,0,0,0-1.874.1,3.54,3.54,0,0,0-1.215.3,1.907,1.907,0,0,0-.76.456,4.752,4.752,0,0,0-.456.608,9.053,9.053,0,0,0-.3,3.089V23.595a6.465,6.465,0,0,0,.2,2.026,1.328,1.328,0,0,0,.861.861,15.938,15.938,0,0,0,3.19.2h1.975a14.948,14.948,0,0,0,4.456-.456,6.806,6.806,0,0,0,1.215-.608,4.38,4.38,0,0,0,1.114-1.063,9.848,9.848,0,0,0,1.063-1.519A10.841,10.841,0,0,0,293.889,20.86Zm-34.081-3.14L255.149,6.579l-4.76,11.141Zm.557,1.519H249.68l-1.874,4.355a6.77,6.77,0,0,0-.658,2.38,2.542,2.542,0,0,0,.1.608.865.865,0,0,0,.456.506,2.882,2.882,0,0,0,.962.405,6.684,6.684,0,0,0,1.62.2v.76h-8.66V27.7a5.589,5.589,0,0,0,1.671-.456,3.02,3.02,0,0,0,1.114-.81,6.939,6.939,0,0,0,.861-1.418c.253-.557.557-1.266.912-2.076L255.858.3h.709l9.571,22.89a16.606,16.606,0,0,0,1.063,2.279,6.379,6.379,0,0,0,1.013,1.367,3,3,0,0,0,1.165.658,4.292,4.292,0,0,0,1.469.2v.76H260.01V27.7a3.419,3.419,0,0,0,2.178-.557,1.332,1.332,0,0,0,.608-1.114,9.552,9.552,0,0,0-.81-2.836Zm-36.917-4.963h1.114a11.58,11.58,0,0,0,3.444-.456,6.744,6.744,0,0,0,2.481-1.266,4.9,4.9,0,0,0,1.469-1.924,5.658,5.658,0,0,0,.506-2.431,5.794,5.794,0,0,0-.456-2.329A6.629,6.629,0,0,0,230.791,4a5.1,5.1,0,0,0-1.874-1.165,6.043,6.043,0,0,0-2.38-.456,17.6,17.6,0,0,0-3.19.405v11.5ZM243,28.456H235.7l-9.318-12.913c-.354,0-.658.051-.962.051h-1.317a3.115,3.115,0,0,1-.658-.051v8a9.2,9.2,0,0,0,.2,2.279,3.277,3.277,0,0,0,.557,1.266,2.025,2.025,0,0,0,.912.506,8.4,8.4,0,0,0,1.215.1h1.114v.76H215.6V27.7h1.063a2.785,2.785,0,0,0,2.481-1.114,7.115,7.115,0,0,0,.405-2.988V5.82a6.047,6.047,0,0,0-.557-3.241,2.906,2.906,0,0,0-2.329-.912H215.6V.958h10.027q2.2,0,3.8.152a13.5,13.5,0,0,1,2.633.506,8.4,8.4,0,0,1,1.924.912A7.249,7.249,0,0,1,235.6,3.946a6.206,6.206,0,0,1,1.063,1.874A6.162,6.162,0,0,1,237.07,8,6.481,6.481,0,0,1,235.45,12.4a9.585,9.585,0,0,1-5.115,2.633l5.672,7.9a26.309,26.309,0,0,0,1.772,2.228,9.725,9.725,0,0,0,1.519,1.418,5.248,5.248,0,0,0,1.621.76,16.558,16.558,0,0,0,2.026.354v.76ZM197.014,13.365a14.679,14.679,0,0,0,1.722.2c.658.051,1.317.051,2.127.051,2.684,0,4.608-.506,5.773-1.469A5,5,0,0,0,208.408,8.1,5.311,5.311,0,0,0,207.9,5.82a5.735,5.735,0,0,0-1.469-1.874A9.126,9.126,0,0,0,204,2.68a11.114,11.114,0,0,0-3.342-.456,13.3,13.3,0,0,0-3.646.456Zm0,13.116a20.474,20.474,0,0,0,4.608.557,11,11,0,0,0,3.292-.456,7.514,7.514,0,0,0,2.38-1.215,4.95,4.95,0,0,0,1.418-1.823,5.52,5.52,0,0,0,.506-2.228,5.657,5.657,0,0,0-.506-2.431,5.49,5.49,0,0,0-1.57-2.026,7.821,7.821,0,0,0-2.684-1.317,13.933,13.933,0,0,0-3.8-.456c-.861,0-1.57,0-2.127.051a5.249,5.249,0,0,0-1.418.152V26.481Zm10.635-12.052a9.767,9.767,0,0,1,2.836,1.013,5.859,5.859,0,0,1,1.924,1.469,4.98,4.98,0,0,1,1.063,1.874,6.336,6.336,0,0,1,.354,2.178,7.018,7.018,0,0,1-.3,2.026,9.762,9.762,0,0,1-.962,1.924,9.039,9.039,0,0,1-1.519,1.62,8.192,8.192,0,0,1-2.076,1.165,20.45,20.45,0,0,1-6.887.861H189.114V27.8h1.013a9.865,9.865,0,0,0,1.266-.1,1.728,1.728,0,0,0,.912-.557,2.669,2.669,0,0,0,.557-1.266,8.33,8.33,0,0,0,.2-2.178V5.82a9.2,9.2,0,0,0-.2-2.279,2.719,2.719,0,0,0-.608-1.215,1.622,1.622,0,0,0-.962-.506,8.311,8.311,0,0,0-1.165-.1h-1.013V.958h11.9c3.8,0,6.685.658,8.66,1.924A6.066,6.066,0,0,1,212.611,8.3a5.65,5.65,0,0,1-1.266,3.7A7,7,0,0,1,207.648,14.429ZM188.658,27.7v.76h-11.7V27.7h.962a8.536,8.536,0,0,0,1.266-.1,1.644,1.644,0,0,0,.912-.506,2.456,2.456,0,0,0,.557-1.266,9.017,9.017,0,0,0,.2-2.228V5.82a13.8,13.8,0,0,0-.051-1.57c-.051-.405-.1-.76-.152-1.013a1.326,1.326,0,0,0-.3-.658,1.587,1.587,0,0,0-.557-.405,4.092,4.092,0,0,0-1.874-.456h-.962V.958h11.7v.76H187.7a8.537,8.537,0,0,0-1.266.1,2.025,2.025,0,0,0-.912.506,2.456,2.456,0,0,0-.557,1.266,9.016,9.016,0,0,0-.2,2.228V23.595a13.8,13.8,0,0,0,.051,1.57,3.045,3.045,0,0,0,.152,1.013,1.751,1.751,0,0,0,.354.608,3.156,3.156,0,0,0,.608.456,3.746,3.746,0,0,0,1.823.456ZM172.6.351l.76,8.66h-.76a11.078,11.078,0,0,0-3.545-5.57,8.9,8.9,0,0,0-5.57-1.722,10,10,0,0,0-4.355.912,10.178,10.178,0,0,0-3.241,2.633,11.229,11.229,0,0,0-2.026,3.95,17.281,17.281,0,0,0-.709,4.963,16.253,16.253,0,0,0,1.57,7.191A14.21,14.21,0,0,0,156.5,24.2a11,11,0,0,0,2.178,1.924,7.933,7.933,0,0,0,2.481,1.165,9.077,9.077,0,0,0,2.583.354,11.389,11.389,0,0,0,5.722-1.519v-7.9a15.8,15.8,0,0,0-.051-1.671,4.2,4.2,0,0,0-.253-1.013,1.226,1.226,0,0,0-.405-.557,5.3,5.3,0,0,0-.557-.405,6.1,6.1,0,0,0-2.279-.3v-.81h10.635v.81h-.506a3.823,3.823,0,0,0-1.165.152,1.8,1.8,0,0,0-.81.557,3.051,3.051,0,0,0-.456,1.215,11.009,11.009,0,0,0-.152,2.026v8.406c-.81.405-1.57.81-2.329,1.114a20.033,20.033,0,0,1-2.279.76,20.117,20.117,0,0,1-5.064.608,17.563,17.563,0,0,1-6.279-1.063,14.458,14.458,0,0,1-4.811-2.937,13.355,13.355,0,0,1-3.089-4.406,14.134,14.134,0,0,1-1.114-5.52,14.872,14.872,0,0,1,1.772-6.938,14.633,14.633,0,0,1,5.672-6.077A14.086,14.086,0,0,1,163.084.4a13.28,13.28,0,0,1,1.469.051c.405.051.861.1,1.317.2s.962.253,1.469.405c.557.152,1.165.405,1.975.658a3.639,3.639,0,0,0,1.57.405.661.661,0,0,0,.608-.354A2.629,2.629,0,0,0,171.845.4h.76Z" transform="translate(434.363 3518.852)"/><rect class="a" width="219.426" height="1.722" transform="translate(582.913 3556.221)"/></g></svg>