<svg xmlns="http://www.w3.org/2000/svg" xmlns:xlink="http://www.w3.org/1999/xlink" viewBox="-1316.319 17055 37.33 37.498"><defs><style>.a{clip-path:url(#a);}.b{fill:url(#b);}.c{fill:#d6000f;}.c,.d{fill-rule:evenodd;}.d{fill:#011e6e;}</style><clipPath id="a"><ellipse cx="18.665" cy="18.749" rx="18.665" ry="18.749"/></clipPath><radialGradient id="b" cx="-15.679" cy="80.478" r="18.923" gradientUnits="userSpaceOnUse"><stop offset="0" stop-color="#e5e2df"/><stop offset="0" stop-color="#f1efee"/><stop offset="0" stop-color="#fff"/><stop offset="0.621" stop-color="#fff"/><stop offset="1" stop-color="#fff"/></radialGradient></defs><g transform="translate(-1316.319 17055)"><g transform="translate(0 0)"><g class="a"><ellipse class="b" cx="18.665" cy="18.749" rx="18.665" ry="18.749"/></g><g class="a"><path class="c" d="M.42,31.158H15.05V16.528a18.689,18.689,0,0,1,7.483,0V31.158H37.246a17.667,17.667,0,0,1,0,7.567H22.533V52.6c0,.589-.168.841-.757.925a18.287,18.287,0,0,1-6.054,0c-.5-.084-.673-.252-.673-.841V38.809c-.252,0-.42-.084-.589-.084H.841a.63.63,0,0,0-.42.084c0-1.766-.42-2.27-.42-4.036C0,34.016.42,32,.42,31.158Z" transform="translate(-0.168 -16.192)"/></g><g class="a"><path class="d" d="M13.292,27.757c-2.859-1.429-5.633-2.775-8.492-4.2A18.047,18.047,0,0,1,13.292,17.5Z" transform="translate(-0.932 -16.407)"/></g><g class="a"><path class="d" d="M4.8,51.5c2.859-1.429,5.633-2.775,8.492-4.2V57.557A18.047,18.047,0,0,1,4.8,51.5Z" transform="translate(-0.932 -21.152)"/></g><g class="a"><path class="d" d="M29.9,17.5a19.033,19.033,0,0,1,8.408,6.054c-2.859,1.429-5.633,2.775-8.408,4.2Z" transform="translate(-4.929 -16.407)"/></g><g class="a"><path class="d" d="M30,47.3c2.859,1.429,5.633,2.775,8.408,4.2A19.033,19.033,0,0,1,30,57.557Z" transform="translate(-4.945 -21.152)"/></g><g class="a"><path class="c" d="M11.9,46.07c-2.69,1.345-5.465,2.69-8.24,4.12-.42-.673-.841-1.345-1.261-2.1,1.513-.757,2.859-1.513,4.288-2.1a6.806,6.806,0,0,1,1.85,0h3.279Z" transform="translate(-0.55 -20.931)"/></g><g class="a"><path class="c" d="M40.617,28.1c-1.429.673-2.69,1.345-4.036,2.018a.506.506,0,0,1-.336.084c-1.682,0-3.363,0-5.045-.168,2.69-1.345,5.381-2.69,8.155-4.036A15.39,15.39,0,0,1,40.617,28.1Z" transform="translate(-5.136 -17.76)"/></g><g class="a"><path class="c" d="M41.752,48.1c-1.429-.673-2.69-1.345-3.952-2.018V46h4.792A15.648,15.648,0,0,0,41.752,48.1Z" transform="translate(-6.187 -20.945)"/></g><g class="a"><path class="c" d="M5.924,30.518H1.3c.252-.673.5-1.261.841-2.018,1.345.673,2.606,1.261,3.783,1.934C6.008,30.434,5.924,30.518,5.924,30.518Z" transform="translate(-0.375 -18.159)"/></g></g></g></svg>