<svg xmlns="http://www.w3.org/2000/svg" viewBox="-923 17055 39.348 37.834"><defs><style>.a{fill:#de2910;}.b{fill:#ffde00;}</style></defs><g transform="translate(-923 17055)"><path class="a" d="M99.074,0C88.228,0,79.4,8.492,79.4,18.917s8.828,18.917,19.674,18.917,19.674-8.492,19.674-18.917S109.92,0,99.074,0Z" transform="translate(-79.4)"/><g transform="translate(5.381 3.111)"><path class="b" d="M92.274,9.483,91.013,5.7,89.836,9.483H85.8l3.279,2.354-1.261,3.868,3.195-2.354,3.279,2.354-1.261-3.868L96.31,9.483Z" transform="translate(-85.8 -4.018)"/><path class="b" d="M102.361,6.054l.757,1.093.084-1.261,1.261-.336-1.177-.5L103.37,3.7l-.841,1.009-1.261-.5.673,1.093L101.1,6.306Z" transform="translate(-88.236 -3.7)"/><path class="b" d="M106.461,10.286l.252,1.261.589-1.177,1.345.252-.925-.925.589-1.177-1.177.589L106.209,8.1l.168,1.345-1.177.589Z" transform="translate(-88.889 -4.401)"/><path class="b" d="M107.386,15.661l-.42-1.261-.42,1.345H105.2l1.093.757-.336,1.261,1.093-.757,1.093.673-.5-1.177,1.093-.841Z" transform="translate(-88.889 -5.404)"/><path class="b" d="M103.286,18.9l-.841,1.093-1.177-.5.673,1.177-.841,1.009,1.345-.336.673,1.093.084-1.345,1.261-.336-1.177-.5Z" transform="translate(-88.236 -6.12)"/></g></g></svg>