<svg xmlns="http://www.w3.org/2000/svg" viewBox="-1712 17055 39.348 37.834"><defs><style>.a{fill:#de2910;}.b{fill:#fff;}</style></defs><g transform="translate(-1712 17055)"><path class="a" d="M162.574,17.8c-10.846,0-19.674,8.492-19.674,18.917s8.828,18.917,19.674,18.917,19.674-8.492,19.674-18.917S173.42,17.8,162.574,17.8Z" transform="translate(-142.9 -17.8)"/><g transform="translate(9.718 7.551)"><path class="a" d="M172.533,36.986c-.925,1.177-3.111.925-3.952.084a2.313,2.313,0,0,0-3.868.252c0,.084-.084.168-.084.252h.42c6.39-1.009,8.744,7.147,3.7,10.341a1.924,1.924,0,0,0-1.177-2.859,2.927,2.927,0,0,1-1.261-3.7,2.3,2.3,0,0,0-1.429-3.615h-.252c.084.168.084.252.168.42,2.943,5.8-4.036,10.594-8.66,6.642a1.908,1.908,0,0,0,2.354-1.934,2.839,2.839,0,0,1,3.111-2.354,2.39,2.39,0,0,0,3.027-2.438c0-.084-.084-.168-.084-.252-.084.084-.252.168-.336.252-4.624,4.624-11.266-.589-9-6.222a1.913,1.913,0,0,0,2.606,1.6,2.848,2.848,0,0,1,3.195,2.27,2.36,2.36,0,0,0,3.279,2.1c.084-.084.168-.084.252-.168-.168-.084-.252-.168-.42-.252-5.8-2.943-2.943-10.93,3.111-10.51a1.927,1.927,0,0,0-.757,2.943,2.785,2.785,0,0,1-1.177,3.7,2.352,2.352,0,0,0-1.009,3.783c.084.084.168.084.252.168a.642.642,0,0,1,.168-.42c1.009-6.39,9.5-6.138,10.93-.252A1.884,1.884,0,0,0,172.533,36.986Z" transform="translate(-154.506 -26.797)"/><path class="a" d="M166.3,39.6h0Z" transform="translate(-156.344 -28.822)"/><path class="b" d="M163.856,35.289a4.385,4.385,0,0,1,.5-3.531l.168.084a4,4,0,0,0-.5,3.363,3.909,3.909,0,0,0,1.345,2.018,2.352,2.352,0,0,1,1.009-3.783,2.923,2.923,0,0,0,1.177-3.7,1.915,1.915,0,0,1,.757-2.943c-6.054-.42-8.912,7.567-3.111,10.51A3.755,3.755,0,0,1,163.856,35.289Zm.841-5.129.5.42.673-.252-.252.589.42.5-.673-.084-.336.589-.168-.673-.673-.168.589-.336Z" transform="translate(-155.666 -26.781)"/><path class="a" d="M165.189,31.977l.168.673.336-.5.673.084-.42-.589.336-.589-.673.252-.5-.5.084.673-.589.336Z" transform="translate(-156.073 -27.421)"/><path class="a" d="M166.3,39.6Z" transform="translate(-156.344 -28.822)"/><path class="a" d="M165.934,38.417h0l-.252-.252a3.908,3.908,0,0,1-1.345-2.018,3.961,3.961,0,0,1,.5-3.363l-.168-.084a4.339,4.339,0,0,0-.5,3.531,4.155,4.155,0,0,0,1.261,2.018.9.9,0,0,0,.5.168Z" transform="translate(-155.978 -27.723)"/><path class="b" d="M170.836,43.519h-.168a4.331,4.331,0,0,0-1.6-3.027,3.466,3.466,0,0,0-2.27-.841,2.411,2.411,0,0,1,1.429,3.615,2.927,2.927,0,0,0,1.261,3.7,1.969,1.969,0,0,1,1.177,2.859c5.129-3.195,2.775-11.35-3.7-10.341a4.206,4.206,0,0,1,2.27.841A4.7,4.7,0,0,1,170.836,43.519Zm.673,1.429-.673-.084-.336.589-.168-.673-.673-.168.589-.336V43.6l.5.42.673-.252-.252.589Z" transform="translate(-156.424 -28.79)"/><path class="a" d="M171.293,44.9l-.5-.5.084.673-.673.336.673.168.168.673.336-.589.673.084-.42-.5.252-.589Z" transform="translate(-156.965 -29.586)"/><path class="a" d="M166.4,39.6Z" transform="translate(-156.36 -28.822)"/><path class="a" d="M166.4,39.593c.084,0,.084.084,0,0a.636.636,0,0,0,.336.084,3.98,3.98,0,0,1,2.27.841,4.331,4.331,0,0,1,1.6,3.027h.168a4.154,4.154,0,0,0-1.682-3.111,3.466,3.466,0,0,0-2.27-.841h-.42C166.484,39.509,166.484,39.593,166.4,39.593Z" transform="translate(-156.36 -28.815)"/><path class="b" d="M161.724,39.51a4.7,4.7,0,0,1-3.195-1.6l.084-.084a4.237,4.237,0,0,0,3.027,1.513,3.558,3.558,0,0,0,2.354-.673,2.36,2.36,0,0,1-3.279-2.1,2.974,2.974,0,0,0-3.195-2.27,1.913,1.913,0,0,1-2.606-1.6c-2.27,5.633,4.456,10.762,9,6.222A3.07,3.07,0,0,1,161.724,39.51ZM157.941,38l-.168-.673-.673-.168.589-.336v-.673l.5.42.589-.252-.252.589.42.5-.673-.084Z" transform="translate(-154.459 -27.723)"/><path class="a" d="M159.045,37.641l.336-.673-.673.252-.5-.42.084.673-.589.336.589.168.168.673.336-.589.673.084Z" transform="translate(-154.975 -28.376)"/><path class="a" d="M165.217,39.573h0v-.084c-.084,0-.084,0,0,.084-.168,0-.168.084-.252.168a4.1,4.1,0,0,1-2.354.673,4.237,4.237,0,0,1-3.027-1.513l-.084.084a4.533,4.533,0,0,0,3.195,1.6,4.458,4.458,0,0,0,2.354-.589,1.16,1.16,0,0,0,.336-.252Z" transform="translate(-155.261 -28.711)"/><path class="b" d="M166.4,38a3.559,3.559,0,0,1,1.513-1.85,4.314,4.314,0,0,1,3.531-.589v.168a4.31,4.31,0,0,0-3.363.589,3.736,3.736,0,0,0-1.513,1.934A2.4,2.4,0,0,1,170.436,38a2.96,2.96,0,0,0,3.952-.084,1.9,1.9,0,0,1,3.027-.252C175.9,31.865,167.493,31.612,166.4,38Zm6.138-1.513-.336.589-.168-.673-.673-.168.589-.336v-.673l.5.42.673-.252-.252.589.42.5Z" transform="translate(-156.36 -27.813)"/><path class="a" d="M173.982,35.768l-.589.252-.5-.42v.673l-.589.336.673.168.168.673.336-.589.673.084-.42-.5Z" transform="translate(-157.299 -28.185)"/><path class="a" d="M168.05,36.729a4.31,4.31,0,0,1,3.363-.589v-.168a4.422,4.422,0,0,0-3.531.589,3.912,3.912,0,0,0-1.513,1.85c-.084.168-.084.336-.168.42v.084h.168v-.084a.309.309,0,0,1,.084-.252A4.126,4.126,0,0,1,168.05,36.729Z" transform="translate(-156.328 -28.221)"/><path class="b" d="M164.86,42.622a4.164,4.164,0,0,1-2.522,2.522l-.084-.168a4.2,4.2,0,0,0,2.354-2.438,3.5,3.5,0,0,0,.084-2.438,2.328,2.328,0,0,1-3.027,2.438,2.839,2.839,0,0,0-3.111,2.354,1.873,1.873,0,0,1-2.354,1.934c4.624,3.868,11.6-.841,8.66-6.642A3.071,3.071,0,0,1,164.86,42.622Zm-3.279,3.027-.336.589-.168-.673L160.4,45.4l.589-.336v-.673l.5.42.673-.252-.252.589.42.5Z" transform="translate(-154.736 -28.902)"/><path class="b" d="M166.3,39.6Z" transform="translate(-156.344 -28.822)"/><path class="a" d="M162.882,45.368l-.673.252-.5-.42.084.673-.589.336.673.168.084.673.42-.589.673.084-.5-.5Z" transform="translate(-155.532 -29.714)"/><path class="a" d="M165.922,39.6h-.168v.084c0,.084.084.168.084.252a3.5,3.5,0,0,1-.084,2.438,4.2,4.2,0,0,1-2.354,2.438l.084.168a4.385,4.385,0,0,0,2.522-2.522,4.09,4.09,0,0,0,.168-2.438c-.084-.084-.084-.168-.252-.42C166.006,39.684,166.006,39.6,165.922,39.6Z" transform="translate(-155.882 -28.822)"/></g></g></svg>