<svg xmlns="http://www.w3.org/2000/svg" viewBox="-1607.549 7519.307 326.557 98.228"><defs><style>.a{fill:#ba374a;}.b{fill:none;stroke:#ba374a;stroke-width:2px;}</style></defs><g transform="translate(-2090)"><path class="a" d="M26.911,113.792a2.1,2.1,0,1,1,0,4.194H11.549a2.1,2.1,0,1,1,0-4.194Zm7.827,0a2.1,2.1,0,1,0,0,4.194h4.824a2.1,2.1,0,1,0,0-4.194Zm112.488-3.984a2.1,2.1,0,0,1-.076,2.965c-2.649,2.517-6.876,2.975-10.506,2.064v15.9a7.58,7.58,0,0,1-7.571,7.571H7.571A7.58,7.58,0,0,1,0,130.74L.075,47.655a7.58,7.58,0,0,1,7.571-7.571h121.5a7.58,7.58,0,0,1,7.571,7.571l-.075,55.492c2.666,1.015,6.018.782,7.617-.737a2.1,2.1,0,0,1,2.89,3.041c-3.768,3.581-10.733,2.994-14.626.225-2.837-2.017-7.411-2.127-9.41-.226a2.1,2.1,0,1,1-2.89-3.04c3.114-2.959,8.251-3.1,12.226-1.5l.075-46.055H4.269L4.194,96.042H45.276a2.1,2.1,0,1,1,0,4.194H4.194v30.5a3.38,3.38,0,0,0,3.377,3.376h121.5a3.38,3.38,0,0,0,3.377-3.376V112.946c-2.842-1.966-7.353-2.058-9.336-.173a2.1,2.1,0,0,1-2.89-3.04c3.825-3.635,10.7-3.014,14.73-.153,2.733,1.944,7.343,2.019,9.307.153A2.1,2.1,0,0,1,147.225,109.808ZM4.269,50.656H132.523v-3a3.38,3.38,0,0,0-3.377-3.377H7.646a3.38,3.38,0,0,0-3.377,3.377v3Z" transform="translate(584 7479.223)"/><path class="b" d="M0,27.316V23.056l3.689-2.132,3.689,2.132v4.259L3.689,29.444Zm18.028,1.136L1.619,11.987H13.051a1.915,1.915,0,0,0,2.067-2.125V8.331a2.853,2.853,0,0,0-2.777-2.608H5.6L.292,0H12.176c3.964,0,6.969,1.638,8.5,3.793s1.531,4.876.963,7.594a7.216,7.216,0,0,1-6.216,5.784l11.163,11.28Z" transform="translate(658.265 7558.971)"/><ellipse class="b" cx="24.495" cy="24.495" rx="24.495" ry="24.495" transform="translate(644.873 7549.045)"/><path class="a" d="M76.911,113.792a2.1,2.1,0,1,1,0,4.194H11.549a2.1,2.1,0,1,1,0-4.194Z" transform="translate(489 7479.223)"/><path class="a" d="M76.911,113.792a2.1,2.1,0,1,1,0,4.194H11.549a2.1,2.1,0,1,1,0-4.194Z" transform="translate(473 7465.223)"/><path class="a" d="M76.911,113.792a2.1,2.1,0,1,1,0,4.194H11.549a2.1,2.1,0,1,1,0-4.194Z" transform="translate(730 7420.223)"/></g></svg>