<svg xmlns="http://www.w3.org/2000/svg" viewBox="-1594 2399.086 944 453.984"><defs><style>.a,.b{fill:#fff;}.a{opacity:0.9;}.c{fill:#ba374a;}</style></defs><g transform="translate(-2090)"><path class="a" d="M1495.9,559.971V614.3a44.888,44.888,0,0,0,22.3,38.736l46.617,27a44.838,44.838,0,0,0,44.941,0l46.618-27a44.889,44.889,0,0,0,22.3-38.736V559.971a44.888,44.888,0,0,0-22.3-38.736l-46.618-27a44.76,44.76,0,0,0-44.9,0l-46.659,27A44.888,44.888,0,0,0,1495.9,559.971Z" transform="translate(-810.19 2166.995)"/><path class="a" d="M1495.9,555.073V605.7a41.825,41.825,0,0,0,20.781,36.093l43.436,25.156a41.778,41.778,0,0,0,41.874,0l43.436-25.156a41.825,41.825,0,0,0,20.781-36.093V555.073a41.825,41.825,0,0,0-20.781-36.092l-43.436-25.156a41.706,41.706,0,0,0-41.835,0l-43.474,25.156A41.824,41.824,0,0,0,1495.9,555.073Z" transform="translate(-235.022 1960.9)"/><path class="b" d="M1495.9,555.073V605.7a41.825,41.825,0,0,0,20.781,36.093l43.436,25.156a41.778,41.778,0,0,0,41.874,0l43.436-25.156a41.825,41.825,0,0,0,20.781-36.093V555.073a41.825,41.825,0,0,0-20.781-36.092l-43.436-25.156a41.706,41.706,0,0,0-41.835,0l-43.474,25.156A41.824,41.824,0,0,0,1495.9,555.073ZM1658.356,605.7a34.05,34.05,0,0,1-16.913,29.335l-16.64,9.648-7.266,4.219c-30,17.382-43.007,17.382-53.514,11.289C1510.2,628.939,1658.356,549.837,1658.356,605.7Z" transform="translate(-235.022 1960.9)"/><path class="a" d="M1495.9,571.125V633.9a51.864,51.864,0,0,0,25.769,44.756l53.862,31.194a51.806,51.806,0,0,0,51.925,0l53.863-31.194a51.865,51.865,0,0,0,25.77-44.756V571.125a51.865,51.865,0,0,0-25.77-44.756l-53.863-31.194a51.717,51.717,0,0,0-51.877,0l-53.91,31.194A51.864,51.864,0,0,0,1495.9,571.125Z" transform="translate(-450.603 2070.415)"/><path class="b" d="M1495.9,571.125V633.9a51.864,51.864,0,0,0,25.769,44.756l53.862,31.194a51.806,51.806,0,0,0,51.925,0l53.863-31.194a51.865,51.865,0,0,0,25.77-44.756V571.125a51.865,51.865,0,0,0-25.77-44.756l-53.863-31.194a51.717,51.717,0,0,0-51.877,0l-53.91,31.194A51.864,51.864,0,0,0,1495.9,571.125ZM1697.353,633.9a42.223,42.223,0,0,1-20.973,36.377l-20.634,11.964-9.01,5.231c-37.2,21.555-53.33,21.555-66.359,14C1513.628,662.722,1697.353,564.632,1697.353,633.9Z" transform="translate(-450.602 2070.415)"/><path class="b" d="M1495.9,559.971V614.3a44.888,44.888,0,0,0,22.3,38.736l46.617,27a44.838,44.838,0,0,0,44.941,0l46.618-27a44.889,44.889,0,0,0,22.3-38.736V559.971a44.888,44.888,0,0,0-22.3-38.736l-46.618-27a44.76,44.76,0,0,0-44.9,0l-46.659,27A44.888,44.888,0,0,0,1495.9,559.971ZM1670.256,614.3a36.544,36.544,0,0,1-18.152,31.484l-17.858,10.355-7.8,4.528c-32.2,18.656-46.156,18.656-57.433,12.116C1511.244,639.247,1670.256,554.352,1670.256,614.3Z" transform="translate(-810.189 2166.995)"/><path class="a" d="M1495.9,578.607v68.44a56.544,56.544,0,0,0,28.094,48.794l58.722,34.009a56.48,56.48,0,0,0,56.61,0l58.723-34.009a56.545,56.545,0,0,0,28.095-48.794v-68.44a56.544,56.544,0,0,0-28.095-48.794L1639.326,495.8a56.383,56.383,0,0,0-56.557,0l-58.774,34.008A56.543,56.543,0,0,0,1495.9,578.607Z" transform="translate(-680.579 1910.886)"/><path class="b" d="M1495.9,578.607v68.44a56.544,56.544,0,0,0,28.094,48.794l58.722,34.009a56.48,56.48,0,0,0,56.61,0l58.723-34.009a56.545,56.545,0,0,0,28.095-48.794v-68.44a56.544,56.544,0,0,0-28.095-48.794L1639.326,495.8a56.383,56.383,0,0,0-56.557,0l-58.774,34.008A56.543,56.543,0,0,0,1495.9,578.607Zm219.628,68.44a46.033,46.033,0,0,1-22.866,39.659l-22.5,13.044-9.823,5.7c-40.557,23.5-58.141,23.5-72.347,15.262C1515.228,678.468,1715.528,571.528,1715.528,647.047Z" transform="translate(-680.579 1910.886)"/><path class="a" d="M1495.9,559.971V614.3a44.888,44.888,0,0,0,22.3,38.736l46.617,27a44.838,44.838,0,0,0,44.941,0l46.618-27a44.889,44.889,0,0,0,22.3-38.736V559.971a44.888,44.888,0,0,0-22.3-38.736l-46.618-27a44.76,44.76,0,0,0-44.9,0l-46.659,27A44.888,44.888,0,0,0,1495.9,559.971Z" transform="translate(-891.848 1977.284)"/><path class="b" d="M1495.9,559.971V614.3a44.888,44.888,0,0,0,22.3,38.736l46.617,27a44.838,44.838,0,0,0,44.941,0l46.618-27a44.889,44.889,0,0,0,22.3-38.736V559.971a44.888,44.888,0,0,0-22.3-38.736l-46.618-27a44.76,44.76,0,0,0-44.9,0l-46.659,27A44.888,44.888,0,0,0,1495.9,559.971ZM1670.256,614.3a36.544,36.544,0,0,1-18.152,31.484l-17.858,10.355-7.8,4.528c-32.2,18.656-46.156,18.656-57.433,12.116C1511.244,639.247,1670.256,554.352,1670.256,614.3Z" transform="translate(-891.847 1977.284)"/><path class="c" d="M26.828,11.544l-1.08-3.192q-.12-.3-.256-.716t-.272-.892q-.12.488-.256.9t-.256.72l-1.072,3.176ZM31.124,16h-2.1a.915.915,0,0,1-.568-.164,1.042,1.042,0,0,1-.328-.42l-.688-2.032H23.012l-.688,2.032a.972.972,0,0,1-.316.4.882.882,0,0,1-.564.18H19.332L23.844,4.344h2.768Zm5.48-2.136a2.487,2.487,0,0,0,.972-.18,1.966,1.966,0,0,0,.724-.516,2.281,2.281,0,0,0,.452-.82,3.581,3.581,0,0,0,.156-1.1v-6.9h2.7v6.9a5.392,5.392,0,0,1-.348,1.968,4.415,4.415,0,0,1-1,1.544,4.494,4.494,0,0,1-1.576,1.008,6.258,6.258,0,0,1-4.184,0,4.494,4.494,0,0,1-1.576-1.008,4.368,4.368,0,0,1-.992-1.544,5.448,5.448,0,0,1-.344-1.968v-6.9h2.7v6.9a3.581,3.581,0,0,0,.156,1.1,2.322,2.322,0,0,0,.452.824,1.945,1.945,0,0,0,.724.52A2.487,2.487,0,0,0,36.6,13.864Zm17.7-3.7a6.112,6.112,0,0,1-.436,2.332,5.456,5.456,0,0,1-1.228,1.848,5.57,5.57,0,0,1-1.908,1.216A6.752,6.752,0,0,1,48.252,16H43.724V4.344h4.528a6.7,6.7,0,0,1,2.476.44A5.65,5.65,0,0,1,52.636,6a5.413,5.413,0,0,1,1.228,1.844A6.09,6.09,0,0,1,54.3,10.168Zm-2.768,0a5.078,5.078,0,0,0-.224-1.56,3.333,3.333,0,0,0-.644-1.18,2.8,2.8,0,0,0-1.028-.744,3.49,3.49,0,0,0-1.384-.26H46.444v7.5h1.808a3.49,3.49,0,0,0,1.384-.26,2.8,2.8,0,0,0,1.028-.744,3.333,3.333,0,0,0,.644-1.18A5.107,5.107,0,0,0,51.532,10.168ZM58.62,16H55.9V4.344h2.72ZM69.252,6.488h-3.28V16h-2.7V6.488h-3.28V4.344h9.264Zm4.088-.064v2.72H77v2H73.34V13.92h4.784V16h-7.5V4.344h7.5v2.08Zm17.024,3.744a6.112,6.112,0,0,1-.436,2.332A5.456,5.456,0,0,1,88.7,14.348a5.57,5.57,0,0,1-1.908,1.216A6.752,6.752,0,0,1,84.316,16H79.788V4.344h4.528a6.7,6.7,0,0,1,2.476.44A5.65,5.65,0,0,1,88.7,6a5.413,5.413,0,0,1,1.228,1.844A6.09,6.09,0,0,1,90.364,10.168Zm-2.768,0a5.078,5.078,0,0,0-.224-1.56,3.333,3.333,0,0,0-.644-1.18A2.8,2.8,0,0,0,85.7,6.684a3.49,3.49,0,0,0-1.384-.26H82.508v7.5h1.808a3.49,3.49,0,0,0,1.384-.26,2.8,2.8,0,0,0,1.028-.744,3.333,3.333,0,0,0,.644-1.18A5.107,5.107,0,0,0,87.6,10.168ZM18.736,30.544l-1.08-3.192q-.12-.3-.256-.716t-.272-.892q-.12.488-.256.9t-.256.72l-1.072,3.176ZM23.032,35h-2.1a.915.915,0,0,1-.568-.164,1.042,1.042,0,0,1-.328-.42l-.688-2.032H14.92l-.688,2.032a.972.972,0,0,1-.316.4.882.882,0,0,1-.564.18H11.24l4.512-11.656H18.52Zm8.392-3.016a.543.543,0,0,1,.192.036.522.522,0,0,1,.184.124l1.072,1.128a4.45,4.45,0,0,1-1.764,1.388,6.173,6.173,0,0,1-2.508.468,5.975,5.975,0,0,1-2.38-.452,5.151,5.151,0,0,1-1.784-1.248,5.5,5.5,0,0,1-1.124-1.888,6.972,6.972,0,0,1-.392-2.372,6.566,6.566,0,0,1,.424-2.4,5.564,5.564,0,0,1,1.192-1.884,5.368,5.368,0,0,1,1.84-1.232,6.158,6.158,0,0,1,2.36-.44,6.3,6.3,0,0,1,1.236.116,6.041,6.041,0,0,1,1.084.32,4.952,4.952,0,0,1,.928.492,4.869,4.869,0,0,1,.752.624l-.912,1.224a1.161,1.161,0,0,1-.208.2.541.541,0,0,1-.336.092.6.6,0,0,1-.272-.064,3.006,3.006,0,0,1-.272-.156l-.316-.2a2.425,2.425,0,0,0-.408-.2,3.372,3.372,0,0,0-.552-.156,3.767,3.767,0,0,0-.74-.064,2.981,2.981,0,0,0-1.228.248,2.677,2.677,0,0,0-.96.724,3.348,3.348,0,0,0-.624,1.168,5.212,5.212,0,0,0-.22,1.58,4.8,4.8,0,0,0,.244,1.592,3.5,3.5,0,0,0,.664,1.172,2.818,2.818,0,0,0,.98.724,2.93,2.93,0,0,0,1.2.248,5.744,5.744,0,0,0,.672-.036,3.056,3.056,0,0,0,.568-.12,2.314,2.314,0,0,0,.5-.224,3.129,3.129,0,0,0,.472-.356.946.946,0,0,1,.208-.132A.545.545,0,0,1,31.424,31.984Zm10.216,0a.543.543,0,0,1,.192.036.522.522,0,0,1,.184.124l1.072,1.128a4.45,4.45,0,0,1-1.764,1.388,6.173,6.173,0,0,1-2.508.468,5.975,5.975,0,0,1-2.38-.452,5.151,5.151,0,0,1-1.784-1.248,5.5,5.5,0,0,1-1.124-1.888,6.972,6.972,0,0,1-.392-2.372,6.566,6.566,0,0,1,.424-2.4,5.564,5.564,0,0,1,1.192-1.884,5.368,5.368,0,0,1,1.84-1.232,6.158,6.158,0,0,1,2.36-.44,6.3,6.3,0,0,1,1.236.116,6.041,6.041,0,0,1,1.084.32,4.952,4.952,0,0,1,.928.492,4.87,4.87,0,0,1,.752.624l-.912,1.224a1.161,1.161,0,0,1-.208.2.541.541,0,0,1-.336.092.6.6,0,0,1-.272-.064,3.006,3.006,0,0,1-.272-.156l-.316-.2a2.425,2.425,0,0,0-.408-.2,3.372,3.372,0,0,0-.552-.156,3.767,3.767,0,0,0-.74-.064,2.981,2.981,0,0,0-1.228.248,2.677,2.677,0,0,0-.96.724,3.348,3.348,0,0,0-.624,1.168,5.212,5.212,0,0,0-.22,1.58,4.8,4.8,0,0,0,.244,1.592,3.5,3.5,0,0,0,.664,1.172,2.818,2.818,0,0,0,.98.724,2.93,2.93,0,0,0,1.2.248,5.744,5.744,0,0,0,.672-.036,3.056,3.056,0,0,0,.568-.12,2.314,2.314,0,0,0,.5-.224,3.129,3.129,0,0,0,.472-.356.946.946,0,0,1,.208-.132A.545.545,0,0,1,41.64,31.984Zm13.8-2.816A6.264,6.264,0,0,1,55,31.52a5.559,5.559,0,0,1-3.136,3.152,6.961,6.961,0,0,1-4.956,0,5.564,5.564,0,0,1-3.148-3.152,6.562,6.562,0,0,1,0-4.7A5.6,5.6,0,0,1,45,24.928a5.7,5.7,0,0,1,1.916-1.256,6.519,6.519,0,0,1,2.48-.456,6.439,6.439,0,0,1,2.476.46,5.711,5.711,0,0,1,1.908,1.26A5.625,5.625,0,0,1,55,26.824,6.243,6.243,0,0,1,55.44,29.168Zm-2.768,0a5.04,5.04,0,0,0-.224-1.556A3.3,3.3,0,0,0,51.8,26.44a2.777,2.777,0,0,0-1.028-.736,3.538,3.538,0,0,0-1.384-.256A3.59,3.59,0,0,0,48,25.7a2.77,2.77,0,0,0-1.032.736,3.3,3.3,0,0,0-.644,1.172,5.544,5.544,0,0,0,0,3.12,3.3,3.3,0,0,0,.644,1.172A2.732,2.732,0,0,0,48,32.636a3.64,3.64,0,0,0,1.4.252,3.587,3.587,0,0,0,1.384-.252A2.738,2.738,0,0,0,51.8,31.9a3.3,3.3,0,0,0,.644-1.172A5.068,5.068,0,0,0,52.672,29.168Zm9.224,3.7a2.487,2.487,0,0,0,.972-.18,1.966,1.966,0,0,0,.724-.516,2.281,2.281,0,0,0,.452-.82,3.581,3.581,0,0,0,.156-1.1v-6.9h2.7v6.9a5.392,5.392,0,0,1-.348,1.968,4.415,4.415,0,0,1-1,1.544,4.494,4.494,0,0,1-1.576,1.008,6.258,6.258,0,0,1-4.184,0,4.494,4.494,0,0,1-1.576-1.008,4.368,4.368,0,0,1-.992-1.544,5.448,5.448,0,0,1-.344-1.968v-6.9h2.7v6.9a3.581,3.581,0,0,0,.156,1.1,2.322,2.322,0,0,0,.452.824,1.945,1.945,0,0,0,.724.52A2.487,2.487,0,0,0,61.9,32.864Zm17.3-9.52V35H77.784a1.224,1.224,0,0,1-.524-.1,1.283,1.283,0,0,1-.42-.348l-5.5-6.952q.032.312.044.6t.012.548V35H69.016V23.344H70.44a2.3,2.3,0,0,1,.3.016.756.756,0,0,1,.216.06.721.721,0,0,1,.184.124,2.1,2.1,0,0,1,.2.216l5.544,7q-.04-.336-.056-.652t-.016-.6V23.344Zm10.632,2.144h-3.28V35h-2.7V25.488H80.56V23.344h9.264Zm7.808.224A1.016,1.016,0,0,1,97.38,26a.564.564,0,0,1-.34.1.832.832,0,0,1-.4-.116l-.48-.26a3.983,3.983,0,0,0-.612-.26,2.449,2.449,0,0,0-.784-.116,1.687,1.687,0,0,0-1.132.324,1.1,1.1,0,0,0-.372.876.807.807,0,0,0,.224.584,1.931,1.931,0,0,0,.588.4,6.3,6.3,0,0,0,.832.308q.468.14.956.312a8.549,8.549,0,0,1,.956.4,3.188,3.188,0,0,1,.832.592,2.763,2.763,0,0,1,.588.876,3.115,3.115,0,0,1,.224,1.244,4.053,4.053,0,0,1-.28,1.512A3.54,3.54,0,0,1,97.372,34a3.769,3.769,0,0,1-1.312.824,4.908,4.908,0,0,1-1.772.3,5.68,5.68,0,0,1-1.108-.112,6.58,6.58,0,0,1-1.092-.316,6.333,6.333,0,0,1-.992-.484,4.215,4.215,0,0,1-.808-.624l.8-1.264a.8.8,0,0,1,.252-.228.657.657,0,0,1,.34-.092.911.911,0,0,1,.484.152q.244.152.552.336a4.492,4.492,0,0,0,.708.336,2.655,2.655,0,0,0,.944.152,1.8,1.8,0,0,0,1.144-.324,1.234,1.234,0,0,0,.408-1.028.972.972,0,0,0-.224-.664,1.731,1.731,0,0,0-.588-.424,5.417,5.417,0,0,0-.828-.3q-.464-.128-.952-.284a6.965,6.965,0,0,1-.952-.384,3,3,0,0,1-.828-.6,2.808,2.808,0,0,1-.588-.928,3.685,3.685,0,0,1-.224-1.372A3.255,3.255,0,0,1,91,25.4a3.3,3.3,0,0,1,.776-1.112,3.816,3.816,0,0,1,1.256-.78,4.639,4.639,0,0,1,1.7-.292,6.39,6.39,0,0,1,1.044.084,5.488,5.488,0,0,1,.964.248,5.294,5.294,0,0,1,.852.392,3.928,3.928,0,0,1,.708.516Z" transform="translate(640.87 2577.067)"/><path class="c" d="M15.563,9.824a2.782,2.782,0,0,0,.94-.14,1.7,1.7,0,0,0,.636-.388,1.478,1.478,0,0,0,.36-.58A2.226,2.226,0,0,0,17.611,8a1.5,1.5,0,0,0-.5-1.2,2.327,2.327,0,0,0-1.548-.432H14.475V9.824ZM21.307,16H18.859a1.039,1.039,0,0,1-.976-.512L15.947,12.1a.787.787,0,0,0-.784-.416h-.688V16h-2.7V4.344h3.792a7.782,7.782,0,0,1,2.156.26,4.048,4.048,0,0,1,1.456.724,2.74,2.74,0,0,1,.82,1.1A3.631,3.631,0,0,1,20.251,7.8,3.694,3.694,0,0,1,20.1,8.872a3.306,3.306,0,0,1-.448.932,3.418,3.418,0,0,1-.732.764,3.908,3.908,0,0,1-1,.552,2.446,2.446,0,0,1,.5.34,2.379,2.379,0,0,1,.416.484Zm3.7-9.576v2.72h3.664v2H25.011V13.92h4.784V16h-7.5V4.344h7.5v2.08ZM36.819,9.96h4.144v4.92a6.126,6.126,0,0,1-1.908.952,7.5,7.5,0,0,1-2.116.3,7.272,7.272,0,0,1-2.62-.452,6.036,6.036,0,0,1-2.02-1.248A5.477,5.477,0,0,1,31,12.54a6.094,6.094,0,0,1-.456-2.372,6.458,6.458,0,0,1,.432-2.4,5.4,5.4,0,0,1,1.236-1.884,5.608,5.608,0,0,1,1.944-1.232,7.027,7.027,0,0,1,2.548-.44,7.421,7.421,0,0,1,1.368.12,6.73,6.73,0,0,1,1.18.328,5.43,5.43,0,0,1,.988.5,5.321,5.321,0,0,1,.8.624l-.784,1.192a.753.753,0,0,1-.476.344.84.84,0,0,1-.628-.144q-.32-.192-.6-.332a3.685,3.685,0,0,0-.58-.228,3.8,3.8,0,0,0-.624-.128,6.123,6.123,0,0,0-.736-.04,3.357,3.357,0,0,0-1.368.268,2.933,2.933,0,0,0-1.036.756,3.419,3.419,0,0,0-.66,1.172,4.724,4.724,0,0,0-.232,1.524,4.905,4.905,0,0,0,.256,1.648,3.409,3.409,0,0,0,.724,1.216,3.1,3.1,0,0,0,1.12.756,3.866,3.866,0,0,0,1.444.26,3.757,3.757,0,0,0,.884-.1,4.942,4.942,0,0,0,.772-.256V11.928H37.363a.559.559,0,0,1-.4-.136.453.453,0,0,1-.144-.344Zm10.824,3.9a2.487,2.487,0,0,0,.972-.18,1.966,1.966,0,0,0,.724-.516,2.281,2.281,0,0,0,.452-.82,3.581,3.581,0,0,0,.156-1.1v-6.9h2.7v6.9a5.392,5.392,0,0,1-.348,1.968,4.415,4.415,0,0,1-1,1.544,4.494,4.494,0,0,1-1.576,1.008,6.258,6.258,0,0,1-4.184,0,4.494,4.494,0,0,1-1.576-1.008,4.368,4.368,0,0,1-.992-1.544,5.448,5.448,0,0,1-.344-1.968v-6.9h2.7v6.9a3.581,3.581,0,0,0,.156,1.1,2.322,2.322,0,0,0,.452.824,1.945,1.945,0,0,0,.724.52A2.487,2.487,0,0,0,47.643,13.864Zm14.144-.024V16H54.763V4.344h2.7v9.5Zm7.536-2.3-1.08-3.192q-.12-.3-.256-.716t-.272-.892q-.12.488-.256.9t-.256.72l-1.072,3.176ZM73.619,16h-2.1a.915.915,0,0,1-.568-.164,1.042,1.042,0,0,1-.328-.42l-.688-2.032H65.507l-.688,2.032a.972.972,0,0,1-.316.4.882.882,0,0,1-.564.18H61.827L66.339,4.344h2.768Zm8.16-9.512H78.5V16h-2.7V6.488h-3.28V4.344h9.264Zm12.536,3.68a6.264,6.264,0,0,1-.436,2.352,5.559,5.559,0,0,1-3.136,3.152,6.961,6.961,0,0,1-4.956,0,5.564,5.564,0,0,1-3.148-3.152,6.264,6.264,0,0,1-.436-2.352,6.264,6.264,0,0,1,.436-2.352,5.6,5.6,0,0,1,1.232-1.888,5.7,5.7,0,0,1,1.916-1.256,6.519,6.519,0,0,1,2.48-.456,6.439,6.439,0,0,1,2.476.46,5.711,5.711,0,0,1,1.908,1.26,5.625,5.625,0,0,1,1.228,1.888A6.243,6.243,0,0,1,94.315,10.168Zm-2.768,0a5.04,5.04,0,0,0-.224-1.556,3.3,3.3,0,0,0-.644-1.172A2.777,2.777,0,0,0,89.651,6.7a3.538,3.538,0,0,0-1.384-.256,3.59,3.59,0,0,0-1.4.256,2.77,2.77,0,0,0-1.032.736,3.3,3.3,0,0,0-.644,1.172,5.04,5.04,0,0,0-.224,1.556,5.068,5.068,0,0,0,.224,1.564,3.3,3.3,0,0,0,.644,1.172,2.731,2.731,0,0,0,1.032.732,3.64,3.64,0,0,0,1.4.252,3.587,3.587,0,0,0,1.384-.252,2.738,2.738,0,0,0,1.028-.732,3.3,3.3,0,0,0,.644-1.172A5.068,5.068,0,0,0,91.547,10.168ZM99.7,9.824a2.782,2.782,0,0,0,.94-.14,1.7,1.7,0,0,0,.636-.388,1.478,1.478,0,0,0,.36-.58A2.226,2.226,0,0,0,101.747,8a1.5,1.5,0,0,0-.5-1.2A2.327,2.327,0,0,0,99.7,6.368H98.611V9.824ZM105.443,16h-2.448a1.039,1.039,0,0,1-.976-.512L100.083,12.1a.787.787,0,0,0-.784-.416h-.688V16h-2.7V4.344H99.7a7.782,7.782,0,0,1,2.156.26,4.048,4.048,0,0,1,1.456.724,2.74,2.74,0,0,1,.82,1.1,3.631,3.631,0,0,1,.256,1.376,3.694,3.694,0,0,1-.152,1.072,3.306,3.306,0,0,1-.448.932,3.418,3.418,0,0,1-.732.764,3.908,3.908,0,0,1-1,.552,2.446,2.446,0,0,1,.5.34,2.379,2.379,0,0,1,.416.484Zm5.944-4.432V16h-2.7V11.568l-4.224-7.224h2.384a.863.863,0,0,1,.556.164,1.331,1.331,0,0,1,.34.42l1.648,3.392q.208.4.376.748t.3.684q.12-.344.276-.692t.364-.74l1.632-3.392a1.538,1.538,0,0,1,.136-.208,1.046,1.046,0,0,1,.188-.188A.926.926,0,0,1,112.9,4.4a.878.878,0,0,1,.308-.052h2.4ZM24.147,31.984a.543.543,0,0,1,.192.036.522.522,0,0,1,.184.124l1.072,1.128a4.45,4.45,0,0,1-1.764,1.388,6.173,6.173,0,0,1-2.508.468,5.975,5.975,0,0,1-2.38-.452,5.151,5.151,0,0,1-1.784-1.248,5.5,5.5,0,0,1-1.124-1.888,6.972,6.972,0,0,1-.392-2.372,6.566,6.566,0,0,1,.424-2.4,5.564,5.564,0,0,1,1.192-1.884,5.368,5.368,0,0,1,1.84-1.232,6.158,6.158,0,0,1,2.36-.44,6.3,6.3,0,0,1,1.236.116,6.041,6.041,0,0,1,1.084.32,4.952,4.952,0,0,1,.928.492,4.87,4.87,0,0,1,.752.624l-.912,1.224a1.161,1.161,0,0,1-.208.2.541.541,0,0,1-.336.092.6.6,0,0,1-.272-.064,3.006,3.006,0,0,1-.272-.156l-.316-.2a2.425,2.425,0,0,0-.408-.2,3.372,3.372,0,0,0-.552-.156,3.767,3.767,0,0,0-.74-.064,2.981,2.981,0,0,0-1.228.248,2.677,2.677,0,0,0-.96.724,3.348,3.348,0,0,0-.624,1.168,5.212,5.212,0,0,0-.22,1.58,4.8,4.8,0,0,0,.244,1.592,3.5,3.5,0,0,0,.664,1.172,2.818,2.818,0,0,0,.98.724,2.93,2.93,0,0,0,1.2.248,5.744,5.744,0,0,0,.672-.036,3.056,3.056,0,0,0,.568-.12,2.314,2.314,0,0,0,.5-.224,3.129,3.129,0,0,0,.472-.356.946.946,0,0,1,.208-.132A.545.545,0,0,1,24.147,31.984Zm13.8-2.816a6.264,6.264,0,0,1-.436,2.352,5.559,5.559,0,0,1-3.136,3.152,6.961,6.961,0,0,1-4.956,0,5.564,5.564,0,0,1-3.148-3.152,6.562,6.562,0,0,1,0-4.7A5.6,5.6,0,0,1,27.5,24.928a5.7,5.7,0,0,1,1.916-1.256,6.519,6.519,0,0,1,2.48-.456,6.439,6.439,0,0,1,2.476.46,5.711,5.711,0,0,1,1.908,1.26,5.625,5.625,0,0,1,1.228,1.888A6.243,6.243,0,0,1,37.947,29.168Zm-2.768,0a5.04,5.04,0,0,0-.224-1.556,3.3,3.3,0,0,0-.644-1.172,2.777,2.777,0,0,0-1.028-.736,3.538,3.538,0,0,0-1.384-.256,3.59,3.59,0,0,0-1.4.256,2.77,2.77,0,0,0-1.032.736,3.3,3.3,0,0,0-.644,1.172,5.544,5.544,0,0,0,0,3.12,3.3,3.3,0,0,0,.644,1.172,2.732,2.732,0,0,0,1.032.732,3.64,3.64,0,0,0,1.4.252,3.587,3.587,0,0,0,1.384-.252,2.738,2.738,0,0,0,1.028-.732,3.3,3.3,0,0,0,.644-1.172A5.068,5.068,0,0,0,35.179,29.168Zm17.464-5.824V35H50.259V28.3q0-.232.012-.5t.044-.552l-3.1,5.992a1.017,1.017,0,0,1-.388.424,1.073,1.073,0,0,1-.556.144h-.368a1.073,1.073,0,0,1-.556-.144,1.017,1.017,0,0,1-.388-.424l-3.1-6.008q.024.288.04.564t.016.508V35H39.539V23.344H41.6q.176,0,.308.008a.788.788,0,0,1,.236.048.537.537,0,0,1,.188.124.978.978,0,0,1,.164.236l3,5.912q.16.3.308.632t.284.672q.136-.352.284-.688t.316-.64l2.992-5.888a.978.978,0,0,1,.164-.236.537.537,0,0,1,.188-.124.788.788,0,0,1,.236-.048q.132-.008.308-.008Zm6.368,5.72a1.716,1.716,0,0,0,1.984-1.912,2.106,2.106,0,0,0-.12-.728,1.481,1.481,0,0,0-.364-.564,1.637,1.637,0,0,0-.616-.364,2.725,2.725,0,0,0-.884-.128H57.6v3.7Zm0-5.72a6.781,6.781,0,0,1,2.116.292,4.061,4.061,0,0,1,1.456.8,3.135,3.135,0,0,1,.844,1.208,4.1,4.1,0,0,1,.272,1.5,4.422,4.422,0,0,1-.28,1.6A3.211,3.211,0,0,1,62.563,30a4.034,4.034,0,0,1-1.46.812,6.692,6.692,0,0,1-2.092.292H57.6V35H54.9V23.344ZM72.1,32.84V35H65.075V23.344h2.7v9.5Zm4.1,2.16h-2.72V23.344h2.72Zm8.416-4.456-1.08-3.192q-.12-.3-.256-.716T83,25.744q-.12.488-.256.9t-.256.72l-1.072,3.176ZM88.907,35h-2.1a.915.915,0,0,1-.568-.164,1.042,1.042,0,0,1-.328-.42l-.688-2.032H80.795l-.688,2.032a.972.972,0,0,1-.316.4.882.882,0,0,1-.564.18H77.115l4.512-11.656h2.768ZM100,23.344V35H98.595a1.224,1.224,0,0,1-.524-.1,1.283,1.283,0,0,1-.42-.348l-5.5-6.952q.032.312.044.6t.012.548V35H89.827V23.344h1.424a2.3,2.3,0,0,1,.3.016.756.756,0,0,1,.216.06.721.721,0,0,1,.184.124,2.1,2.1,0,0,1,.2.216l5.544,7q-.04-.336-.056-.652t-.016-.6V23.344Zm10.632,2.144h-3.28V35h-2.7V25.488h-3.28V23.344h9.264Z" transform="translate(1283.904 2552.156)"/><path class="c" d="M47.645,11.568V16h-2.7V11.568L40.717,4.344H43.1a.863.863,0,0,1,.556.164,1.331,1.331,0,0,1,.34.42L45.645,8.32q.208.4.376.748t.3.684q.12-.344.276-.692t.364-.74l1.632-3.392a1.539,1.539,0,0,1,.136-.208,1.046,1.046,0,0,1,.188-.188.926.926,0,0,1,.248-.136.878.878,0,0,1,.308-.052h2.4ZM55.5,6.424v2.72h3.664v2H55.5V13.92h4.784V16h-7.5V4.344h7.5v2.08Zm12.608,5.12-1.08-3.192q-.12-.3-.256-.716T66.5,6.744q-.12.488-.256.9t-.256.72l-1.072,3.176ZM72.4,16h-2.1a.915.915,0,0,1-.568-.164,1.042,1.042,0,0,1-.328-.42l-.688-2.032H64.293L63.6,15.416a.972.972,0,0,1-.316.4.882.882,0,0,1-.564.18H60.613L65.125,4.344h2.768Zm4.712-6.176a2.782,2.782,0,0,0,.94-.14,1.7,1.7,0,0,0,.636-.388,1.478,1.478,0,0,0,.36-.58A2.226,2.226,0,0,0,79.165,8a1.5,1.5,0,0,0-.5-1.2,2.327,2.327,0,0,0-1.548-.432H76.029V9.824ZM82.861,16H80.413a1.039,1.039,0,0,1-.976-.512L77.5,12.1a.787.787,0,0,0-.784-.416h-.688V16h-2.7V4.344h3.792a7.782,7.782,0,0,1,2.156.26,4.048,4.048,0,0,1,1.456.724,2.74,2.74,0,0,1,.82,1.1A3.631,3.631,0,0,1,81.8,7.8a3.694,3.694,0,0,1-.152,1.072A3.306,3.306,0,0,1,81.2,9.8a3.418,3.418,0,0,1-.732.764,3.908,3.908,0,0,1-1,.552,2.446,2.446,0,0,1,.5.34,2.379,2.379,0,0,1,.416.484Zm7.424-9.288A1.016,1.016,0,0,1,90.033,7a.564.564,0,0,1-.34.1.832.832,0,0,1-.4-.116l-.48-.26a3.983,3.983,0,0,0-.612-.26,2.449,2.449,0,0,0-.784-.116,1.687,1.687,0,0,0-1.132.324,1.1,1.1,0,0,0-.372.876.807.807,0,0,0,.224.584,1.931,1.931,0,0,0,.588.4,6.3,6.3,0,0,0,.832.308q.468.14.956.312a8.549,8.549,0,0,1,.956.4,3.188,3.188,0,0,1,.832.592,2.763,2.763,0,0,1,.588.876,3.115,3.115,0,0,1,.224,1.244,4.053,4.053,0,0,1-.28,1.512A3.54,3.54,0,0,1,90.025,15a3.769,3.769,0,0,1-1.312.824,4.909,4.909,0,0,1-1.772.3,5.68,5.68,0,0,1-1.108-.112,6.58,6.58,0,0,1-1.092-.316,6.333,6.333,0,0,1-.992-.484,4.215,4.215,0,0,1-.808-.624l.8-1.264a.8.8,0,0,1,.252-.228.657.657,0,0,1,.34-.092.911.911,0,0,1,.484.152q.244.152.552.336a4.492,4.492,0,0,0,.708.336,2.655,2.655,0,0,0,.944.152,1.8,1.8,0,0,0,1.144-.324,1.234,1.234,0,0,0,.408-1.028.972.972,0,0,0-.224-.664,1.731,1.731,0,0,0-.588-.424,5.417,5.417,0,0,0-.828-.3q-.464-.128-.952-.284a6.965,6.965,0,0,1-.952-.384,3,3,0,0,1-.828-.6,2.808,2.808,0,0,1-.588-.928,3.685,3.685,0,0,1-.224-1.372,3.255,3.255,0,0,1,.264-1.28,3.3,3.3,0,0,1,.776-1.112,3.816,3.816,0,0,1,1.256-.78,4.639,4.639,0,0,1,1.7-.292,6.39,6.39,0,0,1,1.044.084,5.488,5.488,0,0,1,.964.248,5.294,5.294,0,0,1,.852.392,3.928,3.928,0,0,1,.708.516Zm17.56,3.456a6.264,6.264,0,0,1-.436,2.352,5.559,5.559,0,0,1-3.136,3.152,6.961,6.961,0,0,1-4.956,0,5.564,5.564,0,0,1-3.148-3.152,6.264,6.264,0,0,1-.436-2.352,6.264,6.264,0,0,1,.436-2.352A5.6,5.6,0,0,1,97.4,5.928a5.7,5.7,0,0,1,1.916-1.256,6.519,6.519,0,0,1,2.48-.456,6.439,6.439,0,0,1,2.476.46,5.711,5.711,0,0,1,1.908,1.26,5.625,5.625,0,0,1,1.228,1.888A6.243,6.243,0,0,1,107.845,10.168Zm-2.768,0a5.039,5.039,0,0,0-.224-1.556,3.3,3.3,0,0,0-.644-1.172,2.777,2.777,0,0,0-1.028-.736,3.538,3.538,0,0,0-1.384-.256,3.59,3.59,0,0,0-1.4.256,2.77,2.77,0,0,0-1.032.736,3.3,3.3,0,0,0-.644,1.172,5.04,5.04,0,0,0-.224,1.556,5.068,5.068,0,0,0,.224,1.564,3.3,3.3,0,0,0,.644,1.172,2.731,2.731,0,0,0,1.032.732,3.64,3.64,0,0,0,1.4.252,3.587,3.587,0,0,0,1.384-.252,2.738,2.738,0,0,0,1.028-.732,3.3,3.3,0,0,0,.644-1.172A5.068,5.068,0,0,0,105.077,10.168Zm7.08-3.744V9.376h3.984v2.088h-3.984V16h-2.72V4.344h7.5v2.08ZM9.553,31.984a.544.544,0,0,1,.192.036.522.522,0,0,1,.184.124L11,33.272A4.45,4.45,0,0,1,9.237,34.66a6.173,6.173,0,0,1-2.508.468,5.975,5.975,0,0,1-2.38-.452,5.151,5.151,0,0,1-1.784-1.248A5.5,5.5,0,0,1,1.441,31.54a6.972,6.972,0,0,1-.392-2.372,6.566,6.566,0,0,1,.424-2.4,5.564,5.564,0,0,1,1.192-1.884A5.368,5.368,0,0,1,4.5,23.656a6.158,6.158,0,0,1,2.36-.44,6.3,6.3,0,0,1,1.236.116,6.041,6.041,0,0,1,1.084.32,4.952,4.952,0,0,1,.928.492,4.87,4.87,0,0,1,.752.624l-.912,1.224a1.161,1.161,0,0,1-.208.2.541.541,0,0,1-.336.092.6.6,0,0,1-.272-.064,3.007,3.007,0,0,1-.272-.156l-.316-.2a2.425,2.425,0,0,0-.408-.2,3.372,3.372,0,0,0-.552-.156,3.767,3.767,0,0,0-.74-.064,2.981,2.981,0,0,0-1.228.248,2.677,2.677,0,0,0-.96.724,3.348,3.348,0,0,0-.624,1.168,5.212,5.212,0,0,0-.22,1.58,4.8,4.8,0,0,0,.244,1.592,3.5,3.5,0,0,0,.664,1.172,2.818,2.818,0,0,0,.98.724,2.93,2.93,0,0,0,1.2.248,5.744,5.744,0,0,0,.672-.036,3.056,3.056,0,0,0,.568-.12,2.314,2.314,0,0,0,.5-.224,3.129,3.129,0,0,0,.472-.356.946.946,0,0,1,.208-.132A.545.545,0,0,1,9.553,31.984Zm13.8-2.816a6.264,6.264,0,0,1-.436,2.352,5.559,5.559,0,0,1-3.136,3.152,6.961,6.961,0,0,1-4.956,0,5.564,5.564,0,0,1-3.148-3.152,6.562,6.562,0,0,1,0-4.7,5.6,5.6,0,0,1,1.232-1.888,5.7,5.7,0,0,1,1.916-1.256,6.519,6.519,0,0,1,2.48-.456,6.439,6.439,0,0,1,2.476.46,5.711,5.711,0,0,1,1.908,1.26,5.625,5.625,0,0,1,1.228,1.888A6.243,6.243,0,0,1,23.353,29.168Zm-2.768,0a5.04,5.04,0,0,0-.224-1.556,3.3,3.3,0,0,0-.644-1.172,2.777,2.777,0,0,0-1.028-.736,3.538,3.538,0,0,0-1.384-.256,3.59,3.59,0,0,0-1.4.256,2.77,2.77,0,0,0-1.032.736,3.3,3.3,0,0,0-.644,1.172,5.544,5.544,0,0,0,0,3.12,3.3,3.3,0,0,0,.644,1.172,2.732,2.732,0,0,0,1.032.732,3.64,3.64,0,0,0,1.4.252,3.587,3.587,0,0,0,1.384-.252,2.738,2.738,0,0,0,1.028-.732,3.3,3.3,0,0,0,.644-1.172A5.068,5.068,0,0,0,20.585,29.168Zm17.464-5.824V35H35.665V28.3q0-.232.012-.5t.044-.552l-3.1,5.992a1.017,1.017,0,0,1-.388.424,1.073,1.073,0,0,1-.556.144h-.368a1.073,1.073,0,0,1-.556-.144,1.017,1.017,0,0,1-.388-.424l-3.1-6.008q.024.288.04.564t.016.508V35H24.945V23.344h2.064q.176,0,.308.008a.788.788,0,0,1,.236.048.537.537,0,0,1,.188.124.978.978,0,0,1,.164.236l3,5.912q.16.3.308.632t.284.672q.136-.352.284-.688t.316-.64l2.992-5.888a.978.978,0,0,1,.164-.236.537.537,0,0,1,.188-.124.788.788,0,0,1,.236-.048q.132-.008.308-.008Zm6.864,9.616a2.388,2.388,0,0,0,.876-.136,1.385,1.385,0,0,0,.532-.352,1.181,1.181,0,0,0,.264-.488,2.148,2.148,0,0,0,.072-.552,1.842,1.842,0,0,0-.084-.576.953.953,0,0,0-.288-.432,1.407,1.407,0,0,0-.54-.272,3.147,3.147,0,0,0-.848-.1H43.009v2.9Zm-1.9-7.592v2.88h1.408a4.64,4.64,0,0,0,.808-.064,1.68,1.68,0,0,0,.612-.224,1.028,1.028,0,0,0,.384-.44,1.65,1.65,0,0,0,.132-.7,1.981,1.981,0,0,0-.1-.692.991.991,0,0,0-.32-.444,1.343,1.343,0,0,0-.548-.24,3.763,3.763,0,0,0-.788-.072Zm1.584-2.024a8.153,8.153,0,0,1,2.056.224,3.917,3.917,0,0,1,1.384.632,2.4,2.4,0,0,1,.78.992,3.352,3.352,0,0,1,.244,1.3,2.556,2.556,0,0,1-.112.756,2.176,2.176,0,0,1-.352.68,2.743,2.743,0,0,1-.616.58,3.868,3.868,0,0,1-.9.456,3.225,3.225,0,0,1,1.7.9,2.348,2.348,0,0,1,.552,1.616,3.333,3.333,0,0,1-.288,1.384,3.169,3.169,0,0,1-.844,1.116,4,4,0,0,1-1.372.744A5.966,5.966,0,0,1,44.961,35H40.3V23.344ZM53.737,35h-2.72V23.344h2.72ZM66.169,23.344V35H64.761a1.224,1.224,0,0,1-.524-.1,1.283,1.283,0,0,1-.42-.348l-5.5-6.952q.032.312.044.6t.012.548V35H55.993V23.344h1.424a2.3,2.3,0,0,1,.3.016.756.756,0,0,1,.216.06.721.721,0,0,1,.184.124,2.1,2.1,0,0,1,.2.216l5.544,7q-.04-.336-.056-.652t-.016-.6V23.344Zm4.976,2.08v2.72h3.664v2H71.145V32.92h4.784V35h-7.5V23.344h7.5v2.08Zm17.024,3.744a6.112,6.112,0,0,1-.436,2.332A5.456,5.456,0,0,1,86.5,33.348,5.57,5.57,0,0,1,84.6,34.564,6.752,6.752,0,0,1,82.121,35H77.593V23.344h4.528a6.7,6.7,0,0,1,2.476.44A5.65,5.65,0,0,1,86.5,25a5.413,5.413,0,0,1,1.228,1.844A6.09,6.09,0,0,1,88.169,29.168Zm-2.768,0a5.078,5.078,0,0,0-.224-1.56,3.333,3.333,0,0,0-.644-1.18,2.8,2.8,0,0,0-1.028-.744,3.49,3.49,0,0,0-1.384-.26H80.313v7.5h1.808a3.49,3.49,0,0,0,1.384-.26,2.8,2.8,0,0,0,1.028-.744,3.333,3.333,0,0,0,.644-1.18A5.107,5.107,0,0,0,85.4,29.168Zm15.92,2.816a.544.544,0,0,1,.192.036.522.522,0,0,1,.184.124l1.072,1.128A4.45,4.45,0,0,1,101,34.66a6.173,6.173,0,0,1-2.508.468,5.975,5.975,0,0,1-2.38-.452,5.151,5.151,0,0,1-1.784-1.248,5.5,5.5,0,0,1-1.124-1.888,6.972,6.972,0,0,1-.392-2.372,6.566,6.566,0,0,1,.424-2.4,5.564,5.564,0,0,1,1.192-1.884,5.368,5.368,0,0,1,1.84-1.232,6.158,6.158,0,0,1,2.36-.44,6.3,6.3,0,0,1,1.236.116,6.041,6.041,0,0,1,1.084.32,4.951,4.951,0,0,1,.928.492,4.87,4.87,0,0,1,.752.624l-.912,1.224a1.161,1.161,0,0,1-.208.2.541.541,0,0,1-.336.092.6.6,0,0,1-.272-.064,3.007,3.007,0,0,1-.272-.156l-.316-.2a2.425,2.425,0,0,0-.408-.2,3.372,3.372,0,0,0-.552-.156,3.766,3.766,0,0,0-.74-.064,2.981,2.981,0,0,0-1.228.248,2.677,2.677,0,0,0-.96.724,3.348,3.348,0,0,0-.624,1.168,5.212,5.212,0,0,0-.22,1.58,4.8,4.8,0,0,0,.244,1.592,3.5,3.5,0,0,0,.664,1.172,2.818,2.818,0,0,0,.98.724,2.93,2.93,0,0,0,1.2.248,5.744,5.744,0,0,0,.672-.036,3.056,3.056,0,0,0,.568-.12,2.314,2.314,0,0,0,.5-.224,3.129,3.129,0,0,0,.472-.356.946.946,0,0,1,.208-.132A.545.545,0,0,1,101.321,31.984Zm8.792-1.44-1.08-3.192q-.12-.3-.256-.716t-.272-.892q-.12.488-.256.9t-.256.72l-1.072,3.176Zm4.3,4.456h-2.1a.915.915,0,0,1-.568-.164,1.042,1.042,0,0,1-.328-.42l-.688-2.032H106.3l-.688,2.032a.972.972,0,0,1-.316.4.882.882,0,0,1-.564.18h-2.112l4.512-11.656H109.9Zm5.032-5.936a1.716,1.716,0,0,0,1.984-1.912,2.106,2.106,0,0,0-.12-.728,1.481,1.481,0,0,0-.364-.564,1.636,1.636,0,0,0-.616-.364,2.725,2.725,0,0,0-.884-.128h-1.408v3.7Zm0-5.72a6.781,6.781,0,0,1,2.116.292,4.061,4.061,0,0,1,1.456.8,3.134,3.134,0,0,1,.844,1.208,4.1,4.1,0,0,1,.272,1.5,4.422,4.422,0,0,1-.28,1.6A3.211,3.211,0,0,1,122.993,30a4.034,4.034,0,0,1-1.46.812,6.692,6.692,0,0,1-2.092.292h-1.408V35h-2.7V23.344ZM128.225,35H125.5V23.344h2.72Zm10.632-9.512h-3.28V35h-2.7V25.488h-3.28V23.344h9.264Zm6.392,5.056-1.08-3.192q-.12-.3-.256-.716t-.272-.892q-.12.488-.256.9t-.256.72l-1.072,3.176Zm4.3,4.456h-2.1a.915.915,0,0,1-.568-.164,1.042,1.042,0,0,1-.328-.42l-.688-2.032h-4.432l-.688,2.032a.972.972,0,0,1-.316.4.882.882,0,0,1-.564.18h-2.112l4.512-11.656h2.768Zm7.944-2.16V35h-7.024V23.344h2.7v9.5Z" transform="translate(699.673 2761.335)"/><path class="c" d="M20.564,13.96a2.388,2.388,0,0,0,.876-.136,1.385,1.385,0,0,0,.532-.352,1.181,1.181,0,0,0,.264-.488,2.148,2.148,0,0,0,.072-.552,1.842,1.842,0,0,0-.084-.576.953.953,0,0,0-.288-.432,1.407,1.407,0,0,0-.54-.272,3.147,3.147,0,0,0-.848-.1H18.66v2.9Zm-1.9-7.592v2.88h1.408a4.64,4.64,0,0,0,.808-.064,1.68,1.68,0,0,0,.612-.224,1.028,1.028,0,0,0,.384-.44,1.65,1.65,0,0,0,.132-.7,1.98,1.98,0,0,0-.1-.692.991.991,0,0,0-.32-.444,1.343,1.343,0,0,0-.548-.24,3.762,3.762,0,0,0-.788-.072Zm1.584-2.024a8.153,8.153,0,0,1,2.056.224,3.917,3.917,0,0,1,1.384.632,2.4,2.4,0,0,1,.78.992,3.352,3.352,0,0,1,.244,1.3,2.556,2.556,0,0,1-.112.756,2.176,2.176,0,0,1-.352.68,2.743,2.743,0,0,1-.616.58,3.868,3.868,0,0,1-.9.456,3.225,3.225,0,0,1,1.7.9,2.348,2.348,0,0,1,.552,1.616,3.333,3.333,0,0,1-.288,1.384,3.169,3.169,0,0,1-.844,1.116,4,4,0,0,1-1.372.744A5.967,5.967,0,0,1,20.612,16H15.956V4.344Zm12.384,7.2-1.08-3.192q-.12-.3-.256-.716t-.272-.892q-.12.488-.256.9t-.256.72l-1.072,3.176ZM36.924,16h-2.1a.915.915,0,0,1-.568-.164,1.042,1.042,0,0,1-.328-.42l-.688-2.032H28.812l-.688,2.032a.972.972,0,0,1-.316.4.882.882,0,0,1-.564.18H25.132L29.644,4.344h2.768Zm8.392-3.016a.543.543,0,0,1,.192.036.522.522,0,0,1,.184.124l1.072,1.128A4.45,4.45,0,0,1,45,15.66a6.173,6.173,0,0,1-2.508.468,5.975,5.975,0,0,1-2.38-.452,5.151,5.151,0,0,1-1.784-1.248A5.5,5.5,0,0,1,37.2,12.54a6.972,6.972,0,0,1-.392-2.372,6.566,6.566,0,0,1,.424-2.4,5.564,5.564,0,0,1,1.192-1.884,5.368,5.368,0,0,1,1.84-1.232,6.158,6.158,0,0,1,2.36-.44,6.3,6.3,0,0,1,1.236.116,6.041,6.041,0,0,1,1.084.32,4.952,4.952,0,0,1,.928.492,4.869,4.869,0,0,1,.752.624l-.912,1.224a1.161,1.161,0,0,1-.208.2.541.541,0,0,1-.336.092.6.6,0,0,1-.272-.064,3.007,3.007,0,0,1-.272-.156l-.316-.2a2.425,2.425,0,0,0-.408-.2,3.372,3.372,0,0,0-.552-.156,3.767,3.767,0,0,0-.74-.064,2.981,2.981,0,0,0-1.228.248,2.677,2.677,0,0,0-.96.724A3.348,3.348,0,0,0,39.8,8.588a5.212,5.212,0,0,0-.22,1.58,4.8,4.8,0,0,0,.244,1.592,3.5,3.5,0,0,0,.664,1.172,2.818,2.818,0,0,0,.98.724,2.93,2.93,0,0,0,1.2.248,5.744,5.744,0,0,0,.672-.036,3.056,3.056,0,0,0,.568-.12,2.315,2.315,0,0,0,.5-.224,3.129,3.129,0,0,0,.472-.356.946.946,0,0,1,.208-.132A.545.545,0,0,1,45.316,12.984Zm5.336-3.92h.432a.981.981,0,0,0,.864-.376L54.572,4.88a1.29,1.29,0,0,1,.5-.42,1.685,1.685,0,0,1,.668-.116h2.352L54.636,9.056a2.355,2.355,0,0,1-.792.7,1.943,1.943,0,0,1,.552.312,2.348,2.348,0,0,1,.464.52L58.38,16H55.964a2.1,2.1,0,0,1-.4-.032,1.015,1.015,0,0,1-.284-.1.817.817,0,0,1-.208-.156,1.548,1.548,0,0,1-.168-.212l-2.64-4.056a.8.8,0,0,0-.364-.316,1.578,1.578,0,0,0-.6-.092h-.656V16h-2.7V4.344h2.7Zm11.32-2.64v2.72h3.664v2H61.972V13.92h4.784V16h-7.5V4.344h7.5v2.08ZM79,10.168A6.112,6.112,0,0,1,78.56,12.5a5.456,5.456,0,0,1-1.228,1.848,5.57,5.57,0,0,1-1.908,1.216A6.752,6.752,0,0,1,72.948,16H68.42V4.344h4.528a6.7,6.7,0,0,1,2.476.44A5.65,5.65,0,0,1,77.332,6,5.413,5.413,0,0,1,78.56,7.844,6.09,6.09,0,0,1,79,10.168Zm-2.768,0A5.078,5.078,0,0,0,76,8.608a3.333,3.333,0,0,0-.644-1.18,2.8,2.8,0,0,0-1.028-.744,3.49,3.49,0,0,0-1.384-.26H71.14v7.5h1.808a3.49,3.49,0,0,0,1.384-.26,2.8,2.8,0,0,0,1.028-.744A3.333,3.333,0,0,0,76,11.736,5.107,5.107,0,0,0,76.228,10.168ZM88.9,13.96a2.387,2.387,0,0,0,.876-.136,1.385,1.385,0,0,0,.532-.352,1.181,1.181,0,0,0,.264-.488,2.148,2.148,0,0,0,.072-.552,1.842,1.842,0,0,0-.084-.576.953.953,0,0,0-.288-.432,1.407,1.407,0,0,0-.54-.272,3.147,3.147,0,0,0-.848-.1H87v2.9ZM87,6.368v2.88H88.4a4.64,4.64,0,0,0,.808-.064,1.68,1.68,0,0,0,.612-.224,1.028,1.028,0,0,0,.384-.44,1.65,1.65,0,0,0,.132-.7,1.98,1.98,0,0,0-.1-.692.991.991,0,0,0-.32-.444,1.343,1.343,0,0,0-.548-.24,3.763,3.763,0,0,0-.788-.072ZM88.58,4.344a8.153,8.153,0,0,1,2.056.224A3.917,3.917,0,0,1,92.02,5.2a2.4,2.4,0,0,1,.78.992,3.352,3.352,0,0,1,.244,1.3,2.556,2.556,0,0,1-.112.756,2.177,2.177,0,0,1-.352.68,2.743,2.743,0,0,1-.616.58,3.868,3.868,0,0,1-.9.456,3.225,3.225,0,0,1,1.7.9,2.348,2.348,0,0,1,.552,1.616,3.333,3.333,0,0,1-.288,1.384,3.169,3.169,0,0,1-.844,1.116,4,4,0,0,1-1.372.744A5.967,5.967,0,0,1,88.948,16H84.292V4.344Zm11.584,7.224V16h-2.7V11.568L93.236,4.344H95.62a.863.863,0,0,1,.556.164,1.331,1.331,0,0,1,.34.42L98.164,8.32q.208.4.376.748t.3.684q.12-.344.276-.692t.364-.74l1.632-3.392a1.538,1.538,0,0,1,.136-.208,1.046,1.046,0,0,1,.188-.188.926.926,0,0,1,.248-.136.878.878,0,0,1,.308-.052h2.4ZM9.056,31.984a.544.544,0,0,1,.192.036.522.522,0,0,1,.184.124L10.5,33.272A4.45,4.45,0,0,1,8.74,34.66a6.173,6.173,0,0,1-2.508.468,5.975,5.975,0,0,1-2.38-.452,5.151,5.151,0,0,1-1.784-1.248A5.5,5.5,0,0,1,.944,31.54a6.972,6.972,0,0,1-.392-2.372,6.566,6.566,0,0,1,.424-2.4,5.564,5.564,0,0,1,1.192-1.884,5.368,5.368,0,0,1,1.84-1.232,6.158,6.158,0,0,1,2.36-.44,6.3,6.3,0,0,1,1.236.116,6.041,6.041,0,0,1,1.084.32,4.952,4.952,0,0,1,.928.492,4.87,4.87,0,0,1,.752.624l-.912,1.224a1.161,1.161,0,0,1-.208.2.541.541,0,0,1-.336.092.6.6,0,0,1-.272-.064,3.007,3.007,0,0,1-.272-.156l-.316-.2a2.425,2.425,0,0,0-.408-.2,3.372,3.372,0,0,0-.552-.156,3.767,3.767,0,0,0-.74-.064,2.981,2.981,0,0,0-1.228.248,2.677,2.677,0,0,0-.96.724,3.348,3.348,0,0,0-.624,1.168,5.212,5.212,0,0,0-.22,1.58,4.8,4.8,0,0,0,.244,1.592,3.5,3.5,0,0,0,.664,1.172,2.818,2.818,0,0,0,.98.724,2.93,2.93,0,0,0,1.2.248,5.744,5.744,0,0,0,.672-.036,3.056,3.056,0,0,0,.568-.12,2.314,2.314,0,0,0,.5-.224,3.129,3.129,0,0,0,.472-.356.946.946,0,0,1,.208-.132A.545.545,0,0,1,9.056,31.984Zm13.8-2.816a6.264,6.264,0,0,1-.436,2.352,5.559,5.559,0,0,1-3.136,3.152,6.489,6.489,0,0,1-2.476.456,6.519,6.519,0,0,1-2.48-.456A5.564,5.564,0,0,1,11.18,31.52a6.562,6.562,0,0,1,0-4.7,5.6,5.6,0,0,1,1.232-1.888,5.7,5.7,0,0,1,1.916-1.256,6.519,6.519,0,0,1,2.48-.456,6.439,6.439,0,0,1,2.476.46,5.711,5.711,0,0,1,1.908,1.26,5.625,5.625,0,0,1,1.228,1.888A6.243,6.243,0,0,1,22.856,29.168Zm-2.768,0a5.04,5.04,0,0,0-.224-1.556,3.3,3.3,0,0,0-.644-1.172,2.777,2.777,0,0,0-1.028-.736,3.538,3.538,0,0,0-1.384-.256,3.59,3.59,0,0,0-1.4.256,2.77,2.77,0,0,0-1.032.736,3.3,3.3,0,0,0-.644,1.172,5.544,5.544,0,0,0,0,3.12A3.3,3.3,0,0,0,14.38,31.9a2.732,2.732,0,0,0,1.032.732,3.64,3.64,0,0,0,1.4.252,3.587,3.587,0,0,0,1.384-.252A2.738,2.738,0,0,0,19.22,31.9a3.3,3.3,0,0,0,.644-1.172A5.068,5.068,0,0,0,20.088,29.168Zm8.152-.344a2.782,2.782,0,0,0,.94-.14,1.7,1.7,0,0,0,.636-.388,1.478,1.478,0,0,0,.36-.58A2.226,2.226,0,0,0,30.288,27a1.5,1.5,0,0,0-.5-1.2,2.327,2.327,0,0,0-1.548-.432H27.152v3.456ZM33.984,35H31.536a1.039,1.039,0,0,1-.976-.512L28.624,31.1a.787.787,0,0,0-.784-.416h-.688V35h-2.7V23.344H28.24a7.782,7.782,0,0,1,2.156.26,4.048,4.048,0,0,1,1.456.724,2.74,2.74,0,0,1,.82,1.1,3.631,3.631,0,0,1,.256,1.376,3.694,3.694,0,0,1-.152,1.072,3.306,3.306,0,0,1-.448.932,3.418,3.418,0,0,1-.732.764,3.908,3.908,0,0,1-1,.552,2.446,2.446,0,0,1,.5.34,2.379,2.379,0,0,1,.416.484Zm11.16-11.656V35H43.736a1.224,1.224,0,0,1-.524-.1,1.283,1.283,0,0,1-.42-.348L37.3,27.6q.032.312.044.6t.012.548V35H34.968V23.344h1.424a2.3,2.3,0,0,1,.3.016.756.756,0,0,1,.216.06.721.721,0,0,1,.184.124,2.1,2.1,0,0,1,.2.216l5.544,7q-.04-.336-.056-.652t-.016-.6V23.344Zm4.976,2.08v2.72h3.664v2H50.12V32.92H54.9V35H47.4V23.344h7.5v2.08Zm10.24,3.4a2.782,2.782,0,0,0,.94-.14,1.7,1.7,0,0,0,.636-.388,1.478,1.478,0,0,0,.36-.58A2.226,2.226,0,0,0,62.408,27a1.5,1.5,0,0,0-.5-1.2,2.327,2.327,0,0,0-1.548-.432H59.272v3.456ZM66.1,35H63.656a1.039,1.039,0,0,1-.976-.512L60.744,31.1a.787.787,0,0,0-.784-.416h-.688V35h-2.7V23.344H60.36a7.782,7.782,0,0,1,2.156.26,4.048,4.048,0,0,1,1.456.724,2.74,2.74,0,0,1,.82,1.1,3.631,3.631,0,0,1,.256,1.376,3.694,3.694,0,0,1-.152,1.072,3.306,3.306,0,0,1-.448.932,3.418,3.418,0,0,1-.732.764,3.908,3.908,0,0,1-1,.552,2.447,2.447,0,0,1,.5.34,2.379,2.379,0,0,1,.416.484Zm7.424-9.288a1.016,1.016,0,0,1-.252.288.564.564,0,0,1-.34.1.832.832,0,0,1-.4-.116l-.48-.26a3.983,3.983,0,0,0-.612-.26,2.449,2.449,0,0,0-.784-.116,1.687,1.687,0,0,0-1.132.324,1.1,1.1,0,0,0-.372.876.807.807,0,0,0,.224.584,1.931,1.931,0,0,0,.588.4,6.3,6.3,0,0,0,.832.308q.468.14.956.312a8.549,8.549,0,0,1,.956.4,3.188,3.188,0,0,1,.832.592,2.763,2.763,0,0,1,.588.876,3.115,3.115,0,0,1,.224,1.244,4.053,4.053,0,0,1-.28,1.512A3.54,3.54,0,0,1,73.268,34a3.769,3.769,0,0,1-1.312.824,4.908,4.908,0,0,1-1.772.3,5.68,5.68,0,0,1-1.108-.112,6.58,6.58,0,0,1-1.092-.316,6.333,6.333,0,0,1-.992-.484,4.215,4.215,0,0,1-.808-.624l.8-1.264a.8.8,0,0,1,.252-.228.657.657,0,0,1,.34-.092.911.911,0,0,1,.484.152q.244.152.552.336a4.492,4.492,0,0,0,.708.336,2.655,2.655,0,0,0,.944.152,1.8,1.8,0,0,0,1.144-.324,1.234,1.234,0,0,0,.408-1.028.972.972,0,0,0-.224-.664A1.731,1.731,0,0,0,71,30.544a5.417,5.417,0,0,0-.828-.3q-.464-.128-.952-.284a6.965,6.965,0,0,1-.952-.384,3,3,0,0,1-.828-.6,2.808,2.808,0,0,1-.588-.928,3.685,3.685,0,0,1-.224-1.372A3.255,3.255,0,0,1,66.9,25.4a3.3,3.3,0,0,1,.776-1.112,3.816,3.816,0,0,1,1.256-.78,4.639,4.639,0,0,1,1.7-.292,6.39,6.39,0,0,1,1.044.084,5.488,5.488,0,0,1,.964.248,5.294,5.294,0,0,1,.852.392,3.928,3.928,0,0,1,.708.516Zm10.8-.224h-3.28V35h-2.7V25.488h-3.28V23.344h9.264Zm12.536,3.68a6.264,6.264,0,0,1-.436,2.352,5.559,5.559,0,0,1-3.136,3.152,6.961,6.961,0,0,1-4.956,0,5.564,5.564,0,0,1-3.148-3.152,6.562,6.562,0,0,1,0-4.7,5.6,5.6,0,0,1,1.232-1.888,5.7,5.7,0,0,1,1.916-1.256,6.519,6.519,0,0,1,2.48-.456,6.439,6.439,0,0,1,2.476.46,5.711,5.711,0,0,1,1.908,1.26,5.625,5.625,0,0,1,1.228,1.888A6.243,6.243,0,0,1,96.864,29.168Zm-2.768,0a5.04,5.04,0,0,0-.224-1.556,3.3,3.3,0,0,0-.644-1.172A2.777,2.777,0,0,0,92.2,25.7a3.538,3.538,0,0,0-1.384-.256,3.59,3.59,0,0,0-1.4.256,2.77,2.77,0,0,0-1.032.736,3.3,3.3,0,0,0-.644,1.172,5.544,5.544,0,0,0,0,3.12,3.3,3.3,0,0,0,.644,1.172,2.732,2.732,0,0,0,1.032.732,3.64,3.64,0,0,0,1.4.252,3.587,3.587,0,0,0,1.384-.252,2.738,2.738,0,0,0,1.028-.732,3.3,3.3,0,0,0,.644-1.172A5.068,5.068,0,0,0,94.1,29.168Zm14.536-5.824V35h-1.408a1.224,1.224,0,0,1-.524-.1,1.283,1.283,0,0,1-.42-.348l-5.5-6.952q.032.312.044.6t.012.548V35H98.456V23.344H99.88a2.3,2.3,0,0,1,.3.016.756.756,0,0,1,.216.06.721.721,0,0,1,.184.124,2.1,2.1,0,0,1,.2.216l5.544,7q-.04-.336-.056-.652t-.016-.6V23.344Zm4.976,2.08v2.72h3.664v2h-3.664V32.92h4.784V35h-7.5V23.344h7.5v2.08ZM19,54h-2.72V42.344H19ZM31.428,42.344V54H30.02a1.224,1.224,0,0,1-.524-.1,1.283,1.283,0,0,1-.42-.348L23.58,46.6q.032.312.044.6t.012.548V54H21.252V42.344h1.424a2.3,2.3,0,0,1,.3.016.756.756,0,0,1,.216.06.721.721,0,0,1,.184.124,2.1,2.1,0,0,1,.2.216l5.544,7q-.04-.336-.056-.652t-.016-.6V42.344Zm12.712,0L39.468,54H37.02L32.348,42.344h2.176a.915.915,0,0,1,.568.164,1.042,1.042,0,0,1,.328.42l2.256,6.24q.16.408.312.892t.288,1.012q.112-.528.252-1.012t.3-.892l2.24-6.24a.972.972,0,0,1,.316-.4.882.882,0,0,1,.564-.18Zm3.64,2.08v2.72h3.664v2H47.78V51.92h4.784V54h-7.5V42.344h7.5v2.08Zm12.888.288a1.016,1.016,0,0,1-.252.288.564.564,0,0,1-.34.1.832.832,0,0,1-.4-.116l-.48-.26a3.983,3.983,0,0,0-.612-.26,2.449,2.449,0,0,0-.784-.116,1.687,1.687,0,0,0-1.132.324,1.1,1.1,0,0,0-.372.876.807.807,0,0,0,.224.584,1.931,1.931,0,0,0,.588.4,6.3,6.3,0,0,0,.832.308q.468.14.956.312a8.549,8.549,0,0,1,.956.4,3.188,3.188,0,0,1,.832.592,2.763,2.763,0,0,1,.588.876,3.115,3.115,0,0,1,.224,1.244,4.053,4.053,0,0,1-.28,1.512A3.54,3.54,0,0,1,60.408,53a3.769,3.769,0,0,1-1.312.824,4.908,4.908,0,0,1-1.772.3,5.68,5.68,0,0,1-1.108-.112,6.58,6.58,0,0,1-1.092-.316,6.333,6.333,0,0,1-.992-.484,4.215,4.215,0,0,1-.808-.624l.8-1.264a.8.8,0,0,1,.252-.228.657.657,0,0,1,.34-.092.911.911,0,0,1,.484.152q.244.152.552.336a4.492,4.492,0,0,0,.708.336,2.655,2.655,0,0,0,.944.152,1.8,1.8,0,0,0,1.144-.324,1.234,1.234,0,0,0,.408-1.028.972.972,0,0,0-.224-.664,1.731,1.731,0,0,0-.588-.424,5.417,5.417,0,0,0-.828-.3q-.464-.128-.952-.284a6.965,6.965,0,0,1-.952-.384,3,3,0,0,1-.828-.6A2.808,2.808,0,0,1,54,47.052a3.685,3.685,0,0,1-.224-1.372,3.255,3.255,0,0,1,.264-1.28,3.3,3.3,0,0,1,.776-1.112,3.816,3.816,0,0,1,1.256-.78,4.639,4.639,0,0,1,1.7-.292,6.39,6.39,0,0,1,1.044.084,5.488,5.488,0,0,1,.964.248,5.294,5.294,0,0,1,.852.392,3.928,3.928,0,0,1,.708.516Zm10.8-.224h-3.28V54h-2.7V44.488H62.2V42.344h9.264ZM84,48.168a6.264,6.264,0,0,1-.436,2.352,5.559,5.559,0,0,1-3.136,3.152,6.961,6.961,0,0,1-4.956,0,5.564,5.564,0,0,1-3.148-3.152,6.562,6.562,0,0,1,0-4.7,5.6,5.6,0,0,1,1.232-1.888,5.7,5.7,0,0,1,1.916-1.256,6.519,6.519,0,0,1,2.48-.456,6.439,6.439,0,0,1,2.476.46,5.711,5.711,0,0,1,1.908,1.26,5.625,5.625,0,0,1,1.228,1.888A6.243,6.243,0,0,1,84,48.168Zm-2.768,0a5.04,5.04,0,0,0-.224-1.556,3.3,3.3,0,0,0-.644-1.172A2.777,2.777,0,0,0,79.34,44.7a3.538,3.538,0,0,0-1.384-.256,3.59,3.59,0,0,0-1.4.256,2.77,2.77,0,0,0-1.032.736,3.3,3.3,0,0,0-.644,1.172,5.544,5.544,0,0,0,0,3.12,3.3,3.3,0,0,0,.644,1.172,2.732,2.732,0,0,0,1.032.732,3.64,3.64,0,0,0,1.4.252,3.587,3.587,0,0,0,1.384-.252,2.738,2.738,0,0,0,1.028-.732,3.3,3.3,0,0,0,.644-1.172A5.068,5.068,0,0,0,81.236,48.168Zm8.152-.344a2.782,2.782,0,0,0,.94-.14,1.7,1.7,0,0,0,.636-.388,1.478,1.478,0,0,0,.36-.58A2.226,2.226,0,0,0,91.436,46a1.5,1.5,0,0,0-.5-1.2,2.327,2.327,0,0,0-1.548-.432H88.3v3.456ZM95.132,54H92.684a1.039,1.039,0,0,1-.976-.512L89.772,50.1a.787.787,0,0,0-.784-.416H88.3V54H85.6V42.344h3.792a7.782,7.782,0,0,1,2.156.26A4.048,4.048,0,0,1,93,43.328a2.74,2.74,0,0,1,.82,1.1,3.631,3.631,0,0,1,.256,1.376,3.694,3.694,0,0,1-.152,1.072,3.306,3.306,0,0,1-.448.932,3.418,3.418,0,0,1-.732.764,3.908,3.908,0,0,1-1,.552,2.446,2.446,0,0,1,.5.34,2.379,2.379,0,0,1,.416.484Zm7.424-9.288A1.016,1.016,0,0,1,102.3,45a.564.564,0,0,1-.34.1.832.832,0,0,1-.4-.116l-.48-.26a3.983,3.983,0,0,0-.612-.26,2.449,2.449,0,0,0-.784-.116,1.687,1.687,0,0,0-1.132.324,1.1,1.1,0,0,0-.372.876.807.807,0,0,0,.224.584,1.931,1.931,0,0,0,.588.4,6.3,6.3,0,0,0,.832.308q.468.14.956.312a8.549,8.549,0,0,1,.956.4,3.188,3.188,0,0,1,.832.592,2.763,2.763,0,0,1,.588.876,3.115,3.115,0,0,1,.224,1.244,4.053,4.053,0,0,1-.28,1.512A3.54,3.54,0,0,1,102.3,53a3.769,3.769,0,0,1-1.312.824,4.908,4.908,0,0,1-1.772.3,5.68,5.68,0,0,1-1.108-.112,6.58,6.58,0,0,1-1.092-.316,6.333,6.333,0,0,1-.992-.484,4.215,4.215,0,0,1-.808-.624l.8-1.264a.8.8,0,0,1,.252-.228.657.657,0,0,1,.34-.092.911.911,0,0,1,.484.152q.244.152.552.336a4.492,4.492,0,0,0,.708.336,2.655,2.655,0,0,0,.944.152,1.8,1.8,0,0,0,1.144-.324,1.234,1.234,0,0,0,.408-1.028.972.972,0,0,0-.224-.664,1.731,1.731,0,0,0-.588-.424,5.417,5.417,0,0,0-.828-.3q-.464-.128-.952-.284a6.965,6.965,0,0,1-.952-.384,3,3,0,0,1-.828-.6,2.808,2.808,0,0,1-.588-.928,3.685,3.685,0,0,1-.224-1.372,3.255,3.255,0,0,1,.264-1.28,3.3,3.3,0,0,1,.776-1.112,3.816,3.816,0,0,1,1.256-.78,4.639,4.639,0,0,1,1.7-.292,6.39,6.39,0,0,1,1.044.084,5.488,5.488,0,0,1,.964.248,5.294,5.294,0,0,1,.852.392,3.928,3.928,0,0,1,.708.516Z" transform="translate(1092.726 2687.444)"/><path class="c" d="M48.8,6.712A1.016,1.016,0,0,1,48.546,7a.564.564,0,0,1-.34.1.832.832,0,0,1-.4-.116l-.48-.26a3.983,3.983,0,0,0-.612-.26,2.449,2.449,0,0,0-.784-.116,1.687,1.687,0,0,0-1.132.324,1.1,1.1,0,0,0-.372.876.807.807,0,0,0,.224.584,1.931,1.931,0,0,0,.588.4,6.3,6.3,0,0,0,.832.308q.468.14.956.312a8.549,8.549,0,0,1,.956.4,3.188,3.188,0,0,1,.832.592,2.763,2.763,0,0,1,.588.876,3.115,3.115,0,0,1,.224,1.244,4.053,4.053,0,0,1-.28,1.512A3.54,3.54,0,0,1,48.538,15a3.769,3.769,0,0,1-1.312.824,4.909,4.909,0,0,1-1.772.3,5.68,5.68,0,0,1-1.108-.112,6.58,6.58,0,0,1-1.092-.316,6.332,6.332,0,0,1-.992-.484,4.215,4.215,0,0,1-.808-.624l.8-1.264a.8.8,0,0,1,.252-.228.657.657,0,0,1,.34-.092.911.911,0,0,1,.484.152q.244.152.552.336a4.492,4.492,0,0,0,.708.336,2.655,2.655,0,0,0,.944.152,1.8,1.8,0,0,0,1.144-.324,1.234,1.234,0,0,0,.408-1.028.972.972,0,0,0-.224-.664,1.731,1.731,0,0,0-.588-.424,5.417,5.417,0,0,0-.828-.3q-.464-.128-.952-.284a6.965,6.965,0,0,1-.952-.384,3,3,0,0,1-.828-.6,2.808,2.808,0,0,1-.588-.928A3.685,3.685,0,0,1,41.9,7.68a3.255,3.255,0,0,1,.264-1.28,3.3,3.3,0,0,1,.776-1.112,3.816,3.816,0,0,1,1.256-.78,4.639,4.639,0,0,1,1.7-.292,6.39,6.39,0,0,1,1.044.084,5.488,5.488,0,0,1,.964.248,5.294,5.294,0,0,1,.852.392,3.928,3.928,0,0,1,.708.516Zm10.8-.224h-3.28V16h-2.7V6.488h-3.28V4.344H59.6Zm6.392,5.056L64.91,8.352q-.12-.3-.256-.716t-.272-.892q-.12.488-.256.9t-.256.72L62.8,11.544ZM70.286,16h-2.1a.915.915,0,0,1-.568-.164,1.042,1.042,0,0,1-.328-.42l-.688-2.032H62.174l-.688,2.032a.972.972,0,0,1-.316.4.882.882,0,0,1-.564.18H58.494L63.006,4.344h2.768Zm3.64-9.576V9.376H77.91v2.088H73.926V16h-2.72V4.344h7.5v2.08Zm9.064,0V9.376h3.984v2.088H82.99V16H80.27V4.344h7.5v2.08ZM17.622,29.832a2.073,2.073,0,0,0-.808,1.68,1.985,1.985,0,0,0,.116.7,1.529,1.529,0,0,0,.332.536,1.507,1.507,0,0,0,.516.348,1.733,1.733,0,0,0,.668.124,3.384,3.384,0,0,0,1.864-.536ZM25.6,35H23.15a2.4,2.4,0,0,1-.328-.02,1.2,1.2,0,0,1-.268-.068.917.917,0,0,1-.236-.136,2.222,2.222,0,0,1-.24-.224l-.5-.528A6.179,6.179,0,0,1,18,35.128a4.006,4.006,0,0,1-1.364-.24,3.78,3.78,0,0,1-1.188-.684,3.442,3.442,0,0,1-.84-1.076,3.09,3.09,0,0,1-.32-1.416,3.025,3.025,0,0,1,.164-1,3.251,3.251,0,0,1,.464-.876,4.1,4.1,0,0,1,.708-.736,4.893,4.893,0,0,1,.9-.58,4.4,4.4,0,0,1-.552-1.144,3.778,3.778,0,0,1-.168-1.088,3.08,3.08,0,0,1,.228-1.18,2.835,2.835,0,0,1,.664-.976,3.2,3.2,0,0,1,1.072-.668,4,4,0,0,1,1.46-.248,3.791,3.791,0,0,1,1.368.228,3.141,3.141,0,0,1,1,.6,2.757,2.757,0,0,1,.64.86,3.1,3.1,0,0,1,.288,1l-1.6.32a.511.511,0,0,1-.624-.336,1.807,1.807,0,0,0-.428-.632.936.936,0,0,0-.644-.216,1.046,1.046,0,0,0-.836.376,1.159,1.159,0,0,0-.212.392,1.507,1.507,0,0,0-.072.464,2.1,2.1,0,0,0,.036.4,1.736,1.736,0,0,0,.124.384,2.394,2.394,0,0,0,.236.4,5.134,5.134,0,0,0,.372.456l2.88,3.032a6.052,6.052,0,0,0,.528-2.072.565.565,0,0,1,.152-.352.465.465,0,0,1,.344-.128H24.35a7.375,7.375,0,0,1-.312,2.176,6.915,6.915,0,0,1-.88,1.856ZM38.23,31.984a.543.543,0,0,1,.192.036.522.522,0,0,1,.184.124l1.072,1.128a4.45,4.45,0,0,1-1.764,1.388,6.173,6.173,0,0,1-2.508.468,5.975,5.975,0,0,1-2.38-.452,5.151,5.151,0,0,1-1.784-1.248,5.5,5.5,0,0,1-1.124-1.888,6.972,6.972,0,0,1-.392-2.372,6.566,6.566,0,0,1,.424-2.4,5.564,5.564,0,0,1,1.192-1.884,5.368,5.368,0,0,1,1.84-1.232,6.158,6.158,0,0,1,2.36-.44,6.3,6.3,0,0,1,1.236.116,6.041,6.041,0,0,1,1.084.32,4.952,4.952,0,0,1,.928.492,4.869,4.869,0,0,1,.752.624l-.912,1.224a1.161,1.161,0,0,1-.208.2.541.541,0,0,1-.336.092.6.6,0,0,1-.272-.064,3.007,3.007,0,0,1-.272-.156l-.316-.2a2.425,2.425,0,0,0-.408-.2,3.372,3.372,0,0,0-.552-.156,3.767,3.767,0,0,0-.74-.064A2.981,2.981,0,0,0,34.3,25.7a2.677,2.677,0,0,0-.96.724,3.348,3.348,0,0,0-.624,1.168,5.212,5.212,0,0,0-.22,1.58,4.8,4.8,0,0,0,.244,1.592,3.5,3.5,0,0,0,.664,1.172,2.818,2.818,0,0,0,.98.724,2.93,2.93,0,0,0,1.2.248,5.744,5.744,0,0,0,.672-.036,3.056,3.056,0,0,0,.568-.12,2.314,2.314,0,0,0,.5-.224,3.129,3.129,0,0,0,.472-.356A.946.946,0,0,1,38,32.036.545.545,0,0,1,38.23,31.984Zm13.8-2.816a6.264,6.264,0,0,1-.436,2.352,5.559,5.559,0,0,1-3.136,3.152,6.961,6.961,0,0,1-4.956,0,5.564,5.564,0,0,1-3.148-3.152,6.562,6.562,0,0,1,0-4.7,5.6,5.6,0,0,1,1.232-1.888A5.7,5.7,0,0,1,43.5,23.672a6.519,6.519,0,0,1,2.48-.456,6.439,6.439,0,0,1,2.476.46,5.711,5.711,0,0,1,1.908,1.26,5.625,5.625,0,0,1,1.228,1.888A6.243,6.243,0,0,1,52.03,29.168Zm-2.768,0a5.04,5.04,0,0,0-.224-1.556,3.3,3.3,0,0,0-.644-1.172,2.777,2.777,0,0,0-1.028-.736,3.538,3.538,0,0,0-1.384-.256,3.59,3.59,0,0,0-1.4.256,2.77,2.77,0,0,0-1.032.736,3.3,3.3,0,0,0-.644,1.172,5.544,5.544,0,0,0,0,3.12,3.3,3.3,0,0,0,.644,1.172,2.732,2.732,0,0,0,1.032.732,3.64,3.64,0,0,0,1.4.252,3.587,3.587,0,0,0,1.384-.252,2.738,2.738,0,0,0,1.028-.732,3.3,3.3,0,0,0,.644-1.172A5.068,5.068,0,0,0,49.262,29.168Zm9.224,3.7a2.487,2.487,0,0,0,.972-.18,1.966,1.966,0,0,0,.724-.516,2.281,2.281,0,0,0,.452-.82,3.581,3.581,0,0,0,.156-1.1v-6.9h2.7v6.9a5.392,5.392,0,0,1-.348,1.968,4.415,4.415,0,0,1-1,1.544,4.494,4.494,0,0,1-1.576,1.008,6.258,6.258,0,0,1-4.184,0,4.494,4.494,0,0,1-1.576-1.008,4.368,4.368,0,0,1-.992-1.544,5.448,5.448,0,0,1-.344-1.968v-6.9h2.7v6.9a3.581,3.581,0,0,0,.156,1.1,2.322,2.322,0,0,0,.452.824,1.945,1.945,0,0,0,.724.52A2.487,2.487,0,0,0,58.486,32.864Zm17.3-9.52V35H74.374a1.224,1.224,0,0,1-.524-.1,1.283,1.283,0,0,1-.42-.348l-5.5-6.952q.032.312.044.6t.012.548V35H65.606V23.344H67.03a2.3,2.3,0,0,1,.3.016.756.756,0,0,1,.216.06.721.721,0,0,1,.184.124,2.1,2.1,0,0,1,.2.216l5.544,7q-.04-.336-.056-.652t-.016-.6V23.344Zm10.632,2.144h-3.28V35h-2.7V25.488H77.15V23.344h9.264ZM90.5,35h-2.72V23.344H90.5Zm12.432-11.656V35h-1.408a1.224,1.224,0,0,1-.524-.1,1.283,1.283,0,0,1-.42-.348l-5.5-6.952q.032.312.044.6t.012.548V35H92.758V23.344h1.424a2.3,2.3,0,0,1,.3.016.756.756,0,0,1,.216.06.721.721,0,0,1,.184.124,2.1,2.1,0,0,1,.2.216l5.544,7q-.04-.336-.056-.652t-.016-.6V23.344Zm7.856,5.616h4.144v4.92a6.126,6.126,0,0,1-1.908.952,7.5,7.5,0,0,1-2.116.3,7.272,7.272,0,0,1-2.62-.452,6.036,6.036,0,0,1-2.02-1.248,5.477,5.477,0,0,1-1.3-1.888,6.094,6.094,0,0,1-.456-2.372,6.458,6.458,0,0,1,.432-2.4,5.4,5.4,0,0,1,1.236-1.884,5.608,5.608,0,0,1,1.944-1.232,7.027,7.027,0,0,1,2.548-.44,7.421,7.421,0,0,1,1.368.12,6.73,6.73,0,0,1,1.18.328,5.43,5.43,0,0,1,.988.5,5.322,5.322,0,0,1,.8.624l-.784,1.192a.753.753,0,0,1-.476.344.84.84,0,0,1-.628-.144q-.32-.192-.6-.332a3.685,3.685,0,0,0-.58-.228,3.8,3.8,0,0,0-.624-.128,6.123,6.123,0,0,0-.736-.04,3.357,3.357,0,0,0-1.368.268,2.933,2.933,0,0,0-1.036.756,3.419,3.419,0,0,0-.66,1.172,4.724,4.724,0,0,0-.232,1.524,4.905,4.905,0,0,0,.256,1.648,3.409,3.409,0,0,0,.724,1.216,3.1,3.1,0,0,0,1.12.756,3.866,3.866,0,0,0,1.444.26,3.757,3.757,0,0,0,.884-.1,4.942,4.942,0,0,0,.772-.256V30.928h-1.152a.559.559,0,0,1-.4-.136.453.453,0,0,1-.144-.344Z" transform="translate(868.842 2540.44)"/><path class="c" d="M17.566-6.247a7.312,7.312,0,0,0,2.683-.417,4.24,4.24,0,0,0,1.629-1.078,3.616,3.616,0,0,0,.809-1.494,6.579,6.579,0,0,0,.22-1.691,5.642,5.642,0,0,0-.257-1.764,2.917,2.917,0,0,0-.882-1.323,4.31,4.31,0,0,0-1.654-.833,9.637,9.637,0,0,0-2.6-.294H11.736v8.893ZM11.736-29.5v8.82h4.312a14.209,14.209,0,0,0,2.475-.2A5.145,5.145,0,0,0,20.4-21.56a3.149,3.149,0,0,0,1.176-1.347,5.054,5.054,0,0,0,.4-2.156,6.065,6.065,0,0,0-.318-2.119,3.036,3.036,0,0,0-.98-1.36A4.114,4.114,0,0,0,19-29.278a11.523,11.523,0,0,0-2.413-.22Zm4.851-6.2a24.968,24.968,0,0,1,6.3.686,12,12,0,0,1,4.239,1.936,7.335,7.335,0,0,1,2.389,3.038,10.265,10.265,0,0,1,.747,3.993,7.828,7.828,0,0,1-.343,2.315,6.665,6.665,0,0,1-1.078,2.083,8.4,8.4,0,0,1-1.887,1.776,11.846,11.846,0,0,1-2.769,1.4A9.877,9.877,0,0,1,29.4-15.7a7.192,7.192,0,0,1,1.691,4.949,10.208,10.208,0,0,1-.882,4.238A9.706,9.706,0,0,1,27.624-3.1a12.255,12.255,0,0,1-4.2,2.278A18.273,18.273,0,0,1,17.713,0H3.454V-35.7ZM44.59,0H36.26V-35.7h8.33ZM68.649-18.5H81.34V-3.43A18.759,18.759,0,0,1,75.5-.515a22.966,22.966,0,0,1-6.48.907A22.269,22.269,0,0,1,60.993-.992a18.486,18.486,0,0,1-6.186-3.822A16.772,16.772,0,0,1,50.837-10.6a18.663,18.663,0,0,1-1.4-7.264A19.777,19.777,0,0,1,50.764-25.2a16.527,16.527,0,0,1,3.785-5.77A17.173,17.173,0,0,1,60.5-34.741a21.52,21.52,0,0,1,7.8-1.347,22.727,22.727,0,0,1,4.189.368,20.612,20.612,0,0,1,3.614,1A16.631,16.631,0,0,1,79.135-33.2a16.3,16.3,0,0,1,2.45,1.911l-2.4,3.65a2.305,2.305,0,0,1-1.458,1.053,2.573,2.573,0,0,1-1.923-.441q-.98-.588-1.85-1.017a11.287,11.287,0,0,0-1.776-.7,11.641,11.641,0,0,0-1.911-.392,18.751,18.751,0,0,0-2.254-.122,10.282,10.282,0,0,0-4.19.821,8.982,8.982,0,0,0-3.173,2.315,10.472,10.472,0,0,0-2.021,3.589,14.468,14.468,0,0,0-.71,4.667,15.022,15.022,0,0,0,.784,5.047,10.439,10.439,0,0,0,2.217,3.724,9.479,9.479,0,0,0,3.43,2.315,11.84,11.84,0,0,0,4.422.8,11.507,11.507,0,0,0,2.707-.294,15.135,15.135,0,0,0,2.364-.784V-12.47H70.315a1.713,1.713,0,0,1-1.225-.417,1.387,1.387,0,0,1-.441-1.053Zm31.826,4.63v-9.31q0-.858.061-1.85t.184-2.07l-9.433,13.23Zm10.29,0V-9.6a1.407,1.407,0,0,1-.38.98,1.4,1.4,0,0,1-1.09.416h-2.2V0h-6.615V-8.208H86.118a2.063,2.063,0,0,1-1.286-.441,1.872,1.872,0,0,1-.723-1.1L83.325-13.5,99.838-35.7h7.252v21.829Z" transform="translate(639.145 2563.843)"/><path class="c" d="M22.448-6.44a2.533,2.533,0,0,1,1.817.633,2.192,2.192,0,0,1,.667,1.667V0H1.38V-2.3a4.183,4.183,0,0,1,.276-1.426,3.44,3.44,0,0,1,.966-1.38l9.66-9.729A32.03,32.03,0,0,0,14.444-17.2a14.686,14.686,0,0,0,1.518-2.219,10.113,10.113,0,0,0,.9-2.185,8.721,8.721,0,0,0,.3-2.311A4.464,4.464,0,0,0,16.2-26.99a3.7,3.7,0,0,0-2.91-1.07,4.267,4.267,0,0,0-2.68.84,4.3,4.3,0,0,0-1.507,2.081A3,3,0,0,1,7.843-23.46a3.62,3.62,0,0,1-2.231.184L1.84-23.943a12.583,12.583,0,0,1,1.414-4.37,10.517,10.517,0,0,1,2.6-3.105,10.545,10.545,0,0,1,3.554-1.851,14.69,14.69,0,0,1,4.3-.61,13.007,13.007,0,0,1,4.473.725,10.015,10.015,0,0,1,3.393,2.012,8.665,8.665,0,0,1,2.15,3.071,10.041,10.041,0,0,1,.748,3.921,10.777,10.777,0,0,1-.517,3.4,13.409,13.409,0,0,1-1.414,2.979,20.809,20.809,0,0,1-2.082,2.737q-1.185,1.323-2.519,2.68L11.385-5.635a19.146,19.146,0,0,1,2.507-.6,14.055,14.055,0,0,1,2.3-.207ZM52.44-16.767A27.252,27.252,0,0,1,51.5-9.154a15.625,15.625,0,0,1-2.611,5.336A10.528,10.528,0,0,1,44.931-.667,11.886,11.886,0,0,1,39.974.368,11.73,11.73,0,0,1,35.041-.667a10.483,10.483,0,0,1-3.922-3.151,15.6,15.6,0,0,1-2.587-5.336,27.569,27.569,0,0,1-.931-7.613,27.569,27.569,0,0,1,.931-7.613,15.6,15.6,0,0,1,2.587-5.336,10.377,10.377,0,0,1,3.922-3.14,11.842,11.842,0,0,1,4.933-1.023,12,12,0,0,1,4.957,1.023,10.422,10.422,0,0,1,3.956,3.14A15.625,15.625,0,0,1,51.5-24.38,27.252,27.252,0,0,1,52.44-16.767Zm-7.36,0a30.374,30.374,0,0,0-.437-5.692,11.669,11.669,0,0,0-1.162-3.485,4.211,4.211,0,0,0-1.645-1.736,4.046,4.046,0,0,0-1.863-.472,3.978,3.978,0,0,0-1.851.472,4.109,4.109,0,0,0-1.61,1.736,11.973,11.973,0,0,0-1.127,3.485,31.176,31.176,0,0,0-.426,5.692,31.139,31.139,0,0,0,.426,5.7,12.133,12.133,0,0,0,1.127,3.484,4.1,4.1,0,0,0,1.61,1.748,3.978,3.978,0,0,0,1.851.472,4.046,4.046,0,0,0,1.863-.472,4.2,4.2,0,0,0,1.645-1.748,11.824,11.824,0,0,0,1.162-3.484A30.339,30.339,0,0,0,45.08-16.767Zm34.04,0a27.252,27.252,0,0,1-.943,7.613,15.625,15.625,0,0,1-2.611,5.336A10.528,10.528,0,0,1,71.611-.667,11.886,11.886,0,0,1,66.654.368,11.73,11.73,0,0,1,61.721-.667,10.483,10.483,0,0,1,57.8-3.818a15.6,15.6,0,0,1-2.587-5.336,27.569,27.569,0,0,1-.932-7.613,27.569,27.569,0,0,1,.932-7.613A15.6,15.6,0,0,1,57.8-29.716a10.377,10.377,0,0,1,3.922-3.14,11.842,11.842,0,0,1,4.933-1.023,12,12,0,0,1,4.957,1.023,10.422,10.422,0,0,1,3.956,3.14,15.625,15.625,0,0,1,2.611,5.336A27.252,27.252,0,0,1,79.12-16.767Zm-7.36,0a30.374,30.374,0,0,0-.437-5.692,11.669,11.669,0,0,0-1.161-3.485,4.211,4.211,0,0,0-1.645-1.736,4.046,4.046,0,0,0-1.863-.472,3.978,3.978,0,0,0-1.852.472,4.109,4.109,0,0,0-1.61,1.736,11.973,11.973,0,0,0-1.127,3.485,31.176,31.176,0,0,0-.426,5.692,31.139,31.139,0,0,0,.426,5.7,12.133,12.133,0,0,0,1.127,3.484A4.1,4.1,0,0,0,64.8-5.831a3.978,3.978,0,0,0,1.852.472,4.046,4.046,0,0,0,1.863-.472,4.2,4.2,0,0,0,1.645-1.748,11.824,11.824,0,0,0,1.161-3.484A30.338,30.338,0,0,0,71.76-16.767Zm33,3.864h-8.51v9.154h-5.8V-12.9H82v-5.106h8.464v-9.108h5.8v9.108h8.51Z" transform="translate(724.515 2745.379)"/><path class="c" d="M44.672-59.008v5.265a11.246,11.246,0,0,1-.527,3.787,23.721,23.721,0,0,1-1.012,2.41L22.639-4.131a8.465,8.465,0,0,1-2.41,2.916A6.572,6.572,0,0,1,16.079,0H6.925l21.06-42.242q.932-1.7,1.883-3.1A22.05,22.05,0,0,1,32-47.992H6.035a2.636,2.636,0,0,1-1.073-.223,2.9,2.9,0,0,1-.891-.607,3.219,3.219,0,0,1-.628-.891A2.363,2.363,0,0,1,3.2-50.747v-8.262ZM92.34-29.524a47.987,47.987,0,0,1-1.66,13.405,27.514,27.514,0,0,1-4.6,9.4,18.538,18.538,0,0,1-6.966,5.548A20.93,20.93,0,0,1,70.389.648,20.655,20.655,0,0,1,61.7-1.174,18.459,18.459,0,0,1,54.8-6.723a27.476,27.476,0,0,1-4.556-9.4A48.546,48.546,0,0,1,48.6-29.524,48.546,48.546,0,0,1,50.24-42.93a27.476,27.476,0,0,1,4.556-9.4A18.272,18.272,0,0,1,61.7-57.854a20.853,20.853,0,0,1,8.687-1.8,21.131,21.131,0,0,1,8.728,1.8,18.351,18.351,0,0,1,6.966,5.528,27.514,27.514,0,0,1,4.6,9.4A47.987,47.987,0,0,1,92.34-29.524Zm-12.96,0a53.485,53.485,0,0,0-.77-10.024,20.547,20.547,0,0,0-2.045-6.136,7.416,7.416,0,0,0-2.9-3.058,7.125,7.125,0,0,0-3.28-.83,7,7,0,0,0-3.26.83,7.235,7.235,0,0,0-2.835,3.058,21.082,21.082,0,0,0-1.984,6.136,54.9,54.9,0,0,0-.749,10.024,54.833,54.833,0,0,0,.749,10.044,21.365,21.365,0,0,0,1.984,6.136,7.219,7.219,0,0,0,2.835,3.078,7,7,0,0,0,3.26.83,7.125,7.125,0,0,0,3.28-.83,7.4,7.4,0,0,0,2.9-3.078,20.821,20.821,0,0,0,2.045-6.136A53.422,53.422,0,0,0,79.38-29.524Zm58.117,6.8H122.512V-6.6H112.307V-22.72H97.4v-8.991h14.9V-47.75h10.206v16.038H137.5Z" transform="translate(862.486 2529.444)"/><path class="c" d="M21.545-4.592V0H4.53V-4.592h5.74V-19.66q0-.574.02-1.158T10.352-22l-3.4,2.829a2,2,0,0,1-.892.42,2.418,2.418,0,0,1-.83,0,1.948,1.948,0,0,1-.7-.267,1.56,1.56,0,0,1-.451-.4L2.071-22.079l9.307-7.81h5.248v25.3ZM46.74-14.944A24.29,24.29,0,0,1,45.9-8.159,13.927,13.927,0,0,1,43.573-3.4,9.383,9.383,0,0,1,40.047-.595a10.594,10.594,0,0,1-4.418.923,10.455,10.455,0,0,1-4.4-.923,9.344,9.344,0,0,1-3.5-2.808A13.908,13.908,0,0,1,25.43-8.159a24.573,24.573,0,0,1-.83-6.785,24.573,24.573,0,0,1,.83-6.786,13.908,13.908,0,0,1,2.306-4.756,9.249,9.249,0,0,1,3.5-2.8,10.555,10.555,0,0,1,4.4-.912,10.7,10.7,0,0,1,4.418.912,9.289,9.289,0,0,1,3.526,2.8A13.927,13.927,0,0,1,45.9-21.73,24.29,24.29,0,0,1,46.74-14.944Zm-6.56,0a27.073,27.073,0,0,0-.389-5.074,10.4,10.4,0,0,0-1.035-3.106,3.754,3.754,0,0,0-1.466-1.548,3.606,3.606,0,0,0-1.66-.42,3.546,3.546,0,0,0-1.65.42,3.662,3.662,0,0,0-1.435,1.548,10.671,10.671,0,0,0-1,3.106,27.787,27.787,0,0,0-.379,5.074,27.755,27.755,0,0,0,.379,5.084,10.814,10.814,0,0,0,1,3.106A3.654,3.654,0,0,0,33.979-5.2a3.545,3.545,0,0,0,1.65.42,3.606,3.606,0,0,0,1.66-.42,3.745,3.745,0,0,0,1.466-1.558,10.539,10.539,0,0,0,1.035-3.106A27.041,27.041,0,0,0,40.18-14.944Zm30.34,0a24.29,24.29,0,0,1-.84,6.785A13.927,13.927,0,0,1,67.353-3.4,9.383,9.383,0,0,1,63.827-.595a10.594,10.594,0,0,1-4.418.923,10.455,10.455,0,0,1-4.4-.923,9.344,9.344,0,0,1-3.5-2.808A13.908,13.908,0,0,1,49.21-8.159a24.573,24.573,0,0,1-.83-6.785,24.573,24.573,0,0,1,.83-6.786,13.908,13.908,0,0,1,2.306-4.756,9.249,9.249,0,0,1,3.5-2.8,10.555,10.555,0,0,1,4.4-.912,10.7,10.7,0,0,1,4.418.912,9.289,9.289,0,0,1,3.526,2.8A13.927,13.927,0,0,1,69.68-21.73,24.29,24.29,0,0,1,70.52-14.944Zm-6.56,0a27.073,27.073,0,0,0-.389-5.074,10.4,10.4,0,0,0-1.035-3.106,3.754,3.754,0,0,0-1.466-1.548,3.606,3.606,0,0,0-1.66-.42,3.546,3.546,0,0,0-1.65.42,3.662,3.662,0,0,0-1.435,1.548,10.671,10.671,0,0,0-1,3.106,27.787,27.787,0,0,0-.379,5.074,27.755,27.755,0,0,0,.379,5.084,10.814,10.814,0,0,0,1,3.106A3.654,3.654,0,0,0,57.759-5.2a3.545,3.545,0,0,0,1.65.42,3.606,3.606,0,0,0,1.66-.42,3.745,3.745,0,0,0,1.466-1.558,10.539,10.539,0,0,0,1.035-3.106A27.041,27.041,0,0,0,63.96-14.944Zm23.083-7.688a7.36,7.36,0,0,1-.595,2.993,7.45,7.45,0,0,1-1.578,2.327,6.971,6.971,0,0,1-2.286,1.507,7.1,7.1,0,0,1-2.716.533,7.477,7.477,0,0,1-2.86-.533,6.636,6.636,0,0,1-2.255-1.507,6.894,6.894,0,0,1-1.486-2.327,8.1,8.1,0,0,1-.533-2.993,8.523,8.523,0,0,1,.533-3.085,6.942,6.942,0,0,1,1.486-2.368,6.688,6.688,0,0,1,2.255-1.527,7.353,7.353,0,0,1,2.86-.543,7.506,7.506,0,0,1,2.88.543,6.64,6.64,0,0,1,2.275,1.527,6.942,6.942,0,0,1,1.486,2.368A8.523,8.523,0,0,1,87.043-22.632Zm-4.879,0a7.2,7.2,0,0,0-.174-1.732,3.083,3.083,0,0,0-.482-1.1,1.664,1.664,0,0,0-.728-.574,2.488,2.488,0,0,0-.912-.164,2.408,2.408,0,0,0-.9.164,1.552,1.552,0,0,0-.7.574,3.213,3.213,0,0,0-.451,1.1,7.632,7.632,0,0,0-.164,1.732,6.9,6.9,0,0,0,.164,1.64,2.973,2.973,0,0,0,.451,1.046,1.6,1.6,0,0,0,.7.553,2.408,2.408,0,0,0,.9.164,2.488,2.488,0,0,0,.912-.164,1.717,1.717,0,0,0,.728-.553,2.86,2.86,0,0,0,.482-1.046A6.51,6.51,0,0,0,82.164-22.632Zm14.268-6.294a3.769,3.769,0,0,1,.759-.646,2.256,2.256,0,0,1,1.25-.3h4.633L80.565-.9a2.533,2.533,0,0,1-.769.646A2.269,2.269,0,0,1,78.679,0H73.923Zm7.79,21.915a7.433,7.433,0,0,1-.594,3,7.419,7.419,0,0,1-1.579,2.337A6.971,6.971,0,0,1,99.763-.164a7.1,7.1,0,0,1-2.716.533,7.477,7.477,0,0,1-2.86-.533,6.636,6.636,0,0,1-2.255-1.507,6.873,6.873,0,0,1-1.486-2.337,8.181,8.181,0,0,1-.533-3,8.523,8.523,0,0,1,.533-3.085,6.942,6.942,0,0,1,1.486-2.368,6.688,6.688,0,0,1,2.255-1.527,7.353,7.353,0,0,1,2.86-.543,7.506,7.506,0,0,1,2.88.543,6.64,6.64,0,0,1,2.275,1.527,6.942,6.942,0,0,1,1.486,2.368A8.523,8.523,0,0,1,104.222-7.011Zm-4.879,0a7.1,7.1,0,0,0-.174-1.712,3.084,3.084,0,0,0-.482-1.1,1.664,1.664,0,0,0-.728-.574,2.488,2.488,0,0,0-.912-.164,2.408,2.408,0,0,0-.9.164,1.552,1.552,0,0,0-.7.574A3.213,3.213,0,0,0,95-8.723a7.521,7.521,0,0,0-.164,1.712A6.9,6.9,0,0,0,95-5.371a2.973,2.973,0,0,0,.451,1.045,1.6,1.6,0,0,0,.7.553,2.408,2.408,0,0,0,.9.164,2.488,2.488,0,0,0,.912-.164,1.717,1.717,0,0,0,.728-.553,2.86,2.86,0,0,0,.482-1.045A6.51,6.51,0,0,0,99.343-7.011Z" transform="translate(1292.784 2539.458)"/><path class="c" d="M17.172-6.36q4.372-.715,4.372-4.8a3.128,3.128,0,0,0-.967-2.425,7.949,7.949,0,0,0-2.557-1.5ZM14.708-32.171a8.087,8.087,0,0,0-2.054.557,4.581,4.581,0,0,0-1.351.874,3.126,3.126,0,0,0-.755,1.126,3.636,3.636,0,0,0-.238,1.312,3.35,3.35,0,0,0,1.007,2.531,8.322,8.322,0,0,0,2.6,1.63Zm4.055,9.62q1.272.371,2.544.808a22.27,22.27,0,0,1,2.451,1.007,14.323,14.323,0,0,1,2.2,1.312,8.334,8.334,0,0,1,1.775,1.749,7.89,7.89,0,0,1,1.179,2.305,9.648,9.648,0,0,1,.424,2.995,13.1,13.1,0,0,1-.848,4.73A11.588,11.588,0,0,1,26-3.723,12.791,12.791,0,0,1,21.969-.941,16.3,16.3,0,0,1,16.51.371l-.318,3.286A2.069,2.069,0,0,1,15.542,5a2.063,2.063,0,0,1-1.524.6H11l.53-5.459A23.088,23.088,0,0,1,5.711-1.63,17.312,17.312,0,0,1,1.034-4.664L3.578-8.347A2.572,2.572,0,0,1,4.439-9.1a2.32,2.32,0,0,1,1.153-.3,2.891,2.891,0,0,1,1.3.331q.662.331,1.444.8t1.722.954a10.413,10.413,0,0,0,2.133.808l.98-9.991q-1.908-.53-3.8-1.246a12.3,12.3,0,0,1-3.405-1.934,9.209,9.209,0,0,1-2.451-3.1,10.506,10.506,0,0,1-.941-4.717,10.3,10.3,0,0,1,.848-4.081A11,11,0,0,1,5.9-35.166a12.989,12.989,0,0,1,4.015-2.61,15.889,15.889,0,0,1,5.459-1.179l.292-2.941a2.069,2.069,0,0,1,.649-1.338,2.063,2.063,0,0,1,1.524-.6h3.021l-.5,5.194a15.27,15.27,0,0,1,4.916,1.722,18.8,18.8,0,0,1,3.485,2.544l-2.014,2.942a3.47,3.47,0,0,1-.914.967,1.957,1.957,0,0,1-1.1.3,2.808,2.808,0,0,1-.941-.2q-.543-.2-1.179-.477t-1.365-.583a14.483,14.483,0,0,0-1.55-.543ZM58.591-5.936V0H36.6V-5.936h7.42V-25.413q0-.742.027-1.5t.079-1.524l-4.4,3.657a2.583,2.583,0,0,1-1.153.543,3.125,3.125,0,0,1-1.073,0,2.518,2.518,0,0,1-.9-.345,2.016,2.016,0,0,1-.583-.517l-2.6-3.445,12.031-10.1h6.784v32.7ZM91.16-19.318a31.4,31.4,0,0,1-1.087,8.771A18,18,0,0,1,87.066-4.4a12.13,12.13,0,0,1-4.558,3.63A13.7,13.7,0,0,1,76.8.424,13.515,13.515,0,0,1,71.113-.768,12.078,12.078,0,0,1,66.594-4.4a17.978,17.978,0,0,1-2.981-6.148,31.765,31.765,0,0,1-1.073-8.771,31.765,31.765,0,0,1,1.073-8.771,17.978,17.978,0,0,1,2.981-6.148,11.956,11.956,0,0,1,4.518-3.617A13.644,13.644,0,0,1,76.8-39.035a13.826,13.826,0,0,1,5.711,1.179,12.007,12.007,0,0,1,4.558,3.617,18,18,0,0,1,3.008,6.148A31.4,31.4,0,0,1,91.16-19.318Zm-8.48,0a35,35,0,0,0-.5-6.559,13.444,13.444,0,0,0-1.338-4.015,4.852,4.852,0,0,0-1.895-2,4.662,4.662,0,0,0-2.146-.543,4.583,4.583,0,0,0-2.133.543,4.734,4.734,0,0,0-1.855,2,13.8,13.8,0,0,0-1.3,4.015,35.92,35.92,0,0,0-.49,6.559,35.878,35.878,0,0,0,.49,6.572,13.98,13.98,0,0,0,1.3,4.015,4.724,4.724,0,0,0,1.855,2.014,4.583,4.583,0,0,0,2.133.543,4.662,4.662,0,0,0,2.146-.543,4.841,4.841,0,0,0,1.895-2.014,13.623,13.623,0,0,0,1.338-4.015A34.955,34.955,0,0,0,82.68-19.318Zm56.683-19.292V0h-7.9V-22.207q0-.768.04-1.67t.146-1.828L121.4-5.857a3.37,3.37,0,0,1-1.285,1.4,3.555,3.555,0,0,1-1.842.477H117.05a3.555,3.555,0,0,1-1.842-.477,3.37,3.37,0,0,1-1.285-1.4l-10.256-19.9q.08.954.132,1.868t.053,1.683V0h-7.9V-38.611h6.837q.583,0,1.02.027a2.611,2.611,0,0,1,.782.159,1.779,1.779,0,0,1,.623.411,3.24,3.24,0,0,1,.543.782L115.7-17.649q.53,1.007,1.02,2.094t.941,2.226q.45-1.166.941-2.279t1.047-2.12l9.911-19.5a3.239,3.239,0,0,1,.543-.782,1.779,1.779,0,0,1,.623-.411,2.611,2.611,0,0,1,.782-.159q.437-.026,1.02-.027Z" transform="translate(1079.791 2674.77)"/><path class="a" d="M1495.9,543.777V585.85a34.76,34.76,0,0,0,17.271,30l36.1,20.906a34.721,34.721,0,0,0,34.8,0l36.1-20.906a34.76,34.76,0,0,0,17.271-30V543.777a34.76,34.76,0,0,0-17.271-30l-36.1-20.906a34.661,34.661,0,0,0-34.768,0l-36.131,20.906A34.76,34.76,0,0,0,1495.9,543.777Z" transform="translate(-999.9 2141.988)"/><path class="b" d="M1495.9,543.777V585.85a34.76,34.76,0,0,0,17.271,30l36.1,20.906a34.721,34.721,0,0,0,34.8,0l36.1-20.906a34.76,34.76,0,0,0,17.271-30V543.777a34.76,34.76,0,0,0-17.271-30l-36.1-20.906a34.661,34.661,0,0,0-34.768,0l-36.131,20.906A34.76,34.76,0,0,0,1495.9,543.777Zm135.015,42.073a28.3,28.3,0,0,1-14.057,24.38l-13.829,8.018-6.039,3.506c-24.932,14.446-35.742,14.446-44.474,9.382C1507.782,605.166,1630.915,539.426,1630.915,585.85Z" transform="translate(-999.9 2141.988)"/><path class="c" d="M12.652,12.984a.543.543,0,0,1,.192.036.522.522,0,0,1,.184.124L14.1,14.272a4.45,4.45,0,0,1-1.764,1.388,6.173,6.173,0,0,1-2.508.468,5.975,5.975,0,0,1-2.38-.452,5.151,5.151,0,0,1-1.784-1.248A5.5,5.5,0,0,1,4.54,12.54a6.972,6.972,0,0,1-.392-2.372,6.566,6.566,0,0,1,.424-2.4A5.564,5.564,0,0,1,5.764,5.888,5.368,5.368,0,0,1,7.6,4.656a6.158,6.158,0,0,1,2.36-.44,6.3,6.3,0,0,1,1.236.116,6.041,6.041,0,0,1,1.084.32,4.952,4.952,0,0,1,.928.492,4.87,4.87,0,0,1,.752.624l-.912,1.224a1.161,1.161,0,0,1-.208.2.541.541,0,0,1-.336.092.6.6,0,0,1-.272-.064,3.007,3.007,0,0,1-.272-.156l-.316-.2a2.425,2.425,0,0,0-.408-.2,3.372,3.372,0,0,0-.552-.156,3.767,3.767,0,0,0-.74-.064A2.981,2.981,0,0,0,8.72,6.7a2.677,2.677,0,0,0-.96.724,3.348,3.348,0,0,0-.624,1.168,5.212,5.212,0,0,0-.22,1.58A4.8,4.8,0,0,0,7.16,11.76a3.5,3.5,0,0,0,.664,1.172,2.818,2.818,0,0,0,.98.724A2.93,2.93,0,0,0,10,13.9a5.744,5.744,0,0,0,.672-.036,3.056,3.056,0,0,0,.568-.12,2.315,2.315,0,0,0,.5-.224,3.129,3.129,0,0,0,.472-.356.946.946,0,0,1,.208-.132A.545.545,0,0,1,12.652,12.984Zm13.8-2.816a6.264,6.264,0,0,1-.436,2.352,5.559,5.559,0,0,1-3.136,3.152,6.961,6.961,0,0,1-4.956,0,5.564,5.564,0,0,1-3.148-3.152,6.264,6.264,0,0,1-.436-2.352,6.264,6.264,0,0,1,.436-2.352,5.6,5.6,0,0,1,1.232-1.888,5.7,5.7,0,0,1,1.916-1.256,6.519,6.519,0,0,1,2.48-.456,6.439,6.439,0,0,1,2.476.46,5.711,5.711,0,0,1,1.908,1.26,5.625,5.625,0,0,1,1.228,1.888A6.243,6.243,0,0,1,26.452,10.168Zm-2.768,0a5.04,5.04,0,0,0-.224-1.556,3.3,3.3,0,0,0-.644-1.172A2.777,2.777,0,0,0,21.788,6.7,3.538,3.538,0,0,0,20.4,6.448a3.59,3.59,0,0,0-1.4.256,2.77,2.77,0,0,0-1.032.736,3.3,3.3,0,0,0-.644,1.172,5.04,5.04,0,0,0-.224,1.556,5.068,5.068,0,0,0,.224,1.564,3.3,3.3,0,0,0,.644,1.172,2.731,2.731,0,0,0,1.032.732,3.64,3.64,0,0,0,1.4.252,3.587,3.587,0,0,0,1.384-.252,2.738,2.738,0,0,0,1.028-.732,3.3,3.3,0,0,0,.644-1.172A5.068,5.068,0,0,0,23.684,10.168ZM38.22,4.344V16H36.812a1.224,1.224,0,0,1-.524-.1,1.282,1.282,0,0,1-.42-.348L30.372,8.6q.032.312.044.6t.012.548V16H28.044V4.344h1.424a2.3,2.3,0,0,1,.3.016.756.756,0,0,1,.216.06.721.721,0,0,1,.184.124,2.1,2.1,0,0,1,.2.216l5.544,7q-.04-.336-.056-.652t-.016-.6V4.344ZM48.852,6.488h-3.28V16h-2.7V6.488h-3.28V4.344h9.264ZM52.94,16H50.22V4.344h2.72ZM65.372,4.344V16H63.964a1.224,1.224,0,0,1-.524-.1,1.282,1.282,0,0,1-.42-.348L57.524,8.6q.032.312.044.6t.012.548V16H55.2V4.344H56.62a2.3,2.3,0,0,1,.3.016.756.756,0,0,1,.216.06.721.721,0,0,1,.184.124,2.1,2.1,0,0,1,.2.216l5.544,7q-.04-.336-.056-.652t-.016-.6V4.344Zm4.976,2.08v2.72h3.664v2H70.348V13.92h4.784V16h-7.5V4.344h7.5v2.08Zm16.624-2.08V16H85.564a1.224,1.224,0,0,1-.524-.1,1.282,1.282,0,0,1-.42-.348L79.124,8.6q.032.312.044.6t.012.548V16H76.8V4.344H78.22a2.3,2.3,0,0,1,.3.016.756.756,0,0,1,.216.06.721.721,0,0,1,.184.124,2.1,2.1,0,0,1,.2.216l5.544,7q-.04-.336-.056-.652t-.016-.6V4.344ZM97.6,6.488h-3.28V16h-2.7V6.488H88.34V4.344H97.6Zm7.808.224A1.016,1.016,0,0,1,105.16,7a.564.564,0,0,1-.34.1.832.832,0,0,1-.4-.116l-.48-.26a3.983,3.983,0,0,0-.612-.26,2.449,2.449,0,0,0-.784-.116,1.687,1.687,0,0,0-1.132.324,1.1,1.1,0,0,0-.372.876.807.807,0,0,0,.224.584,1.931,1.931,0,0,0,.588.4,6.3,6.3,0,0,0,.832.308q.468.14.956.312a8.549,8.549,0,0,1,.956.4,3.188,3.188,0,0,1,.832.592,2.763,2.763,0,0,1,.588.876,3.115,3.115,0,0,1,.224,1.244,4.053,4.053,0,0,1-.28,1.512A3.54,3.54,0,0,1,105.152,15a3.769,3.769,0,0,1-1.312.824,4.909,4.909,0,0,1-1.772.3,5.68,5.68,0,0,1-1.108-.112,6.58,6.58,0,0,1-1.092-.316,6.333,6.333,0,0,1-.992-.484,4.215,4.215,0,0,1-.808-.624l.8-1.264a.8.8,0,0,1,.252-.228.657.657,0,0,1,.34-.092.911.911,0,0,1,.484.152q.244.152.552.336a4.492,4.492,0,0,0,.708.336,2.655,2.655,0,0,0,.944.152,1.8,1.8,0,0,0,1.144-.324,1.234,1.234,0,0,0,.408-1.028.972.972,0,0,0-.224-.664,1.731,1.731,0,0,0-.588-.424,5.417,5.417,0,0,0-.828-.3q-.464-.128-.952-.284a6.965,6.965,0,0,1-.952-.384,3,3,0,0,1-.828-.6,2.808,2.808,0,0,1-.588-.928,3.685,3.685,0,0,1-.224-1.372A3.255,3.255,0,0,1,98.78,6.4a3.3,3.3,0,0,1,.776-1.112,3.816,3.816,0,0,1,1.256-.78,4.639,4.639,0,0,1,1.7-.292,6.39,6.39,0,0,1,1.044.084,5.488,5.488,0,0,1,.964.248,5.294,5.294,0,0,1,.852.392,3.928,3.928,0,0,1,.708.516Z" transform="translate(511.522 2721.937)"/><path class="c" d="M2.64-31.23a16.412,16.412,0,0,1,1.845-5.7,13.717,13.717,0,0,1,3.39-4.05,13.754,13.754,0,0,1,4.635-2.415,19.162,19.162,0,0,1,5.61-.8,16.817,16.817,0,0,1,5.76.915A12.885,12.885,0,0,1,28.14-40.8a10.446,10.446,0,0,1,2.64,3.615,10.689,10.689,0,0,1,.9,4.335,14.212,14.212,0,0,1-.42,3.645,8.351,8.351,0,0,1-1.245,2.73,7.583,7.583,0,0,1-2.04,1.95A12.533,12.533,0,0,1,25.2-23.19q7.26,2.55,7.26,9.9A13.664,13.664,0,0,1,31.2-7.23a12.462,12.462,0,0,1-3.375,4.29A14.44,14.44,0,0,1,22.92-.375,19.751,19.751,0,0,1,17.1.48,20.78,20.78,0,0,1,11.55-.2,12.779,12.779,0,0,1,7.23-2.3,13.909,13.909,0,0,1,3.915-5.94,24.448,24.448,0,0,1,1.44-11.22L5.58-12.9a5.168,5.168,0,0,1,3-.33,2.814,2.814,0,0,1,1.98,1.38,10.892,10.892,0,0,0,2.865,3.615A5.8,5.8,0,0,0,16.98-7.11a6.51,6.51,0,0,0,2.715-.525,5.917,5.917,0,0,0,1.92-1.35A5.6,5.6,0,0,0,22.77-10.86a6.075,6.075,0,0,0,.39-2.13,14.929,14.929,0,0,0-.195-2.535,3.311,3.311,0,0,0-1.1-1.935A6.19,6.19,0,0,0,19.155-18.7,22.809,22.809,0,0,0,14.1-19.14v-6.42a18.777,18.777,0,0,0,4.41-.42A6.745,6.745,0,0,0,21.1-27.135,3.484,3.484,0,0,0,22.32-28.92a8.389,8.389,0,0,0,.3-2.31A5.774,5.774,0,0,0,21.375-35.2a4.83,4.83,0,0,0-3.8-1.4,5.566,5.566,0,0,0-3.495,1.1A5.608,5.608,0,0,0,12.12-32.79a3.91,3.91,0,0,1-1.65,2.19,4.722,4.722,0,0,1-2.91.24Z" transform="translate(549.464 2713.676)"/><path class="a" d="M1495.9,512.027v18.037a14.9,14.9,0,0,0,7.4,12.86l15.476,8.963a14.885,14.885,0,0,0,14.92,0l15.476-8.963a14.9,14.9,0,0,0,7.4-12.86V512.027a14.9,14.9,0,0,0-7.4-12.86L1533.7,490.2a14.86,14.86,0,0,0-14.906,0l-15.49,8.963A14.9,14.9,0,0,0,1495.9,512.027Z" transform="translate(-439.089 2007.325)"/><path class="a" d="M1495.9,512.027v18.037a14.9,14.9,0,0,0,7.4,12.86l15.476,8.963a14.885,14.885,0,0,0,14.92,0l15.476-8.963a14.9,14.9,0,0,0,7.4-12.86V512.027a14.9,14.9,0,0,0-7.4-12.86L1533.7,490.2a14.86,14.86,0,0,0-14.906,0l-15.49,8.963A14.9,14.9,0,0,0,1495.9,512.027Z" transform="translate(-116.581 2152.195)"/><path class="a" d="M1495.9,505.1v12.794a10.57,10.57,0,0,0,5.252,9.122l10.977,6.357a10.558,10.558,0,0,0,10.583,0l10.977-6.357a10.57,10.57,0,0,0,5.252-9.122V505.1a10.57,10.57,0,0,0-5.252-9.121l-10.977-6.357a10.54,10.54,0,0,0-10.573,0l-10.987,6.357A10.57,10.57,0,0,0,1495.9,505.1Z" transform="translate(-901.596 2303.963)"/><path class="b" d="M1495.9,512.027v18.037a14.9,14.9,0,0,0,7.4,12.86l15.476,8.963a14.885,14.885,0,0,0,14.92,0l15.476-8.963a14.9,14.9,0,0,0,7.4-12.86V512.027a14.9,14.9,0,0,0-7.4-12.86L1533.7,490.2a14.86,14.86,0,0,0-14.906,0l-15.49,8.963A14.9,14.9,0,0,0,1495.9,512.027Zm57.883,18.037a12.132,12.132,0,0,1-6.026,10.452l-5.929,3.438-2.589,1.5c-10.689,6.193-15.323,6.193-19.067,4.022C1500.994,538.345,1553.784,510.161,1553.784,530.064Z" transform="translate(-439.089 2007.325)"/><path class="b" d="M1495.9,512.027v18.037a14.9,14.9,0,0,0,7.4,12.86l15.476,8.963a14.885,14.885,0,0,0,14.92,0l15.476-8.963a14.9,14.9,0,0,0,7.4-12.86V512.027a14.9,14.9,0,0,0-7.4-12.86L1533.7,490.2a14.86,14.86,0,0,0-14.906,0l-15.49,8.963A14.9,14.9,0,0,0,1495.9,512.027Zm57.883,18.037a12.132,12.132,0,0,1-6.026,10.452l-5.929,3.438-2.589,1.5c-10.689,6.193-15.323,6.193-19.067,4.022C1500.994,538.345,1553.784,510.161,1553.784,530.064Z" transform="translate(-116.581 2152.195)"/><path class="b" d="M1495.9,505.1v12.794a10.57,10.57,0,0,0,5.252,9.122l10.977,6.357a10.558,10.558,0,0,0,10.583,0l10.977-6.357a10.57,10.57,0,0,0,5.252-9.122V505.1a10.57,10.57,0,0,0-5.252-9.121l-10.977-6.357a10.54,10.54,0,0,0-10.573,0l-10.987,6.357A10.57,10.57,0,0,0,1495.9,505.1Zm41.057,12.794a8.605,8.605,0,0,1-4.274,7.414l-4.205,2.438-1.836,1.066c-7.582,4.393-10.869,4.393-13.524,2.853C1499.513,523.768,1536.957,503.777,1536.957,517.895Z" transform="translate(-901.596 2303.963)"/></g></svg>