<svg xmlns="http://www.w3.org/2000/svg" viewBox="-1025.146 11355.167 25.888 28.672"><defs><style>.a{fill:#ba384b;}</style></defs><path class="a" d="M4569,26.6V22.451l3.592-2.075,3.592,2.075V26.6l-3.592,2.072Zm3.876,1.254,2.455-1.418-2.455-1.418Zm-3.023-1.422,2.455,1.418V25.016Zm3.308-1.908,2.455,1.415V23.105Zm-3.592,1.415,2.455-1.415-2.455-1.418Zm3.308-1.908,2.455-1.415-2.455-1.418Zm-3.023-1.415,2.455,1.415V21.2Zm16.7,5.089-15.979-16.032h11.133a1.864,1.864,0,0,0,2.012-2.069V8.112a2.779,2.779,0,0,0-2.7-2.54h-6.567L4569.284,0h11.571c3.86,0,6.786,1.6,8.277,3.693s1.491,4.748.938,7.4a7.026,7.026,0,0,1-6.052,5.633l10.87,10.984Z" transform="translate(-5594.146 11355.167)"/></svg>