<svg xmlns="http://www.w3.org/2000/svg" viewBox="-992.5 3137 317.451 280.621"><defs><style>.a{fill:#ba374a;}.b,.d{fill:none;stroke:#ba374a;stroke-miterlimit:10;}.b{stroke-width:2.5px;}.c{fill:#2d2d2f;}.d{stroke-width:2px;stroke-dasharray:5.5;}</style></defs><g transform="translate(-2090)"><path class="a" d="M-146.8-8.127a.888.888,0,0,1-.22.252.493.493,0,0,1-.3.084.728.728,0,0,1-.346-.1l-.42-.227a3.485,3.485,0,0,0-.535-.227,2.143,2.143,0,0,0-.686-.1,1.476,1.476,0,0,0-.99.284.965.965,0,0,0-.326.766.706.706,0,0,0,.2.511,1.69,1.69,0,0,0,.514.35,5.515,5.515,0,0,0,.728.27q.409.122.837.273a7.48,7.48,0,0,1,.837.353,2.79,2.79,0,0,1,.728.518,2.417,2.417,0,0,1,.515.766,2.726,2.726,0,0,1,.2,1.089,3.547,3.547,0,0,1-.245,1.323,3.1,3.1,0,0,1-.71,1.074,3.3,3.3,0,0,1-1.148.721,4.3,4.3,0,0,1-1.551.263,4.97,4.97,0,0,1-.969-.1,5.758,5.758,0,0,1-.956-.277,5.541,5.541,0,0,1-.868-.423,3.688,3.688,0,0,1-.707-.546l.7-1.106a.7.7,0,0,1,.221-.2.575.575,0,0,1,.3-.08.8.8,0,0,1,.423.133q.214.133.483.294a3.931,3.931,0,0,0,.62.294,2.323,2.323,0,0,0,.826.133,1.572,1.572,0,0,0,1-.283,1.079,1.079,0,0,0,.357-.9.85.85,0,0,0-.2-.581,1.514,1.514,0,0,0-.514-.371,4.74,4.74,0,0,0-.725-.259q-.406-.112-.833-.248a6.1,6.1,0,0,1-.833-.336,2.629,2.629,0,0,1-.725-.525,2.457,2.457,0,0,1-.514-.812,3.224,3.224,0,0,1-.2-1.2,2.848,2.848,0,0,1,.231-1.12,2.891,2.891,0,0,1,.679-.973,3.339,3.339,0,0,1,1.1-.682,4.059,4.059,0,0,1,1.491-.256,5.591,5.591,0,0,1,.913.074,4.8,4.8,0,0,1,.844.217,4.632,4.632,0,0,1,.745.343,3.437,3.437,0,0,1,.62.452Zm3.92,6.153a1.437,1.437,0,0,0,.532.378,1.641,1.641,0,0,0,.6.112A1.279,1.279,0,0,0-141.2-1.6a1.127,1.127,0,0,0,.438-.381,2.032,2.032,0,0,0,.291-.683,4.275,4.275,0,0,0,.1-1.022,4.7,4.7,0,0,0-.084-.966,1.99,1.99,0,0,0-.234-.634.91.91,0,0,0-.361-.346,1.034,1.034,0,0,0-.469-.1,1.572,1.572,0,0,0-.784.175,2.18,2.18,0,0,0-.588.511Zm-.133-4.389a3.749,3.749,0,0,1,.969-.745,2.7,2.7,0,0,1,1.292-.291,2.236,2.236,0,0,1,1.05.252,2.42,2.42,0,0,1,.833.728,3.674,3.674,0,0,1,.549,1.166,5.632,5.632,0,0,1,.2,1.564,4.823,4.823,0,0,1-.227,1.512,3.8,3.8,0,0,1-.637,1.2,2.934,2.934,0,0,1-.98.8,2.771,2.771,0,0,1-1.263.287,2.474,2.474,0,0,1-.952-.161,2.585,2.585,0,0,1-.7-.434V2.3h-2.17V-7.259h1.344a.51.51,0,0,1,.532.364Zm9.359-1.008a4.192,4.192,0,0,1,1.505.259,3.3,3.3,0,0,1,1.165.742,3.342,3.342,0,0,1,.756,1.173,4.23,4.23,0,0,1,.27,1.55,4.306,4.306,0,0,1-.27,1.565A3.365,3.365,0,0,1-130.988-.9a3.317,3.317,0,0,1-1.165.749,4.142,4.142,0,0,1-1.505.263,4.191,4.191,0,0,1-1.515-.263A3.382,3.382,0,0,1-136.35-.9a3.317,3.317,0,0,1-.763-1.183,4.306,4.306,0,0,1-.27-1.565,4.23,4.23,0,0,1,.27-1.55,3.294,3.294,0,0,1,.763-1.173,3.366,3.366,0,0,1,1.176-.742A4.242,4.242,0,0,1-133.658-7.371Zm0,5.873a1.232,1.232,0,0,0,1.1-.528,2.923,2.923,0,0,0,.354-1.606,2.9,2.9,0,0,0-.354-1.6,1.235,1.235,0,0,0-1.1-.525,1.266,1.266,0,0,0-1.127.525,2.881,2.881,0,0,0-.357,1.6,2.9,2.9,0,0,0,.357,1.606A1.263,1.263,0,0,0-133.658-1.5Zm6.79-4.977a5.272,5.272,0,0,1,.434-.364,2.542,2.542,0,0,1,.479-.284A2.846,2.846,0,0,1-125.4-7.3a2.967,2.967,0,0,1,.647-.067,2.541,2.541,0,0,1,1.054.207,2.186,2.186,0,0,1,.773.574,2.478,2.478,0,0,1,.476.875,3.628,3.628,0,0,1,.161,1.1V0h-2.17V-4.613a1.269,1.269,0,0,0-.245-.829.88.88,0,0,0-.721-.3,1.517,1.517,0,0,0-.669.15,2.69,2.69,0,0,0-.605.409V0h-2.17V-7.259h1.344a.51.51,0,0,1,.532.364Zm10.591.8a.561.561,0,0,1-.178.189.468.468,0,0,1-.242.056A.771.771,0,0,1-117-5.491l-.333-.144a3.623,3.623,0,0,0-.4-.143,1.8,1.8,0,0,0-.511-.066,1.081,1.081,0,0,0-.633.157.508.508,0,0,0-.221.438.438.438,0,0,0,.144.336,1.317,1.317,0,0,0,.382.234,5.262,5.262,0,0,0,.539.193q.3.091.616.2a5.486,5.486,0,0,1,.616.262,2.3,2.3,0,0,1,.539.371,1.656,1.656,0,0,1,.382.535,1.814,1.814,0,0,1,.143.756,2.486,2.486,0,0,1-.2.994,2.111,2.111,0,0,1-.584.784,2.764,2.764,0,0,1-.959.511A4.32,4.32,0,0,1-118.8.112a3.994,3.994,0,0,1-.742-.07,5.139,5.139,0,0,1-.717-.189,3.909,3.909,0,0,1-.641-.284,2.778,2.778,0,0,1-.5-.354l.5-.8a.645.645,0,0,1,.214-.22.621.621,0,0,1,.333-.08.685.685,0,0,1,.34.084l.326.182a2.713,2.713,0,0,0,.41.182,1.776,1.776,0,0,0,.591.084,1.5,1.5,0,0,0,.427-.052.752.752,0,0,0,.28-.144.573.573,0,0,0,.154-.2.571.571,0,0,0,.049-.231.472.472,0,0,0-.147-.357,1.281,1.281,0,0,0-.385-.242,4.694,4.694,0,0,0-.543-.189q-.3-.087-.619-.2a4.976,4.976,0,0,1-.619-.27,2.131,2.131,0,0,1-.542-.4,1.854,1.854,0,0,1-.385-.591,2.185,2.185,0,0,1-.147-.847,2.207,2.207,0,0,1,.179-.878,2.04,2.04,0,0,1,.535-.732,2.629,2.629,0,0,1,.9-.5,3.874,3.874,0,0,1,1.26-.185,4.051,4.051,0,0,1,.759.07,3.881,3.881,0,0,1,.689.2,3.3,3.3,0,0,1,.588.3,2.824,2.824,0,0,1,.469.375Zm4.97-1.7a4.192,4.192,0,0,1,1.5.259,3.3,3.3,0,0,1,1.166.742,3.342,3.342,0,0,1,.756,1.173,4.23,4.23,0,0,1,.27,1.55,4.307,4.307,0,0,1-.27,1.565A3.366,3.366,0,0,1-108.636-.9,3.317,3.317,0,0,1-109.8-.15a4.142,4.142,0,0,1-1.5.263,4.191,4.191,0,0,1-1.516-.263A3.382,3.382,0,0,1-114-.9a3.317,3.317,0,0,1-.763-1.183,4.307,4.307,0,0,1-.27-1.565,4.23,4.23,0,0,1,.27-1.55A3.294,3.294,0,0,1-114-6.37a3.366,3.366,0,0,1,1.176-.742A4.242,4.242,0,0,1-111.307-7.371Zm0,5.873a1.232,1.232,0,0,0,1.1-.528,2.923,2.923,0,0,0,.354-1.606,2.9,2.9,0,0,0-.354-1.6,1.235,1.235,0,0,0-1.1-.525,1.266,1.266,0,0,0-1.127.525,2.881,2.881,0,0,0-.357,1.6,2.9,2.9,0,0,0,.357,1.606A1.263,1.263,0,0,0-111.307-1.5Zm6.818-4.641a3.052,3.052,0,0,1,.773-.924,1.6,1.6,0,0,1,1-.336,1.3,1.3,0,0,1,.8.231l-.14,1.6a.335.335,0,0,1-.115.21.381.381,0,0,1-.221.056q-.056,0-.147-.007l-.189-.017-.2-.021a1.815,1.815,0,0,0-.186-.01,1.1,1.1,0,0,0-.759.252,1.982,1.982,0,0,0-.479.7V0h-2.17V-7.259h1.288a1.1,1.1,0,0,1,.27.028.473.473,0,0,1,.182.088.374.374,0,0,1,.112.157,1.421,1.421,0,0,1,.066.238Zm7.924.469a.561.561,0,0,1-.178.189.468.468,0,0,1-.242.056.771.771,0,0,1-.308-.067l-.333-.144a3.623,3.623,0,0,0-.4-.143,1.8,1.8,0,0,0-.511-.066,1.081,1.081,0,0,0-.633.157.508.508,0,0,0-.221.438.438.438,0,0,0,.144.336,1.317,1.317,0,0,0,.382.234,5.262,5.262,0,0,0,.539.193q.3.091.616.2a5.486,5.486,0,0,1,.616.262,2.3,2.3,0,0,1,.539.371,1.656,1.656,0,0,1,.382.535,1.814,1.814,0,0,1,.143.756,2.486,2.486,0,0,1-.2.994,2.111,2.111,0,0,1-.584.784,2.764,2.764,0,0,1-.959.511,4.32,4.32,0,0,1-1.312.182,3.994,3.994,0,0,1-.742-.07,5.139,5.139,0,0,1-.717-.189,3.909,3.909,0,0,1-.641-.284,2.778,2.778,0,0,1-.5-.354l.5-.8a.645.645,0,0,1,.214-.22.621.621,0,0,1,.333-.08.685.685,0,0,1,.34.084l.326.182a2.713,2.713,0,0,0,.41.182,1.776,1.776,0,0,0,.591.084,1.5,1.5,0,0,0,.427-.052.752.752,0,0,0,.28-.144.573.573,0,0,0,.154-.2.571.571,0,0,0,.049-.231.472.472,0,0,0-.147-.357,1.281,1.281,0,0,0-.385-.242,4.694,4.694,0,0,0-.543-.189q-.3-.087-.619-.2a4.976,4.976,0,0,1-.619-.27,2.131,2.131,0,0,1-.542-.4,1.854,1.854,0,0,1-.385-.591,2.185,2.185,0,0,1-.147-.847,2.207,2.207,0,0,1,.179-.878,2.04,2.04,0,0,1,.535-.732,2.629,2.629,0,0,1,.9-.5,3.874,3.874,0,0,1,1.26-.185,4.051,4.051,0,0,1,.759.07,3.881,3.881,0,0,1,.689.2,3.3,3.3,0,0,1,.588.3,2.824,2.824,0,0,1,.469.375Zm3.794-.952a3.528,3.528,0,0,1,.851-.543,2.653,2.653,0,0,1,1.1-.207,2.541,2.541,0,0,1,1.054.207A2.186,2.186,0,0,1-89-6.59a2.478,2.478,0,0,1,.476.875,3.628,3.628,0,0,1,.161,1.1V0h-2.17V-4.613a1.269,1.269,0,0,0-.245-.829.88.88,0,0,0-.721-.3,1.517,1.517,0,0,0-.669.15,2.69,2.69,0,0,0-.605.409V0h-2.17V-10.479h2.17Zm8.029-.637V0h-2.17V-7.259Zm.224-1.988a1.147,1.147,0,0,1-.105.486,1.281,1.281,0,0,1-.287.4,1.405,1.405,0,0,1-.424.273,1.314,1.314,0,0,1-.515.1,1.222,1.222,0,0,1-.5-.1,1.4,1.4,0,0,1-.41-.273,1.26,1.26,0,0,1-.28-.4,1.18,1.18,0,0,1-.1-.486,1.222,1.222,0,0,1,.1-.5,1.29,1.29,0,0,1,.28-.406,1.311,1.311,0,0,1,.41-.273,1.259,1.259,0,0,1,.5-.1,1.355,1.355,0,0,1,.515.1,1.321,1.321,0,0,1,.424.273,1.31,1.31,0,0,1,.287.406A1.187,1.187,0,0,1-84.518-9.247Zm3.465,7.273a1.437,1.437,0,0,0,.532.378,1.641,1.641,0,0,0,.6.112,1.279,1.279,0,0,0,.553-.119,1.127,1.127,0,0,0,.438-.381,2.032,2.032,0,0,0,.29-.683,4.275,4.275,0,0,0,.105-1.022,4.7,4.7,0,0,0-.084-.966,1.99,1.99,0,0,0-.235-.634.91.91,0,0,0-.36-.346,1.034,1.034,0,0,0-.469-.1,1.572,1.572,0,0,0-.784.175,2.18,2.18,0,0,0-.588.511Zm-.133-4.389a3.749,3.749,0,0,1,.969-.745A2.7,2.7,0,0,1-78.925-7.4a2.236,2.236,0,0,1,1.05.252,2.42,2.42,0,0,1,.833.728,3.674,3.674,0,0,1,.549,1.166,5.632,5.632,0,0,1,.2,1.564,4.823,4.823,0,0,1-.228,1.512,3.8,3.8,0,0,1-.637,1.2,2.935,2.935,0,0,1-.98.8A2.771,2.771,0,0,1-79.4.112a2.473,2.473,0,0,1-.952-.161,2.585,2.585,0,0,1-.7-.434V2.3h-2.17V-7.259h1.344a.51.51,0,0,1,.532.364ZM-60.221-10.2V0h-2.086V-5.866q0-.2.01-.441t.039-.483l-2.709,5.243a.89.89,0,0,1-.34.371.939.939,0,0,1-.487.126h-.322a.939.939,0,0,1-.486-.126.89.89,0,0,1-.34-.371L-69.65-6.8q.021.252.035.493t.014.444V0h-2.086V-10.2h1.806q.154,0,.27.007a.69.69,0,0,1,.206.042.47.47,0,0,1,.165.109.856.856,0,0,1,.144.207l2.625,5.173q.14.266.27.553t.249.588q.119-.308.248-.6t.277-.56l2.618-5.152a.856.856,0,0,1,.144-.207.47.47,0,0,1,.164-.109.69.69,0,0,1,.207-.042q.115-.007.27-.007Zm6.02,5.7a1.915,1.915,0,0,0-.067-.5,1.222,1.222,0,0,0-.217-.437,1.1,1.1,0,0,0-.4-.312,1.353,1.353,0,0,0-.595-.119,1.3,1.3,0,0,0-.966.353A1.842,1.842,0,0,0-56.9-4.5Zm-2.73,1.26a2.046,2.046,0,0,0,.553,1.319,1.645,1.645,0,0,0,1.155.41,2.067,2.067,0,0,0,.651-.091,3.284,3.284,0,0,0,.486-.2l.392-.2a.814.814,0,0,1,.375-.091.449.449,0,0,1,.392.189l.63.777a3.226,3.226,0,0,1-.724.627,3.765,3.765,0,0,1-.8.378,4.325,4.325,0,0,1-.819.189,6.146,6.146,0,0,1-.781.053A4.075,4.075,0,0,1-56.85-.137a3.289,3.289,0,0,1-1.169-.738,3.485,3.485,0,0,1-.791-1.218A4.551,4.551,0,0,1-59.1-3.787a3.834,3.834,0,0,1,.249-1.379,3.4,3.4,0,0,1,.714-1.141,3.4,3.4,0,0,1,1.127-.777,3.72,3.72,0,0,1,1.494-.287,3.738,3.738,0,0,1,1.32.224,2.868,2.868,0,0,1,1.029.651A2.971,2.971,0,0,1-52.5-5.45a3.84,3.84,0,0,1,.242,1.4,3.064,3.064,0,0,1-.021.4.632.632,0,0,1-.077.245.293.293,0,0,1-.15.126.7.7,0,0,1-.242.035Zm11.1-2.3a1.2,1.2,0,0,1-.189.189.417.417,0,0,1-.259.07.558.558,0,0,1-.29-.077l-.291-.171a2.2,2.2,0,0,0-.378-.172,1.627,1.627,0,0,0-.539-.077,1.51,1.51,0,0,0-.69.147,1.277,1.277,0,0,0-.479.42,1.919,1.919,0,0,0-.28.668,3.994,3.994,0,0,0-.091.892,2.72,2.72,0,0,0,.4,1.6,1.292,1.292,0,0,0,1.11.56,1.551,1.551,0,0,0,.6-.095,1.814,1.814,0,0,0,.375-.21L-46.553-2a.524.524,0,0,1,.326-.1.449.449,0,0,1,.392.189l.63.777a3.428,3.428,0,0,1-.707.627,3.547,3.547,0,0,1-.76.378,3.92,3.92,0,0,1-.78.189,5.747,5.747,0,0,1-.763.053A3.274,3.274,0,0,1-49.486-.14,3.113,3.113,0,0,1-50.55-.872a3.5,3.5,0,0,1-.728-1.18,4.418,4.418,0,0,1-.27-1.6,4.483,4.483,0,0,1,.235-1.466A3.329,3.329,0,0,1-50.62-6.3a3.222,3.222,0,0,1,1.134-.787,3.974,3.974,0,0,1,1.565-.287,3.814,3.814,0,0,1,1.5.273,3.594,3.594,0,0,1,1.162.8Zm3.647-1.085a3.528,3.528,0,0,1,.851-.543,2.653,2.653,0,0,1,1.1-.207,2.541,2.541,0,0,1,1.053.207,2.186,2.186,0,0,1,.774.574,2.478,2.478,0,0,1,.476.875,3.628,3.628,0,0,1,.161,1.1V0h-2.17V-4.613a1.269,1.269,0,0,0-.245-.829.88.88,0,0,0-.721-.3,1.517,1.517,0,0,0-.669.15,2.69,2.69,0,0,0-.605.409V0h-2.17V-10.479h2.17Zm9.555,3.668a7.2,7.2,0,0,0-1.071.112,2.6,2.6,0,0,0-.665.21.8.8,0,0,0-.34.287A.679.679,0,0,0-34.8-2a.608.608,0,0,0,.2.521.99.99,0,0,0,.6.151,1.722,1.722,0,0,0,.735-.147,2.239,2.239,0,0,0,.637-.476Zm-3.906-3.3a4.413,4.413,0,0,1,1.459-.865A5.117,5.117,0,0,1-33.362-7.4a3.143,3.143,0,0,1,1.187.214,2.553,2.553,0,0,1,.9.6,2.6,2.6,0,0,1,.563.906,3.258,3.258,0,0,1,.2,1.148V0h-.994a1.017,1.017,0,0,1-.465-.084.642.642,0,0,1-.262-.35l-.154-.4q-.273.231-.525.406a3.327,3.327,0,0,1-.521.3,2.575,2.575,0,0,1-.574.182,3.533,3.533,0,0,1-.675.06,2.962,2.962,0,0,1-.9-.13,1.884,1.884,0,0,1-.69-.381,1.678,1.678,0,0,1-.437-.627,2.259,2.259,0,0,1-.154-.865,1.8,1.8,0,0,1,.2-.794A1.961,1.961,0,0,1-36-3.419a4.315,4.315,0,0,1,1.3-.557,8.736,8.736,0,0,1,2.065-.252v-.308a1.331,1.331,0,0,0-.263-.92.966.966,0,0,0-.745-.283,1.978,1.978,0,0,0-.63.084,2.832,2.832,0,0,0-.437.189q-.192.105-.375.189a1.029,1.029,0,0,1-.434.084.625.625,0,0,1-.378-.112.974.974,0,0,1-.252-.266Zm9.408-.224a5.273,5.273,0,0,1,.434-.364,2.542,2.542,0,0,1,.479-.284,2.846,2.846,0,0,1,.553-.182,2.967,2.967,0,0,1,.648-.067,2.541,2.541,0,0,1,1.053.207,2.186,2.186,0,0,1,.774.574,2.478,2.478,0,0,1,.476.875,3.628,3.628,0,0,1,.161,1.1V0h-2.17V-4.613a1.269,1.269,0,0,0-.245-.829.88.88,0,0,0-.721-.3,1.517,1.517,0,0,0-.669.15,2.69,2.69,0,0,0-.605.409V0h-2.17V-7.259h1.344a.51.51,0,0,1,.532.364Zm8.2-.784V0H-21.1V-7.259Zm.224-1.988a1.147,1.147,0,0,1-.1.486,1.281,1.281,0,0,1-.287.4,1.4,1.4,0,0,1-.424.273,1.314,1.314,0,0,1-.514.1,1.222,1.222,0,0,1-.5-.1,1.4,1.4,0,0,1-.41-.273,1.26,1.26,0,0,1-.28-.4,1.18,1.18,0,0,1-.1-.486,1.222,1.222,0,0,1,.1-.5,1.29,1.29,0,0,1,.28-.406,1.311,1.311,0,0,1,.41-.273,1.259,1.259,0,0,1,.5-.1,1.355,1.355,0,0,1,.514.1,1.321,1.321,0,0,1,.424.273,1.31,1.31,0,0,1,.287.406A1.187,1.187,0,0,1-18.711-9.247ZM-12.8-5.67a.561.561,0,0,1-.178.189.468.468,0,0,1-.242.056.771.771,0,0,1-.308-.067l-.333-.144a3.623,3.623,0,0,0-.4-.143,1.8,1.8,0,0,0-.511-.066,1.081,1.081,0,0,0-.634.157.508.508,0,0,0-.22.438.438.438,0,0,0,.143.336,1.317,1.317,0,0,0,.382.234,5.262,5.262,0,0,0,.539.193q.3.091.616.2a5.486,5.486,0,0,1,.616.262,2.3,2.3,0,0,1,.539.371,1.656,1.656,0,0,1,.382.535,1.814,1.814,0,0,1,.143.756,2.486,2.486,0,0,1-.2.994,2.111,2.111,0,0,1-.584.784,2.764,2.764,0,0,1-.959.511,4.32,4.32,0,0,1-1.312.182,3.994,3.994,0,0,1-.742-.07,5.14,5.14,0,0,1-.718-.189,3.909,3.909,0,0,1-.64-.284,2.778,2.778,0,0,1-.5-.354l.5-.8a.645.645,0,0,1,.213-.22.621.621,0,0,1,.333-.08.685.685,0,0,1,.34.084l.325.182a2.713,2.713,0,0,0,.41.182,1.776,1.776,0,0,0,.591.084,1.5,1.5,0,0,0,.427-.052.752.752,0,0,0,.28-.144.573.573,0,0,0,.154-.2.571.571,0,0,0,.049-.231.472.472,0,0,0-.147-.357,1.281,1.281,0,0,0-.385-.242,4.694,4.694,0,0,0-.543-.189q-.3-.087-.619-.2a4.976,4.976,0,0,1-.62-.27,2.131,2.131,0,0,1-.542-.4,1.854,1.854,0,0,1-.385-.591,2.185,2.185,0,0,1-.147-.847,2.207,2.207,0,0,1,.178-.878,2.04,2.04,0,0,1,.536-.732,2.629,2.629,0,0,1,.9-.5,3.874,3.874,0,0,1,1.26-.185,4.051,4.051,0,0,1,.76.07,3.881,3.881,0,0,1,.689.2,3.3,3.3,0,0,1,.588.3,2.824,2.824,0,0,1,.469.375ZM-11.179,0V-7.259h1.344a.51.51,0,0,1,.532.364l.119.392a4.027,4.027,0,0,1,.378-.346,2.431,2.431,0,0,1,.424-.273,2.357,2.357,0,0,1,.49-.182,2.35,2.35,0,0,1,.577-.067,1.7,1.7,0,0,1,1.089.339,2.115,2.115,0,0,1,.655.907A2.146,2.146,0,0,1-5.128-6.7a2.387,2.387,0,0,1,.567-.385A2.755,2.755,0,0,1-3.917-7.3a3.338,3.338,0,0,1,.675-.07,3.07,3.07,0,0,1,1.106.185,2.106,2.106,0,0,1,.809.539,2.327,2.327,0,0,1,.493.868A3.747,3.747,0,0,1-.665-4.613V0h-2.17V-4.613q0-1.127-.966-1.127a.992.992,0,0,0-.732.29,1.132,1.132,0,0,0-.29.837V0h-2.17V-4.613a1.241,1.241,0,0,0-.245-.875.961.961,0,0,0-.721-.252,1.215,1.215,0,0,0-.556.133,2.023,2.023,0,0,0-.494.357V0Z" transform="translate(1415 3182)"/><path class="a" d="M-162.827-8.323h-2.87V0h-2.366V-8.323h-2.87V-10.2h8.106Zm2.632.952a4.192,4.192,0,0,1,1.505.259,3.3,3.3,0,0,1,1.165.742,3.342,3.342,0,0,1,.756,1.173,4.23,4.23,0,0,1,.27,1.55,4.306,4.306,0,0,1-.27,1.565A3.365,3.365,0,0,1-157.524-.9a3.317,3.317,0,0,1-1.165.749,4.142,4.142,0,0,1-1.505.263A4.191,4.191,0,0,1-161.71-.15,3.382,3.382,0,0,1-162.886-.9a3.317,3.317,0,0,1-.763-1.183,4.306,4.306,0,0,1-.27-1.565,4.23,4.23,0,0,1,.27-1.55,3.294,3.294,0,0,1,.763-1.173,3.366,3.366,0,0,1,1.176-.742A4.242,4.242,0,0,1-160.195-7.371Zm0,5.873a1.232,1.232,0,0,0,1.1-.528,2.923,2.923,0,0,0,.354-1.606,2.9,2.9,0,0,0-.354-1.6,1.235,1.235,0,0,0-1.1-.525,1.266,1.266,0,0,0-1.127.525,2.881,2.881,0,0,0-.357,1.6,2.9,2.9,0,0,0,.357,1.606A1.263,1.263,0,0,0-160.195-1.5Zm6.958-8.981v5.873h.322a.637.637,0,0,0,.308-.059.72.72,0,0,0,.21-.2l1.372-2.044a.867.867,0,0,1,.287-.263.86.86,0,0,1,.413-.087h1.988l-1.876,2.583a2.3,2.3,0,0,1-.63.574,1.73,1.73,0,0,1,.294.276,2.794,2.794,0,0,1,.252.354L-148.253,0h-1.96a1,1,0,0,1-.42-.08.67.67,0,0,1-.294-.284L-152.3-2.933a.536.536,0,0,0-.2-.227.731.731,0,0,0-.315-.052h-.42V0h-2.17V-10.479ZM-143.4-4.5a1.916,1.916,0,0,0-.066-.5,1.222,1.222,0,0,0-.217-.437,1.1,1.1,0,0,0-.4-.312,1.353,1.353,0,0,0-.6-.119,1.3,1.3,0,0,0-.966.353A1.842,1.842,0,0,0-146.1-4.5Zm-2.73,1.26a2.046,2.046,0,0,0,.553,1.319,1.645,1.645,0,0,0,1.155.41,2.067,2.067,0,0,0,.651-.091,3.284,3.284,0,0,0,.486-.2l.392-.2a.814.814,0,0,1,.375-.091.449.449,0,0,1,.392.189l.63.777a3.226,3.226,0,0,1-.725.627,3.765,3.765,0,0,1-.8.378,4.325,4.325,0,0,1-.819.189,6.146,6.146,0,0,1-.781.053,4.075,4.075,0,0,1-1.432-.249,3.289,3.289,0,0,1-1.169-.738,3.485,3.485,0,0,1-.791-1.218,4.551,4.551,0,0,1-.29-1.694,3.834,3.834,0,0,1,.248-1.379,3.4,3.4,0,0,1,.714-1.141,3.4,3.4,0,0,1,1.127-.777,3.72,3.72,0,0,1,1.495-.287,3.738,3.738,0,0,1,1.319.224,2.868,2.868,0,0,1,1.029.651A2.971,2.971,0,0,1-141.7-5.45a3.84,3.84,0,0,1,.242,1.4,3.065,3.065,0,0,1-.021.4.631.631,0,0,1-.077.245.293.293,0,0,1-.151.126.7.7,0,0,1-.242.035Zm7.763-3.234a5.271,5.271,0,0,1,.434-.364,2.542,2.542,0,0,1,.479-.284A2.846,2.846,0,0,1-136.9-7.3a2.967,2.967,0,0,1,.647-.067,2.541,2.541,0,0,1,1.053.207,2.186,2.186,0,0,1,.773.574,2.478,2.478,0,0,1,.476.875,3.628,3.628,0,0,1,.161,1.1V0h-2.17V-4.613a1.269,1.269,0,0,0-.245-.829.88.88,0,0,0-.721-.3,1.517,1.517,0,0,0-.669.15,2.69,2.69,0,0,0-.605.409V0h-2.17V-7.259h1.344a.51.51,0,0,1,.532.364Zm13.72,4.606a2.176,2.176,0,0,0,.851-.158,1.72,1.72,0,0,0,.633-.451,2,2,0,0,0,.4-.717,3.133,3.133,0,0,0,.137-.963V-10.2h2.366v6.041a4.718,4.718,0,0,1-.3,1.722,3.863,3.863,0,0,1-.872,1.351,3.933,3.933,0,0,1-1.379.882,5.018,5.018,0,0,1-1.827.315A5.039,5.039,0,0,1-126.483-.2a3.933,3.933,0,0,1-1.379-.882,3.822,3.822,0,0,1-.868-1.351,4.767,4.767,0,0,1-.3-1.722V-10.2h2.366v6.034a3.133,3.133,0,0,0,.137.962,2.032,2.032,0,0,0,.4.721,1.7,1.7,0,0,0,.633.455A2.176,2.176,0,0,0-124.649-1.869ZM-110.971,0h-2.17V-5.761h-3.038v3.605a.678.678,0,0,0,.122.416.414.414,0,0,0,.354.165.7.7,0,0,0,.2-.025.794.794,0,0,0,.14-.056q.059-.032.112-.056a.287.287,0,0,1,.123-.025.253.253,0,0,1,.157.045.563.563,0,0,1,.123.143l.658,1.029a3,3,0,0,1-.945.473,3.755,3.755,0,0,1-1.085.158,2.559,2.559,0,0,1-.913-.151,1.814,1.814,0,0,1-.665-.427,1.82,1.82,0,0,1-.41-.669,2.588,2.588,0,0,1-.14-.875V-5.761h-.616a.411.411,0,0,1-.287-.109.409.409,0,0,1-.119-.319v-.847l1.155-.231.427-1.764a.431.431,0,0,1,.476-.336h1.134v2.121h5.208Zm.3-9.254a1.17,1.17,0,0,1-.105.49,1.269,1.269,0,0,1-.287.4,1.353,1.353,0,0,1-.424.269,1.355,1.355,0,0,1-.514.1,1.259,1.259,0,0,1-.5-.1,1.343,1.343,0,0,1-.41-.269,1.249,1.249,0,0,1-.28-.4,1.2,1.2,0,0,1-.1-.49,1.229,1.229,0,0,1,.1-.494,1.239,1.239,0,0,1,.28-.406,1.4,1.4,0,0,1,.41-.273,1.222,1.222,0,0,1,.5-.1,1.314,1.314,0,0,1,.514.1,1.4,1.4,0,0,1,.424.273,1.258,1.258,0,0,1,.287.406A1.194,1.194,0,0,1-110.67-9.254Zm3.388-1.225V0h-2.17V-10.479Zm3.689,3.22V0h-2.17V-7.259Zm.224-1.988a1.147,1.147,0,0,1-.105.486,1.281,1.281,0,0,1-.287.4,1.405,1.405,0,0,1-.424.273,1.314,1.314,0,0,1-.515.1,1.222,1.222,0,0,1-.5-.1,1.4,1.4,0,0,1-.41-.273,1.26,1.26,0,0,1-.28-.4,1.18,1.18,0,0,1-.1-.486,1.222,1.222,0,0,1,.1-.5,1.29,1.29,0,0,1,.28-.406,1.311,1.311,0,0,1,.41-.273,1.259,1.259,0,0,1,.5-.1,1.355,1.355,0,0,1,.515.1,1.321,1.321,0,0,1,.424.273,1.31,1.31,0,0,1,.287.406A1.187,1.187,0,0,1-103.369-9.247ZM-99.477.112a2.559,2.559,0,0,1-.913-.151,1.814,1.814,0,0,1-.665-.427,1.82,1.82,0,0,1-.41-.669,2.588,2.588,0,0,1-.14-.875V-5.761h-.616a.411.411,0,0,1-.287-.109.409.409,0,0,1-.119-.319v-.847l1.155-.224.427-1.771a.431.431,0,0,1,.476-.336h1.134v2.121h1.8v1.484h-1.8v3.605a.678.678,0,0,0,.122.416.414.414,0,0,0,.354.165.7.7,0,0,0,.2-.025.794.794,0,0,0,.14-.056q.059-.032.112-.056a.287.287,0,0,1,.123-.025.253.253,0,0,1,.157.045.563.563,0,0,1,.123.143l.658,1.029a3,3,0,0,1-.945.473A3.755,3.755,0,0,1-99.477.112ZM-89.8-7.259l-3.878,9.142a.777.777,0,0,1-.238.319.775.775,0,0,1-.448.1h-1.624l1.4-2.94-2.9-6.622h1.918a.6.6,0,0,1,.389.112.668.668,0,0,1,.2.266l1.19,3.129a6.335,6.335,0,0,1,.273.875l.154-.448q.077-.224.161-.441l1.078-3.115A.577.577,0,0,1-91.9-7.15a.614.614,0,0,1,.35-.109Zm8.687,3.36-.945-2.793q-.1-.266-.224-.627t-.238-.78q-.1.427-.224.791t-.224.63L-83.909-3.9ZM-77.357,0h-1.834a.8.8,0,0,1-.5-.144.912.912,0,0,1-.287-.367l-.6-1.778h-3.878l-.6,1.778a.851.851,0,0,1-.276.353A.772.772,0,0,1-85.827,0h-1.848l3.948-10.2H-81.3Zm6.916-7.259V0h-1.344a.51.51,0,0,1-.532-.364l-.126-.42a4.212,4.212,0,0,1-.434.368,2.656,2.656,0,0,1-.479.28,2.846,2.846,0,0,1-.553.182,2.967,2.967,0,0,1-.647.067A2.541,2.541,0,0,1-75.61-.095a2.167,2.167,0,0,1-.773-.577,2.519,2.519,0,0,1-.476-.875,3.619,3.619,0,0,1-.161-1.106V-7.259h2.17v4.606a1.267,1.267,0,0,0,.245.833.885.885,0,0,0,.721.294,1.517,1.517,0,0,0,.668-.15,2.69,2.69,0,0,0,.605-.41V-7.259ZM-66.374.112a2.559,2.559,0,0,1-.913-.151,1.814,1.814,0,0,1-.665-.427,1.82,1.82,0,0,1-.41-.669,2.588,2.588,0,0,1-.14-.875V-5.761h-.616A.411.411,0,0,1-69.4-5.87a.409.409,0,0,1-.119-.319v-.847l1.155-.224.427-1.771a.431.431,0,0,1,.476-.336h1.134v2.121h1.8v1.484h-1.8v3.605a.678.678,0,0,0,.122.416.414.414,0,0,0,.354.165.7.7,0,0,0,.2-.025.794.794,0,0,0,.14-.056q.059-.032.112-.056a.287.287,0,0,1,.123-.025.253.253,0,0,1,.157.045A.563.563,0,0,1-65-1.547l.658,1.029a3,3,0,0,1-.945.473A3.755,3.755,0,0,1-66.374.112Zm4.949-6.734a3.528,3.528,0,0,1,.851-.543,2.653,2.653,0,0,1,1.1-.207,2.541,2.541,0,0,1,1.053.207,2.186,2.186,0,0,1,.774.574,2.478,2.478,0,0,1,.476.875,3.628,3.628,0,0,1,.161,1.1V0h-2.17V-4.613a1.269,1.269,0,0,0-.245-.829.88.88,0,0,0-.721-.3,1.517,1.517,0,0,0-.669.15,2.69,2.69,0,0,0-.605.409V0h-2.17V-10.479h2.17Zm9.156-.749a4.192,4.192,0,0,1,1.5.259A3.3,3.3,0,0,1-49.6-6.37,3.342,3.342,0,0,1-48.842-5.2a4.23,4.23,0,0,1,.27,1.55,4.306,4.306,0,0,1-.27,1.565A3.366,3.366,0,0,1-49.6-.9a3.317,3.317,0,0,1-1.166.749,4.142,4.142,0,0,1-1.5.263A4.191,4.191,0,0,1-53.784-.15,3.382,3.382,0,0,1-54.96-.9a3.317,3.317,0,0,1-.763-1.183,4.306,4.306,0,0,1-.27-1.565,4.23,4.23,0,0,1,.27-1.55A3.294,3.294,0,0,1-54.96-6.37a3.366,3.366,0,0,1,1.176-.742A4.242,4.242,0,0,1-52.269-7.371Zm0,5.873a1.232,1.232,0,0,0,1.1-.528,2.923,2.923,0,0,0,.354-1.606,2.9,2.9,0,0,0-.354-1.6,1.235,1.235,0,0,0-1.1-.525,1.266,1.266,0,0,0-1.127.525,2.881,2.881,0,0,0-.357,1.6A2.9,2.9,0,0,0-53.4-2.026,1.263,1.263,0,0,0-52.269-1.5Zm6.818-4.641a3.052,3.052,0,0,1,.774-.924,1.6,1.6,0,0,1,1-.336,1.3,1.3,0,0,1,.8.231l-.14,1.6a.335.335,0,0,1-.116.21.381.381,0,0,1-.221.056q-.056,0-.147-.007l-.189-.017-.2-.021a1.815,1.815,0,0,0-.185-.01,1.1,1.1,0,0,0-.76.252,1.982,1.982,0,0,0-.479.7V0h-2.17V-7.259h1.288a1.1,1.1,0,0,1,.27.028.473.473,0,0,1,.182.088.373.373,0,0,1,.112.157,1.42,1.42,0,0,1,.066.238Zm5.53-1.12V0h-2.17V-7.259Zm.224-1.988a1.147,1.147,0,0,1-.105.486,1.281,1.281,0,0,1-.287.4,1.405,1.405,0,0,1-.424.273,1.314,1.314,0,0,1-.514.1,1.222,1.222,0,0,1-.5-.1,1.4,1.4,0,0,1-.41-.273,1.26,1.26,0,0,1-.28-.4,1.18,1.18,0,0,1-.1-.486,1.222,1.222,0,0,1,.1-.5,1.29,1.29,0,0,1,.28-.406,1.311,1.311,0,0,1,.41-.273,1.259,1.259,0,0,1,.5-.1,1.355,1.355,0,0,1,.514.1,1.321,1.321,0,0,1,.424.273,1.31,1.31,0,0,1,.287.406A1.187,1.187,0,0,1-39.7-9.247ZM-33-6.391a1.251,1.251,0,0,1-.077.434.984.984,0,0,1-.2.343l-3.031,4h3.241V0h-5.74V-.882a1.077,1.077,0,0,1,.07-.336,1.259,1.259,0,0,1,.21-.378l3.059-4.053h-3.143v-1.61H-33Zm4.872,3.437a7.2,7.2,0,0,0-1.071.112,2.6,2.6,0,0,0-.665.21.8.8,0,0,0-.34.287A.679.679,0,0,0-30.3-2a.608.608,0,0,0,.2.521.99.99,0,0,0,.595.151,1.722,1.722,0,0,0,.735-.147,2.239,2.239,0,0,0,.637-.476Zm-3.906-3.3a4.413,4.413,0,0,1,1.459-.865A5.117,5.117,0,0,1-28.861-7.4a3.143,3.143,0,0,1,1.186.214,2.553,2.553,0,0,1,.9.6,2.6,2.6,0,0,1,.563.906,3.258,3.258,0,0,1,.2,1.148V0h-.994a1.017,1.017,0,0,1-.465-.084.642.642,0,0,1-.263-.35l-.154-.4q-.273.231-.525.406a3.327,3.327,0,0,1-.521.3,2.575,2.575,0,0,1-.574.182,3.533,3.533,0,0,1-.675.06,2.962,2.962,0,0,1-.9-.13A1.884,1.884,0,0,1-31.783-.4a1.678,1.678,0,0,1-.438-.627,2.259,2.259,0,0,1-.154-.865,1.8,1.8,0,0,1,.2-.794,1.961,1.961,0,0,1,.679-.735,4.315,4.315,0,0,1,1.3-.557,8.736,8.736,0,0,1,2.065-.252v-.308a1.331,1.331,0,0,0-.262-.92.966.966,0,0,0-.746-.283,1.978,1.978,0,0,0-.63.084,2.832,2.832,0,0,0-.437.189q-.192.105-.374.189a1.029,1.029,0,0,1-.434.084.625.625,0,0,1-.378-.112.974.974,0,0,1-.252-.266ZM-16.9,0h-2.17V-5.761h-3.038v3.605a.678.678,0,0,0,.122.416.414.414,0,0,0,.354.165.7.7,0,0,0,.2-.025.794.794,0,0,0,.14-.056q.06-.032.112-.056a.287.287,0,0,1,.122-.025.253.253,0,0,1,.158.045.563.563,0,0,1,.122.143l.658,1.029a3,3,0,0,1-.945.473,3.755,3.755,0,0,1-1.085.158,2.559,2.559,0,0,1-.914-.151,1.814,1.814,0,0,1-.665-.427,1.82,1.82,0,0,1-.41-.669,2.588,2.588,0,0,1-.14-.875V-5.761h-.616a.411.411,0,0,1-.287-.109.409.409,0,0,1-.119-.319v-.847l1.155-.231.427-1.764a.431.431,0,0,1,.476-.336h1.134v2.121H-16.9Zm.3-9.254a1.17,1.17,0,0,1-.1.49,1.269,1.269,0,0,1-.287.4,1.353,1.353,0,0,1-.424.269,1.355,1.355,0,0,1-.515.1,1.259,1.259,0,0,1-.5-.1,1.343,1.343,0,0,1-.41-.269,1.249,1.249,0,0,1-.28-.4,1.2,1.2,0,0,1-.1-.49,1.229,1.229,0,0,1,.1-.494,1.239,1.239,0,0,1,.28-.406,1.4,1.4,0,0,1,.41-.273,1.222,1.222,0,0,1,.5-.1,1.314,1.314,0,0,1,.515.1,1.405,1.405,0,0,1,.424.273,1.258,1.258,0,0,1,.287.406A1.194,1.194,0,0,1-16.6-9.254Zm4.564,1.883a4.192,4.192,0,0,1,1.505.259,3.3,3.3,0,0,1,1.165.742A3.342,3.342,0,0,1-8.606-5.2a4.23,4.23,0,0,1,.269,1.55,4.307,4.307,0,0,1-.269,1.565A3.366,3.366,0,0,1-9.362-.9a3.317,3.317,0,0,1-1.165.749,4.142,4.142,0,0,1-1.505.263A4.191,4.191,0,0,1-13.548-.15,3.382,3.382,0,0,1-14.724-.9a3.317,3.317,0,0,1-.763-1.183,4.307,4.307,0,0,1-.269-1.565,4.23,4.23,0,0,1,.269-1.55,3.294,3.294,0,0,1,.763-1.173,3.366,3.366,0,0,1,1.176-.742A4.242,4.242,0,0,1-12.033-7.371Zm0,5.873a1.232,1.232,0,0,0,1.1-.528,2.923,2.923,0,0,0,.354-1.606,2.9,2.9,0,0,0-.354-1.6,1.235,1.235,0,0,0-1.1-.525,1.266,1.266,0,0,0-1.127.525,2.881,2.881,0,0,0-.357,1.6,2.9,2.9,0,0,0,.357,1.606A1.263,1.263,0,0,0-12.033-1.5Zm6.79-4.977a5.272,5.272,0,0,1,.434-.364,2.542,2.542,0,0,1,.479-.284A2.846,2.846,0,0,1-3.776-7.3a2.967,2.967,0,0,1,.648-.067,2.541,2.541,0,0,1,1.053.207A2.186,2.186,0,0,1-1.3-6.59a2.478,2.478,0,0,1,.476.875,3.628,3.628,0,0,1,.161,1.1V0h-2.17V-4.613a1.269,1.269,0,0,0-.245-.829.88.88,0,0,0-.721-.3,1.517,1.517,0,0,0-.668.15,2.69,2.69,0,0,0-.606.409V0h-2.17V-7.259H-5.9a.51.51,0,0,1,.532.364Z" transform="translate(1415 3306)"/><path class="a" d="M-54.985-3.9l-.945-2.793q-.1-.266-.224-.627t-.238-.78q-.105.427-.224.791t-.224.63L-57.778-3.9ZM-51.226,0H-53.06a.8.8,0,0,1-.5-.144.912.912,0,0,1-.287-.367l-.6-1.778h-3.878l-.6,1.778a.851.851,0,0,1-.277.353A.772.772,0,0,1-59.7,0h-1.848L-57.6-10.2h2.422Zm12.271-10.2V0h-2.086V-5.866q0-.2.01-.441t.039-.483L-43.7-1.547a.89.89,0,0,1-.34.371.939.939,0,0,1-.486.126h-.322a.939.939,0,0,1-.486-.126.89.89,0,0,1-.34-.371L-48.384-6.8q.021.252.035.493t.014.444V0h-2.086V-10.2h1.806q.154,0,.27.007a.69.69,0,0,1,.207.042.47.47,0,0,1,.164.109.856.856,0,0,1,.144.207l2.625,5.173q.14.266.27.553t.249.588q.119-.308.248-.6t.277-.56l2.618-5.152a.856.856,0,0,1,.144-.207.47.47,0,0,1,.164-.109.69.69,0,0,1,.207-.042q.115-.007.27-.007Zm8.12,8.309V0h-6.146V-10.2h2.366V-1.89Zm6.384-4.179h.378a.859.859,0,0,0,.756-.329l2.3-3.332a1.129,1.129,0,0,1,.438-.368A1.475,1.475,0,0,1-20-10.2h2.058l-3.024,4.123a2.06,2.06,0,0,1-.693.616,1.7,1.7,0,0,1,.483.273,2.054,2.054,0,0,1,.406.455L-17.689,0H-19.8a1.839,1.839,0,0,1-.347-.028A.888.888,0,0,1-20.4-.112a.715.715,0,0,1-.182-.137,1.354,1.354,0,0,1-.147-.185l-2.31-3.549a.7.7,0,0,0-.319-.276,1.381,1.381,0,0,0-.521-.081h-.574V0h-2.366V-10.2h2.366ZM-12.04-3.878V0h-2.366V-3.878L-18.1-10.2h2.086a.755.755,0,0,1,.487.144,1.165,1.165,0,0,1,.3.368L-13.79-6.72q.182.35.329.654t.259.6q.1-.3.241-.606t.319-.647l1.428-2.968a1.346,1.346,0,0,1,.119-.182.915.915,0,0,1,.165-.165.81.81,0,0,1,.217-.119.769.769,0,0,1,.27-.046h2.1ZM-1.316-2.639a.476.476,0,0,1,.168.031A.457.457,0,0,1-.987-2.5l.938.987A3.894,3.894,0,0,1-1.592-.3a5.4,5.4,0,0,1-2.195.41,5.228,5.228,0,0,1-2.082-.4A4.507,4.507,0,0,1-7.43-1.375a4.809,4.809,0,0,1-.983-1.652A6.1,6.1,0,0,1-8.757-5.1a5.745,5.745,0,0,1,.371-2.1A4.869,4.869,0,0,1-7.343-8.848a4.7,4.7,0,0,1,1.61-1.078,5.388,5.388,0,0,1,2.065-.385,5.51,5.51,0,0,1,1.082.1,5.286,5.286,0,0,1,.949.28A4.333,4.333,0,0,1-.826-9.5a4.261,4.261,0,0,1,.658.546l-.8,1.071a1.016,1.016,0,0,1-.182.179.474.474,0,0,1-.294.08.525.525,0,0,1-.238-.056,2.631,2.631,0,0,1-.238-.137l-.276-.175a2.122,2.122,0,0,0-.357-.175A2.95,2.95,0,0,0-3.034-8.3a3.3,3.3,0,0,0-.647-.056,2.608,2.608,0,0,0-1.075.217,2.342,2.342,0,0,0-.84.634,2.93,2.93,0,0,0-.546,1.022A4.561,4.561,0,0,0-6.335-5.1,4.2,4.2,0,0,0-6.121-3.71,3.059,3.059,0,0,0-5.54-2.684a2.465,2.465,0,0,0,.857.633,2.564,2.564,0,0,0,1.05.217,5.026,5.026,0,0,0,.588-.031,2.674,2.674,0,0,0,.5-.105,2.025,2.025,0,0,0,.434-.2A2.738,2.738,0,0,0-1.7-2.478a.828.828,0,0,1,.182-.115A.477.477,0,0,1-1.316-2.639Z" transform="translate(1415 3247)"/><path class="a" d="M2104.482,31.874a8.678,8.678,0,0,1-3.43-1.7,7.617,7.617,0,0,1-2.121-3.112,11.213,11.213,0,0,1-.743-4.066,11.73,11.73,0,0,1,.531-3.536,11.354,11.354,0,0,1,1.626-3.111,9.181,9.181,0,0,1,2.582-2.369,9.8,9.8,0,0,1,3.217-1.308,16.845,16.845,0,0,1,3.606-.354,28.6,28.6,0,0,1,6.01.742c0,1.1.035,2.227.142,3.394a17.633,17.633,0,0,0-5.763-1.131,10.114,10.114,0,0,0-3.146.495,6.684,6.684,0,0,0-2.546,1.556,7.149,7.149,0,0,0-1.626,2.581,8.878,8.878,0,0,0-.566,3.182,8.024,8.024,0,0,0,.637,3.288,4.7,4.7,0,0,0,2.157,2.227,7.7,7.7,0,0,0,3.465.778,10.244,10.244,0,0,0,1.7-.142,11.642,11.642,0,0,0,2.015-.46l.212-4.985h-1.061c-.6,0-1.378,0-2.3.035.071-1.273.106-2.227.106-2.9,1.238,0,2.439,0,3.571.035,1.485,0,2.723,0,3.712-.035-.212,3.182-.389,6.682-.495,10.572-1.485.318-2.829.531-4.031.672-1.2.106-2.227.177-3.076.177A17.322,17.322,0,0,1,2104.482,31.874ZM2092.32,28.55c.389-2.828,1.061-5.056,1.45-5.127s.884-.672.884-.672c.742-3.712,1.521-7.814,1.521-7.814l.742-.177,1.309-5.94.672-5.515c.212-.955.282-3.112.849-3.289s3.854.99,3.854.99l4.42,1.061c.247.283.672.884.672.884s2.4,4.738,2.546,4.808a1.661,1.661,0,0,0,.6,0,2.674,2.674,0,0,0,.531-.035c1.874-.035,3.748-.035,5.622-.106a12.111,12.111,0,0,1,.283,1.8,7.483,7.483,0,0,0,2.3-.495,17.552,17.552,0,0,1,2.688-.672c.742-.106,1.521-.212,2.3-.318q2.015-.212,4.031-.318l1.909-.106c.318,0,.672-.035.99-.035a4.386,4.386,0,0,1,.954-.035l.919,1.379a7.036,7.036,0,0,0,.5.813c.6.919,1.132,1.838,1.7,2.757a3.292,3.292,0,0,0,.283.46l3.713,5.8c.53-.742.884-1.308,1.874-2.581s1.732-2.333,2.3-3.217c.743.035,1.485.035,2.228.035.46,0,1.238,0,2.227-.035-.671.955-1.661,2.3-2.9,4s-2.439,3.359-3.571,4.985c1.308,2.121,4.56,5.339,7.6,9.829-.742-.035-1.909-.035-2.722-.035-.99.035-2.051.071-2.651.106a2.178,2.178,0,0,1-.5.035l-2.51-3.783c-.707-1.061-1.308-1.945-1.733-2.652-.459.742-1.2,1.732-2.156,3.005s-1.8,2.439-2.51,3.5c-.954-.035-1.732-.035-2.227-.035-.566,0-1.344,0-2.334.035l.955-1.273c.318-.389.813-1.1,1.555-2.086l3.5-4.844,1.1-1.591-.99-1.591-1.945-3.005-3.041-4.561c-.636-.954-1.838-2.793-2.05-3.112-.212-.354-.6-1.131-.919-1.1a1.843,1.843,0,0,0-.813.177c-.778.424-1.238,1.273-2.051,1.626-.424.142-.283-.07-.106-.283.247-.283.672-.636.318-1.061-.283-.318-.813-.177-1.2-.142-.565.071-1.131.106-1.7.177-1.874.212-3.712.742-5.515,1.131a3.454,3.454,0,0,1-.813.212c-.6.035-.283-.212-.177-.565a3.606,3.606,0,0,0,.142-1.273c-.106-.459-1.414-.141-1.7-.106-1.237.141-2.651.07-3.853.177a4.2,4.2,0,0,0,1.449,1.909c.884.672.849,1.025-.071.778a3.892,3.892,0,0,1-2.015-1.591c-.566-.99-1.238-1.909-1.8-2.9a19.457,19.457,0,0,1-1.379-2.51,3.167,3.167,0,0,0-1.52-1.733l-.672-.283a14.973,14.973,0,0,1-2.722-.531c-.954-.354-.424.955-.212,1.485s-.318.531-.318.531a10.244,10.244,0,0,1-1.131-.99c-1.485-1.556-1.167,2.722-1.2,3.288a40.956,40.956,0,0,1-.813,6.258s-.672,2.334-1.131,4.208a32.3,32.3,0,0,0-1.237,11.066c.141,1.45.071,4.419.071,4.419s-4.455.071-5.339.071Zm27.189,3.5h-2.439c.177-1.98.283-3.642.354-4.915.071-1.308.141-3.465.283-6.647.106-3.076.141-5.2.141-6.364V12.57c1.131.035,2.086.035,2.828.035s1.7,0,2.793-.035,2.015-.035,2.722-.035a12.212,12.212,0,0,1,2.263.142,4.966,4.966,0,0,1,1.344.389,4.056,4.056,0,0,1,.99.672,3.028,3.028,0,0,1,.707.919,5.682,5.682,0,0,1,.424,1.166,4.731,4.731,0,0,1,.141,1.238,7.13,7.13,0,0,1-.177,1.52,4.822,4.822,0,0,1-.53,1.308,4.509,4.509,0,0,1-.813.99,4.219,4.219,0,0,1-.884.636,7.107,7.107,0,0,1-1.131.5,7.887,7.887,0,0,1,1.025.283,6.01,6.01,0,0,1,.813.424,3.948,3.948,0,0,1,1.414,1.627,4.676,4.676,0,0,1,.353,1.061,4.73,4.73,0,0,1,.142,1.237,5.353,5.353,0,0,1-.566,2.511,4.32,4.32,0,0,1-1.556,1.8,5.214,5.214,0,0,1-2.191.884,38.8,38.8,0,0,1-5.2.212Zm1.627-2.793h3.075a14.174,14.174,0,0,0,1.45-.07,4.56,4.56,0,0,0,.99-.283,3.424,3.424,0,0,0,.742-.424,1.548,1.548,0,0,0,.5-.565,3.248,3.248,0,0,0,.318-.813,3.846,3.846,0,0,0,.106-.919,2.863,2.863,0,0,0-.213-1.167,2.525,2.525,0,0,0-1.626-1.379,6.832,6.832,0,0,0-1.732-.177h-3.394Zm.354-8.556h2.157c.919,0,1.556-.035,1.874-.071a3.811,3.811,0,0,0,.99-.283,2.266,2.266,0,0,0,.884-.636,2.55,2.55,0,0,0,.531-.954,3.72,3.72,0,0,0,.176-1.061,3.075,3.075,0,0,0-.176-.99,2.108,2.108,0,0,0-.566-.778,3.163,3.163,0,0,0-.919-.424,5.967,5.967,0,0,0-1.556-.141h-3.218Z" transform="translate(-964.448 3385.217)"/><path class="b" d="M-933.653,3167.986l6.1,6.1-6.1,6.1" transform="translate(2136.831 36.79)"/><path class="b" d="M-933.653,3167.986l6.1,6.1-6.1,6.1" transform="translate(2103.831 97.79)"/><g transform="translate(-424 10)"><path class="b" d="M0,0,6.42,6.42,0,12.84" transform="translate(1554.276 3349.896) rotate(90)"/><path class="b" d="M0,0,6.42,6.42,0,12.84" transform="translate(1554.276 3356.406) rotate(90)"/></g><ellipse class="c" cx="10.056" cy="10.056" rx="10.056" ry="10.056" transform="translate(1101 3137)"/><ellipse class="c" cx="10.056" cy="10.056" rx="10.056" ry="10.056" transform="translate(1101 3200.928)"/><ellipse class="c" cx="10.056" cy="10.056" rx="10.056" ry="10.056" transform="translate(1135 3137)"/><ellipse class="c" cx="10.056" cy="10.056" rx="10.056" ry="10.056" transform="translate(1136 3200.928)"/><ellipse class="c" cx="10.056" cy="10.056" rx="10.056" ry="10.056" transform="translate(1101 3260.856)"/><ellipse class="c" cx="10.056" cy="10.056" rx="10.056" ry="10.056" transform="translate(1101 3320.856)"/><ellipse class="c" cx="10.056" cy="10.056" rx="10.056" ry="10.056" transform="translate(1101 3393.856)"/><ellipse class="c" cx="10.056" cy="10.056" rx="10.056" ry="10.056" transform="translate(1170 3137)"/><ellipse class="c" cx="10.056" cy="10.056" rx="10.056" ry="10.056" transform="translate(1171 3200.928)"/><ellipse class="c" cx="10.056" cy="10.056" rx="10.056" ry="10.056" transform="translate(1135.492 3260.856)"/><ellipse class="c" cx="10.056" cy="10.056" rx="10.056" ry="10.056" transform="translate(1135.492 3320.856)"/><ellipse class="c" cx="10.056" cy="10.056" rx="10.056" ry="10.056" transform="translate(1204 3137)"/><ellipse class="c" cx="10.056" cy="10.056" rx="10.056" ry="10.056" transform="translate(1223.476 3200.928)"/><ellipse class="c" cx="10.056" cy="10.056" rx="10.056" ry="10.056" transform="translate(1192.984 3260.856)"/><ellipse class="c" cx="10.056" cy="10.056" rx="10.056" ry="10.056" transform="translate(1239 3137)"/><ellipse class="c" cx="10.056" cy="10.056" rx="10.056" ry="10.056" transform="translate(1258.968 3200.928)"/><line class="b" x1="24.581" y2="25.14" transform="translate(1257.013 3198.973)"/><line class="b" x1="24.581" y2="25.14" transform="translate(1191.029 3258.342)"/><line class="b" x1="24.581" y2="25.14" transform="translate(1134.029 3318.342)"/><line class="b" x1="24.581" y2="25.14" transform="translate(1221.521 3198.973)"/><line class="d" x2="155" transform="translate(1097.5 3176.5)"/><line class="d" x2="241" transform="translate(1097.5 3241.5)"/><line class="d" x2="132" transform="translate(1097.5 3301.5)"/></g></svg>