<svg xmlns="http://www.w3.org/2000/svg" viewBox="-1137.629 11950.604 471.198 478.956"><defs><style>.a{fill:#dbc6ca;}.b{fill:#ba384b;}</style></defs><g transform="translate(-1188.589 11959.436)"><g transform="translate(50.96 19.798)"><path class="a" d="M1344.8,381.129l102.331-108.8a201.923,201.923,0,0,0-58.7-38.23L1330.2,371.7A51.9,51.9,0,0,1,1344.8,381.129Z" transform="translate(-1108.045 -218.106)"/><path class="a" d="M1428.248,566.713l147.09-26.445A201.125,201.125,0,0,0,1517.993,434.2L1415.6,543.081A51.719,51.719,0,0,1,1428.248,566.713Z" transform="translate(-1175.911 -377.121)"/><path class="a" d="M1317.5,170.672a200.569,200.569,0,0,0-71.7-14.372V305.752a51.745,51.745,0,0,1,13.428,2.628Z" transform="translate(-1040.974 -156.279)"/><path class="a" d="M397.57,357.741a52.168,52.168,0,0,1,51.289-52.151V156.2C337.945,156.672,248.2,246.725,248.2,357.741a201.2,201.2,0,0,0,81.388,161.812L418,399.113A52.023,52.023,0,0,1,397.57,357.741Z" transform="translate(-248.2 -156.2)"/><path class="a" d="M777.727,1359.4a51.982,51.982,0,0,1-28.375-8.4L660.9,1471.481a201.956,201.956,0,0,0,177.827,27.882l-46.5-142.019A52.724,52.724,0,0,1,777.727,1359.4Z" transform="translate(-576.165 -1105.685)"/><path class="a" d="M1616.865,970.7l-147.049,26.445a52.316,52.316,0,0,1-2.916,26.712l134.176,66.051a200.674,200.674,0,0,0,18.7-84.9A203.055,203.055,0,0,0,1616.865,970.7Z" transform="translate(-1216.678 -803.468)"/><path class="a" d="M1319.8,1273.542l46.5,142.04a202.173,202.173,0,0,0,116.58-103.234L1348.422,1247.2A52.273,52.273,0,0,1,1319.8,1273.542Z" transform="translate(-1099.78 -1023.197)"/><g transform="translate(29.422 30.408)"><path class="b" d="M511.447,475.433a52.168,52.168,0,0,1,51.289-52.151l-.37-77.077.8-41.906A171.681,171.681,0,0,0,460.446,613.531l71.389-96.685A52.246,52.246,0,0,1,511.447,475.433Zm98.142-24.7a51.566,51.566,0,0,1,4.825,12.75l69.028-11.724a117.25,117.25,0,0,0-12.175-32.666c-5.585-10.081-14.208-20.327-22.38-28.313l-47.1,49.051A53.279,53.279,0,0,1,609.59,450.733ZM591.953,431.6a52.5,52.5,0,0,1,6.878,5.318l37.82-40.982a103.928,103.928,0,0,0-13-9.978,109.217,109.217,0,0,0-17.185-8.6l-22.216,50.118A54.367,54.367,0,0,1,591.953,431.6Zm23.858,43.836a52,52,0,0,1-3.7,19.3l63.218,31.208a117.454,117.454,0,0,0,10.245-48.086,150.364,150.364,0,0,0-1.766-23.119l-68.6,12.853A51.851,51.851,0,0,1,615.811,475.433Zm-15.563,37.142a52.085,52.085,0,0,1-18.171,11.662L606.962,601.4c32.81-11.149,61.411-37.881,76.3-68.782l-72.416-34.966A52.227,52.227,0,0,1,600.248,512.576ZM563.639,527.6a51.982,51.982,0,0,1-28.375-8.4l-58.352,80.875c21.066,15.029,38.354,21.045,66.113,23.345,19.341,1.622,52.11-1.6,63.936-9.671l-28.827-88.205A52.723,52.723,0,0,1,563.639,527.6Zm9.753-103.419a50,50,0,0,1,6.94,1.827l14.29-34.145c-5.01-1.807-3.942-2.156-12.894-4.291-5.5-1.314-8.6-1.068-14.927-1.478l.1,37.286A48.294,48.294,0,0,1,573.392,424.186Z" transform="translate(-391.5 -304.3)"/></g><g transform="translate(183.511 178.455)"><path class="b" d="M32.753,26.957a11.328,11.328,0,0,0,9.758-9.081C43.4,13.608,43.4,9.33,41,5.954S33.879,0,27.655,0H9l8.327,8.984H27.915c1.691,0,4.36,1.513,4.36,4.095v2.4a3.005,3.005,0,0,1-3.244,3.336H11.083l25.76,25.846H50.278Z" transform="translate(-8.542)"/><path class="b" d="M0,648.346v6.687l5.791,3.341,5.791-3.341v-6.687L5.791,645Zm4.874,3.341L.917,653.969V649.4Zm-3.5-3.076,3.957-2.287v4.568Zm3.957,3.871v4.568l-3.957-2.287Zm.917,0,3.957,2.287-3.957,2.287Zm.458-.794,3.957-2.287v4.568Zm-.458-.794v-4.568l3.957,2.287Z" transform="translate(0 -612.151)"/></g></g><g transform="translate(66.589 14.666)"><g transform="translate(0 28.228)"><path d="M4.1-4.287H2.572V0H1.631V-4.287H.1v-.773H4.1Zm2,2.079a1.04,1.04,0,0,0-.047-.317.753.753,0,0,0-.142-.261.659.659,0,0,0-.24-.177.823.823,0,0,0-.338-.065.8.8,0,0,0-.59.214,1.047,1.047,0,0,0-.275.606Zm-1.649.521a1.7,1.7,0,0,0,.1.478.977.977,0,0,0,.2.332.8.8,0,0,0,.3.2,1.087,1.087,0,0,0,.383.065,1.188,1.188,0,0,0,.362-.049A1.7,1.7,0,0,0,6.06-.774q.114-.059.2-.109a.335.335,0,0,1,.166-.049.179.179,0,0,1,.161.081l.248.315a1.441,1.441,0,0,1-.322.282,1.806,1.806,0,0,1-.373.182,2.037,2.037,0,0,1-.4.1,2.832,2.832,0,0,1-.39.028,1.918,1.918,0,0,1-.7-.124A1.559,1.559,0,0,1,4.1-.439a1.724,1.724,0,0,1-.374-.6,2.33,2.33,0,0,1-.137-.831,1.988,1.988,0,0,1,.119-.691,1.662,1.662,0,0,1,.341-.563,1.607,1.607,0,0,1,.543-.38,1.787,1.787,0,0,1,.723-.14,1.758,1.758,0,0,1,.627.109,1.365,1.365,0,0,1,.493.317,1.467,1.467,0,0,1,.324.511,1.9,1.9,0,0,1,.117.691.561.561,0,0,1-.042.264.174.174,0,0,1-.161.068Zm5.646-1.145a.431.431,0,0,1-.075.077.174.174,0,0,1-.107.028.238.238,0,0,1-.13-.04q-.063-.04-.151-.091a1.125,1.125,0,0,0-.208-.091.957.957,0,0,0-.3-.04.913.913,0,0,0-.4.082.756.756,0,0,0-.285.236,1.065,1.065,0,0,0-.17.373,2,2,0,0,0-.056.5,1.942,1.942,0,0,0,.061.511,1.093,1.093,0,0,0,.177.376.761.761,0,0,0,.28.231A.849.849,0,0,0,9.1-.605a.92.92,0,0,0,.334-.051,1.055,1.055,0,0,0,.215-.112Q9.74-.83,9.805-.88a.23.23,0,0,1,.145-.051.176.176,0,0,1,.157.081l.248.315a1.563,1.563,0,0,1-.311.282A1.684,1.684,0,0,1,9.7-.072a1.771,1.771,0,0,1-.371.1,2.612,2.612,0,0,1-.38.028,1.593,1.593,0,0,1-.627-.124,1.48,1.48,0,0,1-.514-.362,1.73,1.73,0,0,1-.348-.583A2.252,2.252,0,0,1,7.329-1.8a2.284,2.284,0,0,1,.114-.733,1.661,1.661,0,0,1,.334-.585,1.532,1.532,0,0,1,.546-.387,1.881,1.881,0,0,1,.749-.14,1.782,1.782,0,0,1,.705.13,1.723,1.723,0,0,1,.544.371Zm1.666-.375a1.877,1.877,0,0,1,.462-.318,1.339,1.339,0,0,1,.592-.123,1.287,1.287,0,0,1,.521.1,1.03,1.03,0,0,1,.38.28,1.231,1.231,0,0,1,.231.431,1.83,1.83,0,0,1,.079.551V0H13.16V-2.286a.773.773,0,0,0-.15-.509.563.563,0,0,0-.458-.18.9.9,0,0,0-.42.1,1.505,1.505,0,0,0-.371.276V0H10.9V-5.2h.865Zm3.892.056a2.338,2.338,0,0,1,.229-.2,1.448,1.448,0,0,1,.255-.158,1.432,1.432,0,0,1,.289-.1,1.447,1.447,0,0,1,.336-.037,1.287,1.287,0,0,1,.522.1,1.03,1.03,0,0,1,.38.28,1.231,1.231,0,0,1,.231.431,1.83,1.83,0,0,1,.079.551V0h-.865V-2.286a.773.773,0,0,0-.15-.509.563.563,0,0,0-.458-.18.9.9,0,0,0-.42.1,1.505,1.505,0,0,0-.371.276V0h-.865V-3.591h.528a.212.212,0,0,1,.22.158Zm4.729-.5a1.958,1.958,0,0,1,.726.13,1.591,1.591,0,0,1,.56.368,1.614,1.614,0,0,1,.359.581,2.21,2.21,0,0,1,.126.766,2.221,2.221,0,0,1-.126.77,1.649,1.649,0,0,1-.359.584,1.568,1.568,0,0,1-.56.371,1.958,1.958,0,0,1-.726.129,1.982,1.982,0,0,1-.732-.129,1.565,1.565,0,0,1-.562-.371,1.67,1.67,0,0,1-.361-.584A2.193,2.193,0,0,1,18.6-1.8a2.183,2.183,0,0,1,.128-.766,1.634,1.634,0,0,1,.361-.581,1.588,1.588,0,0,1,.562-.368A1.982,1.982,0,0,1,20.381-3.647Zm0,3.035a.76.76,0,0,0,.663-.3,1.509,1.509,0,0,0,.215-.882,1.526,1.526,0,0,0-.215-.885.757.757,0,0,0-.663-.3.772.772,0,0,0-.674.306,1.509,1.509,0,0,0-.219.884,1.492,1.492,0,0,0,.219.88A.776.776,0,0,0,20.381-.613ZM23.688-5.2V0h-.865V-5.2Zm2.453,1.554a1.958,1.958,0,0,1,.726.13,1.591,1.591,0,0,1,.56.368,1.614,1.614,0,0,1,.359.581,2.21,2.21,0,0,1,.126.766,2.221,2.221,0,0,1-.126.77,1.649,1.649,0,0,1-.359.584,1.568,1.568,0,0,1-.56.371,1.958,1.958,0,0,1-.726.129,1.982,1.982,0,0,1-.731-.129,1.565,1.565,0,0,1-.562-.371,1.67,1.67,0,0,1-.361-.584,2.193,2.193,0,0,1-.128-.77,2.183,2.183,0,0,1,.128-.766,1.634,1.634,0,0,1,.361-.581,1.588,1.588,0,0,1,.562-.368A1.982,1.982,0,0,1,26.141-3.647Zm0,3.035a.76.76,0,0,0,.663-.3A1.509,1.509,0,0,0,27.02-1.8a1.526,1.526,0,0,0-.215-.885.757.757,0,0,0-.663-.3.772.772,0,0,0-.674.306,1.509,1.509,0,0,0-.219.884,1.492,1.492,0,0,0,.219.88A.776.776,0,0,0,26.141-.613Zm3.717-1.27a.811.811,0,0,0,.28-.044.549.549,0,0,0,.2-.121.5.5,0,0,0,.119-.186.679.679,0,0,0,.04-.238.563.563,0,0,0-.159-.422.658.658,0,0,0-.478-.156.658.658,0,0,0-.478.156.563.563,0,0,0-.159.422.669.669,0,0,0,.04.234.514.514,0,0,0,.119.187.535.535,0,0,0,.2.123A.815.815,0,0,0,29.858-1.883ZM30.835.161a.239.239,0,0,0-.063-.171.414.414,0,0,0-.171-.1,1.269,1.269,0,0,0-.254-.054q-.145-.018-.308-.026L29.7-.21q-.173-.007-.338-.028a.809.809,0,0,0-.233.189A.385.385,0,0,0,29.043.2.349.349,0,0,0,29.09.38a.394.394,0,0,0,.15.142.894.894,0,0,0,.268.093,2.07,2.07,0,0,0,.4.033,2.053,2.053,0,0,0,.417-.037,1,1,0,0,0,.289-.1.437.437,0,0,0,.166-.154A.376.376,0,0,0,30.835.161ZM31.7-3.468v.322q0,.154-.185.189l-.322.059a1.093,1.093,0,0,1,.073.406,1.068,1.068,0,0,1-.107.481,1.07,1.07,0,0,1-.3.366,1.386,1.386,0,0,1-.446.233,1.812,1.812,0,0,1-.555.082,1.905,1.905,0,0,1-.2-.011q-.1-.011-.192-.028-.168.1-.168.227a.168.168,0,0,0,.1.159.818.818,0,0,0,.264.072,3.719,3.719,0,0,0,.374.026q.21.005.431.023a3.445,3.445,0,0,1,.431.061,1.264,1.264,0,0,1,.375.138.735.735,0,0,1,.264.257.79.79,0,0,1,.1.418.985.985,0,0,1-.117.462,1.241,1.241,0,0,1-.339.4,1.77,1.77,0,0,1-.546.282,2.349,2.349,0,0,1-.737.107,2.813,2.813,0,0,1-.707-.079,1.683,1.683,0,0,1-.5-.21.906.906,0,0,1-.3-.3.71.71,0,0,1-.1-.357.608.608,0,0,1,.152-.422,1.054,1.054,0,0,1,.418-.271.6.6,0,0,1-.228-.2A.559.559,0,0,1,28.549-.9a.506.506,0,0,1,.03-.166.712.712,0,0,1,.087-.17.836.836,0,0,1,.145-.159,1,1,0,0,1,.206-.135,1.133,1.133,0,0,1-.429-.392,1.047,1.047,0,0,1-.156-.574,1.068,1.068,0,0,1,.107-.481,1.078,1.078,0,0,1,.3-.368,1.357,1.357,0,0,1,.451-.233,1.92,1.92,0,0,1,.569-.08,1.911,1.911,0,0,1,.434.047,1.479,1.479,0,0,1,.371.138ZM35.5-3.591,33.548.987a.334.334,0,0,1-.1.138.305.305,0,0,1-.187.047h-.644l.672-1.442L31.836-3.591h.76a.238.238,0,0,1,.159.049.313.313,0,0,1,.086.112L33.6-1.568a1.722,1.722,0,0,1,.065.189q.026.094.051.192l.063-.194q.031-.1.07-.191l.721-1.859a.255.255,0,0,1,.093-.115.247.247,0,0,1,.145-.046Z" transform="translate(0 7)"/></g><g transform="translate(6.171 0)"><path d="M8.688-7.075v-4.75q0-.438.031-.944t.094-1.056L4-7.075Zm5.25,0V-4.9a.718.718,0,0,1-.194.5.715.715,0,0,1-.556.213H12.063V0H8.688V-4.187H1.362a1.053,1.053,0,0,1-.656-.225.955.955,0,0,1-.369-.562l-.4-1.912L8.363-18.212h3.7V-7.075ZM20.05-11.8a8.764,8.764,0,0,1,.988-.137q.475-.038.925-.038a6.831,6.831,0,0,1,2.538.438,5.35,5.35,0,0,1,1.85,1.194,4.957,4.957,0,0,1,1.131,1.775,6.173,6.173,0,0,1,.381,2.181,6.686,6.686,0,0,1-.519,2.669A6.2,6.2,0,0,1,25.9-1.637,6.487,6.487,0,0,1,23.694-.281,7.921,7.921,0,0,1,20.888.2,7.457,7.457,0,0,1,19.194.013a8.16,8.16,0,0,1-1.513-.506,8.092,8.092,0,0,1-1.306-.737,8.635,8.635,0,0,1-1.087-.894l1.2-1.6a1.3,1.3,0,0,1,.438-.381,1.139,1.139,0,0,1,.538-.131,1.314,1.314,0,0,1,.706.206l.725.45a5.394,5.394,0,0,0,.919.444,3.675,3.675,0,0,0,1.3.2,3.119,3.119,0,0,0,1.325-.256,2.378,2.378,0,0,0,.894-.7,2.862,2.862,0,0,0,.5-1.037A4.969,4.969,0,0,0,23.987-6.2a2.615,2.615,0,0,0-.75-2.019,3.015,3.015,0,0,0-2.125-.694,6.5,6.5,0,0,0-2.4.463l-2.4-.65,1.55-9.113h9.325v1.6a2.005,2.005,0,0,1-.125.725,1.475,1.475,0,0,1-.394.569,1.807,1.807,0,0,1-.706.375,3.683,3.683,0,0,1-1.05.131h-4.35Zm18.525-2a4.488,4.488,0,0,1-.362,1.825,4.543,4.543,0,0,1-.963,1.419,4.25,4.25,0,0,1-1.394.919,4.33,4.33,0,0,1-1.656.325,4.559,4.559,0,0,1-1.744-.325,4.046,4.046,0,0,1-1.375-.919,4.2,4.2,0,0,1-.906-1.419A4.939,4.939,0,0,1,29.85-13.8a5.2,5.2,0,0,1,.325-1.881,4.233,4.233,0,0,1,.906-1.444,4.078,4.078,0,0,1,1.375-.931,4.484,4.484,0,0,1,1.744-.331,4.577,4.577,0,0,1,1.756.331,4.049,4.049,0,0,1,1.388.931,4.233,4.233,0,0,1,.906,1.444A5.2,5.2,0,0,1,38.575-13.8Zm-2.975,0a4.39,4.39,0,0,0-.106-1.056,1.88,1.88,0,0,0-.294-.669,1.015,1.015,0,0,0-.444-.35,1.517,1.517,0,0,0-.556-.1,1.468,1.468,0,0,0-.55.1.947.947,0,0,0-.425.35,1.959,1.959,0,0,0-.275.669,4.654,4.654,0,0,0-.1,1.056,4.207,4.207,0,0,0,.1,1,1.813,1.813,0,0,0,.275.638.973.973,0,0,0,.425.337,1.468,1.468,0,0,0,.55.1,1.517,1.517,0,0,0,.556-.1,1.047,1.047,0,0,0,.444-.337,1.744,1.744,0,0,0,.294-.638A3.97,3.97,0,0,0,35.6-13.8Zm8.7-3.838a2.3,2.3,0,0,1,.463-.394,1.376,1.376,0,0,1,.763-.181H48.35L34.625-.55a1.544,1.544,0,0,1-.469.394A1.384,1.384,0,0,1,33.475,0h-2.9ZM49.05-4.275a4.532,4.532,0,0,1-.362,1.831,4.523,4.523,0,0,1-.963,1.425A4.25,4.25,0,0,1,46.331-.1a4.33,4.33,0,0,1-1.656.325A4.559,4.559,0,0,1,42.931-.1a4.046,4.046,0,0,1-1.375-.919,4.191,4.191,0,0,1-.906-1.425,4.988,4.988,0,0,1-.325-1.831,5.2,5.2,0,0,1,.325-1.881A4.233,4.233,0,0,1,41.556-7.6a4.078,4.078,0,0,1,1.375-.931,4.484,4.484,0,0,1,1.744-.331,4.577,4.577,0,0,1,1.756.331,4.049,4.049,0,0,1,1.387.931,4.233,4.233,0,0,1,.906,1.444A5.2,5.2,0,0,1,49.05-4.275Zm-2.975,0a4.326,4.326,0,0,0-.106-1.044,1.88,1.88,0,0,0-.294-.669,1.015,1.015,0,0,0-.444-.35,1.517,1.517,0,0,0-.556-.1,1.468,1.468,0,0,0-.55.1.947.947,0,0,0-.425.35,1.959,1.959,0,0,0-.275.669,4.586,4.586,0,0,0-.1,1.044,4.207,4.207,0,0,0,.1,1,1.813,1.813,0,0,0,.275.637.973.973,0,0,0,.425.338,1.468,1.468,0,0,0,.55.1,1.517,1.517,0,0,0,.556-.1,1.047,1.047,0,0,0,.444-.338,1.744,1.744,0,0,0,.294-.637A3.969,3.969,0,0,0,46.075-4.275Z" transform="translate(0 25)"/></g></g><g transform="translate(159.17 429.698)"><g transform="translate(43.065 29.919)"><path d="M4.189-5.323a.418.418,0,0,1-.115.137.255.255,0,0,1-.151.043.389.389,0,0,1-.2-.07q-.11-.07-.263-.155A2.168,2.168,0,0,0,3.1-5.524a1.5,1.5,0,0,0-.484-.07,1.444,1.444,0,0,0-.441.061.926.926,0,0,0-.317.169.674.674,0,0,0-.191.259.849.849,0,0,0-.063.331.575.575,0,0,0,.128.382,1.071,1.071,0,0,0,.34.261,3.153,3.153,0,0,0,.481.194q.27.085.554.182a5.213,5.213,0,0,1,.554.225,1.91,1.91,0,0,1,.481.324,1.468,1.468,0,0,1,.34.479,1.664,1.664,0,0,1,.128.688,2.243,2.243,0,0,1-.151.826,1.905,1.905,0,0,1-.441.67,2.077,2.077,0,0,1-.709.45,2.609,2.609,0,0,1-.959.164A3.091,3.091,0,0,1,1.737.011a3.222,3.222,0,0,1-.578-.173,3.1,3.1,0,0,1-.52-.27A2.506,2.506,0,0,1,.207-.783l.355-.581a.379.379,0,0,1,.117-.106.3.3,0,0,1,.153-.043.429.429,0,0,1,.243.092q.131.092.311.2a2.444,2.444,0,0,0,.421.2,1.618,1.618,0,0,0,.578.092,1.187,1.187,0,0,0,.8-.245.881.881,0,0,0,.283-.7.654.654,0,0,0-.128-.419A1.035,1.035,0,0,0,3-2.558a2.537,2.537,0,0,0-.481-.187q-.27-.076-.549-.166a4.734,4.734,0,0,1-.549-.216,1.779,1.779,0,0,1-.482-.329A1.5,1.5,0,0,1,.6-3.962a1.929,1.929,0,0,1-.128-.749A1.774,1.774,0,0,1,.614-5.4,1.789,1.789,0,0,1,1.026-6a2.017,2.017,0,0,1,.666-.419A2.446,2.446,0,0,1,2.6-6.579a3.035,3.035,0,0,1,1.062.18,2.4,2.4,0,0,1,.828.5ZM8.446-2.839a1.338,1.338,0,0,0-.061-.407A.968.968,0,0,0,8.2-3.582.848.848,0,0,0,7.9-3.809a1.058,1.058,0,0,0-.434-.083,1.029,1.029,0,0,0-.758.274,1.346,1.346,0,0,0-.353.779Zm-2.12.671a2.187,2.187,0,0,0,.126.614,1.256,1.256,0,0,0,.261.428A1.022,1.022,0,0,0,7.1-.875a1.4,1.4,0,0,0,.493.083,1.528,1.528,0,0,0,.466-.063A2.184,2.184,0,0,0,8.4-.994q.146-.077.257-.14A.43.43,0,0,1,8.869-1.2a.23.23,0,0,1,.207.1L9.4-.688a1.852,1.852,0,0,1-.414.362A2.322,2.322,0,0,1,8.5-.092a2.619,2.619,0,0,1-.508.124,3.641,3.641,0,0,1-.5.036,2.466,2.466,0,0,1-.9-.16,2,2,0,0,1-.72-.472A2.217,2.217,0,0,1,5.4-1.339,3,3,0,0,1,5.22-2.408,2.556,2.556,0,0,1,5.373-3.3a2.137,2.137,0,0,1,.439-.724,2.066,2.066,0,0,1,.7-.488,2.3,2.3,0,0,1,.929-.18,2.26,2.26,0,0,1,.805.14,1.755,1.755,0,0,1,.635.407,1.886,1.886,0,0,1,.416.657,2.448,2.448,0,0,1,.151.889.722.722,0,0,1-.054.34.224.224,0,0,1-.207.088Zm7.259-1.472a.554.554,0,0,1-.1.1.223.223,0,0,1-.137.036.306.306,0,0,1-.166-.052q-.081-.052-.194-.117a1.447,1.447,0,0,0-.268-.117,1.23,1.23,0,0,0-.385-.052,1.174,1.174,0,0,0-.513.106.972.972,0,0,0-.367.3,1.369,1.369,0,0,0-.218.479,2.573,2.573,0,0,0-.072.637,2.5,2.5,0,0,0,.079.657,1.4,1.4,0,0,0,.227.484.978.978,0,0,0,.36.3,1.091,1.091,0,0,0,.477.1,1.183,1.183,0,0,0,.43-.065,1.356,1.356,0,0,0,.277-.144q.112-.079.2-.144A.3.3,0,0,1,13.4-1.2a.226.226,0,0,1,.2.1l.319.405a2.009,2.009,0,0,1-.4.362,2.165,2.165,0,0,1-.448.234A2.277,2.277,0,0,1,12.6.032a3.358,3.358,0,0,1-.488.036,2.048,2.048,0,0,1-.806-.16,1.9,1.9,0,0,1-.661-.466,2.224,2.224,0,0,1-.448-.749,2.9,2.9,0,0,1-.164-1.01,2.936,2.936,0,0,1,.146-.943,2.136,2.136,0,0,1,.43-.752,1.97,1.97,0,0,1,.7-.5,2.418,2.418,0,0,1,.963-.18,2.291,2.291,0,0,1,.907.167,2.216,2.216,0,0,1,.7.477Zm5.009-.977V0h-.68a.262.262,0,0,1-.279-.2l-.076-.369a2.48,2.48,0,0,1-.625.466,1.724,1.724,0,0,1-.806.178,1.639,1.639,0,0,1-.668-.128,1.338,1.338,0,0,1-.488-.362,1.586,1.586,0,0,1-.3-.556,2.352,2.352,0,0,1-.1-.709V-4.617h1.112v2.934a.986.986,0,0,0,.2.655.726.726,0,0,0,.587.232,1.174,1.174,0,0,0,.54-.128,1.888,1.888,0,0,0,.477-.353V-4.617Zm2.146.8a1.991,1.991,0,0,1,.513-.65,1.094,1.094,0,0,1,.7-.236.859.859,0,0,1,.513.139L22.4-3.73a.215.215,0,0,1-.065.115.18.18,0,0,1-.115.034,1.311,1.311,0,0,1-.2-.023,1.547,1.547,0,0,0-.259-.022.931.931,0,0,0-.329.054.826.826,0,0,0-.259.155,1.058,1.058,0,0,0-.2.245,2.393,2.393,0,0,0-.164.328V0H19.692V-4.617h.653a.359.359,0,0,1,.239.061.357.357,0,0,1,.09.218Zm3.461-.8V0H23.085V-4.617Zm.153-1.345a.633.633,0,0,1-.059.27.742.742,0,0,1-.155.221.742.742,0,0,1-.227.151.7.7,0,0,1-.279.056.67.67,0,0,1-.272-.056.721.721,0,0,1-.223-.151.729.729,0,0,1-.151-.221.655.655,0,0,1-.056-.27.7.7,0,0,1,.056-.279.714.714,0,0,1,.151-.225.721.721,0,0,1,.223-.151.67.67,0,0,1,.272-.056.7.7,0,0,1,.279.056.742.742,0,0,1,.227.151.726.726,0,0,1,.155.225A.674.674,0,0,1,24.354-5.963ZM26.874.072a1.213,1.213,0,0,1-.925-.34,1.31,1.31,0,0,1-.322-.938V-3.785h-.472A.217.217,0,0,1,25-3.843a.228.228,0,0,1-.063-.175v-.441l.743-.122.234-1.26A.247.247,0,0,1,26-5.981a.254.254,0,0,1,.162-.049h.576v1.454h1.233v.792H26.739v2.5a.5.5,0,0,0,.106.338.365.365,0,0,0,.29.122.523.523,0,0,0,.173-.025A.954.954,0,0,0,27.43-.9q.052-.027.092-.052A.154.154,0,0,1,27.6-.976a.127.127,0,0,1,.081.025.375.375,0,0,1,.067.074l.333.54a1.683,1.683,0,0,1-.558.306A2.077,2.077,0,0,1,26.874.072Zm6-4.689L30.361,1.269a.429.429,0,0,1-.128.178.392.392,0,0,1-.241.061h-.828l.864-1.854L28.161-4.617h.976a.307.307,0,0,1,.2.063.4.4,0,0,1,.11.144l.981,2.394a2.215,2.215,0,0,1,.083.243q.034.121.065.248l.081-.25q.041-.124.09-.245L31.68-4.41a.328.328,0,0,1,.119-.149.317.317,0,0,1,.187-.058Z" transform="translate(0 9)"/></g><g transform="translate(40.002)"><path d="M13.137-2.8V0H2.763V-2.8h3.5v-9.187q0-.35.012-.706t.038-.719L4.237-11.687a1.218,1.218,0,0,1-.544.256,1.474,1.474,0,0,1-.506,0,1.188,1.188,0,0,1-.425-.163.951.951,0,0,1-.275-.244L1.263-13.463l5.675-4.762h3.2V-2.8ZM15.6-13.012a6.838,6.838,0,0,1,.769-2.375,5.716,5.716,0,0,1,1.413-1.688,5.731,5.731,0,0,1,1.931-1.006,7.984,7.984,0,0,1,2.337-.331,7.007,7.007,0,0,1,2.4.381A5.369,5.369,0,0,1,26.225-17a4.352,4.352,0,0,1,1.1,1.506,4.454,4.454,0,0,1,.375,1.806,5.921,5.921,0,0,1-.175,1.519,3.48,3.48,0,0,1-.519,1.137,3.16,3.16,0,0,1-.85.813A5.222,5.222,0,0,1,25-9.663a4.064,4.064,0,0,1,3.025,4.125A5.693,5.693,0,0,1,27.5-3.013a5.192,5.192,0,0,1-1.406,1.788A6.017,6.017,0,0,1,24.05-.156,8.23,8.23,0,0,1,21.625.2a8.658,8.658,0,0,1-2.312-.281,5.325,5.325,0,0,1-1.8-.875,5.8,5.8,0,0,1-1.381-1.519,10.187,10.187,0,0,1-1.031-2.2l1.725-.7a2.153,2.153,0,0,1,1.25-.138,1.172,1.172,0,0,1,.825.575,4.538,4.538,0,0,0,1.194,1.506,2.416,2.416,0,0,0,1.481.469,2.713,2.713,0,0,0,1.131-.219,2.465,2.465,0,0,0,.8-.562,2.333,2.333,0,0,0,.481-.781,2.531,2.531,0,0,0,.163-.888,6.22,6.22,0,0,0-.081-1.056,1.379,1.379,0,0,0-.456-.806,2.579,2.579,0,0,0-1.131-.519,9.5,9.5,0,0,0-2.106-.181V-10.65a7.824,7.824,0,0,0,1.837-.175,2.81,2.81,0,0,0,1.081-.481,1.452,1.452,0,0,0,.506-.744,3.5,3.5,0,0,0,.125-.962,2.406,2.406,0,0,0-.519-1.656,2.012,2.012,0,0,0-1.581-.581,2.319,2.319,0,0,0-1.456.456,2.337,2.337,0,0,0-.819,1.131,1.629,1.629,0,0,1-.687.913,1.967,1.967,0,0,1-1.212.1ZM38.575-13.8a4.488,4.488,0,0,1-.362,1.825,4.543,4.543,0,0,1-.963,1.419,4.25,4.25,0,0,1-1.394.919,4.33,4.33,0,0,1-1.656.325,4.559,4.559,0,0,1-1.744-.325,4.046,4.046,0,0,1-1.375-.919,4.2,4.2,0,0,1-.906-1.419A4.939,4.939,0,0,1,29.85-13.8a5.2,5.2,0,0,1,.325-1.881,4.233,4.233,0,0,1,.906-1.444,4.078,4.078,0,0,1,1.375-.931,4.484,4.484,0,0,1,1.744-.331,4.577,4.577,0,0,1,1.756.331,4.049,4.049,0,0,1,1.388.931,4.233,4.233,0,0,1,.906,1.444A5.2,5.2,0,0,1,38.575-13.8Zm-2.975,0a4.39,4.39,0,0,0-.106-1.056,1.88,1.88,0,0,0-.294-.669,1.015,1.015,0,0,0-.444-.35,1.517,1.517,0,0,0-.556-.1,1.468,1.468,0,0,0-.55.1.947.947,0,0,0-.425.35,1.959,1.959,0,0,0-.275.669,4.654,4.654,0,0,0-.1,1.056,4.207,4.207,0,0,0,.1,1,1.813,1.813,0,0,0,.275.638.973.973,0,0,0,.425.337,1.468,1.468,0,0,0,.55.1,1.517,1.517,0,0,0,.556-.1,1.047,1.047,0,0,0,.444-.337,1.744,1.744,0,0,0,.294-.638A3.97,3.97,0,0,0,35.6-13.8Zm8.7-3.838a2.3,2.3,0,0,1,.463-.394,1.376,1.376,0,0,1,.763-.181H48.35L34.625-.55a1.544,1.544,0,0,1-.469.394A1.384,1.384,0,0,1,33.475,0h-2.9ZM49.05-4.275a4.532,4.532,0,0,1-.362,1.831,4.523,4.523,0,0,1-.963,1.425A4.25,4.25,0,0,1,46.331-.1a4.33,4.33,0,0,1-1.656.325A4.559,4.559,0,0,1,42.931-.1a4.046,4.046,0,0,1-1.375-.919,4.191,4.191,0,0,1-.906-1.425,4.988,4.988,0,0,1-.325-1.831,5.2,5.2,0,0,1,.325-1.881A4.233,4.233,0,0,1,41.556-7.6a4.078,4.078,0,0,1,1.375-.931,4.484,4.484,0,0,1,1.744-.331,4.577,4.577,0,0,1,1.756.331,4.049,4.049,0,0,1,1.387.931,4.233,4.233,0,0,1,.906,1.444A5.2,5.2,0,0,1,49.05-4.275Zm-2.975,0a4.326,4.326,0,0,0-.106-1.044,1.88,1.88,0,0,0-.294-.669,1.015,1.015,0,0,0-.444-.35,1.517,1.517,0,0,0-.556-.1,1.468,1.468,0,0,0-.55.1.947.947,0,0,0-.425.35,1.959,1.959,0,0,0-.275.669,4.586,4.586,0,0,0-.1,1.044,4.207,4.207,0,0,0,.1,1,1.813,1.813,0,0,0,.275.637.973.973,0,0,0,.425.338,1.468,1.468,0,0,0,.55.1,1.517,1.517,0,0,0,.556-.1,1.047,1.047,0,0,0,.444-.338,1.744,1.744,0,0,0,.294-.637A3.969,3.969,0,0,0,46.075-4.275Z" transform="translate(0 25)"/></g></g><g transform="translate(289.077 -15.444)"><g transform="translate(41.304 4.595)"><path d="M3.523-2.839a1.338,1.338,0,0,0-.061-.407.968.968,0,0,0-.182-.335.848.848,0,0,0-.308-.227,1.058,1.058,0,0,0-.434-.083,1.029,1.029,0,0,0-.758.274,1.346,1.346,0,0,0-.353.779ZM1.4-2.169a2.187,2.187,0,0,0,.126.614,1.256,1.256,0,0,0,.261.428,1.022,1.022,0,0,0,.385.252,1.4,1.4,0,0,0,.493.083,1.528,1.528,0,0,0,.466-.063,2.184,2.184,0,0,0,.342-.139q.146-.077.257-.14A.43.43,0,0,1,3.946-1.2a.23.23,0,0,1,.207.1l.319.405a1.852,1.852,0,0,1-.414.362,2.322,2.322,0,0,1-.479.234,2.619,2.619,0,0,1-.508.124,3.641,3.641,0,0,1-.5.036,2.466,2.466,0,0,1-.9-.16,2,2,0,0,1-.72-.472,2.217,2.217,0,0,1-.481-.774A3,3,0,0,1,.3-2.408,2.556,2.556,0,0,1,.45-3.3a2.137,2.137,0,0,1,.439-.724,2.066,2.066,0,0,1,.7-.488,2.3,2.3,0,0,1,.929-.18,2.26,2.26,0,0,1,.805.14,1.755,1.755,0,0,1,.635.407,1.886,1.886,0,0,1,.416.657,2.448,2.448,0,0,1,.151.889.722.722,0,0,1-.054.34.224.224,0,0,1-.207.088ZM5.319-3.181H7.65v.927H5.319ZM15.944-6.507V0H14.877V-4.2q0-.252.027-.544L12.938-1.053a.455.455,0,0,1-.427.266h-.171a.455.455,0,0,1-.427-.266L9.923-4.761q.013.148.022.293t.009.265V0H8.887V-6.507H9.8q.081,0,.139,0a.377.377,0,0,1,.106.022.23.23,0,0,1,.085.059.5.5,0,0,1,.074.108L12.155-2.7q.076.144.142.3t.128.315q.063-.167.13-.322t.144-.3l1.921-3.6a.454.454,0,0,1,.077-.108.25.25,0,0,1,.088-.059.377.377,0,0,1,.106-.022q.059,0,.14,0ZM19.12-4.689a2.517,2.517,0,0,1,.934.167,2.046,2.046,0,0,1,.72.473,2.075,2.075,0,0,1,.461.747,2.841,2.841,0,0,1,.162.986,2.855,2.855,0,0,1-.162.99,2.121,2.121,0,0,1-.461.751,2.016,2.016,0,0,1-.72.477,2.517,2.517,0,0,1-.934.166A2.548,2.548,0,0,1,18.18-.1a2.012,2.012,0,0,1-.722-.477,2.147,2.147,0,0,1-.464-.751,2.82,2.82,0,0,1-.164-.99,2.806,2.806,0,0,1,.164-.986,2.1,2.1,0,0,1,.464-.747,2.041,2.041,0,0,1,.722-.473A2.548,2.548,0,0,1,19.12-4.689Zm0,3.9a.978.978,0,0,0,.853-.387,1.94,1.94,0,0,0,.277-1.134,1.963,1.963,0,0,0-.277-1.138.973.973,0,0,0-.853-.392.993.993,0,0,0-.866.394,1.94,1.94,0,0,0-.281,1.136,1.918,1.918,0,0,0,.281,1.132A1,1,0,0,0,19.12-.787ZM23.287-4.05a3.007,3.007,0,0,1,.295-.259,1.862,1.862,0,0,1,.329-.2,1.841,1.841,0,0,1,.371-.13,1.86,1.86,0,0,1,.432-.047,1.655,1.655,0,0,1,.67.128,1.325,1.325,0,0,1,.488.36,1.582,1.582,0,0,1,.3.553,2.352,2.352,0,0,1,.1.709V0H25.16V-2.938a.994.994,0,0,0-.194-.655.724.724,0,0,0-.59-.232,1.157,1.157,0,0,0-.54.131,1.935,1.935,0,0,0-.477.355V0H22.248V-4.617h.68a.273.273,0,0,1,.283.2ZM30.3-2.839a1.338,1.338,0,0,0-.061-.407.968.968,0,0,0-.182-.335.848.848,0,0,0-.308-.227,1.058,1.058,0,0,0-.434-.083,1.029,1.029,0,0,0-.758.274,1.346,1.346,0,0,0-.353.779Zm-2.12.671a2.187,2.187,0,0,0,.126.614,1.256,1.256,0,0,0,.261.428,1.022,1.022,0,0,0,.385.252,1.4,1.4,0,0,0,.493.083,1.528,1.528,0,0,0,.466-.063,2.184,2.184,0,0,0,.342-.139q.146-.077.257-.14a.43.43,0,0,1,.214-.063.23.23,0,0,1,.207.1l.319.405a1.852,1.852,0,0,1-.414.362,2.322,2.322,0,0,1-.479.234,2.619,2.619,0,0,1-.509.124,3.641,3.641,0,0,1-.5.036,2.466,2.466,0,0,1-.9-.16,2,2,0,0,1-.72-.472,2.217,2.217,0,0,1-.482-.774,3,3,0,0,1-.175-1.069,2.556,2.556,0,0,1,.153-.889,2.137,2.137,0,0,1,.439-.724,2.066,2.066,0,0,1,.7-.488,2.3,2.3,0,0,1,.929-.18,2.26,2.26,0,0,1,.805.14,1.755,1.755,0,0,1,.635.407,1.886,1.886,0,0,1,.416.657A2.448,2.448,0,0,1,31.3-2.6a.722.722,0,0,1-.054.34.224.224,0,0,1-.207.088Zm8.015-2.448L33.678,1.269a.43.43,0,0,1-.128.178.392.392,0,0,1-.241.061h-.828l.864-1.854L31.478-4.617h.977a.307.307,0,0,1,.2.063.4.4,0,0,1,.11.144l.981,2.394a2.216,2.216,0,0,1,.083.243q.034.121.065.248l.081-.25q.041-.124.09-.245L35-4.41a.328.328,0,0,1,.119-.149.317.317,0,0,1,.187-.058ZM6.5,7.747a3.519,3.519,0,0,1-.239,1.314,2.95,2.95,0,0,1-1.71,1.7A3.666,3.666,0,0,1,3.2,11H.725V4.493H3.2a3.635,3.635,0,0,1,1.35.241,3.043,3.043,0,0,1,1.04.671,2.994,2.994,0,0,1,.67,1.028A3.519,3.519,0,0,1,6.5,7.747Zm-1.242,0a3.03,3.03,0,0,0-.142-.961,1.991,1.991,0,0,0-.41-.72,1.787,1.787,0,0,0-.648-.452A2.222,2.222,0,0,0,3.2,5.456H1.939v4.581H3.2a2.222,2.222,0,0,0,.857-.157,1.787,1.787,0,0,0,.648-.452,1.991,1.991,0,0,0,.41-.72A3.03,3.03,0,0,0,5.26,7.747Zm5.049.414a1.338,1.338,0,0,0-.061-.407.968.968,0,0,0-.182-.335.848.848,0,0,0-.308-.227,1.058,1.058,0,0,0-.434-.083,1.029,1.029,0,0,0-.758.274,1.346,1.346,0,0,0-.353.778Zm-2.12.671a2.187,2.187,0,0,0,.126.614,1.256,1.256,0,0,0,.261.428,1.022,1.022,0,0,0,.385.252,1.4,1.4,0,0,0,.493.083,1.528,1.528,0,0,0,.466-.063,2.184,2.184,0,0,0,.342-.14q.146-.076.257-.139a.43.43,0,0,1,.214-.063.23.23,0,0,1,.207.1l.319.4a1.852,1.852,0,0,1-.414.362,2.322,2.322,0,0,1-.479.234,2.619,2.619,0,0,1-.508.124,3.641,3.641,0,0,1-.5.036,2.466,2.466,0,0,1-.9-.16,2,2,0,0,1-.72-.472,2.217,2.217,0,0,1-.482-.774,3,3,0,0,1-.175-1.069A2.556,2.556,0,0,1,7.236,7.7a2.137,2.137,0,0,1,.439-.724,2.066,2.066,0,0,1,.7-.488,2.3,2.3,0,0,1,.929-.18,2.26,2.26,0,0,1,.805.14,1.755,1.755,0,0,1,.635.407,1.886,1.886,0,0,1,.416.657,2.448,2.448,0,0,1,.151.889.722.722,0,0,1-.054.34.224.224,0,0,1-.207.088Zm8-2.448L14.355,11H13.347L11.516,6.383h.918a.355.355,0,0,1,.209.058.275.275,0,0,1,.11.149l.891,2.466q.072.216.126.423t.094.414q.045-.207.1-.414t.13-.423L15,6.59a.3.3,0,0,1,.113-.149.322.322,0,0,1,.193-.058Zm3.42,1.777a1.338,1.338,0,0,0-.061-.407.968.968,0,0,0-.182-.335.848.848,0,0,0-.308-.227,1.058,1.058,0,0,0-.434-.083,1.029,1.029,0,0,0-.758.274,1.346,1.346,0,0,0-.353.778Zm-2.12.671a2.187,2.187,0,0,0,.126.614,1.256,1.256,0,0,0,.261.428,1.022,1.022,0,0,0,.385.252,1.4,1.4,0,0,0,.493.083,1.528,1.528,0,0,0,.466-.063,2.184,2.184,0,0,0,.342-.14q.146-.076.257-.139a.43.43,0,0,1,.214-.063.23.23,0,0,1,.207.1l.319.4a1.852,1.852,0,0,1-.414.362,2.322,2.322,0,0,1-.479.234,2.619,2.619,0,0,1-.508.124,3.641,3.641,0,0,1-.5.036,2.466,2.466,0,0,1-.9-.16,2,2,0,0,1-.72-.472,2.217,2.217,0,0,1-.482-.774,3,3,0,0,1-.175-1.069,2.556,2.556,0,0,1,.153-.889,2.137,2.137,0,0,1,.439-.724,2.066,2.066,0,0,1,.7-.488,2.3,2.3,0,0,1,.929-.18,2.26,2.26,0,0,1,.806.14,1.755,1.755,0,0,1,.635.407,1.886,1.886,0,0,1,.416.657,2.448,2.448,0,0,1,.151.889.722.722,0,0,1-.054.34.224.224,0,0,1-.207.088Zm5.076-4.518V11H21.451V4.313Zm3.154,2a2.517,2.517,0,0,1,.934.167,2.046,2.046,0,0,1,.72.473,2.075,2.075,0,0,1,.461.747,3.092,3.092,0,0,1,0,1.976,2.121,2.121,0,0,1-.461.752,2.016,2.016,0,0,1-.72.477,2.517,2.517,0,0,1-.934.167,2.548,2.548,0,0,1-.94-.167,2.012,2.012,0,0,1-.722-.477,2.147,2.147,0,0,1-.464-.752,3.052,3.052,0,0,1,0-1.976,2.1,2.1,0,0,1,.464-.747,2.041,2.041,0,0,1,.722-.473A2.548,2.548,0,0,1,25.717,6.311Zm0,3.9a.978.978,0,0,0,.853-.387,1.94,1.94,0,0,0,.277-1.134,1.963,1.963,0,0,0-.277-1.138.973.973,0,0,0-.853-.392.993.993,0,0,0-.866.394,1.94,1.94,0,0,0-.281,1.136,1.918,1.918,0,0,0,.281,1.132A1,1,0,0,0,25.717,10.212Zm4.239-.41a1.094,1.094,0,0,0,.412.324,1.226,1.226,0,0,0,.484.095,1.062,1.062,0,0,0,.455-.095.891.891,0,0,0,.344-.288,1.425,1.425,0,0,0,.218-.488,2.79,2.79,0,0,0,.076-.7,3.086,3.086,0,0,0-.065-.686,1.326,1.326,0,0,0-.187-.457.738.738,0,0,0-.295-.256A.919.919,0,0,0,31,7.175a1.123,1.123,0,0,0-.59.146,1.789,1.789,0,0,0-.459.412ZM29.9,7.013a2.408,2.408,0,0,1,.644-.518,1.728,1.728,0,0,1,.846-.2,1.514,1.514,0,0,1,.691.157,1.55,1.55,0,0,1,.54.457,2.191,2.191,0,0,1,.351.738,3.713,3.713,0,0,1,.124,1.006,3.163,3.163,0,0,1-.139.958,2.345,2.345,0,0,1-.4.765,1.84,1.84,0,0,1-.625.506,1.82,1.82,0,0,1-.821.182,1.655,1.655,0,0,1-.662-.119,1.616,1.616,0,0,1-.49-.331v1.89H28.845V6.383h.68a.273.273,0,0,1,.283.2ZM33.957,11V6.383h.68a.273.273,0,0,1,.284.2l.072.342a2.629,2.629,0,0,1,.254-.247,1.633,1.633,0,0,1,.284-.194,1.535,1.535,0,0,1,.324-.128,1.442,1.442,0,0,1,.38-.047,1.078,1.078,0,0,1,.718.236,1.423,1.423,0,0,1,.421.628,1.409,1.409,0,0,1,.27-.394A1.476,1.476,0,0,1,38,6.514a1.636,1.636,0,0,1,.412-.153,1.978,1.978,0,0,1,.439-.049,1.843,1.843,0,0,1,.68.117,1.3,1.3,0,0,1,.5.342,1.507,1.507,0,0,1,.308.549,2.391,2.391,0,0,1,.106.743V11H39.33V8.062a.988.988,0,0,0-.194-.664.71.71,0,0,0-.567-.223.846.846,0,0,0-.317.058A.756.756,0,0,0,38,7.4a.77.77,0,0,0-.173.277,1.076,1.076,0,0,0-.063.383V11H36.644V8.062a1,1,0,0,0-.187-.675.691.691,0,0,0-.547-.212.9.9,0,0,0-.452.119,1.508,1.508,0,0,0-.389.326V11ZM44.469,8.16a1.338,1.338,0,0,0-.061-.407.968.968,0,0,0-.182-.335.847.847,0,0,0-.308-.227,1.058,1.058,0,0,0-.434-.083,1.029,1.029,0,0,0-.758.274,1.346,1.346,0,0,0-.353.778Zm-2.119.671a2.187,2.187,0,0,0,.126.614,1.256,1.256,0,0,0,.261.428,1.022,1.022,0,0,0,.385.252,1.4,1.4,0,0,0,.493.083,1.528,1.528,0,0,0,.466-.063,2.184,2.184,0,0,0,.342-.14q.146-.076.257-.139a.43.43,0,0,1,.214-.063.23.23,0,0,1,.207.1l.319.4a1.852,1.852,0,0,1-.414.362,2.322,2.322,0,0,1-.479.234,2.62,2.62,0,0,1-.508.124,3.641,3.641,0,0,1-.5.036,2.466,2.466,0,0,1-.9-.16,2,2,0,0,1-.72-.472,2.217,2.217,0,0,1-.481-.774,3,3,0,0,1-.175-1.069A2.556,2.556,0,0,1,41.4,7.7a2.137,2.137,0,0,1,.439-.724,2.066,2.066,0,0,1,.7-.488,2.3,2.3,0,0,1,.929-.18,2.26,2.26,0,0,1,.806.14,1.755,1.755,0,0,1,.635.407,1.886,1.886,0,0,1,.416.657,2.448,2.448,0,0,1,.151.889.722.722,0,0,1-.054.34.224.224,0,0,1-.207.088ZM47.34,6.95a3.006,3.006,0,0,1,.295-.259,1.862,1.862,0,0,1,.328-.2,1.841,1.841,0,0,1,.371-.13,1.86,1.86,0,0,1,.432-.047,1.655,1.655,0,0,1,.671.128,1.325,1.325,0,0,1,.488.36,1.583,1.583,0,0,1,.3.553,2.352,2.352,0,0,1,.1.709V11H49.212V8.062a.994.994,0,0,0-.194-.655.724.724,0,0,0-.589-.232,1.157,1.157,0,0,0-.54.13,1.935,1.935,0,0,0-.477.356V11H46.3V6.383h.68a.273.273,0,0,1,.284.2Zm5.513,4.122a1.213,1.213,0,0,1-.925-.34,1.31,1.31,0,0,1-.322-.938V7.215h-.472a.217.217,0,0,1-.153-.058.228.228,0,0,1-.063-.175V6.541l.743-.122.234-1.26a.247.247,0,0,1,.085-.14.254.254,0,0,1,.162-.049h.576V6.424h1.233v.792H52.717v2.5a.5.5,0,0,0,.106.338.365.365,0,0,0,.29.122.523.523,0,0,0,.173-.025.954.954,0,0,0,.121-.052q.052-.027.092-.052a.154.154,0,0,1,.081-.025.127.127,0,0,1,.081.025.375.375,0,0,1,.068.074l.333.54a1.683,1.683,0,0,1-.558.306A2.077,2.077,0,0,1,52.853,11.072Z" transform="translate(0 9)"/></g><g transform="translate(0 0)"><path d="M7.225-2.862a2.781,2.781,0,0,0,1.119-.225,2.706,2.706,0,0,0,.894-.619,2.961,2.961,0,0,0,.594-.925,3.007,3.007,0,0,0,.219-1.156,3.543,3.543,0,0,0-.206-1.25,2.556,2.556,0,0,0-.581-.925,2.516,2.516,0,0,0-.906-.575,3.33,3.33,0,0,0-1.181-.2A2.732,2.732,0,0,0,6.1-8.531a2.407,2.407,0,0,0-.844.594,2.783,2.783,0,0,0-.556.925A3.458,3.458,0,0,0,4.5-5.8a4.186,4.186,0,0,0,.162,1.212,2.481,2.481,0,0,0,.5.925,2.191,2.191,0,0,0,.85.594A3.239,3.239,0,0,0,7.225-2.862ZM6.6-11.213a5.565,5.565,0,0,1,1.95-.325,6.059,6.059,0,0,1,1.95.325,4.982,4.982,0,0,1,1.725,1,5.008,5.008,0,0,1,1.231,1.706,5.832,5.832,0,0,1,.469,2.431,6.244,6.244,0,0,1-.475,2.419,6.019,6.019,0,0,1-1.344,2A6.374,6.374,0,0,1,10.012-.3,7.114,7.114,0,0,1,7.3.2,7.369,7.369,0,0,1,4.563-.281,5.855,5.855,0,0,1,2.506-1.625,5.769,5.769,0,0,1,1.219-3.687,7.551,7.551,0,0,1,.775-6.325,9.141,9.141,0,0,1,2.85-11.788l4.1-5.538a2.33,2.33,0,0,1,.831-.625,2.827,2.827,0,0,1,1.244-.262h3.45l-5.4,6.45ZM24.075-13.8a4.488,4.488,0,0,1-.363,1.825,4.543,4.543,0,0,1-.962,1.419,4.25,4.25,0,0,1-1.394.919,4.33,4.33,0,0,1-1.656.325,4.559,4.559,0,0,1-1.744-.325,4.046,4.046,0,0,1-1.375-.919,4.2,4.2,0,0,1-.906-1.419A4.939,4.939,0,0,1,15.35-13.8a5.2,5.2,0,0,1,.325-1.881,4.233,4.233,0,0,1,.906-1.444,4.078,4.078,0,0,1,1.375-.931,4.484,4.484,0,0,1,1.744-.331,4.577,4.577,0,0,1,1.756.331,4.049,4.049,0,0,1,1.388.931,4.233,4.233,0,0,1,.906,1.444A5.2,5.2,0,0,1,24.075-13.8Zm-2.975,0a4.39,4.39,0,0,0-.106-1.056,1.88,1.88,0,0,0-.294-.669,1.015,1.015,0,0,0-.444-.35,1.517,1.517,0,0,0-.556-.1,1.468,1.468,0,0,0-.55.1.947.947,0,0,0-.425.35,1.959,1.959,0,0,0-.275.669,4.654,4.654,0,0,0-.1,1.056,4.207,4.207,0,0,0,.1,1,1.812,1.812,0,0,0,.275.638.973.973,0,0,0,.425.337,1.468,1.468,0,0,0,.55.1,1.517,1.517,0,0,0,.556-.1,1.047,1.047,0,0,0,.444-.337,1.744,1.744,0,0,0,.294-.638A3.97,3.97,0,0,0,21.1-13.8Zm8.7-3.838a2.3,2.3,0,0,1,.463-.394,1.376,1.376,0,0,1,.762-.181H33.85L20.125-.55a1.544,1.544,0,0,1-.469.394A1.384,1.384,0,0,1,18.975,0h-2.9ZM34.55-4.275a4.532,4.532,0,0,1-.362,1.831,4.523,4.523,0,0,1-.963,1.425A4.25,4.25,0,0,1,31.831-.1a4.33,4.33,0,0,1-1.656.325A4.559,4.559,0,0,1,28.431-.1a4.046,4.046,0,0,1-1.375-.919,4.191,4.191,0,0,1-.906-1.425,4.988,4.988,0,0,1-.325-1.831,5.2,5.2,0,0,1,.325-1.881A4.233,4.233,0,0,1,27.056-7.6a4.078,4.078,0,0,1,1.375-.931,4.484,4.484,0,0,1,1.744-.331,4.577,4.577,0,0,1,1.756.331,4.049,4.049,0,0,1,1.387.931,4.233,4.233,0,0,1,.906,1.444A5.2,5.2,0,0,1,34.55-4.275Zm-2.975,0a4.326,4.326,0,0,0-.106-1.044,1.88,1.88,0,0,0-.294-.669,1.015,1.015,0,0,0-.444-.35,1.517,1.517,0,0,0-.556-.1,1.468,1.468,0,0,0-.55.1.947.947,0,0,0-.425.35,1.959,1.959,0,0,0-.275.669,4.586,4.586,0,0,0-.1,1.044,4.207,4.207,0,0,0,.1,1,1.813,1.813,0,0,0,.275.637.973.973,0,0,0,.425.338,1.468,1.468,0,0,0,.55.1,1.517,1.517,0,0,0,.556-.1,1.047,1.047,0,0,0,.444-.338,1.744,1.744,0,0,0,.294-.637A3.97,3.97,0,0,0,31.575-4.275Z" transform="translate(0 25)"/></g></g><g transform="translate(381.728 24.935)"><g transform="translate(41.517 9.705)"><path d="M3.528-.777V0H.563V-5.061H1.5V-.777ZM4.959-3.591V0H4.091V-3.591Zm.119-1.047a.493.493,0,0,1-.045.21.577.577,0,0,1-.121.171.577.577,0,0,1-.177.117.542.542,0,0,1-.217.044.521.521,0,0,1-.212-.044.561.561,0,0,1-.173-.117.567.567,0,0,1-.117-.171.509.509,0,0,1-.044-.21.542.542,0,0,1,.044-.217.555.555,0,0,1,.117-.175.561.561,0,0,1,.173-.117.521.521,0,0,1,.212-.044.542.542,0,0,1,.217.044.577.577,0,0,1,.177.117.565.565,0,0,1,.121.175A.524.524,0,0,1,5.078-4.638ZM8.414-2.832a.431.431,0,0,1-.075.077.174.174,0,0,1-.107.028.238.238,0,0,1-.13-.04q-.063-.04-.15-.091a1.125,1.125,0,0,0-.208-.091.957.957,0,0,0-.3-.04.913.913,0,0,0-.4.082.756.756,0,0,0-.285.236,1.065,1.065,0,0,0-.17.373,2,2,0,0,0-.056.5,1.942,1.942,0,0,0,.061.511,1.093,1.093,0,0,0,.177.376.761.761,0,0,0,.28.231.849.849,0,0,0,.371.079.92.92,0,0,0,.334-.051,1.055,1.055,0,0,0,.215-.112q.088-.061.152-.112a.23.23,0,0,1,.145-.051.176.176,0,0,1,.158.081l.248.315a1.563,1.563,0,0,1-.312.282,1.684,1.684,0,0,1-.348.182,1.771,1.771,0,0,1-.371.1,2.612,2.612,0,0,1-.38.028A1.593,1.593,0,0,1,6.64-.072a1.48,1.48,0,0,1-.515-.362,1.73,1.73,0,0,1-.348-.583A2.252,2.252,0,0,1,5.649-1.8a2.284,2.284,0,0,1,.114-.733A1.661,1.661,0,0,1,6.1-3.12a1.532,1.532,0,0,1,.546-.387,1.881,1.881,0,0,1,.749-.14,1.782,1.782,0,0,1,.705.13,1.723,1.723,0,0,1,.544.371Zm3.052.623a1.04,1.04,0,0,0-.047-.317.753.753,0,0,0-.142-.261.659.659,0,0,0-.24-.177.823.823,0,0,0-.338-.065.8.8,0,0,0-.59.214,1.047,1.047,0,0,0-.275.606Zm-1.648.521a1.7,1.7,0,0,0,.1.478.977.977,0,0,0,.2.332.8.8,0,0,0,.3.2,1.087,1.087,0,0,0,.383.065,1.188,1.188,0,0,0,.362-.049,1.7,1.7,0,0,0,.266-.109q.114-.059.2-.109A.335.335,0,0,1,11.8-.931a.179.179,0,0,1,.161.081l.248.315a1.441,1.441,0,0,1-.322.282,1.806,1.806,0,0,1-.373.182,2.037,2.037,0,0,1-.4.1,2.832,2.832,0,0,1-.39.028,1.918,1.918,0,0,1-.7-.124,1.559,1.559,0,0,1-.56-.367,1.724,1.724,0,0,1-.374-.6,2.33,2.33,0,0,1-.137-.831,1.988,1.988,0,0,1,.119-.691,1.662,1.662,0,0,1,.341-.563,1.607,1.607,0,0,1,.543-.38,1.787,1.787,0,0,1,.723-.14,1.758,1.758,0,0,1,.627.109,1.365,1.365,0,0,1,.493.317,1.467,1.467,0,0,1,.324.511,1.9,1.9,0,0,1,.117.691.561.561,0,0,1-.042.264.174.174,0,0,1-.161.068ZM13.7-3.15a2.338,2.338,0,0,1,.229-.2,1.448,1.448,0,0,1,.255-.158,1.432,1.432,0,0,1,.289-.1,1.447,1.447,0,0,1,.336-.037,1.287,1.287,0,0,1,.521.1,1.03,1.03,0,0,1,.38.28,1.231,1.231,0,0,1,.231.431,1.829,1.829,0,0,1,.079.551V0h-.865V-2.286A.773.773,0,0,0,15-2.795a.563.563,0,0,0-.459-.18.9.9,0,0,0-.42.1,1.505,1.505,0,0,0-.371.276V0h-.865V-3.591h.528a.212.212,0,0,1,.22.158Zm5.331.259a.231.231,0,0,1-.073.079.19.19,0,0,1-.1.023.309.309,0,0,1-.135-.035L18.557-2.9a1.523,1.523,0,0,0-.215-.079,1.031,1.031,0,0,0-.285-.035.657.657,0,0,0-.4.109.338.338,0,0,0-.145.283.27.27,0,0,0,.075.194.677.677,0,0,0,.2.138,1.952,1.952,0,0,0,.282.107q.157.047.32.1t.32.128a1.123,1.123,0,0,1,.282.182.845.845,0,0,1,.2.264.838.838,0,0,1,.075.371,1.211,1.211,0,0,1-.093.478,1.032,1.032,0,0,1-.275.378,1.3,1.3,0,0,1-.45.248,1.953,1.953,0,0,1-.618.089,1.955,1.955,0,0,1-.362-.033,2.138,2.138,0,0,1-.34-.093,1.879,1.879,0,0,1-.3-.14,1.461,1.461,0,0,1-.243-.175l.2-.329a.282.282,0,0,1,.091-.091.255.255,0,0,1,.133-.031.28.28,0,0,1,.152.045q.072.046.166.1a1.486,1.486,0,0,0,.222.1.978.978,0,0,0,.324.046.84.84,0,0,0,.264-.037.559.559,0,0,0,.182-.1.361.361,0,0,0,.1-.138.414.414,0,0,0,.033-.163.29.29,0,0,0-.075-.207.659.659,0,0,0-.2-.14,1.927,1.927,0,0,0-.284-.107q-.159-.047-.326-.1a3.011,3.011,0,0,1-.326-.131,1.109,1.109,0,0,1-.283-.191.863.863,0,0,1-.2-.283.989.989,0,0,1-.075-.406,1.034,1.034,0,0,1,.087-.42.985.985,0,0,1,.257-.348,1.278,1.278,0,0,1,.424-.238,1.764,1.764,0,0,1,.586-.089,1.8,1.8,0,0,1,.675.123,1.526,1.526,0,0,1,.508.322Zm1.781-.7V0h-.868V-3.591Zm.119-1.047a.493.493,0,0,1-.045.21.577.577,0,0,1-.121.171.577.577,0,0,1-.177.117.542.542,0,0,1-.217.044.521.521,0,0,1-.212-.044.561.561,0,0,1-.173-.117.567.567,0,0,1-.117-.171.509.509,0,0,1-.044-.21.542.542,0,0,1,.044-.217.555.555,0,0,1,.117-.175.561.561,0,0,1,.173-.117.521.521,0,0,1,.212-.044.542.542,0,0,1,.217.044.577.577,0,0,1,.177.117.565.565,0,0,1,.121.175A.524.524,0,0,1,20.93-4.638ZM22.5-3.15a2.338,2.338,0,0,1,.229-.2,1.448,1.448,0,0,1,.255-.158,1.432,1.432,0,0,1,.289-.1,1.447,1.447,0,0,1,.336-.037,1.287,1.287,0,0,1,.521.1,1.03,1.03,0,0,1,.38.28,1.231,1.231,0,0,1,.231.431,1.83,1.83,0,0,1,.079.551V0h-.865V-2.286a.773.773,0,0,0-.15-.509.563.563,0,0,0-.458-.18.9.9,0,0,0-.42.1,1.505,1.505,0,0,0-.371.276V0h-.865V-3.591h.528a.212.212,0,0,1,.221.158Zm4.452,1.267a.811.811,0,0,0,.28-.044.549.549,0,0,0,.2-.121.5.5,0,0,0,.119-.186.679.679,0,0,0,.04-.238.563.563,0,0,0-.159-.422.658.658,0,0,0-.478-.156.658.658,0,0,0-.478.156.563.563,0,0,0-.159.422.669.669,0,0,0,.04.234.514.514,0,0,0,.119.187.535.535,0,0,0,.2.123A.815.815,0,0,0,26.954-1.883ZM27.93.161a.239.239,0,0,0-.063-.171.414.414,0,0,0-.171-.1,1.269,1.269,0,0,0-.254-.054q-.145-.018-.308-.026L26.8-.21q-.173-.007-.338-.028a.809.809,0,0,0-.233.189A.385.385,0,0,0,26.138.2a.349.349,0,0,0,.047.177.394.394,0,0,0,.15.142A.894.894,0,0,0,26.6.614a2.07,2.07,0,0,0,.4.033,2.053,2.053,0,0,0,.417-.037,1,1,0,0,0,.289-.1.437.437,0,0,0,.166-.154A.376.376,0,0,0,27.93.161Zm.861-3.629v.322q0,.154-.185.189l-.322.059a1.093,1.093,0,0,1,.073.406,1.068,1.068,0,0,1-.107.481,1.07,1.07,0,0,1-.3.366,1.386,1.386,0,0,1-.446.233,1.812,1.812,0,0,1-.555.082,1.905,1.905,0,0,1-.2-.011q-.1-.011-.192-.028-.168.1-.168.227a.168.168,0,0,0,.1.159.818.818,0,0,0,.264.072,3.719,3.719,0,0,0,.374.026q.21.005.431.023A3.445,3.445,0,0,1,27.99-.8a1.264,1.264,0,0,1,.375.138.735.735,0,0,1,.264.257.79.79,0,0,1,.1.418.985.985,0,0,1-.117.462,1.241,1.241,0,0,1-.339.4,1.77,1.77,0,0,1-.546.282,2.349,2.349,0,0,1-.737.107,2.813,2.813,0,0,1-.707-.079,1.683,1.683,0,0,1-.5-.21.906.906,0,0,1-.3-.3.71.71,0,0,1-.1-.357.608.608,0,0,1,.152-.422,1.054,1.054,0,0,1,.418-.271.6.6,0,0,1-.228-.2A.559.559,0,0,1,25.645-.9a.506.506,0,0,1,.03-.166.712.712,0,0,1,.087-.17.836.836,0,0,1,.145-.159,1,1,0,0,1,.206-.135,1.133,1.133,0,0,1-.429-.392,1.047,1.047,0,0,1-.156-.574,1.068,1.068,0,0,1,.107-.481,1.078,1.078,0,0,1,.3-.368,1.357,1.357,0,0,1,.451-.233,1.92,1.92,0,0,1,.569-.08,1.911,1.911,0,0,1,.434.047,1.479,1.479,0,0,1,.371.138Z" transform="translate(0 7)"/></g><path d="M7.225-2.862a2.781,2.781,0,0,0,1.119-.225,2.706,2.706,0,0,0,.894-.619,2.961,2.961,0,0,0,.594-.925,3.007,3.007,0,0,0,.219-1.156,3.543,3.543,0,0,0-.206-1.25,2.556,2.556,0,0,0-.581-.925,2.516,2.516,0,0,0-.906-.575,3.33,3.33,0,0,0-1.181-.2A2.732,2.732,0,0,0,6.1-8.531a2.407,2.407,0,0,0-.844.594,2.783,2.783,0,0,0-.556.925A3.458,3.458,0,0,0,4.5-5.8a4.186,4.186,0,0,0,.162,1.212,2.481,2.481,0,0,0,.5.925,2.191,2.191,0,0,0,.85.594A3.239,3.239,0,0,0,7.225-2.862ZM6.6-11.213a5.565,5.565,0,0,1,1.95-.325,6.059,6.059,0,0,1,1.95.325,4.982,4.982,0,0,1,1.725,1,5.008,5.008,0,0,1,1.231,1.706,5.832,5.832,0,0,1,.469,2.431,6.244,6.244,0,0,1-.475,2.419,6.019,6.019,0,0,1-1.344,2A6.374,6.374,0,0,1,10.012-.3,7.114,7.114,0,0,1,7.3.2,7.369,7.369,0,0,1,4.563-.281,5.855,5.855,0,0,1,2.506-1.625,5.769,5.769,0,0,1,1.219-3.687,7.551,7.551,0,0,1,.775-6.325,9.141,9.141,0,0,1,2.85-11.788l4.1-5.538a2.33,2.33,0,0,1,.831-.625,2.827,2.827,0,0,1,1.244-.262h3.45l-5.4,6.45ZM24.075-13.8a4.488,4.488,0,0,1-.363,1.825,4.543,4.543,0,0,1-.962,1.419,4.25,4.25,0,0,1-1.394.919,4.33,4.33,0,0,1-1.656.325,4.559,4.559,0,0,1-1.744-.325,4.046,4.046,0,0,1-1.375-.919,4.2,4.2,0,0,1-.906-1.419A4.939,4.939,0,0,1,15.35-13.8a5.2,5.2,0,0,1,.325-1.881,4.233,4.233,0,0,1,.906-1.444,4.078,4.078,0,0,1,1.375-.931,4.484,4.484,0,0,1,1.744-.331,4.577,4.577,0,0,1,1.756.331,4.049,4.049,0,0,1,1.388.931,4.233,4.233,0,0,1,.906,1.444A5.2,5.2,0,0,1,24.075-13.8Zm-2.975,0a4.39,4.39,0,0,0-.106-1.056,1.88,1.88,0,0,0-.294-.669,1.015,1.015,0,0,0-.444-.35,1.517,1.517,0,0,0-.556-.1,1.468,1.468,0,0,0-.55.1.947.947,0,0,0-.425.35,1.959,1.959,0,0,0-.275.669,4.654,4.654,0,0,0-.1,1.056,4.207,4.207,0,0,0,.1,1,1.812,1.812,0,0,0,.275.638.973.973,0,0,0,.425.337,1.468,1.468,0,0,0,.55.1,1.517,1.517,0,0,0,.556-.1,1.047,1.047,0,0,0,.444-.337,1.744,1.744,0,0,0,.294-.638A3.97,3.97,0,0,0,21.1-13.8Zm8.7-3.838a2.3,2.3,0,0,1,.463-.394,1.376,1.376,0,0,1,.762-.181H33.85L20.125-.55a1.544,1.544,0,0,1-.469.394A1.384,1.384,0,0,1,18.975,0h-2.9ZM34.55-4.275a4.532,4.532,0,0,1-.362,1.831,4.523,4.523,0,0,1-.963,1.425A4.25,4.25,0,0,1,31.831-.1a4.33,4.33,0,0,1-1.656.325A4.559,4.559,0,0,1,28.431-.1a4.046,4.046,0,0,1-1.375-.919,4.191,4.191,0,0,1-.906-1.425,4.988,4.988,0,0,1-.325-1.831,5.2,5.2,0,0,1,.325-1.881A4.233,4.233,0,0,1,27.056-7.6a4.078,4.078,0,0,1,1.375-.931,4.484,4.484,0,0,1,1.744-.331,4.577,4.577,0,0,1,1.756.331,4.049,4.049,0,0,1,1.387.931,4.233,4.233,0,0,1,.906,1.444A5.2,5.2,0,0,1,34.55-4.275Zm-2.975,0a4.326,4.326,0,0,0-.106-1.044,1.88,1.88,0,0,0-.294-.669,1.015,1.015,0,0,0-.444-.35,1.517,1.517,0,0,0-.556-.1,1.468,1.468,0,0,0-.55.1.947.947,0,0,0-.425.35,1.959,1.959,0,0,0-.275.669,4.586,4.586,0,0,0-.1,1.044,4.207,4.207,0,0,0,.1,1,1.813,1.813,0,0,0,.275.637.973.973,0,0,0,.425.338,1.468,1.468,0,0,0,.55.1,1.517,1.517,0,0,0,.556-.1,1.047,1.047,0,0,0,.444-.338,1.744,1.744,0,0,0,.294-.637A3.97,3.97,0,0,0,31.575-4.275Z" transform="translate(0 25)"/></g><g transform="translate(408.196 363.503)"><g transform="translate(56.203 4.809)"><path d="M6.21-6.507V0H4.995V-2.844H1.939V0H.725V-6.507H1.939v2.8H4.995v-2.8Zm3.415,3.1a1.874,1.874,0,0,0,.6-.086,1.153,1.153,0,0,0,.418-.236.949.949,0,0,0,.245-.358,1.237,1.237,0,0,0,.081-.455.924.924,0,0,0-.326-.76,1.561,1.561,0,0,0-1-.266H8.87v2.16ZM12.74,0H11.646a.48.48,0,0,1-.45-.243L9.828-2.327a.48.48,0,0,0-.169-.166.591.591,0,0,0-.272-.049H8.87V0H7.659V-6.507H9.644a4.126,4.126,0,0,1,1.136.137,2.174,2.174,0,0,1,.779.385,1.505,1.505,0,0,1,.448.592,1.946,1.946,0,0,1,.144.758,1.965,1.965,0,0,1-.1.621,1.8,1.8,0,0,1-.279.531,1.88,1.88,0,0,1-.45.419,2.257,2.257,0,0,1-.61.283,1.183,1.183,0,0,1,.216.16,1.135,1.135,0,0,1,.18.218Zm3.492.014a.59.59,0,0,1-.245.311.651.651,0,0,1-.344.1h-.473L17.8-6.3a.6.6,0,0,1,.22-.29.6.6,0,0,1,.347-.1h.477ZM2.839,7.765a1.824,1.824,0,0,0,.581-.083,1.1,1.1,0,0,0,.412-.238.966.966,0,0,0,.245-.378,1.447,1.447,0,0,0,.081-.5,1.312,1.312,0,0,0-.081-.473.934.934,0,0,0-.243-.36,1.081,1.081,0,0,0-.41-.227,1.937,1.937,0,0,0-.585-.079h-.9V7.765Zm0-3.272a3.714,3.714,0,0,1,1.13.153,2.174,2.174,0,0,1,.788.427,1.7,1.7,0,0,1,.461.657,2.263,2.263,0,0,1,.151.837,2.312,2.312,0,0,1-.157.866,1.8,1.8,0,0,1-.473.677,2.2,2.2,0,0,1-.79.441,3.528,3.528,0,0,1-1.109.158h-.9V11H.725V4.493ZM8.883,8.16a1.338,1.338,0,0,0-.061-.407.968.968,0,0,0-.182-.335.848.848,0,0,0-.308-.227A1.058,1.058,0,0,0,7.9,7.108a1.029,1.029,0,0,0-.758.274,1.346,1.346,0,0,0-.353.778Zm-2.119.671a2.187,2.187,0,0,0,.126.614,1.256,1.256,0,0,0,.261.428,1.022,1.022,0,0,0,.385.252,1.4,1.4,0,0,0,.493.083,1.528,1.528,0,0,0,.466-.063,2.184,2.184,0,0,0,.342-.14q.146-.076.257-.139A.43.43,0,0,1,9.306,9.8a.23.23,0,0,1,.207.1l.319.4a1.852,1.852,0,0,1-.414.362,2.322,2.322,0,0,1-.479.234,2.619,2.619,0,0,1-.509.124,3.641,3.641,0,0,1-.5.036,2.466,2.466,0,0,1-.9-.16,2,2,0,0,1-.72-.472,2.217,2.217,0,0,1-.482-.774,3,3,0,0,1-.175-1.069A2.556,2.556,0,0,1,5.809,7.7a2.137,2.137,0,0,1,.439-.724,2.066,2.066,0,0,1,.7-.488,2.3,2.3,0,0,1,.929-.18,2.26,2.26,0,0,1,.806.14,1.755,1.755,0,0,1,.635.407,1.886,1.886,0,0,1,.416.657,2.448,2.448,0,0,1,.151.889.722.722,0,0,1-.054.34.224.224,0,0,1-.207.088Zm5-1.647a1.991,1.991,0,0,1,.513-.65,1.094,1.094,0,0,1,.7-.236.859.859,0,0,1,.513.139l-.072.832a.215.215,0,0,1-.065.115.18.18,0,0,1-.115.034,1.311,1.311,0,0,1-.2-.023,1.547,1.547,0,0,0-.259-.023.931.931,0,0,0-.328.054.826.826,0,0,0-.259.155,1.058,1.058,0,0,0-.2.245,2.393,2.393,0,0,0-.164.328V11H10.714V6.383h.653a.269.269,0,0,1,.328.279Zm5.112.1a.3.3,0,0,1-.094.1.245.245,0,0,1-.126.029.4.4,0,0,1-.173-.045l-.214-.1a1.958,1.958,0,0,0-.277-.1,1.325,1.325,0,0,0-.367-.045.844.844,0,0,0-.515.139.434.434,0,0,0-.187.365.348.348,0,0,0,.1.25.87.87,0,0,0,.256.178,2.51,2.51,0,0,0,.362.137q.2.061.412.133t.412.164a1.444,1.444,0,0,1,.362.234,1.03,1.03,0,0,1,.353.817,1.557,1.557,0,0,1-.119.614,1.327,1.327,0,0,1-.353.486,1.666,1.666,0,0,1-.578.319,2.71,2.71,0,0,1-1.26.072,2.749,2.749,0,0,1-.436-.119,2.416,2.416,0,0,1-.387-.18,1.878,1.878,0,0,1-.313-.225l.257-.423a.363.363,0,0,1,.117-.117.328.328,0,0,1,.171-.041.359.359,0,0,1,.2.059q.092.059.214.126a1.911,1.911,0,0,0,.286.126,1.257,1.257,0,0,0,.416.059,1.08,1.08,0,0,0,.34-.047.719.719,0,0,0,.234-.124.465.465,0,0,0,.135-.178.533.533,0,0,0,.043-.209.373.373,0,0,0-.1-.266.847.847,0,0,0-.256-.18,2.477,2.477,0,0,0-.365-.137q-.2-.061-.418-.133a3.872,3.872,0,0,1-.418-.169,1.426,1.426,0,0,1-.365-.245,1.11,1.11,0,0,1-.256-.365,1.272,1.272,0,0,1-.1-.522,1.33,1.33,0,0,1,.113-.54,1.267,1.267,0,0,1,.331-.448,1.643,1.643,0,0,1,.545-.306,2.268,2.268,0,0,1,.754-.115,2.307,2.307,0,0,1,.868.158,1.962,1.962,0,0,1,.653.414Zm3.181-.972a2.517,2.517,0,0,1,.934.167,2.046,2.046,0,0,1,.72.473,2.075,2.075,0,0,1,.461.747,3.092,3.092,0,0,1,0,1.976,2.121,2.121,0,0,1-.461.752,2.016,2.016,0,0,1-.72.477,2.517,2.517,0,0,1-.934.167,2.548,2.548,0,0,1-.94-.167,2.012,2.012,0,0,1-.722-.477,2.147,2.147,0,0,1-.464-.752,3.052,3.052,0,0,1,0-1.976,2.1,2.1,0,0,1,.464-.747,2.041,2.041,0,0,1,.722-.473A2.548,2.548,0,0,1,20.056,6.311Zm0,3.9a.978.978,0,0,0,.853-.387,1.94,1.94,0,0,0,.277-1.134,1.963,1.963,0,0,0-.277-1.138.973.973,0,0,0-.853-.392.993.993,0,0,0-.866.394,1.94,1.94,0,0,0-.281,1.136,1.918,1.918,0,0,0,.281,1.132A1,1,0,0,0,20.056,10.212ZM24.223,6.95a3.007,3.007,0,0,1,.295-.259,1.862,1.862,0,0,1,.329-.2,1.841,1.841,0,0,1,.371-.13,1.86,1.86,0,0,1,.432-.047,1.655,1.655,0,0,1,.67.128,1.325,1.325,0,0,1,.488.36,1.582,1.582,0,0,1,.3.553,2.352,2.352,0,0,1,.1.709V11H26.1V8.062a.994.994,0,0,0-.194-.655.724.724,0,0,0-.59-.232,1.157,1.157,0,0,0-.54.13,1.935,1.935,0,0,0-.477.356V11H23.184V6.383h.68a.273.273,0,0,1,.283.2Zm5.076,0a3.007,3.007,0,0,1,.295-.259,1.862,1.862,0,0,1,.329-.2,1.841,1.841,0,0,1,.371-.13,1.86,1.86,0,0,1,.432-.047,1.655,1.655,0,0,1,.67.128,1.325,1.325,0,0,1,.488.36,1.583,1.583,0,0,1,.3.553,2.352,2.352,0,0,1,.1.709V11H31.172V8.062a.994.994,0,0,0-.194-.655.724.724,0,0,0-.59-.232,1.157,1.157,0,0,0-.54.13,1.935,1.935,0,0,0-.477.356V11H28.26V6.383h.68a.273.273,0,0,1,.283.2ZM36.31,8.16a1.338,1.338,0,0,0-.061-.407.968.968,0,0,0-.182-.335.847.847,0,0,0-.308-.227,1.058,1.058,0,0,0-.434-.083,1.029,1.029,0,0,0-.758.274,1.346,1.346,0,0,0-.353.778Zm-2.119.671a2.187,2.187,0,0,0,.126.614,1.256,1.256,0,0,0,.261.428,1.022,1.022,0,0,0,.385.252,1.4,1.4,0,0,0,.493.083,1.528,1.528,0,0,0,.466-.063,2.184,2.184,0,0,0,.342-.14q.146-.076.257-.139a.43.43,0,0,1,.214-.063.23.23,0,0,1,.207.1l.319.4a1.852,1.852,0,0,1-.414.362,2.322,2.322,0,0,1-.479.234,2.62,2.62,0,0,1-.508.124,3.641,3.641,0,0,1-.5.036,2.466,2.466,0,0,1-.9-.16,2,2,0,0,1-.72-.472,2.217,2.217,0,0,1-.481-.774,3,3,0,0,1-.175-1.069,2.556,2.556,0,0,1,.153-.889,2.137,2.137,0,0,1,.439-.724,2.066,2.066,0,0,1,.7-.488,2.3,2.3,0,0,1,.929-.18,2.26,2.26,0,0,1,.806.14,1.755,1.755,0,0,1,.635.407,1.886,1.886,0,0,1,.416.657,2.448,2.448,0,0,1,.151.889.722.722,0,0,1-.054.34.224.224,0,0,1-.207.088Zm5.076-4.518V11H38.155V4.313Z" transform="translate(0 9)"/></g><path d="M13.137-2.8V0H2.763V-2.8h3.5v-9.187q0-.35.012-.706t.038-.719L4.237-11.687a1.218,1.218,0,0,1-.544.256,1.474,1.474,0,0,1-.506,0,1.188,1.188,0,0,1-.425-.163.951.951,0,0,1-.275-.244L1.263-13.463l5.675-4.762h3.2V-2.8ZM26.7-3.5a1.377,1.377,0,0,1,.987.344,1.191,1.191,0,0,1,.362.906V0H15.25V-1.25a2.273,2.273,0,0,1,.15-.775,1.869,1.869,0,0,1,.525-.75l5.25-5.287A17.407,17.407,0,0,0,22.35-9.35a7.982,7.982,0,0,0,.825-1.206,5.5,5.5,0,0,0,.487-1.187A4.739,4.739,0,0,0,23.825-13a2.426,2.426,0,0,0-.519-1.669,2.012,2.012,0,0,0-1.581-.581,2.319,2.319,0,0,0-1.456.456,2.337,2.337,0,0,0-.819,1.131,1.629,1.629,0,0,1-.687.913,1.967,1.967,0,0,1-1.213.1l-2.05-.363a6.838,6.838,0,0,1,.769-2.375,5.716,5.716,0,0,1,1.413-1.688,5.731,5.731,0,0,1,1.931-1.006,7.984,7.984,0,0,1,2.338-.331,7.069,7.069,0,0,1,2.431.394,5.443,5.443,0,0,1,1.844,1.094,4.709,4.709,0,0,1,1.169,1.669,5.457,5.457,0,0,1,.406,2.131,5.857,5.857,0,0,1-.281,1.85,7.287,7.287,0,0,1-.769,1.619,11.309,11.309,0,0,1-1.131,1.488q-.644.719-1.369,1.456l-3.562,3.65a10.406,10.406,0,0,1,1.362-.325A7.639,7.639,0,0,1,23.3-3.5ZM38.575-13.8a4.488,4.488,0,0,1-.362,1.825,4.543,4.543,0,0,1-.963,1.419,4.25,4.25,0,0,1-1.394.919,4.33,4.33,0,0,1-1.656.325,4.559,4.559,0,0,1-1.744-.325,4.046,4.046,0,0,1-1.375-.919,4.2,4.2,0,0,1-.906-1.419A4.939,4.939,0,0,1,29.85-13.8a5.2,5.2,0,0,1,.325-1.881,4.233,4.233,0,0,1,.906-1.444,4.078,4.078,0,0,1,1.375-.931,4.484,4.484,0,0,1,1.744-.331,4.577,4.577,0,0,1,1.756.331,4.049,4.049,0,0,1,1.388.931,4.233,4.233,0,0,1,.906,1.444A5.2,5.2,0,0,1,38.575-13.8Zm-2.975,0a4.39,4.39,0,0,0-.106-1.056,1.88,1.88,0,0,0-.294-.669,1.015,1.015,0,0,0-.444-.35,1.517,1.517,0,0,0-.556-.1,1.468,1.468,0,0,0-.55.1.947.947,0,0,0-.425.35,1.959,1.959,0,0,0-.275.669,4.654,4.654,0,0,0-.1,1.056,4.207,4.207,0,0,0,.1,1,1.813,1.813,0,0,0,.275.638.973.973,0,0,0,.425.337,1.468,1.468,0,0,0,.55.1,1.517,1.517,0,0,0,.556-.1,1.047,1.047,0,0,0,.444-.337,1.744,1.744,0,0,0,.294-.638A3.97,3.97,0,0,0,35.6-13.8Zm8.7-3.838a2.3,2.3,0,0,1,.463-.394,1.376,1.376,0,0,1,.763-.181H48.35L34.625-.55a1.544,1.544,0,0,1-.469.394A1.384,1.384,0,0,1,33.475,0h-2.9ZM49.05-4.275a4.532,4.532,0,0,1-.362,1.831,4.523,4.523,0,0,1-.963,1.425A4.25,4.25,0,0,1,46.331-.1a4.33,4.33,0,0,1-1.656.325A4.559,4.559,0,0,1,42.931-.1a4.046,4.046,0,0,1-1.375-.919,4.191,4.191,0,0,1-.906-1.425,4.988,4.988,0,0,1-.325-1.831,5.2,5.2,0,0,1,.325-1.881A4.233,4.233,0,0,1,41.556-7.6a4.078,4.078,0,0,1,1.375-.931,4.484,4.484,0,0,1,1.744-.331,4.577,4.577,0,0,1,1.756.331,4.049,4.049,0,0,1,1.387.931,4.233,4.233,0,0,1,.906,1.444A5.2,5.2,0,0,1,49.05-4.275Zm-2.975,0a4.326,4.326,0,0,0-.106-1.044,1.88,1.88,0,0,0-.294-.669,1.015,1.015,0,0,0-.444-.35,1.517,1.517,0,0,0-.556-.1,1.468,1.468,0,0,0-.55.1.947.947,0,0,0-.425.35,1.959,1.959,0,0,0-.275.669,4.586,4.586,0,0,0-.1,1.044,4.207,4.207,0,0,0,.1,1,1.813,1.813,0,0,0,.275.637.973.973,0,0,0,.425.338,1.468,1.468,0,0,0,.55.1,1.517,1.517,0,0,0,.556-.1,1.047,1.047,0,0,0,.444-.338,1.744,1.744,0,0,0,.294-.637A3.969,3.969,0,0,0,46.075-4.275Z" transform="translate(0 25)"/></g><g transform="translate(465.077 111.987)"><g transform="translate(1.916 27.8)"><path d="M5.193-1.535a.241.241,0,0,1,.175.077l.477.517a2.62,2.62,0,0,1-.974.752A3.357,3.357,0,0,1,3.483.072a3.28,3.28,0,0,1-1.3-.248,2.871,2.871,0,0,1-.988-.689A3.014,3.014,0,0,1,.565-1.917,3.953,3.953,0,0,1,.347-3.253,3.72,3.72,0,0,1,.58-4.6,3.087,3.087,0,0,1,1.24-5.648a2.984,2.984,0,0,1,1.015-.686,3.366,3.366,0,0,1,1.305-.245,3.205,3.205,0,0,1,1.262.234,3.007,3.007,0,0,1,.938.612l-.4.563a.367.367,0,0,1-.092.095.261.261,0,0,1-.155.041.3.3,0,0,1-.14-.038q-.072-.038-.157-.094t-.2-.124a1.63,1.63,0,0,0-.261-.124,2.13,2.13,0,0,0-.344-.094,2.378,2.378,0,0,0-.452-.038,2.007,2.007,0,0,0-.8.155,1.736,1.736,0,0,0-.623.45,2.074,2.074,0,0,0-.405.72,3.017,3.017,0,0,0-.144.97,2.85,2.85,0,0,0,.155.977,2.147,2.147,0,0,0,.421.72,1.8,1.8,0,0,0,.626.448,1.933,1.933,0,0,0,.774.155,3.372,3.372,0,0,0,.448-.027,1.9,1.9,0,0,0,.369-.086A1.638,1.638,0,0,0,4.7-1.217a2,2,0,0,0,.3-.227A.427.427,0,0,1,5.09-1.51.229.229,0,0,1,5.193-1.535Zm3.748-.436a6.13,6.13,0,0,0-.81.083,2.159,2.159,0,0,0-.527.155.692.692,0,0,0-.284.22.479.479,0,0,0-.085.274.483.483,0,0,0,.173.419.751.751,0,0,0,.452.126,1.319,1.319,0,0,0,.592-.124,1.757,1.757,0,0,0,.488-.376Zm-2.547-2A2.74,2.74,0,0,1,8.311-4.7a1.873,1.873,0,0,1,.724.133,1.531,1.531,0,0,1,.54.369,1.579,1.579,0,0,1,.335.565,2.17,2.17,0,0,1,.115.72V0h-.5a.509.509,0,0,1-.243-.047.328.328,0,0,1-.135-.191l-.1-.333A4.018,4.018,0,0,1,8.7-.295a2.013,2.013,0,0,1-.347.2,1.862,1.862,0,0,1-.385.124,2.217,2.217,0,0,1-.452.043,1.773,1.773,0,0,1-.54-.079,1.187,1.187,0,0,1-.427-.236,1.061,1.061,0,0,1-.279-.392,1.389,1.389,0,0,1-.1-.544,1.084,1.084,0,0,1,.058-.349,1.02,1.02,0,0,1,.191-.331,1.592,1.592,0,0,1,.344-.3,2.237,2.237,0,0,1,.52-.243,4.491,4.491,0,0,1,.718-.169,7.17,7.17,0,0,1,.936-.079v-.27a1.011,1.011,0,0,0-.2-.686.725.725,0,0,0-.571-.223,1.357,1.357,0,0,0-.448.063,1.843,1.843,0,0,0-.313.142l-.245.142a.485.485,0,0,1-.245.063.321.321,0,0,1-.2-.061.508.508,0,0,1-.13-.142ZM12.181-1.2a1.094,1.094,0,0,0,.412.324,1.226,1.226,0,0,0,.484.095,1.062,1.062,0,0,0,.455-.095.891.891,0,0,0,.344-.288,1.425,1.425,0,0,0,.218-.488,2.79,2.79,0,0,0,.076-.7,3.086,3.086,0,0,0-.065-.686,1.326,1.326,0,0,0-.187-.457.738.738,0,0,0-.295-.257.919.919,0,0,0-.394-.081,1.123,1.123,0,0,0-.589.146,1.789,1.789,0,0,0-.459.412Zm-.058-2.79a2.408,2.408,0,0,1,.644-.518,1.728,1.728,0,0,1,.846-.2,1.514,1.514,0,0,1,.691.157,1.55,1.55,0,0,1,.54.457,2.191,2.191,0,0,1,.351.738,3.713,3.713,0,0,1,.124,1.006,3.163,3.163,0,0,1-.14.959,2.345,2.345,0,0,1-.4.765,1.84,1.84,0,0,1-.626.506,1.82,1.82,0,0,1-.821.182,1.655,1.655,0,0,1-.661-.119,1.616,1.616,0,0,1-.491-.331v1.89H11.07V-4.617h.68a.273.273,0,0,1,.283.2Zm5.211-.63V0H16.218V-4.617Zm.153-1.345a.633.633,0,0,1-.058.27.742.742,0,0,1-.155.221.742.742,0,0,1-.227.151.7.7,0,0,1-.279.056.67.67,0,0,1-.272-.056.721.721,0,0,1-.223-.151.729.729,0,0,1-.151-.221.655.655,0,0,1-.056-.27.7.7,0,0,1,.056-.279.714.714,0,0,1,.151-.225.721.721,0,0,1,.223-.151.67.67,0,0,1,.272-.056.7.7,0,0,1,.279.056.742.742,0,0,1,.227.151.726.726,0,0,1,.155.225A.674.674,0,0,1,17.487-5.963ZM20.007.072a1.213,1.213,0,0,1-.925-.34,1.31,1.31,0,0,1-.322-.938V-3.785h-.472a.217.217,0,0,1-.153-.058.228.228,0,0,1-.063-.175v-.441l.743-.122.234-1.26a.247.247,0,0,1,.086-.14A.254.254,0,0,1,19.3-6.03h.576v1.454h1.233v.792H19.872v2.5a.5.5,0,0,0,.106.338.365.365,0,0,0,.29.122.523.523,0,0,0,.173-.025A.953.953,0,0,0,20.563-.9q.052-.027.092-.052a.154.154,0,0,1,.081-.025.127.127,0,0,1,.081.025.375.375,0,0,1,.067.074l.333.54a1.683,1.683,0,0,1-.558.306A2.077,2.077,0,0,1,20.007.072Zm4.248-2.043a6.13,6.13,0,0,0-.81.083,2.159,2.159,0,0,0-.526.155.692.692,0,0,0-.284.22.479.479,0,0,0-.086.274.483.483,0,0,0,.173.419.751.751,0,0,0,.452.126,1.319,1.319,0,0,0,.592-.124,1.757,1.757,0,0,0,.488-.376Zm-2.547-2A2.74,2.74,0,0,1,23.625-4.7a1.873,1.873,0,0,1,.725.133,1.531,1.531,0,0,1,.54.369,1.579,1.579,0,0,1,.335.565,2.17,2.17,0,0,1,.115.72V0h-.5a.509.509,0,0,1-.243-.047.328.328,0,0,1-.135-.191l-.1-.333a4.018,4.018,0,0,1-.342.277,2.013,2.013,0,0,1-.347.2,1.862,1.862,0,0,1-.385.124,2.217,2.217,0,0,1-.452.043,1.773,1.773,0,0,1-.54-.079,1.187,1.187,0,0,1-.427-.236,1.061,1.061,0,0,1-.279-.392,1.389,1.389,0,0,1-.1-.544,1.084,1.084,0,0,1,.059-.349,1.02,1.02,0,0,1,.191-.331,1.592,1.592,0,0,1,.344-.3A2.237,2.237,0,0,1,22.6-2.4a4.491,4.491,0,0,1,.718-.169,7.17,7.17,0,0,1,.936-.079v-.27a1.011,1.011,0,0,0-.2-.686.724.724,0,0,0-.571-.223,1.357,1.357,0,0,0-.448.063,1.843,1.843,0,0,0-.313.142l-.245.142a.485.485,0,0,1-.245.063.321.321,0,0,1-.2-.061.508.508,0,0,1-.131-.142Zm5.8-2.713V0H26.4V-6.687ZM2.691,7.589a1.874,1.874,0,0,0,.6-.085,1.153,1.153,0,0,0,.418-.236.949.949,0,0,0,.245-.358,1.237,1.237,0,0,0,.081-.455.924.924,0,0,0-.326-.76,1.561,1.561,0,0,0-1-.266H1.935v2.16ZM5.8,11H4.712a.48.48,0,0,1-.45-.243L2.894,8.674a.48.48,0,0,0-.169-.167.591.591,0,0,0-.272-.049H1.935V11H.725V4.493H2.709a4.126,4.126,0,0,1,1.136.137,2.174,2.174,0,0,1,.779.385,1.505,1.505,0,0,1,.448.592,2.056,2.056,0,0,1,.047,1.379,1.8,1.8,0,0,1-.279.531,1.88,1.88,0,0,1-.45.418,2.257,2.257,0,0,1-.61.283A1.183,1.183,0,0,1,4,8.379a1.135,1.135,0,0,1,.18.218Zm3.2-2.84a1.338,1.338,0,0,0-.061-.407.968.968,0,0,0-.182-.335.848.848,0,0,0-.308-.227,1.058,1.058,0,0,0-.434-.083,1.029,1.029,0,0,0-.758.274,1.346,1.346,0,0,0-.353.778Zm-2.12.671a2.187,2.187,0,0,0,.126.614,1.256,1.256,0,0,0,.261.428,1.022,1.022,0,0,0,.385.252,1.4,1.4,0,0,0,.493.083,1.528,1.528,0,0,0,.466-.063,2.184,2.184,0,0,0,.342-.14q.146-.076.257-.139A.43.43,0,0,1,9.432,9.8a.23.23,0,0,1,.207.1l.319.4a1.852,1.852,0,0,1-.414.362,2.322,2.322,0,0,1-.479.234,2.619,2.619,0,0,1-.509.124,3.641,3.641,0,0,1-.5.036,2.466,2.466,0,0,1-.9-.16,2,2,0,0,1-.72-.472,2.217,2.217,0,0,1-.482-.774,3,3,0,0,1-.175-1.069A2.556,2.556,0,0,1,5.935,7.7a2.137,2.137,0,0,1,.439-.724,2.066,2.066,0,0,1,.7-.488A2.3,2.3,0,0,1,8,6.311a2.26,2.26,0,0,1,.806.14,1.755,1.755,0,0,1,.635.407,1.886,1.886,0,0,1,.416.657,2.448,2.448,0,0,1,.151.889.722.722,0,0,1-.054.34.224.224,0,0,1-.207.088Zm6.849-1.269a1.055,1.055,0,0,0-.409-.324,1.231,1.231,0,0,0-.482-.094,1.062,1.062,0,0,0-.455.094.915.915,0,0,0-.346.286,1.374,1.374,0,0,0-.22.486,2.79,2.79,0,0,0-.076.7,3.086,3.086,0,0,0,.065.686A1.351,1.351,0,0,0,12,9.85a.712.712,0,0,0,.3.256.946.946,0,0,0,.392.079,1.137,1.137,0,0,0,.589-.144,1.751,1.751,0,0,0,.459-.41ZM14.85,6.383v6.124H13.738V10.415a2.3,2.3,0,0,1-.621.472,1.723,1.723,0,0,1-.806.18,1.528,1.528,0,0,1-.693-.158,1.544,1.544,0,0,1-.542-.457,2.189,2.189,0,0,1-.351-.74A3.738,3.738,0,0,1,10.6,8.7a3.147,3.147,0,0,1,.139-.954,2.321,2.321,0,0,1,.4-.765,1.869,1.869,0,0,1,.625-.506,1.806,1.806,0,0,1,.819-.182,1.59,1.59,0,0,1,.724.148,1.812,1.812,0,0,1,.522.4l.059-.261a.262.262,0,0,1,.279-.2Zm5.076,0V11h-.68a.262.262,0,0,1-.279-.2l-.076-.369a2.48,2.48,0,0,1-.625.466,1.724,1.724,0,0,1-.806.178,1.639,1.639,0,0,1-.668-.128,1.338,1.338,0,0,1-.488-.362,1.586,1.586,0,0,1-.3-.556,2.352,2.352,0,0,1-.1-.709V6.383h1.111V9.317a.986.986,0,0,0,.2.655.726.726,0,0,0,.587.232,1.174,1.174,0,0,0,.54-.128,1.888,1.888,0,0,0,.477-.353V6.383Zm2.25,0V11H21.06V6.383Zm.153-1.345a.633.633,0,0,1-.059.27.734.734,0,0,1-.382.371.7.7,0,0,1-.279.056.67.67,0,0,1-.272-.056.721.721,0,0,1-.223-.151.729.729,0,0,1-.151-.221.655.655,0,0,1-.056-.27.7.7,0,0,1,.056-.279.7.7,0,0,1,.373-.376.67.67,0,0,1,.272-.056.7.7,0,0,1,.279.056.742.742,0,0,1,.227.151.726.726,0,0,1,.155.225A.674.674,0,0,1,22.329,5.037Zm2.029,2.147a1.991,1.991,0,0,1,.513-.65,1.094,1.094,0,0,1,.7-.236.859.859,0,0,1,.513.139l-.072.832a.215.215,0,0,1-.065.115.18.18,0,0,1-.115.034,1.311,1.311,0,0,1-.2-.023,1.547,1.547,0,0,0-.259-.023.931.931,0,0,0-.329.054.826.826,0,0,0-.259.155,1.058,1.058,0,0,0-.2.245,2.393,2.393,0,0,0-.164.328V11H23.31V6.383h.653a.269.269,0,0,1,.329.279Zm5.153.976a1.338,1.338,0,0,0-.061-.407.968.968,0,0,0-.182-.335.848.848,0,0,0-.308-.227,1.058,1.058,0,0,0-.434-.083,1.029,1.029,0,0,0-.758.274,1.346,1.346,0,0,0-.353.778Zm-2.12.671a2.187,2.187,0,0,0,.126.614,1.256,1.256,0,0,0,.261.428,1.022,1.022,0,0,0,.385.252,1.4,1.4,0,0,0,.493.083,1.528,1.528,0,0,0,.466-.063,2.184,2.184,0,0,0,.342-.14q.146-.076.257-.139a.43.43,0,0,1,.214-.063.23.23,0,0,1,.207.1l.319.4a1.852,1.852,0,0,1-.414.362,2.322,2.322,0,0,1-.479.234,2.619,2.619,0,0,1-.508.124,3.641,3.641,0,0,1-.5.036,2.466,2.466,0,0,1-.9-.16,2,2,0,0,1-.72-.472,2.217,2.217,0,0,1-.482-.774,3,3,0,0,1-.175-1.069,2.556,2.556,0,0,1,.153-.889,2.137,2.137,0,0,1,.439-.724,2.066,2.066,0,0,1,.7-.488,2.3,2.3,0,0,1,.929-.18,2.26,2.26,0,0,1,.806.14,1.755,1.755,0,0,1,.635.407,1.886,1.886,0,0,1,.416.657,2.448,2.448,0,0,1,.151.889.722.722,0,0,1-.054.34.224.224,0,0,1-.207.088ZM31.343,11V6.383h.679a.273.273,0,0,1,.284.2l.072.342a2.628,2.628,0,0,1,.254-.247,1.633,1.633,0,0,1,.284-.194,1.535,1.535,0,0,1,.324-.128,1.443,1.443,0,0,1,.38-.047,1.078,1.078,0,0,1,.718.236,1.423,1.423,0,0,1,.421.628,1.409,1.409,0,0,1,.27-.394,1.476,1.476,0,0,1,.355-.268A1.636,1.636,0,0,1,35.8,6.36a1.978,1.978,0,0,1,.439-.049,1.843,1.843,0,0,1,.68.117,1.3,1.3,0,0,1,.5.342,1.507,1.507,0,0,1,.308.549,2.391,2.391,0,0,1,.106.743V11H36.715V8.062a.988.988,0,0,0-.194-.664.71.71,0,0,0-.567-.223.846.846,0,0,0-.317.058.756.756,0,0,0-.257.169.77.77,0,0,0-.173.277,1.076,1.076,0,0,0-.063.383V11H34.029V8.062a1,1,0,0,0-.187-.675.691.691,0,0,0-.547-.212.9.9,0,0,0-.452.119,1.508,1.508,0,0,0-.389.326V11ZM41.854,8.16a1.338,1.338,0,0,0-.061-.407.968.968,0,0,0-.182-.335.847.847,0,0,0-.308-.227,1.058,1.058,0,0,0-.434-.083,1.029,1.029,0,0,0-.758.274,1.346,1.346,0,0,0-.353.778Zm-2.119.671a2.187,2.187,0,0,0,.126.614,1.256,1.256,0,0,0,.261.428,1.022,1.022,0,0,0,.385.252,1.4,1.4,0,0,0,.493.083,1.528,1.528,0,0,0,.466-.063,2.184,2.184,0,0,0,.342-.14q.146-.076.257-.139a.43.43,0,0,1,.214-.063.23.23,0,0,1,.207.1l.319.4a1.853,1.853,0,0,1-.414.362,2.322,2.322,0,0,1-.479.234,2.619,2.619,0,0,1-.508.124,3.641,3.641,0,0,1-.5.036,2.466,2.466,0,0,1-.9-.16,2,2,0,0,1-.72-.472,2.217,2.217,0,0,1-.481-.774,3,3,0,0,1-.175-1.069,2.556,2.556,0,0,1,.153-.889,2.137,2.137,0,0,1,.439-.724,2.066,2.066,0,0,1,.7-.488,2.3,2.3,0,0,1,.929-.18,2.26,2.26,0,0,1,.806.14,1.755,1.755,0,0,1,.635.407,1.886,1.886,0,0,1,.416.657,2.448,2.448,0,0,1,.151.889.722.722,0,0,1-.054.34.224.224,0,0,1-.207.088ZM44.726,6.95a3.006,3.006,0,0,1,.295-.259,1.862,1.862,0,0,1,.328-.2,1.841,1.841,0,0,1,.371-.13,1.86,1.86,0,0,1,.432-.047,1.655,1.655,0,0,1,.671.128,1.325,1.325,0,0,1,.488.36,1.583,1.583,0,0,1,.3.553,2.352,2.352,0,0,1,.1.709V11H46.6V8.062a.994.994,0,0,0-.194-.655.724.724,0,0,0-.589-.232,1.157,1.157,0,0,0-.54.13,1.935,1.935,0,0,0-.477.356V11H43.686V6.383h.68a.273.273,0,0,1,.284.2Zm5.513,4.122a1.213,1.213,0,0,1-.925-.34,1.31,1.31,0,0,1-.322-.938V7.215h-.472a.217.217,0,0,1-.153-.058.228.228,0,0,1-.063-.175V6.541l.743-.122.234-1.26a.247.247,0,0,1,.085-.14.254.254,0,0,1,.162-.049H50.1V6.424h1.233v.792H50.1v2.5a.5.5,0,0,0,.106.338.365.365,0,0,0,.29.122.523.523,0,0,0,.173-.025.954.954,0,0,0,.121-.052q.052-.027.092-.052a.154.154,0,0,1,.081-.025.127.127,0,0,1,.081.025.375.375,0,0,1,.068.074l.333.54a1.683,1.683,0,0,1-.558.306A2.077,2.077,0,0,1,50.238,11.072Zm4.626-3.789a.3.3,0,0,1-.095.1.245.245,0,0,1-.126.029.4.4,0,0,1-.173-.045l-.214-.1a1.958,1.958,0,0,0-.277-.1,1.325,1.325,0,0,0-.367-.045.844.844,0,0,0-.515.139.434.434,0,0,0-.187.365.348.348,0,0,0,.1.25.87.87,0,0,0,.257.178,2.51,2.51,0,0,0,.362.137q.2.061.412.133t.412.164a1.444,1.444,0,0,1,.362.234,1.03,1.03,0,0,1,.353.817,1.557,1.557,0,0,1-.119.614,1.327,1.327,0,0,1-.353.486,1.666,1.666,0,0,1-.578.319,2.71,2.71,0,0,1-1.26.072,2.749,2.749,0,0,1-.437-.119,2.416,2.416,0,0,1-.387-.18,1.878,1.878,0,0,1-.313-.225l.257-.423a.363.363,0,0,1,.117-.117.328.328,0,0,1,.171-.041.359.359,0,0,1,.2.059q.092.059.214.126a1.911,1.911,0,0,0,.286.126,1.257,1.257,0,0,0,.416.059,1.08,1.08,0,0,0,.34-.047.719.719,0,0,0,.234-.124.465.465,0,0,0,.135-.178.533.533,0,0,0,.043-.209.373.373,0,0,0-.1-.266.847.847,0,0,0-.257-.18,2.477,2.477,0,0,0-.364-.137q-.2-.061-.419-.133a3.872,3.872,0,0,1-.418-.169,1.426,1.426,0,0,1-.364-.245,1.11,1.11,0,0,1-.257-.365,1.272,1.272,0,0,1-.1-.522,1.33,1.33,0,0,1,.112-.54,1.267,1.267,0,0,1,.331-.448,1.642,1.642,0,0,1,.544-.306,2.268,2.268,0,0,1,.754-.115,2.307,2.307,0,0,1,.868.158,1.962,1.962,0,0,1,.653.414Z" transform="translate(0 9)"/></g><g transform="translate(0 0)"><path d="M13.137-2.8V0H2.763V-2.8h3.5v-9.187q0-.35.012-.706t.038-.719L4.237-11.687a1.218,1.218,0,0,1-.544.256,1.474,1.474,0,0,1-.506,0,1.188,1.188,0,0,1-.425-.163.951.951,0,0,1-.275-.244L1.263-13.463l5.675-4.762h3.2V-2.8ZM28.5-9.112a14.811,14.811,0,0,1-.513,4.137,8.492,8.492,0,0,1-1.419,2.9,5.722,5.722,0,0,1-2.15,1.712A6.46,6.46,0,0,1,21.725.2a6.375,6.375,0,0,1-2.681-.562,5.7,5.7,0,0,1-2.131-1.712,8.48,8.48,0,0,1-1.406-2.9A14.983,14.983,0,0,1,15-9.112a14.983,14.983,0,0,1,.506-4.137,8.48,8.48,0,0,1,1.406-2.9,5.639,5.639,0,0,1,2.131-1.706,6.436,6.436,0,0,1,2.681-.556,6.522,6.522,0,0,1,2.694.556,5.664,5.664,0,0,1,2.15,1.706,8.492,8.492,0,0,1,1.419,2.9A14.811,14.811,0,0,1,28.5-9.112Zm-4,0a16.508,16.508,0,0,0-.237-3.094,6.342,6.342,0,0,0-.631-1.894,2.289,2.289,0,0,0-.894-.944,2.2,2.2,0,0,0-1.012-.256,2.162,2.162,0,0,0-1.006.256,2.233,2.233,0,0,0-.875.944,6.507,6.507,0,0,0-.612,1.894A16.944,16.944,0,0,0,19-9.112a16.924,16.924,0,0,0,.231,3.1,6.594,6.594,0,0,0,.612,1.894,2.228,2.228,0,0,0,.875.95,2.162,2.162,0,0,0,1.006.256,2.2,2.2,0,0,0,1.012-.256,2.283,2.283,0,0,0,.894-.95,6.426,6.426,0,0,0,.631-1.894A16.488,16.488,0,0,0,24.5-9.112ZM38.575-13.8a4.488,4.488,0,0,1-.362,1.825,4.543,4.543,0,0,1-.963,1.419,4.25,4.25,0,0,1-1.394.919,4.33,4.33,0,0,1-1.656.325,4.559,4.559,0,0,1-1.744-.325,4.046,4.046,0,0,1-1.375-.919,4.2,4.2,0,0,1-.906-1.419A4.939,4.939,0,0,1,29.85-13.8a5.2,5.2,0,0,1,.325-1.881,4.233,4.233,0,0,1,.906-1.444,4.078,4.078,0,0,1,1.375-.931,4.484,4.484,0,0,1,1.744-.331,4.577,4.577,0,0,1,1.756.331,4.049,4.049,0,0,1,1.388.931,4.233,4.233,0,0,1,.906,1.444A5.2,5.2,0,0,1,38.575-13.8Zm-2.975,0a4.39,4.39,0,0,0-.106-1.056,1.88,1.88,0,0,0-.294-.669,1.015,1.015,0,0,0-.444-.35,1.517,1.517,0,0,0-.556-.1,1.468,1.468,0,0,0-.55.1.947.947,0,0,0-.425.35,1.959,1.959,0,0,0-.275.669,4.654,4.654,0,0,0-.1,1.056,4.207,4.207,0,0,0,.1,1,1.813,1.813,0,0,0,.275.638.973.973,0,0,0,.425.337,1.468,1.468,0,0,0,.55.1,1.517,1.517,0,0,0,.556-.1,1.047,1.047,0,0,0,.444-.337,1.744,1.744,0,0,0,.294-.638A3.97,3.97,0,0,0,35.6-13.8Zm8.7-3.838a2.3,2.3,0,0,1,.463-.394,1.376,1.376,0,0,1,.763-.181H48.35L34.625-.55a1.544,1.544,0,0,1-.469.394A1.384,1.384,0,0,1,33.475,0h-2.9ZM49.05-4.275a4.532,4.532,0,0,1-.362,1.831,4.523,4.523,0,0,1-.963,1.425A4.25,4.25,0,0,1,46.331-.1a4.33,4.33,0,0,1-1.656.325A4.559,4.559,0,0,1,42.931-.1a4.046,4.046,0,0,1-1.375-.919,4.191,4.191,0,0,1-.906-1.425,4.988,4.988,0,0,1-.325-1.831,5.2,5.2,0,0,1,.325-1.881A4.233,4.233,0,0,1,41.556-7.6a4.078,4.078,0,0,1,1.375-.931,4.484,4.484,0,0,1,1.744-.331,4.577,4.577,0,0,1,1.756.331,4.049,4.049,0,0,1,1.387.931,4.233,4.233,0,0,1,.906,1.444A5.2,5.2,0,0,1,49.05-4.275Zm-2.975,0a4.326,4.326,0,0,0-.106-1.044,1.88,1.88,0,0,0-.294-.669,1.015,1.015,0,0,0-.444-.35,1.517,1.517,0,0,0-.556-.1,1.468,1.468,0,0,0-.55.1.947.947,0,0,0-.425.35,1.959,1.959,0,0,0-.275.669,4.586,4.586,0,0,0-.1,1.044,4.207,4.207,0,0,0,.1,1,1.813,1.813,0,0,0,.275.637.973.973,0,0,0,.425.338,1.468,1.468,0,0,0,.55.1,1.517,1.517,0,0,0,.556-.1,1.047,1.047,0,0,0,.444-.338,1.744,1.744,0,0,0,.294-.637A3.969,3.969,0,0,0,46.075-4.275Z" transform="translate(0 25)"/></g></g><g transform="translate(472.589 225.844)"><g transform="translate(1.916 28.226)"><path d="M6.051-5.061V0H5.222V-3.269q0-.2.021-.423L3.714-.819a.354.354,0,0,1-.332.206H3.248a.354.354,0,0,1-.332-.206L1.368-3.7q.01.115.018.227t.007.206V0H.563V-5.061h.71q.063,0,.109,0a.294.294,0,0,1,.082.018.179.179,0,0,1,.066.045.389.389,0,0,1,.058.084L3.1-2.1q.059.112.11.231t.1.245q.049-.13.1-.25t.112-.233l1.494-2.8a.353.353,0,0,1,.06-.084A.2.2,0,0,1,5.15-5.04a.294.294,0,0,1,.082-.018q.045,0,.109,0Zm2.8,3.528a4.768,4.768,0,0,0-.63.065,1.679,1.679,0,0,0-.41.121.538.538,0,0,0-.22.171.373.373,0,0,0-.067.213.375.375,0,0,0,.135.326.584.584,0,0,0,.352.1,1.026,1.026,0,0,0,.46-.1,1.367,1.367,0,0,0,.38-.292ZM6.867-3.091a2.131,2.131,0,0,1,1.491-.567,1.457,1.457,0,0,1,.564.1,1.191,1.191,0,0,1,.42.287,1.228,1.228,0,0,1,.261.439,1.688,1.688,0,0,1,.089.56V0H9.3a.4.4,0,0,1-.189-.037.255.255,0,0,1-.105-.149L8.929-.445a3.125,3.125,0,0,1-.266.215,1.566,1.566,0,0,1-.27.156,1.448,1.448,0,0,1-.3.1,1.724,1.724,0,0,1-.352.033,1.379,1.379,0,0,1-.42-.061A.923.923,0,0,1,6.99-.189a.825.825,0,0,1-.217-.3A1.08,1.08,0,0,1,6.7-.917a.843.843,0,0,1,.045-.271.793.793,0,0,1,.149-.257,1.238,1.238,0,0,1,.268-.231,1.74,1.74,0,0,1,.4-.189A3.493,3.493,0,0,1,8.12-2a5.576,5.576,0,0,1,.728-.061v-.21A.786.786,0,0,0,8.694-2.8a.564.564,0,0,0-.444-.173,1.055,1.055,0,0,0-.348.049,1.433,1.433,0,0,0-.243.11l-.191.11a.378.378,0,0,1-.191.049A.249.249,0,0,1,7.123-2.7a.4.4,0,0,1-.1-.11Zm4.452.123a1.548,1.548,0,0,1,.4-.506.851.851,0,0,1,.546-.184.668.668,0,0,1,.4.108l-.056.648a.167.167,0,0,1-.051.089.14.14,0,0,1-.089.026,1.02,1.02,0,0,1-.156-.017,1.2,1.2,0,0,0-.2-.018.724.724,0,0,0-.255.042.643.643,0,0,0-.2.121.823.823,0,0,0-.157.191,1.861,1.861,0,0,0-.128.255V0H10.5V-3.591h.507a.279.279,0,0,1,.186.047.278.278,0,0,1,.07.17ZM13.979-5.2v2.978h.161a.344.344,0,0,0,.138-.023.284.284,0,0,0,.1-.093l.892-1.1a.413.413,0,0,1,.124-.112.357.357,0,0,1,.177-.039h.791L15.25-2.257a.927.927,0,0,1-.259.242.688.688,0,0,1,.131.122,1.668,1.668,0,0,1,.11.151L16.429,0h-.781a.422.422,0,0,1-.175-.033.271.271,0,0,1-.123-.121l-.917-1.361a.258.258,0,0,0-.1-.105.389.389,0,0,0-.158-.025h-.2V0h-.865V-5.2Zm5.008,2.992a1.04,1.04,0,0,0-.047-.317.753.753,0,0,0-.142-.261.659.659,0,0,0-.24-.177.823.823,0,0,0-.338-.065.8.8,0,0,0-.59.214,1.047,1.047,0,0,0-.275.606Zm-1.648.521a1.7,1.7,0,0,0,.1.478.977.977,0,0,0,.2.332.8.8,0,0,0,.3.2,1.087,1.087,0,0,0,.383.065,1.188,1.188,0,0,0,.362-.049,1.7,1.7,0,0,0,.266-.109q.114-.059.2-.109a.335.335,0,0,1,.166-.049.179.179,0,0,1,.161.081l.249.315a1.441,1.441,0,0,1-.322.282,1.806,1.806,0,0,1-.373.182,2.037,2.037,0,0,1-.4.1,2.832,2.832,0,0,1-.39.028,1.918,1.918,0,0,1-.7-.124,1.559,1.559,0,0,1-.56-.367,1.724,1.724,0,0,1-.375-.6,2.33,2.33,0,0,1-.136-.831,1.988,1.988,0,0,1,.119-.691,1.662,1.662,0,0,1,.341-.563,1.607,1.607,0,0,1,.542-.38,1.787,1.787,0,0,1,.723-.14,1.758,1.758,0,0,1,.627.109,1.365,1.365,0,0,1,.493.317,1.467,1.467,0,0,1,.324.511,1.9,1.9,0,0,1,.117.691.561.561,0,0,1-.042.264.174.174,0,0,1-.161.068ZM24,0h-.865V-2.944H21.469V-1a.387.387,0,0,0,.082.263.284.284,0,0,0,.226.094.407.407,0,0,0,.135-.019.742.742,0,0,0,.094-.04q.04-.021.072-.04a.12.12,0,0,1,.063-.019A.1.1,0,0,1,22.2-.74a.292.292,0,0,1,.052.058l.259.42a1.309,1.309,0,0,1-.434.238,1.615,1.615,0,0,1-.507.081.943.943,0,0,1-.719-.264,1.019,1.019,0,0,1-.25-.73V-2.944h-.367a.169.169,0,0,1-.119-.045.177.177,0,0,1-.049-.137v-.343l.578-.1.182-.976a.192.192,0,0,1,.066-.109.2.2,0,0,1,.126-.039h.448v1.131H24Zm.151-4.651a.5.5,0,0,1-.046.212.571.571,0,0,1-.121.173.572.572,0,0,1-.179.117.555.555,0,0,1-.219.044.509.509,0,0,1-.21-.044.567.567,0,0,1-.171-.117.561.561,0,0,1-.117-.173.521.521,0,0,1-.044-.212.53.53,0,0,1,.044-.215.583.583,0,0,1,.117-.175.552.552,0,0,1,.171-.119.509.509,0,0,1,.21-.044.555.555,0,0,1,.219.044.556.556,0,0,1,.179.119.593.593,0,0,1,.121.175A.512.512,0,0,1,24.15-4.651Zm1.54,1.5a2.338,2.338,0,0,1,.229-.2,1.448,1.448,0,0,1,.255-.158,1.432,1.432,0,0,1,.289-.1,1.447,1.447,0,0,1,.336-.037,1.287,1.287,0,0,1,.521.1,1.03,1.03,0,0,1,.38.28,1.231,1.231,0,0,1,.231.431,1.83,1.83,0,0,1,.079.551V0h-.865V-2.286A.773.773,0,0,0,27-2.795a.563.563,0,0,0-.458-.18.9.9,0,0,0-.42.1,1.505,1.505,0,0,0-.371.276V0h-.865V-3.591h.528a.212.212,0,0,1,.221.158Zm4.452,1.267a.811.811,0,0,0,.28-.044.549.549,0,0,0,.2-.121.5.5,0,0,0,.119-.186.679.679,0,0,0,.04-.238.563.563,0,0,0-.159-.422.658.658,0,0,0-.478-.156.658.658,0,0,0-.478.156.563.563,0,0,0-.159.422.669.669,0,0,0,.04.234.514.514,0,0,0,.119.187.535.535,0,0,0,.2.123A.815.815,0,0,0,30.142-1.883ZM31.118.161a.239.239,0,0,0-.063-.171.414.414,0,0,0-.171-.1,1.269,1.269,0,0,0-.254-.054q-.145-.018-.308-.026L29.986-.21q-.173-.007-.338-.028a.809.809,0,0,0-.233.189A.385.385,0,0,0,29.326.2a.349.349,0,0,0,.047.177.394.394,0,0,0,.15.142.894.894,0,0,0,.268.093,2.07,2.07,0,0,0,.4.033,2.053,2.053,0,0,0,.417-.037,1,1,0,0,0,.289-.1.437.437,0,0,0,.166-.154A.376.376,0,0,0,31.118.161Zm.861-3.629v.322q0,.154-.185.189l-.322.059a1.093,1.093,0,0,1,.073.406,1.068,1.068,0,0,1-.107.481,1.07,1.07,0,0,1-.3.366,1.386,1.386,0,0,1-.446.233,1.812,1.812,0,0,1-.555.082,1.905,1.905,0,0,1-.2-.011q-.1-.011-.192-.028-.168.1-.168.227a.168.168,0,0,0,.1.159.818.818,0,0,0,.264.072,3.719,3.719,0,0,0,.374.026q.21.005.431.023a3.445,3.445,0,0,1,.431.061,1.264,1.264,0,0,1,.375.138.735.735,0,0,1,.264.257.79.79,0,0,1,.1.418A.985.985,0,0,1,31.8.476a1.241,1.241,0,0,1-.339.4,1.77,1.77,0,0,1-.546.282,2.349,2.349,0,0,1-.737.107,2.813,2.813,0,0,1-.707-.079,1.683,1.683,0,0,1-.5-.21.906.906,0,0,1-.3-.3.71.71,0,0,1-.1-.357.608.608,0,0,1,.152-.422,1.054,1.054,0,0,1,.418-.271.6.6,0,0,1-.228-.2A.559.559,0,0,1,28.833-.9a.506.506,0,0,1,.03-.166.712.712,0,0,1,.087-.17.836.836,0,0,1,.145-.159,1,1,0,0,1,.206-.135,1.133,1.133,0,0,1-.429-.392,1.047,1.047,0,0,1-.156-.574,1.068,1.068,0,0,1,.107-.481,1.078,1.078,0,0,1,.3-.368,1.357,1.357,0,0,1,.451-.233,1.92,1.92,0,0,1,.569-.08,1.911,1.911,0,0,1,.434.047,1.479,1.479,0,0,1,.371.138Z" transform="translate(0 7)"/></g><path d="M13.137-2.8V0H2.763V-2.8h3.5v-9.187q0-.35.012-.706t.038-.719L4.237-11.687a1.218,1.218,0,0,1-.544.256,1.474,1.474,0,0,1-.506,0,1.188,1.188,0,0,1-.425-.163.951.951,0,0,1-.275-.244L1.263-13.463l5.675-4.762h3.2V-2.8ZM28.5-9.112a14.811,14.811,0,0,1-.513,4.137,8.492,8.492,0,0,1-1.419,2.9,5.722,5.722,0,0,1-2.15,1.712A6.46,6.46,0,0,1,21.725.2a6.375,6.375,0,0,1-2.681-.562,5.7,5.7,0,0,1-2.131-1.712,8.48,8.48,0,0,1-1.406-2.9A14.983,14.983,0,0,1,15-9.112a14.983,14.983,0,0,1,.506-4.137,8.48,8.48,0,0,1,1.406-2.9,5.639,5.639,0,0,1,2.131-1.706,6.436,6.436,0,0,1,2.681-.556,6.522,6.522,0,0,1,2.694.556,5.664,5.664,0,0,1,2.15,1.706,8.492,8.492,0,0,1,1.419,2.9A14.811,14.811,0,0,1,28.5-9.112Zm-4,0a16.508,16.508,0,0,0-.237-3.094,6.342,6.342,0,0,0-.631-1.894,2.289,2.289,0,0,0-.894-.944,2.2,2.2,0,0,0-1.012-.256,2.162,2.162,0,0,0-1.006.256,2.233,2.233,0,0,0-.875.944,6.507,6.507,0,0,0-.612,1.894A16.944,16.944,0,0,0,19-9.112a16.924,16.924,0,0,0,.231,3.1,6.594,6.594,0,0,0,.612,1.894,2.228,2.228,0,0,0,.875.95,2.162,2.162,0,0,0,1.006.256,2.2,2.2,0,0,0,1.012-.256,2.283,2.283,0,0,0,.894-.95,6.426,6.426,0,0,0,.631-1.894A16.488,16.488,0,0,0,24.5-9.112ZM38.575-13.8a4.488,4.488,0,0,1-.362,1.825,4.543,4.543,0,0,1-.963,1.419,4.25,4.25,0,0,1-1.394.919,4.33,4.33,0,0,1-1.656.325,4.559,4.559,0,0,1-1.744-.325,4.046,4.046,0,0,1-1.375-.919,4.2,4.2,0,0,1-.906-1.419A4.939,4.939,0,0,1,29.85-13.8a5.2,5.2,0,0,1,.325-1.881,4.233,4.233,0,0,1,.906-1.444,4.078,4.078,0,0,1,1.375-.931,4.484,4.484,0,0,1,1.744-.331,4.577,4.577,0,0,1,1.756.331,4.049,4.049,0,0,1,1.388.931,4.233,4.233,0,0,1,.906,1.444A5.2,5.2,0,0,1,38.575-13.8Zm-2.975,0a4.39,4.39,0,0,0-.106-1.056,1.88,1.88,0,0,0-.294-.669,1.015,1.015,0,0,0-.444-.35,1.517,1.517,0,0,0-.556-.1,1.468,1.468,0,0,0-.55.1.947.947,0,0,0-.425.35,1.959,1.959,0,0,0-.275.669,4.654,4.654,0,0,0-.1,1.056,4.207,4.207,0,0,0,.1,1,1.813,1.813,0,0,0,.275.638.973.973,0,0,0,.425.337,1.468,1.468,0,0,0,.55.1,1.517,1.517,0,0,0,.556-.1,1.047,1.047,0,0,0,.444-.337,1.744,1.744,0,0,0,.294-.638A3.97,3.97,0,0,0,35.6-13.8Zm8.7-3.838a2.3,2.3,0,0,1,.463-.394,1.376,1.376,0,0,1,.763-.181H48.35L34.625-.55a1.544,1.544,0,0,1-.469.394A1.384,1.384,0,0,1,33.475,0h-2.9ZM49.05-4.275a4.532,4.532,0,0,1-.362,1.831,4.523,4.523,0,0,1-.963,1.425A4.25,4.25,0,0,1,46.331-.1a4.33,4.33,0,0,1-1.656.325A4.559,4.559,0,0,1,42.931-.1a4.046,4.046,0,0,1-1.375-.919,4.191,4.191,0,0,1-.906-1.425,4.988,4.988,0,0,1-.325-1.831,5.2,5.2,0,0,1,.325-1.881A4.233,4.233,0,0,1,41.556-7.6a4.078,4.078,0,0,1,1.375-.931,4.484,4.484,0,0,1,1.744-.331,4.577,4.577,0,0,1,1.756.331,4.049,4.049,0,0,1,1.387.931,4.233,4.233,0,0,1,.906,1.444A5.2,5.2,0,0,1,49.05-4.275Zm-2.975,0a4.326,4.326,0,0,0-.106-1.044,1.88,1.88,0,0,0-.294-.669,1.015,1.015,0,0,0-.444-.35,1.517,1.517,0,0,0-.556-.1,1.468,1.468,0,0,0-.55.1.947.947,0,0,0-.425.35,1.959,1.959,0,0,0-.275.669,4.586,4.586,0,0,0-.1,1.044,4.207,4.207,0,0,0,.1,1,1.813,1.813,0,0,0,.275.637.973.973,0,0,0,.425.338,1.468,1.468,0,0,0,.55.1,1.517,1.517,0,0,0,.556-.1,1.047,1.047,0,0,0,.444-.338,1.744,1.744,0,0,0,.294-.637A3.969,3.969,0,0,0,46.075-4.275Z" transform="translate(0 25)"/></g></g></svg>