<svg xmlns="http://www.w3.org/2000/svg" viewBox="994 2936.731 291.4 340.452"><defs><style>.a{fill:#bb394c;}</style></defs><g transform="translate(994.1 2936.845)"><path class="a" d="M535.281,1932.139c-1.553-.784-3.121-1.613-4.644-2.458a1.586,1.586,0,1,0-1.538,2.774c1.553.875,3.151,1.719,4.75,2.518a1.486,1.486,0,0,0,.709.166,1.6,1.6,0,0,0,1.417-.874A1.564,1.564,0,0,0,535.281,1932.139Z" transform="translate(-448.712 -1638.649)"/><path class="a" d="M470.8,1893.033c-1.478-.92-2.97-1.87-4.418-2.85a1.585,1.585,0,0,0-1.779,2.624c1.478.995,3,1.975,4.523,2.91a1.515,1.515,0,0,0,.829.241,1.567,1.567,0,0,0,1.342-.754A1.547,1.547,0,0,0,470.8,1893.033Z" transform="translate(-394.049 -1605.047)"/><path class="a" d="M410.026,1848.76c-1.4-1.04-2.789-2.111-4.146-3.212a1.587,1.587,0,1,0-1.99,2.473c1.387,1.116,2.82,2.216,4.252,3.287a1.585,1.585,0,0,0,1.885-2.548Z" transform="translate(-342.576 -1567.076)"/><path class="a" d="M602.844,1965.559c-1.613-.648-3.242-1.342-4.84-2.05a1.586,1.586,0,1,0-1.3,2.895c1.628.739,3.287,1.432,4.946,2.111a1.643,1.643,0,0,0,.588.12,1.6,1.6,0,0,0,.6-3.076Z" transform="translate(-506.022 -1667.425)"/><path class="a" d="M92.911,1349.961a1.593,1.593,0,0,0,1.538,1.191,1.887,1.887,0,0,0,.407-.045,1.581,1.581,0,0,0,1.131-1.93c-.437-1.688-.844-3.393-1.221-5.1a1.582,1.582,0,1,0-3.091.679C92.036,1346.478,92.458,1348.242,92.911,1349.961Z" transform="translate(-77.903 -1140.457)"/><path class="a" d="M79.347,1275.434a1.582,1.582,0,0,0,1.553,1.312.835.835,0,0,0,.271-.03,1.585,1.585,0,0,0,1.3-1.824c-.286-1.719-.558-3.453-.784-5.187a1.589,1.589,0,1,0-3.151.407C78.789,1271.906,79.045,1273.685,79.347,1275.434Z" transform="translate(-66.766 -1077.178)"/><path class="a" d="M74,1201.938h.136a1.584,1.584,0,0,0,1.447-1.7c-.151-1.734-.256-3.5-.332-5.232a1.585,1.585,0,1,0-3.166.151c.075,1.779.2,3.589.347,5.353A1.563,1.563,0,0,0,74,1201.938Z" transform="translate(-61.302 -1013.634)"/><path class="a" d="M353.147,1799.6c-1.312-1.146-2.608-2.337-3.86-3.543a1.579,1.579,0,0,0-2.171,2.292c1.3,1.236,2.624,2.443,3.95,3.634a1.547,1.547,0,0,0,1.04.392,1.583,1.583,0,0,0,1.04-2.774Z" transform="translate(-294.442 -1524.971)"/><path class="a" d="M673.116,1992.948c-1.674-.513-3.347-1.055-4.991-1.644a1.583,1.583,0,0,0-1.055,2.986c1.689.588,3.408,1.146,5.111,1.674a1.675,1.675,0,0,0,.467.076,1.581,1.581,0,0,0,.467-3.091Z" transform="translate(-565.679 -1691.075)"/><path class="a" d="M1263.861,1977.082c-1.613.648-3.257,1.282-4.9,1.855a1.583,1.583,0,0,0,.528,3.076,1.557,1.557,0,0,0,.528-.09c1.674-.6,3.363-1.237,5.021-1.9a1.583,1.583,0,0,0-1.176-2.94Z" transform="translate(-1068.322 -1678.978)"/><path class="a" d="M71.2,1124.795v.075a1.583,1.583,0,1,0,3.166,0v-.075c0-1.719.03-3.453.106-5.157a1.584,1.584,0,0,0-3.166-.12C71.23,1121.267,71.2,1123.046,71.2,1124.795Z" transform="translate(-60.549 -949.518)"/><path class="a" d="M811.9,1817.81c-1.659.513-3.362,1-5.036,1.432a1.643,1.643,0,0,0-.814.513v-8.881a16.221,16.221,0,0,0-8.067-13.993l-16.767-9.71a16.241,16.241,0,0,0-16.224,0l-16.767,9.71a16.221,16.221,0,0,0-8.067,13.993v8.58h0a1.587,1.587,0,0,0-.784,3.076c.256.06.528.136.784.2v7.69a16.221,16.221,0,0,0,8.067,13.992l16.767,9.71a16.24,16.24,0,0,0,16.224,0l16.767-9.71a16.221,16.221,0,0,0,8.067-13.992v-8.625a1.6,1.6,0,0,0,1.206.558,1.87,1.87,0,0,0,.407-.045c1.719-.452,3.468-.95,5.157-1.463a1.584,1.584,0,1,0-.92-3.031Zm-45.31,33.579-16.767-9.71a13.068,13.068,0,0,1-6.484-11.263v-19.541a13.068,13.068,0,0,1,6.484-11.263l16.767-9.71a13.059,13.059,0,0,1,13.058,0l16.767,9.71a13.067,13.067,0,0,1,6.484,11.263v19.541a13.068,13.068,0,0,1-6.484,11.263l-16.767,9.71A13.109,13.109,0,0,1,766.59,1851.389Z" transform="translate(-626.96 -1515.952)"/><path class="a" d="M1333.3,1946.133c-1.553.784-3.137,1.538-4.72,2.262a1.578,1.578,0,0,0,.664,3.015,1.516,1.516,0,0,0,.664-.151c1.613-.739,3.241-1.523,4.825-2.322a1.565,1.565,0,0,0,.694-2.126A1.589,1.589,0,0,0,1333.3,1946.133Z" transform="translate(-1127.55 -1652.643)"/><path class="a" d="M1463.672,1867.26c-1.4,1.04-2.835,2.051-4.267,3.031a1.6,1.6,0,0,0-.422,2.2,1.564,1.564,0,0,0,1.312.694,1.619,1.619,0,0,0,.89-.271c1.478-1,2.94-2.051,4.373-3.106a1.585,1.585,0,1,0-1.885-2.548Z" transform="translate(-1238.852 -1585.547)"/><path class="a" d="M1523.7,1820.023c-1.312,1.146-2.654,2.292-4,3.378a1.59,1.59,0,0,0,1.01,2.82,1.557,1.557,0,0,0,1-.362c1.387-1.131,2.759-2.292,4.1-3.468a1.564,1.564,0,0,0,.136-2.232A1.582,1.582,0,0,0,1523.7,1820.023Z" transform="translate(-1290.15 -1545.351)"/><path class="a" d="M1400.072,1909.428c-1.478.9-3,1.809-4.508,2.654a1.578,1.578,0,0,0,.784,2.955,1.446,1.446,0,0,0,.769-.211c1.553-.874,3.106-1.794,4.614-2.729a1.571,1.571,0,1,0-1.659-2.669Z" transform="translate(-1184.539 -1621.411)"/><path class="a" d="M1850.167,1153.249v-.166a1.583,1.583,0,0,0-1.583-1.583h0a1.583,1.583,0,0,0-1.583,1.583v.166c0,1.734-.03,3.5-.105,5.247a1.584,1.584,0,0,0,1.523,1.644h.06a1.581,1.581,0,0,0,1.583-1.523C1850.136,1156.838,1850.167,1155.043,1850.167,1153.249Z" transform="translate(-1568.501 -977.972)"/><path class="a" d="M1546.374,488.353c1.312,1.146,2.609,2.337,3.875,3.543a1.579,1.579,0,0,0,2.171-2.292c-1.282-1.221-2.624-2.443-3.965-3.619a1.576,1.576,0,1,0-2.081,2.367Z" transform="translate(-1312.838 -412.472)"/><path class="a" d="M1487.835,440.924c1.4,1.04,2.8,2.111,4.162,3.2a1.541,1.541,0,0,0,.995.347,1.57,1.57,0,0,0,1.236-.588,1.6,1.6,0,0,0-.241-2.232c-1.387-1.116-2.82-2.216-4.252-3.287a1.6,1.6,0,0,0-1.9,2.563Z" transform="translate(-1263.044 -372.099)"/><path class="a" d="M1843.97,1235.008c.226-1.764.407-3.558.558-5.338a1.581,1.581,0,0,0-3.151-.257c-.151,1.734-.332,3.483-.543,5.217a1.581,1.581,0,0,0,1.372,1.764.868.868,0,0,0,.2.015A1.605,1.605,0,0,0,1843.97,1235.008Z" transform="translate(-1563.345 -1042.904)"/><path class="a" d="M1845.814,1076.266a1.589,1.589,0,0,0-1.447,1.719c.151,1.734.256,3.5.347,5.232a1.589,1.589,0,0,0,1.583,1.508h.075a1.584,1.584,0,0,0,1.508-1.659c-.075-1.779-.2-3.589-.347-5.353A1.606,1.606,0,0,0,1845.814,1076.266Z" transform="translate(-1566.35 -914.077)"/><path class="a" d="M1829.68,1311.09a1.238,1.238,0,0,0,.332.03,1.594,1.594,0,0,0,1.553-1.251c.362-1.749.709-3.513,1.01-5.277a1.583,1.583,0,0,0-3.121-.528c-.287,1.719-.618,3.453-.98,5.157A1.557,1.557,0,0,0,1829.68,1311.09Z" transform="translate(-1552.825 -1106.411)"/><path class="a" d="M1837.888,1002.764a1.583,1.583,0,1,0-3.121.528c.286,1.719.557,3.453.784,5.187a1.577,1.577,0,0,0,1.568,1.372,1,1,0,0,0,.211-.015,1.571,1.571,0,0,0,1.357-1.779C1838.461,1006.307,1838.19,1004.513,1837.888,1002.764Z" transform="translate(-1558.183 -850.541)"/><path class="a" d="M1425.421,398.788c1.478.92,2.97,1.87,4.418,2.835a1.577,1.577,0,1,0,1.749-2.624c-1.478-1-3-1.975-4.523-2.91a1.58,1.58,0,1,0-1.643,2.7Z" transform="translate(-1209.933 -336.266)"/><path class="a" d="M1821.96,928.93a1.582,1.582,0,1,0-3.061.8c.438,1.689.844,3.393,1.221,5.1a1.59,1.59,0,0,0,1.538,1.252,2.942,2.942,0,0,0,.347-.03,1.566,1.566,0,0,0,1.206-1.885C1822.834,932.413,1822.412,930.648,1821.96,928.93Z" transform="translate(-1544.682 -787.955)"/><path class="a" d="M1290.922,330.987c1.613.648,3.241,1.342,4.84,2.051a1.669,1.669,0,0,0,.649.136,1.584,1.584,0,0,0,.648-3.031c-1.628-.724-3.3-1.432-4.945-2.1a1.586,1.586,0,1,0-1.191,2.94Z" transform="translate(-1095.518 -278.582)"/><path class="a" d="M432.542,424.454a1.522,1.522,0,0,0,.935-.317c1.4-1.04,2.835-2.051,4.267-3.031a1.585,1.585,0,1,0-1.779-2.624c-1.463,1-2.94,2.051-4.373,3.106a1.588,1.588,0,0,0-.332,2.216A1.607,1.607,0,0,0,432.542,424.454Z" transform="translate(-366.057 -355.252)"/><path class="a" d="M373.829,469.821a1.6,1.6,0,0,0,1.04-.392c1.312-1.146,2.654-2.292,4-3.393a1.586,1.586,0,1,0-2.005-2.458c-1.387,1.131-2.759,2.292-4.1,3.468a1.564,1.564,0,0,0-.136,2.232A1.631,1.631,0,0,0,373.829,469.821Z" transform="translate(-316.18 -393.472)"/><path class="a" d="M74.724,1044.221c-.211,1.764-.407,3.558-.558,5.338a1.566,1.566,0,0,0,1.448,1.7h.136a1.589,1.589,0,0,0,1.583-1.447c.151-1.734.332-3.483.543-5.217a1.581,1.581,0,0,0-1.372-1.764A1.6,1.6,0,0,0,74.724,1044.221Z" transform="translate(-63.063 -885.681)"/><path class="a" d="M1359.645,361.986c1.553.784,3.121,1.613,4.644,2.458a1.586,1.586,0,1,0,1.538-2.774c-1.553-.859-3.151-1.719-4.749-2.518a1.588,1.588,0,0,0-1.432,2.835Z" transform="translate(-1153.988 -304.951)"/><path class="a" d="M85.32,976.942a1.57,1.57,0,0,0,1.553-1.312c.286-1.719.618-3.453.98-5.156a1.579,1.579,0,1,0-3.091-.648c-.362,1.749-.709,3.513-1,5.277a1.585,1.585,0,0,0,1.3,1.824C85.139,976.927,85.23,976.942,85.32,976.942Z" transform="translate(-71.201 -822.624)"/><path class="a" d="M560.638,349.9a1.682,1.682,0,0,0,.709-.166c1.553-.784,3.136-1.553,4.719-2.262a1.582,1.582,0,1,0-1.312-2.88c-1.613.739-3.242,1.523-4.825,2.322a1.577,1.577,0,0,0-.694,2.126A1.537,1.537,0,0,0,560.638,349.9Z" transform="translate(-474.852 -292.611)"/><path class="a" d="M494.894,384.348a1.514,1.514,0,0,0,.829-.241c1.478-.92,3-1.809,4.508-2.669a1.583,1.583,0,1,0-1.553-2.759c-1.553.875-3.106,1.794-4.614,2.729a1.59,1.59,0,0,0,.829,2.94Z" transform="translate(-419.015 -321.509)"/><path class="a" d="M1234.786,246.683a1.583,1.583,0,0,0-1.583-1.583h0a1.583,1.583,0,0,0-1.583,1.583v5.277a1.418,1.418,0,0,0,.105.558,4.413,4.413,0,0,0-2.925,4.146,3.139,3.139,0,0,0,.015.377,4.4,4.4,0,0,0,2.8,3.724v2.5a1.583,1.583,0,0,0,1.583,1.583h0a1.583,1.583,0,0,0,1.583-1.583v-2.5a4.4,4.4,0,0,0-.09-8.248,1.671,1.671,0,0,0,.105-.558v-5.277Z" transform="translate(-1043.605 -208.24)"/><path class="a" d="M673.289,446.022a1.6,1.6,0,0,0,1.432.89,1.646,1.646,0,0,0,.694-.151c.03-.015.045-.03.076-.045a1.576,1.576,0,0,0,.663-2.066,13.057,13.057,0,0,1-1.252-4.508,1.587,1.587,0,0,0-1.628-1.447H673.2a1.577,1.577,0,0,0-1.432,1.719A15.758,15.758,0,0,0,673.289,446.022Z" transform="translate(-570.556 -372.643)"/><path class="a" d="M921.233,3.356a1.562,1.562,0,0,0,1.417.875,1.475,1.475,0,0,0,.618-.136,12.849,12.849,0,0,1,4.554-1.04,1.565,1.565,0,0,0,1.508-1.568V1.4a1.584,1.584,0,0,0-1.659-1.508A16.273,16.273,0,0,0,922,1.185a1.588,1.588,0,0,0-.829,2.081A.875.875,0,0,0,921.233,3.356Z" transform="translate(-782.252)"/><path class="a" d="M678.226,151.938c.03.015.06.015.091.03a1.572,1.572,0,0,0,1.96-.965,13.309,13.309,0,0,1,2.367-4.041,1.573,1.573,0,0,0-.106-2.171l-.06-.06a1.579,1.579,0,0,0-2.232.166,15.886,15.886,0,0,0-2.94,5.021A1.55,1.55,0,0,0,678.226,151.938Z" transform="translate(-575.176 -122.678)"/><path class="a" d="M726.4,107.508a1.612,1.612,0,0,0,1.372.784,1.711,1.711,0,0,0,.8-.211l4.569-2.654a1.577,1.577,0,0,0,.573-2.156h0a1.577,1.577,0,0,0-2.156-.573l-4.569,2.654a1.566,1.566,0,0,0-.588,2.156Z" transform="translate(-616.778 -87.129)"/><path class="a" d="M672.883,222.144h0a1.583,1.583,0,0,0,1.583-1.583v-5.277A1.58,1.58,0,0,0,672.9,213.7h-.015a1.583,1.583,0,0,0-1.583,1.583v5.277A1.583,1.583,0,0,0,672.883,222.144Z" transform="translate(-570.165 -181.575)"/><path class="a" d="M1232.185,457.669a.192.192,0,0,0-.091-.015,1.588,1.588,0,0,0-1.885,1.086,13.305,13.305,0,0,1-2.111,4.177,1.574,1.574,0,0,0,.241,2.156l.06.06a1.6,1.6,0,0,0,.95.317,1.564,1.564,0,0,0,1.267-.633,16.042,16.042,0,0,0,2.624-5.187A1.564,1.564,0,0,0,1232.185,457.669Z" transform="translate(-1042.738 -388.708)"/><path class="a" d="M672.883,372.144a1.583,1.583,0,0,0,1.583-1.583v-5.277a1.583,1.583,0,0,0-1.583-1.583h0a1.583,1.583,0,0,0-1.583,1.583v5.277a1.583,1.583,0,0,0,1.583,1.583Z" transform="translate(-570.165 -308.958)"/><path class="a" d="M1249.083,395.1h0a1.583,1.583,0,0,0-1.583,1.583v5.277a1.586,1.586,0,0,0,1.493,1.583h.09a1.583,1.583,0,0,0,1.583-1.583v-5.277A1.583,1.583,0,0,0,1249.083,395.1Z" transform="translate(-1059.485 -335.623)"/><path class="a" d="M977.6,628.243a1.573,1.573,0,0,0-2.1-.633,12.9,12.9,0,0,1-4.493,1.327,1.6,1.6,0,0,0-1.417,1.659v.091a1.582,1.582,0,0,0,1.568,1.417.569.569,0,0,0,.166-.015,16.119,16.119,0,0,0,5.579-1.659,1.577,1.577,0,0,0,.694-2.126C977.631,628.273,977.615,628.258,977.6,628.243Z" transform="translate(-823.481 -532.926)"/><path class="a" d="M899.671,620.928l1.794,1.04a16.828,16.828,0,0,0,3.242,1.432,1.786,1.786,0,0,0,.482.075,1.584,1.584,0,0,0,1.508-1.1.191.191,0,0,0,.015-.091,1.568,1.568,0,0,0-1.055-1.9,13.85,13.85,0,0,1-2.609-1.146l-1.794-1.041a1.577,1.577,0,0,0-2.156.573h0A1.584,1.584,0,0,0,899.671,620.928Z" transform="translate(-763.435 -524.901)"/><path class="a" d="M711.163,509.706a1.612,1.612,0,0,0,1.372-.784h0a1.6,1.6,0,0,0-.573-2.171l-2.262-1.312a13.2,13.2,0,0,1-1.93-1.372,1.587,1.587,0,0,0-2.171.106l-.06.06a1.567,1.567,0,0,0,.181,2.232,16.819,16.819,0,0,0,2.4,1.7l2.262,1.312A1.477,1.477,0,0,0,711.163,509.706Z" transform="translate(-598.915 -427.838)"/><path class="a" d="M1125.372,83.543l4.569,2.654a1.55,1.55,0,0,0,.8.211,1.612,1.612,0,0,0,1.372-.784h0a1.577,1.577,0,0,0-.573-2.156L1126.97,80.8a1.6,1.6,0,0,0-2.171.573h0A1.594,1.594,0,0,0,1125.372,83.543Z" transform="translate(-955.103 -68.531)"/><path class="a" d="M1060.5,46.028l4.569,2.654a1.549,1.549,0,0,0,.8.211,1.612,1.612,0,0,0,1.372-.784h0a1.577,1.577,0,0,0-.573-2.156l-4.569-2.654a1.577,1.577,0,0,0-2.156.573h0A1.563,1.563,0,0,0,1060.5,46.028Z" transform="translate(-900.014 -36.686)"/><path class="a" d="M1190.245,121.228l1.478.859a12.582,12.582,0,0,1,2.533,1.915,1.564,1.564,0,0,0,1.1.452,1.528,1.528,0,0,0,1.07-.422l.061-.06a1.588,1.588,0,0,0-.03-2.232,16.18,16.18,0,0,0-3.151-2.382l-1.478-.859a1.6,1.6,0,0,0-2.171.573h0A1.6,1.6,0,0,0,1190.245,121.228Z" transform="translate(-1010.192 -100.547)"/><path class="a" d="M995.347,9.365a13.69,13.69,0,0,1,1.839.875l2.594,1.508a1.549,1.549,0,0,0,.8.211,1.612,1.612,0,0,0,1.372-.784h0A1.6,1.6,0,0,0,1001.378,9L998.784,7.5a17.6,17.6,0,0,0-2.277-1.1,1.587,1.587,0,0,0-2.051.9c-.015.03-.015.06-.03.075A1.586,1.586,0,0,0,995.347,9.365Z" transform="translate(-844.499 -5.436)"/><path class="a" d="M1241.37,177.736a1.574,1.574,0,0,0,1.583,1.538h.03a1.574,1.574,0,0,0,1.538-1.628,16.122,16.122,0,0,0-1.192-5.7,1.594,1.594,0,0,0-2.065-.875c-.03.015-.045.03-.075.03a1.567,1.567,0,0,0-.784,2.02A13.23,13.23,0,0,1,1241.37,177.736Z" transform="translate(-1053.355 -145.279)"/><path class="a" d="M1172.94,514.908l-4.569,2.654a1.577,1.577,0,0,0-.573,2.156h0a1.562,1.562,0,0,0,1.372.784,1.712,1.712,0,0,0,.8-.211l4.569-2.654a1.578,1.578,0,0,0,.573-2.156c-.015-.015-.03-.03-.03-.045A1.6,1.6,0,0,0,1172.94,514.908Z" transform="translate(-991.62 -437.186)"/><path class="a" d="M856.2,32.208a1.562,1.562,0,0,0,1.372.784,1.711,1.711,0,0,0,.8-.211l4.554-2.639a1.591,1.591,0,0,0,.573-2.171h0a1.591,1.591,0,0,0-2.171-.573l-4.569,2.654a1.586,1.586,0,0,0-.558,2.156Z" transform="translate(-727 -23.183)"/><path class="a" d="M1108.04,552.5l-4.569,2.654a1.577,1.577,0,0,0-.573,2.156h0a1.562,1.562,0,0,0,1.372.784,1.711,1.711,0,0,0,.8-.211l4.569-2.654a1.577,1.577,0,0,0,.573-2.156h0A1.6,1.6,0,0,0,1108.04,552.5Z" transform="translate(-936.505 -469.108)"/><path class="a" d="M1043.14,590.1l-4.568,2.654a1.577,1.577,0,0,0-.573,2.156h0a1.562,1.562,0,0,0,1.372.784,1.711,1.711,0,0,0,.8-.211l4.569-2.654a1.591,1.591,0,0,0,.573-2.171A1.607,1.607,0,0,0,1043.14,590.1Z" transform="translate(-881.391 -501.035)"/><path class="a" d="M791.3,69.823a1.562,1.562,0,0,0,1.372.784,1.71,1.71,0,0,0,.8-.211l4.569-2.654A1.588,1.588,0,0,0,796.44,65l-4.569,2.654a1.591,1.591,0,0,0-.573,2.171Z" transform="translate(-671.889 -55.114)"/><path class="a" d="M836.455,580.5a1.577,1.577,0,0,0-2.156.573h0a1.577,1.577,0,0,0,.573,2.156l4.569,2.654a1.548,1.548,0,0,0,.8.211,1.612,1.612,0,0,0,1.372-.784h0a1.577,1.577,0,0,0-.573-2.156Z" transform="translate(-708.405 -492.886)"/><path class="a" d="M769.3,543.434h0a1.6,1.6,0,0,0,.573,2.171l4.569,2.654a1.549,1.549,0,0,0,.8.211,1.612,1.612,0,0,0,1.372-.784h0a1.6,1.6,0,0,0-.573-2.171l-4.569-2.654A1.585,1.585,0,0,0,769.3,543.434Z" transform="translate(-653.206 -460.917)"/><path class="a" d="M8.067,547.123l8.006,4.644c-.362,1.236-.709,2.488-1.025,3.724a1.581,1.581,0,0,0,1.131,1.93,1.843,1.843,0,0,0,.392.045,1.589,1.589,0,0,0,1.538-1.191c.241-.965.513-1.915.784-2.88l5.941,3.438a16.239,16.239,0,0,0,16.224,0l16.767-9.71a16.221,16.221,0,0,0,8.067-13.993V513.589A16.221,16.221,0,0,0,57.825,499.6l-5.564-3.227c.694-.709,1.4-1.4,2.111-2.1A1.578,1.578,0,0,0,52.185,492c-.92.89-1.84,1.809-2.744,2.729l-8.368-4.855a16.239,16.239,0,0,0-16.224,0l-16.782,9.71A16.246,16.246,0,0,0,0,513.589V533.13A16.24,16.24,0,0,0,8.067,547.123Zm-4.9-33.534A13.068,13.068,0,0,1,9.65,502.326l16.767-9.71a13.06,13.06,0,0,1,13.058,0l8.67,5.021,1.448.844,6.649,3.86A13.068,13.068,0,0,1,62.725,513.6v19.541a13.067,13.067,0,0,1-6.484,11.263l-16.782,9.68a13.036,13.036,0,0,1-13.058,0l-7-4.056-1.463-.844-8.293-4.81a13.068,13.068,0,0,1-6.484-11.263V513.589Z" transform="translate(-0.085 -414.261)"/><path class="a" d="M65.792,1416.215v-19.541a16.222,16.222,0,0,0-8.067-13.993l-16.767-9.71a16.239,16.239,0,0,0-16.224,0l-16.767,9.71A16.222,16.222,0,0,0-.1,1396.674v19.541a16.221,16.221,0,0,0,8.067,13.993l16.767,9.71a16.239,16.239,0,0,0,16.224,0l16.767-9.71A16.2,16.2,0,0,0,65.792,1416.215Zm-15.41,14.611-2.82,1.629-8.187,4.749a13.035,13.035,0,0,1-13.058,0l-16.752-9.725a13.067,13.067,0,0,1-6.484-11.263v-19.541a13.068,13.068,0,0,1,6.484-11.264l7.569-4.388,2.8-1.628,6.393-3.709a13.061,13.061,0,0,1,13.058,0l16.767,9.71a13.067,13.067,0,0,1,6.484,11.263v19.556a13.067,13.067,0,0,1-6.484,11.263Z" transform="translate(0 -1164.206)"/><path class="a" d="M1495.9,514.014v19.541a16.145,16.145,0,0,0,8.022,13.932l16.767,9.71a16.127,16.127,0,0,0,16.164,0l16.767-9.71a16.145,16.145,0,0,0,8.022-13.932V514.014a16.145,16.145,0,0,0-8.022-13.932l-16.767-9.71a16.1,16.1,0,0,0-16.149,0l-16.782,9.71A16.145,16.145,0,0,0,1495.9,514.014Zm16.48-15.349,2.82-1.628,7-4.056a13.075,13.075,0,0,1,13.118,0l16.767,9.71a13.125,13.125,0,0,1,6.529,11.324v19.541a13.144,13.144,0,0,1-6.529,11.324l-6.423,3.724-2.8,1.628-7.524,4.358a13.1,13.1,0,0,1-13.133,0l-16.752-9.725a13.126,13.126,0,0,1-6.529-11.324V514.014a13.144,13.144,0,0,1,6.529-11.324Z" transform="translate(-1270.431 -414.685)"/><path class="a" d="M1553.31,1382.6l-7.238-4.207c.483-1.6.935-3.242,1.357-4.855a1.582,1.582,0,0,0-3.061-.8c-.347,1.342-.724,2.684-1.116,4.026l-6.695-3.89a16.239,16.239,0,0,0-16.224,0l-16.767,9.71a16.221,16.221,0,0,0-8.067,13.993v19.556a16.221,16.221,0,0,0,8.067,13.993l5.775,3.347c-.422.422-.844.829-1.282,1.252a1.574,1.574,0,0,0-.045,2.231,1.61,1.61,0,0,0,1.146.483,1.646,1.646,0,0,0,1.1-.437c.648-.618,1.282-1.251,1.915-1.885l8.157,4.719a16.238,16.238,0,0,0,16.224,0l16.767-9.71a16.221,16.221,0,0,0,8.067-13.993v-19.541A16.351,16.351,0,0,0,1553.31,1382.6Zm4.885,33.534a13.067,13.067,0,0,1-6.484,11.264l-16.767,9.71a13.035,13.035,0,0,1-13.058,0l-7.554-4.373-2.729-1.583-6.483-3.754a13.068,13.068,0,0,1-6.484-11.264v-19.541a13.068,13.068,0,0,1,6.484-11.264l16.767-9.71a13.061,13.061,0,0,1,13.058,0l16.767,9.71a13.068,13.068,0,0,1,6.484,11.264Z" transform="translate(-1270.091 -1164.121)"/><path class="a" d="M813.849,235.469s-.648,3.378-1.267,6.408c0,0-.422.5-.724.558-.317.06-.875,1.885-1.206,4.192l-.452,3.091c.709,0,4.373-.045,4.373-.045s.045-2.428-.045-3.634a26.335,26.335,0,0,1,1.025-9.077c.347-1.417.829-3.136.92-3.423a.117.117,0,0,0,.015-.045,25.772,25.772,0,0,0,.483-2.97c.075-.679.121-1.387.181-2.156.03-.467-.226-3.966.98-2.7a9.421,9.421,0,0,0,.92.8s.437,0,.241-.422c-.181-.422-.618-1.523.181-1.221a10.946,10.946,0,0,0,2.232.422l.558.241a2.664,2.664,0,0,1,1.252,1.417,20.648,20.648,0,0,0,1.116,2.051c.467.8,1.01,1.568,1.493,2.367a3.1,3.1,0,0,0,1.659,1.312,1.181,1.181,0,0,0,.467.06c.241-.045.105-.317-.407-.694a4.6,4.6,0,0,1-.98-1.086,1.04,1.04,0,0,1-.226-.483c.121-.015.241-.015.377-.03.9-.045,1.9-.03,2.774-.136.241-.03,1.312-.286,1.387.09a2.782,2.782,0,0,1-.121,1.04c-.091.3-.362.483.136.452a4.546,4.546,0,0,0,.648-.166c1.131-.241,2.292-.558,3.468-.769.347-.06.694-.121,1.055-.166.467-.06.92-.09,1.387-.151.166-.015.377-.06.573-.06a.535.535,0,0,1,.422.166c.3.332-.075.633-.271.875a.689.689,0,0,0-.106.151c-.045.075-.045.136.06.106a.348.348,0,0,0,.136-.045c.679-.286,1.04-.98,1.674-1.342a1.467,1.467,0,0,1,.678-.136c.256-.015.573.618.754.9.106.166.588.9,1.056,1.6.226.347.452.694.633.95h0l2.458,3.709,1.628,2.518.814,1.3-.9,1.312-2.865,3.966c-.588.814-1.01,1.387-1.266,1.7l-.784,1.04c.814-.015,1.447-.015,1.915-.015.422,0,1.025,0,1.84.015.588-.875,1.282-1.824,2.066-2.865s1.372-1.87,1.779-2.458c.362.573.829,1.3,1.417,2.156l2.066,3.181c.151,0,.286-.015.422-.015.5-.015,1.357-.06,2.186-.075.678,0,1.628,0,2.216.015-2.488-3.694-5.157-6.333-6.227-8.082.92-1.342,1.9-2.714,2.925-4.1.844-1.146,1.538-2.1,2.066-2.835.106-.151.226-.3.317-.452-.829.015-1.432.03-1.839.03-.618,0-1.237,0-1.84-.03-.045.06-.075.121-.121.181q-.656,1.018-1.764,2.443c-.8,1.04-1.1,1.493-1.538,2.126l-3.046-4.765h-.015c-.075-.136-.166-.256-.241-.392-.211-.347-.422-.679-.618-1.025-.256-.407-.5-.814-.769-1.221a6.988,6.988,0,0,1-.407-.663l-.437-.678-.3-.467c-.075-.075-.663.03-.784.03-.271.015-.543.03-.814.03-.528.03-1.04.045-1.568.075-.317.015-.618.03-.935.06l-1.116.09c-.422.03-.844.075-1.282.121q-.95.113-1.9.271c-.317.06-.633.121-.935.2-.422.106-.844.226-1.252.362a5.441,5.441,0,0,1-1.885.392,9.915,9.915,0,0,0-.241-1.493c-1.191.045-2.367.06-3.559.075-.347,0-.709.015-1.055.015a2.062,2.062,0,0,1-.422.03,1.407,1.407,0,0,1-.513,0c-.121-.06-2.081-3.95-2.081-3.95s-.347-.5-.543-.724l-3.634-.859a14.293,14.293,0,0,0-3.166-.814c-.467.136-.513,1.915-.694,2.684l-.558,4.508-1.071,4.87Z" transform="translate(-688.122 -189.653)"/><path class="a" d="M856.824,306.915c.98-.106,2.1-.286,3.317-.543.075-3.181.226-6.061.407-8.67-.814.015-1.824.03-3.046.03-.935,0-1.9-.015-2.925-.03,0,.558-.03,1.342-.106,2.382.754-.03,1.387-.03,1.885-.03l.875.015-.181,4.086a10.386,10.386,0,0,1-1.659.377,9.892,9.892,0,0,1-1.387.106,5.913,5.913,0,0,1-2.835-.648,3.727,3.727,0,0,1-1.764-1.84,6.609,6.609,0,0,1-.528-2.684,7.6,7.6,0,0,1,.452-2.608,5.512,5.512,0,0,1,1.342-2.126,5.4,5.4,0,0,1,2.1-1.267,8.007,8.007,0,0,1,2.563-.407,14.219,14.219,0,0,1,4.719.92c-.075-.965-.121-1.885-.121-2.774a23.261,23.261,0,0,0-4.931-.6,14.346,14.346,0,0,0-2.955.287,8.142,8.142,0,0,0-2.639,1.055,7.693,7.693,0,0,0-2.126,1.945,8.462,8.462,0,0,0-1.327,2.563,9.373,9.373,0,0,0-.452,2.895,9.132,9.132,0,0,0,.6,3.332,6.116,6.116,0,0,0,1.749,2.548,6.99,6.99,0,0,0,2.82,1.4,14.391,14.391,0,0,0,3.6.437A23.957,23.957,0,0,0,856.824,306.915Z" transform="translate(-718.099 -246.88)"/><path class="a" d="M961.324,303.99a4.511,4.511,0,0,0-.106-1.01,4.585,4.585,0,0,0-.286-.875,2.968,2.968,0,0,0-.5-.754,3.377,3.377,0,0,0-.663-.588,2.721,2.721,0,0,0-.663-.332,6.822,6.822,0,0,0-.829-.226,7.279,7.279,0,0,0,.92-.392,4.638,4.638,0,0,0,.724-.513,3.469,3.469,0,0,0,.663-.8,4.433,4.433,0,0,0,.437-1.055,4.713,4.713,0,0,0,.151-1.236,4.647,4.647,0,0,0-.121-1.025,4.206,4.206,0,0,0-.347-.95,2.9,2.9,0,0,0-1.387-1.3,4.617,4.617,0,0,0-1.116-.332,11.611,11.611,0,0,0-1.87-.106c-.588,0-1.342.015-2.247.03-.9.03-1.674.03-2.292.03s-1.387,0-2.307-.03c.015.558.015.98.015,1.267,0,.95-.045,2.684-.121,5.217s-.151,4.312-.2,5.368c-.045,1.04-.151,2.4-.287,4.041l2.005-.015,2.669.015a30.454,30.454,0,0,0,4.252-.181,4.76,4.76,0,0,0,1.81-.724,3.577,3.577,0,0,0,1.266-1.478A5.14,5.14,0,0,0,961.324,303.99Zm-8.685-9.258h2.654a5.628,5.628,0,0,1,1.282.106,1.886,1.886,0,0,1,.739.362,1.484,1.484,0,0,1,.452.633,2.112,2.112,0,0,1,.151.814,2.866,2.866,0,0,1-.136.875,2.374,2.374,0,0,1-.437.784,1.8,1.8,0,0,1-.724.528,3.691,3.691,0,0,1-.814.226,11.239,11.239,0,0,1-1.523.06H952.5Zm5.353,9.62a2.361,2.361,0,0,1-.271.663,2.1,2.1,0,0,1-.392.482,2.449,2.449,0,0,1-.6.347,3.61,3.61,0,0,1-.814.226,8.222,8.222,0,0,1-1.191.06h-2.5l.166-4.765h2.789a5.5,5.5,0,0,1,1.417.136,2.122,2.122,0,0,1,.814.437,2.03,2.03,0,0,1,.528.709,2.319,2.319,0,0,1,.181.95A3.146,3.146,0,0,1,957.992,304.351Z" transform="translate(-805.908 -248.493)"/><path class="a" d="M125.233,646.05h.317A3.652,3.652,0,0,0,129.2,642.4v-.392h0v-.151c0-.015,0-.015-.015-.03h0l-3.136-6.951h.286a4.463,4.463,0,0,0,3.272-1.387,2.5,2.5,0,0,1,1.84-.8h2.4v16.073H129.7A1.242,1.242,0,0,0,128.46,650v.724h-.709a1.248,1.248,0,0,0-1.251,1.251v1.3a.406.406,0,0,0,.407.407h16.465a.406.406,0,0,0,.407-.407v-1.282a1.248,1.248,0,0,0-1.251-1.252h-.709v-.724a1.242,1.242,0,0,0-1.236-1.237h-4.147v-11.64a.407.407,0,0,0-.814,0v11.64h-1.01V632.736h1.01v1.84a.407.407,0,1,0,.814,0v-1.855h2.548a2.151,2.151,0,0,1,.754.136,2.176,2.176,0,0,1,.8.528,4.857,4.857,0,0,0,3.543,1.508h.121l-3.121,6.951h0c0,.015,0,.015-.015.03v.151h0v.392a3.652,3.652,0,0,0,3.649,3.649h.317a3.652,3.652,0,0,0,3.649-3.649v-.392h0v-.151c0-.015,0-.015-.015-.03h0l-3.136-6.951h2.292a.734.734,0,0,0,.724-.724v-.95a.734.734,0,0,0-.724-.724h-3.694a2.523,2.523,0,0,1-1.84-.8,3.829,3.829,0,0,0-1.116-.844,4.561,4.561,0,0,0-2.156-.528h-2.593v-.89a2.051,2.051,0,1,0-2.624,0v.89h-2.548a4.464,4.464,0,0,0-3.272,1.387,2.5,2.5,0,0,1-1.84.8h-3.694a.734.734,0,0,0-.724.724v.965a.734.734,0,0,0,.724.724h2.292l-3.121,6.951h0c0,.015,0,.015-.015.03v.136h0v.392A3.623,3.623,0,0,0,125.233,646.05Zm15.334,3.528a.422.422,0,0,1,.422.422v.724h-8.414a.407.407,0,1,0,0,.814H142.5a.454.454,0,0,1,.452.452v.875H127.284v-.875a.454.454,0,0,1,.452-.452h2.292a.407.407,0,1,0,0-.814h-.784V650a.422.422,0,0,1,.422-.422h10.9ZM145,645.251h-.317a2.831,2.831,0,0,1-2.835-2.835h5.986A2.841,2.841,0,0,1,145,645.251Zm2.609-3.634H142.06l2.774-6.167Zm-12.5-15.018a1.242,1.242,0,0,1,1.236,1.236,1.261,1.261,0,0,1-.573,1.055c-.015.015-.03.015-.045.03-.015,0-.015.015-.03.015a.114.114,0,0,1-.06.03c-.015,0-.015,0-.03.015a.055.055,0,0,1-.045.015.015.015,0,0,0-.015.015c-.03.015-.045.015-.075.03h-.015c-.015,0-.045.015-.06.015h-.015c-.03,0-.045.015-.075.015h-.362c-.03,0-.045-.015-.075-.015h-.015c-.015,0-.045-.015-.06-.015h-.015c-.03,0-.045-.015-.075-.03-.015,0-.015,0-.03-.015-.015,0-.03-.015-.045-.015s-.015,0-.03-.015-.045-.015-.06-.03c-.015,0-.015-.015-.03-.015-.015-.015-.03-.015-.045-.03a1.242,1.242,0,0,1-.573-1.055A1.22,1.22,0,0,1,135.109,626.6Zm.513,3.227v.482h-1.01v-.482h.015c.03,0,.06.015.09.015h.03c.03,0,.06.015.09.015h.015a1.3,1.3,0,0,0,.241.015h.121a.333.333,0,0,0,.121-.015h.03c.03,0,.06-.015.09-.015h.03c.03,0,.06-.015.09-.015Zm-13.073,4.267v-.8h3.619a3.276,3.276,0,0,0,2.412-1.055,3.711,3.711,0,0,1,2.684-1.131h7.7a3.759,3.759,0,0,1,1.689.392,3.424,3.424,0,0,1,1,.739,3.277,3.277,0,0,0,2.413,1.055h3.619v.8h-3.619a4.094,4.094,0,0,1-2.97-1.266,3.207,3.207,0,0,0-.9-.648,2.833,2.833,0,0,0-1.221-.271H131.4a3.277,3.277,0,0,0-2.412,1.055,3.711,3.711,0,0,1-2.684,1.131Zm2.835,1.357,2.774,6.167H122.61Zm3,6.966a2.841,2.841,0,0,1-2.835,2.835h-.317a2.831,2.831,0,0,1-2.835-2.835Z" transform="translate(-103.349 -531.538)"/><path class="a" d="M1018.355,1915.141a4.87,4.87,0,1,0-4.855-4.855A4.833,4.833,0,0,0,1018.355,1915.141Zm0-8.67a3.8,3.8,0,1,1-3.815,3.785A3.81,3.81,0,0,1,1018.355,1906.471Z" transform="translate(-860.768 -1618.198)"/><path class="a" d="M1035.692,1921.934a.633.633,0,0,0,.241.06,2.534,2.534,0,0,0,.271.061.842.842,0,0,0,.271.03h.06v.663h.8v-.708h.03a.89.89,0,0,0,.3-.136,1.328,1.328,0,0,0,.271-.166,1.133,1.133,0,0,0,.2-.241,1.447,1.447,0,0,0,.166-.272,2.38,2.38,0,0,1,.105-.3,1.134,1.134,0,0,0,.03-.331.839.839,0,0,0-.03-.272.677.677,0,0,0-.105-.271.8.8,0,0,0-.136-.241c-.061-.06-.106-.136-.166-.2a.572.572,0,0,0-.241-.166.769.769,0,0,0-.241-.136c-.105-.03-.166-.105-.271-.136a1.14,1.14,0,0,1-.271-.105.27.27,0,0,1-.135-.06c-.03-.03-.106-.03-.136-.06s-.105-.03-.136-.06l-.105-.105a.166.166,0,0,1-.06-.136.226.226,0,0,1-.03-.136v-.166c0-.03.03-.105.03-.136.03-.03.03-.106.06-.136l.105-.106a.274.274,0,0,1,.166-.06.325.325,0,0,1,.166-.03h.211a.325.325,0,0,1,.166.03c.06,0,.136.03.166.03s.105.03.136.03a.963.963,0,0,1,.136.03l.166.06.03-.2.06-.543v-.136l-.136-.03c-.03,0-.105-.03-.135-.03s-.06-.03-.136-.03c-.03,0-.106-.03-.166-.03s-.105-.031-.166-.031h-.03v-.633h-.8v.664h-.03a.879.879,0,0,0-.3.136.686.686,0,0,0-.241.166,1.124,1.124,0,0,0-.2.241.659.659,0,0,0-.136.271,2.383,2.383,0,0,1-.105.3,1.294,1.294,0,0,0-.03.332.883.883,0,0,0,.03.272.674.674,0,0,0,.105.271c.03.06.105.166.136.241.06.06.105.136.166.2a.577.577,0,0,0,.241.166.766.766,0,0,0,.241.136,2.219,2.219,0,0,1,.271.136,1.109,1.109,0,0,1,.271.105.27.27,0,0,1,.136.06c.03.031.105.031.136.06a.153.153,0,0,0,.105.06l.106.105c.03.03.03.06.06.136,0,.03.03.105.03.166v.166a.271.271,0,0,1-.06.136l-.105.105a.524.524,0,0,1-.136.106c-.03.03-.105.03-.136.06-.03,0-.105.03-.166.03h-.437c-.06,0-.136-.03-.166-.03a.49.49,0,0,1-.2-.06c-.06-.03-.136-.03-.2-.06-.03,0-.06-.03-.105-.03-.03,0-.06-.03-.105-.03l-.2-.105-.03.241-.06.6v.105l.106.03A.607.607,0,0,1,1035.692,1921.934Z" transform="translate(-879.281 -1627.539)"/><path class="a" d="M888.58,1980.824a.491.491,0,0,0,.3-.105l7.268-5.187,7.041,2.91a.677.677,0,0,0,.543-.06l5.669-4.493a.549.549,0,0,0-.663-.875l-5.428,4.327-7-2.91a.575.575,0,0,0-.5.061l-7.509,5.368a.532.532,0,0,0-.136.739A.445.445,0,0,0,888.58,1980.824Z" transform="translate(-754.258 -1675.528)"/><path class="a" d="M881.526,2006.629h3.016a.541.541,0,0,0,.543-.543.488.488,0,0,0-.5-.543h-2.473v-15.5a.54.54,0,0,0-.543-.543h-4.931a.54.54,0,0,0-.543.543v15.515h-1.81v-10.147a.541.541,0,0,0-.543-.543h-4.961a.541.541,0,0,0-.543.543v10.147h-1.809V1994.6a.541.541,0,0,0-.543-.543H860.96a.541.541,0,0,0-.543.543v10.947h-1.809v-7.8a.541.541,0,0,0-.543-.543H853.1a.541.541,0,0,0-.543.543v7.81h-2.518a.543.543,0,0,0,0,1.086h31.483Zm-4.358-16.043h3.86v14.973h-3.86Zm-19.632,14.973h-3.86v-7.268h3.845v7.268Zm7.841,0h-3.86v-10.419h3.86Zm7.81,0h-3.86v-9.6h3.86v9.6Z" transform="translate(-721.496 -1689.617)"/><path class="a" d="M1651.319,1523.728l-4.825-2.654a.455.455,0,1,0-.437.8l4.825,2.654a1.258,1.258,0,0,1,0,2.2l-5.805,3.2-3.407-2.036-1.432-.859-.9-.543a1.334,1.334,0,0,0,.332-.859c0-1-1.161-1.764-2.639-1.764s-2.639.769-2.639,1.764,1.161,1.764,2.639,1.764a3.785,3.785,0,0,0,1.538-.316l.633.377,2.608,1.568,2.367,1.417-4.6,2.533-.663.362a3.958,3.958,0,0,1-2.835.377,3.882,3.882,0,0,1-.95-.377l-11.987-6.6a1.258,1.258,0,0,1,0-2.2l11.987-6.6a3.9,3.9,0,0,1,3.77,0l3.98,2.186,1.432.784a.455.455,0,1,0,.437-.8l-1.478-.814-3.92-2.156a4.8,4.8,0,0,0-4.644,0l-11.987,6.6a2.15,2.15,0,0,0,0,3.77l11.987,6.6a4.721,4.721,0,0,0,2.322.6h.136a4.844,4.844,0,0,0,2.186-.6l5.277-2.91v4.237a1.846,1.846,0,0,0-1.372,1.779,1.783,1.783,0,0,0,.166.754,1.889,1.889,0,0,0-.166.754v1.523a23.526,23.526,0,0,1-6.243.875,21.416,21.416,0,0,1-2.654-.166,25.275,25.275,0,0,1-3.408-.663,23.162,23.162,0,0,1-3.317-1.161,2.78,2.78,0,0,1-1.689-2.548v-6.047a.452.452,0,1,0-.9,0v6.047a3.692,3.692,0,0,0,2.231,3.393,24.489,24.489,0,0,0,3.121,1.1,27.543,27.543,0,0,0,3.377.724,22.357,22.357,0,0,0,3.242.226,24.29,24.29,0,0,0,6.242-.844v.754a1.075,1.075,0,0,0,1.07,1.071h1.523a1.075,1.075,0,0,0,1.071-1.071v-2.05a3.68,3.68,0,0,0,2.066-3.317v-7.8l2.337-1.282a2.139,2.139,0,0,0,1.116-1.885A2.087,2.087,0,0,0,1651.319,1523.728Zm-12.786,2.277-1.3-.769a.444.444,0,0,0-.619.151.458.458,0,0,0,.151.618l.724.437a2.541,2.541,0,0,1-.5.045c-1,0-1.734-.452-1.734-.859s.739-.859,1.734-.859,1.734.452,1.734.859A.47.47,0,0,1,1638.532,1526.005Zm6.559,10.268a.935.935,0,1,1-.935.935A.93.93,0,0,1,1645.091,1536.274Zm.935,5.669a.168.168,0,0,1-.166.166h-1.523a.167.167,0,0,1-.166-.166v-3.151a1.833,1.833,0,0,0,1.87,0v3.151Zm2.066-5.353a2.773,2.773,0,0,1-1.161,2.262,1.661,1.661,0,0,0-.166-.859,1.9,1.9,0,0,0,.166-.769,1.86,1.86,0,0,0-1.4-1.794v-4.719l2.579-1.417v7.3Z" transform="translate(-1377.177 -1287.958)"/><path class="a" d="M639.905,294.053a2.907,2.907,0,0,0,.015-.362,4.391,4.391,0,0,0-.89-2.654,4.448,4.448,0,0,0-2.126-1.523,1.586,1.586,0,0,0-1.387-.814h0a1.6,1.6,0,0,0-1.387.814,4.4,4.4,0,0,0-3.016,4.177v.045c-.935.347-1.87.724-2.8,1.086a1.589,1.589,0,0,0,.588,3.061,1.372,1.372,0,0,0,.588-.121c.92-.377,1.855-.739,2.774-1.086a4.418,4.418,0,0,0,7.645-2.624Z" transform="translate(-532.815 -245.266)"/><path class="a" d="M1615.786,658.072a.492.492,0,0,0,.045.5.505.505,0,0,0,.437.241h9.65a.506.506,0,0,0,.437-.241.53.53,0,0,0,.045-.5l-1.493-3.483h12.409V632.334a1.744,1.744,0,0,0-1.734-1.734h-28.95a1.725,1.725,0,0,0-1.734,1.734v22.24h12.394Zm9.333-.317h-8.052l1.357-3.166h5.338Zm-19.179-25.422a.676.676,0,0,1,.679-.678h28.95a.676.676,0,0,1,.678.678v16.36h-30.292v-16.36Zm0,21.2v-3.77h30.292v3.77Z" transform="translate(-1362.996 -535.614)"/><circle class="a" cx="1.131" cy="1.131" r="1.131" transform="translate(256.967 114.904)"/><path class="a" d="M1620.8,705.184h7.087V698.7H1620.8Zm1.055-5.428h4.976v4.373h-4.976Z" transform="translate(-1376.498 -593.446)"/><path class="a" d="M1620.8,653.184h7.087V646.7H1620.8Zm1.055-5.428h4.976v4.373h-4.976Z" transform="translate(-1376.498 -549.287)"/><path class="a" d="M1688.8,661.024h7.087V646.7H1688.8Zm1.055-13.269h4.976v12.213h-4.976V647.756Z" transform="translate(-1434.245 -549.286)"/><path class="a" d="M1763.887,661.024V646.7H1756.8v14.324h7.087Zm-6.031-13.269h4.976v12.213h-4.976Z" transform="translate(-1491.992 -549.287)"/><path class="a" d="M193.4,1597.507a.532.532,0,0,0,.467-.272.549.549,0,0,0,.06-.407.509.509,0,0,0-.256-.332l-2.82-1.628.015-.091a2.639,2.639,0,0,0,.06-.483,2.167,2.167,0,0,0-1.523-2.065l-.09-.03v-3.257a.543.543,0,1,0-1.086,0v3.257l-.09.03a2.149,2.149,0,0,0-1.523,2.066,1.837,1.837,0,0,0,.06.483l.015.091-2.82,1.628a.547.547,0,0,0,.286,1.01.615.615,0,0,0,.271-.075l2.684-1.553.136-.075.075.06a2.128,2.128,0,0,0,1.463.573,2.2,2.2,0,0,0,1.463-.573l.075-.06.784.452,2.036,1.176A.509.509,0,0,0,193.4,1597.507Zm-4.614-1.6a1.615,1.615,0,0,1-1.613-1.614,1.517,1.517,0,0,1,.166-.693,1.6,1.6,0,0,1,1.448-.9,1.615,1.615,0,0,1,1.613,1.613,1.561,1.561,0,0,1-.136.648A1.663,1.663,0,0,1,188.781,1595.909Z" transform="translate(-156.011 -1348.996)"/><path class="a" d="M171.558,1508.288a.541.541,0,0,0,.543-.543h0v-1.824a.721.721,0,0,1,.271-.573,17.52,17.52,0,0,1,1.478-1.086,23.454,23.454,0,0,1,2.186-1.267.684.684,0,0,0,.377-.588v-2.563a.551.551,0,0,0-.241-.452.653.653,0,0,1-.3-.543v-2.639a1.847,1.847,0,0,1,1.84-1.839h.573a1.847,1.847,0,0,1,1.84,1.839v2.639a.619.619,0,0,1-.3.543.551.551,0,0,0-.241.452v2.563a.666.666,0,0,0,.377.588,19.178,19.178,0,0,1,3.664,2.352.769.769,0,0,1,.271.573v1.824a.543.543,0,1,0,1.086,0v-1.824a1.788,1.788,0,0,0-.663-1.4,21.534,21.534,0,0,0-3.574-2.337l-.075-.03v-2.036l.03-.03a1.748,1.748,0,0,0,.5-1.221v-2.639a2.928,2.928,0,0,0-2.925-2.925h-.573a2.928,2.928,0,0,0-2.925,2.925v2.639a1.775,1.775,0,0,0,.5,1.221l.03.03v2.036l-.075.03c-.437.226-1.131.618-1.9,1.115a17.934,17.934,0,0,0-1.659,1.221,1.847,1.847,0,0,0-.648,1.191,1.139,1.139,0,0,0-.015.226v1.825A.572.572,0,0,0,171.558,1508.288Z" transform="translate(-145.301 -1268.235)"/><path class="a" d="M257.229,1615.418a21.19,21.19,0,0,0-3.574-2.337l-.075-.03v-2.036l.03-.03a1.749,1.749,0,0,0,.5-1.221v-2.639a2.928,2.928,0,0,0-2.925-2.925h-.573a2.928,2.928,0,0,0-2.925,2.925v2.639a1.776,1.776,0,0,0,.5,1.221l.03.03v2.036l-.075.03a21.814,21.814,0,0,0-3.574,2.337,1.811,1.811,0,0,0-.663,1.4v1.824a.541.541,0,0,0,.543.543.551.551,0,0,0,.452-.241.544.544,0,0,0,.09-.3v-1.809a.721.721,0,0,1,.271-.573c.06-.045.106-.091.166-.136a19.826,19.826,0,0,1,3.5-2.216.666.666,0,0,0,.377-.588v-2.563a.552.552,0,0,0-.241-.452.652.652,0,0,1-.3-.543v-2.639a1.847,1.847,0,0,1,1.84-1.839h.573a1.847,1.847,0,0,1,1.84,1.839v2.639a.618.618,0,0,1-.3.543.552.552,0,0,0-.241.452v2.563a.625.625,0,0,0,.377.588,20.011,20.011,0,0,1,3.664,2.352.77.77,0,0,1,.271.573v1.824a.543.543,0,1,0,1.086,0v-1.824A1.792,1.792,0,0,0,257.229,1615.418Z" transform="translate(-207.209 -1362.413)"/><path class="a" d="M111.529,1615.418a21.188,21.188,0,0,0-3.574-2.337l-.075-.03v-2.036l.03-.03a1.749,1.749,0,0,0,.5-1.221v-2.639a2.928,2.928,0,0,0-2.925-2.925h-.573a2.928,2.928,0,0,0-2.925,2.925v2.639a1.776,1.776,0,0,0,.5,1.221l.03.03v2.036l-.075.03a21.813,21.813,0,0,0-3.574,2.337,1.811,1.811,0,0,0-.663,1.4v1.824a.543.543,0,0,0,1.086,0v-1.824a.721.721,0,0,1,.271-.573,19.916,19.916,0,0,1,3.664-2.352.666.666,0,0,0,.377-.588v-2.563a.552.552,0,0,0-.241-.452.653.653,0,0,1-.3-.543v-2.638a1.847,1.847,0,0,1,1.84-1.84h.573a1.847,1.847,0,0,1,1.84,1.84v2.638a.619.619,0,0,1-.3.543.552.552,0,0,0-.241.452v2.563a.625.625,0,0,0,.377.588,19.16,19.16,0,0,1,3.664,2.352.77.77,0,0,1,.271.573v1.824a.543.543,0,0,0,1.086,0v-1.824A1.694,1.694,0,0,0,111.529,1615.418Z" transform="translate(-83.478 -1362.413)"/></g></svg>