<svg xmlns="http://www.w3.org/2000/svg" xmlns:xlink="http://www.w3.org/1999/xlink" viewBox="-1829 15.157 77.636 39.721"><defs><style>.a{fill:#fff;}.b{fill:#444545;opacity:0.15;}.c{fill:url(#a);}.d{fill:#85181f;}.e{fill:#201417;}</style><linearGradient id="a" y1="0.485" x2="1" y2="0.485" gradientUnits="objectBoundingBox"><stop offset="0" stop-color="#100f14"/><stop offset="0.22" stop-color="#351619"/><stop offset="0.475" stop-color="#561a1c"/><stop offset="0.7" stop-color="#701a1d"/><stop offset="0.882" stop-color="#81181d"/><stop offset="1" stop-color="#88181d"/></linearGradient></defs><g transform="translate(-1829.1 15.035)"><path class="a" d="M82,45.994l1.713-11.228,2-8.564L87.9,12.5l8.183,2.093L99.6,21.064l7.041-.381.1,1.808,8.183-1.618,6.756-.19,14.749,25.026Z" transform="translate(-78.003 -11.789)"/><g transform="translate(0.1 0.122)"><path class="b" d="M158.416,77.72s1.208,3.421,1.732,3.621,3.987.885,3.987.885-4.306,1.77-4.349,2.051,5.272,2.293,5.272,2.293l7.769,2.9,9.982,1.689.885,1.128-11.147-.362-1.894,14.854-9.339-.243q1.021-2.419,2.036-4.843a12.418,12.418,0,0,0,.894-2.193,2.321,2.321,0,0,0-.913.219A5.95,5.95,0,0,0,162.1,101.2c-.371.5-.742,1-1.128,1.489-.718.923-1.208,1.741-1.913,2.674-.143.19-.78,1.061-.928,1.247-.109.143-1.308.062-1.527.086.89-1.518,2.255-3.506,3.107-5.038,1.118-2.013,1.185-4.653,1.665-6.875.086-.4.162-.809.257-1.213-.266.029-.538.052-.8.081-.224.024-.88,3.53-.99,3.968a19.834,19.834,0,0,1-1.27,3.849c-.671,1.4-1.318,2.807-1.974,4.211-.171.366-.343.733-.514,1.094q-.2-.043-.4-.071c.775-2.179,1.8-4.277,2.445-6.5a23.564,23.564,0,0,0,.561-3.6c.09-.723.557-1.8.347-2.522a2.69,2.69,0,0,0-.78-1.166c-.029-.024-1.185,2.3-1.3,2.564a10.36,10.36,0,0,0-.994,2.826q-.614,4.239-1.242,8.474l-1.77.081a53.3,53.3,0,0,1-.4-6.442c.181-1.718.138-3.635.324-5.352a24.258,24.258,0,0,1,1.261-5.029c.861-2.593,1.936-5.448,1.856-8.221-.048-1.684-.538-3.426-.038-5.086.024-.086.114-.538.3-.3C156.8,77.154,157.451,77.881,158.416,77.72Z" transform="translate(-145.266 -72.735)"/><path class="b" d="M603.806,405.2l5.957,1.128-.324,8.131-1.813,1.608-2.131,3.426-5.795.157,3.54-4.586Z" transform="translate(-571.173 -385.928)"/><path class="b" d="M790.9,450.841l4.268.157,7.727-10.224-1.77-2.574-2.336.324-.566,2.412L797.5,444.8l-3.782,3.14Z" transform="translate(-753.276 -417.357)"/><path class="b" d="M857.444,413.043l-.885,6.28-3.059-.647.162-5.876Z" transform="translate(-812.898 -393.166)"/><g transform="translate(0 0)"><g transform="translate(0.961)"><path class="c" d="M74.562,23.367q1.8-2.612,3.8-5.314t3.1-4.249c-1.07.019-1.86.029-2.379.029-.8,0-1.594-.01-2.379-.029q-.878,1.384-2.436,3.416c-1.037,1.342-1.432,1.936-1.989,2.755L68.324,13.8H68.31c-.1-.167-.214-.333-.319-.5-.595-.971-1.175-1.96-1.8-2.912a5.818,5.818,0,0,1-.519-.866l-.966-1.48c-.1-.1-.866.038-1.023.043-.357.014-.709.029-1.066.048-.676.029-1.356.062-2.032.1-1.437.076-2.874.181-4.306.347-.823.1-1.637.209-2.45.347a20.945,20.945,0,0,0-2.845.723,7.188,7.188,0,0,1-2.441.509,12.427,12.427,0,0,0-.319-1.932c-1.993.071-3.992.086-5.98.109a2.455,2.455,0,0,1-.557.038,1.757,1.757,0,0,1-.657,0c-.162-.081-2.7-5.11-2.7-5.11s-.442-.642-.7-.937L32.922,1.2S29.421-.041,28.816.14s-.666,2.479-.9,3.483L27.189,9.47,25.8,15.788l-.785.176s-.847,4.368-1.637,8.307c0,0-.538.652-.942.728s-1.128,2.441-1.556,5.433l-.58,4c.928,0,5.676-.057,5.676-.057s.067-3.14-.062-4.71A34.359,34.359,0,0,1,27.237,17.9c.485-2.008,1.208-4.487,1.208-4.487A41.564,41.564,0,0,0,29.3,6.758c.043-.595-.295-5.148,1.266-3.5A11.523,11.523,0,0,0,31.752,4.3s.561,0,.324-.552-.8-1.97.243-1.575a13.955,13.955,0,0,0,2.9.552l.723.314a3.416,3.416,0,0,1,1.632,1.846,25.214,25.214,0,0,0,1.451,2.655c.6,1.047,1.318,2.027,1.927,3.069a4.011,4.011,0,0,0,2.155,1.7c.966.276,1.009-.119.081-.828a4.532,4.532,0,0,1-1.551-2.017c1.294-.1,2.793-.052,4.087-.2.309-.038,1.694-.381,1.794.119a3.4,3.4,0,0,1-.162,1.356c-.124.385-.466.619.186.59a5.843,5.843,0,0,0,.847-.224c1.908-.4,3.878-.971,5.852-1.218.6-.076,1.2-.124,1.794-.2.4-.052.971-.2,1.28.152.39.438-.09.828-.352,1.142-.2.238-.319.457.1.285.875-.366,1.346-1.266,2.165-1.732a2.075,2.075,0,0,1,.871-.181c.338-.029.752.8.985,1.166.214.328,1.508,2.274,2.193,3.3h0l3.188,4.805,2.112,3.254,1.056,1.684L68.458,25.28l-3.735,5.115q-1.156,1.591-1.641,2.212l-1.023,1.346c1.051-.019,1.879-.029,2.479-.029.542,0,1.337.01,2.379.029q1.142-1.691,2.674-3.716c1.018-1.351,1.784-2.417,2.3-3.188.466.752,1.08,1.679,1.836,2.793l2.669,4.111c.2,0,.395-.014.58-.024.652-.024,1.751-.067,2.8-.1.875,0,2.108,0,2.864.019C79.424,29.053,75.956,25.632,74.562,23.367Z" transform="translate(-20.3 -0.122)"/></g><g transform="translate(0 13.145)"><g transform="translate(0 22.994)"><path class="d" d="M1.879,761.494h1.09l-.176,1.4a1.89,1.89,0,0,1-.571.285,2.422,2.422,0,0,1-.7.09,1.458,1.458,0,0,1-.585-.114,1.272,1.272,0,0,1-.447-.323,1.521,1.521,0,0,1-.29-.49,1.853,1.853,0,0,1-.1-.619,2.387,2.387,0,0,1,.067-.561,2.088,2.088,0,0,1,.186-.49,1.9,1.9,0,0,1,.29-.4,1.943,1.943,0,0,1,.376-.309,1.825,1.825,0,0,1,.452-.2,1.99,1.99,0,0,1,.509-.067,1.887,1.887,0,0,1,.385.038,1.282,1.282,0,0,1,.314.1,1.314,1.314,0,0,1,.252.152,1.492,1.492,0,0,1,.2.186l-.2.262a.233.233,0,0,1-.119.086.179.179,0,0,1-.143-.033c-.048-.029-.1-.062-.138-.09a1.54,1.54,0,0,0-.152-.081,1,1,0,0,0-.19-.057,1.251,1.251,0,0,0-.247-.024,1.077,1.077,0,0,0-.481.1,1.188,1.188,0,0,0-.376.295,1.374,1.374,0,0,0-.243.461,1.984,1.984,0,0,0-.086.6,1.432,1.432,0,0,0,.062.447,1.041,1.041,0,0,0,.181.338.764.764,0,0,0,.281.209.891.891,0,0,0,.362.071,1.49,1.49,0,0,0,.347-.038,1.22,1.22,0,0,0,.285-.109l.081-.666H1.965a.112.112,0,0,1-.09-.033.1.1,0,0,1-.024-.081Z" transform="translate(-0.1 -759.7)"/><path class="d" d="M68.233,764.092H67.6l.423-3.492h.633Z" transform="translate(-64.389 -760.557)"/><path class="d" d="M96.751,760.6a1.863,1.863,0,0,1,.495.057.894.894,0,0,1,.338.162.669.669,0,0,1,.2.252.824.824,0,0,1,.062.328,1.118,1.118,0,0,1-.038.285.83.83,0,0,1-.124.252,1,1,0,0,1-.214.209,1.072,1.072,0,0,1-.314.152.825.825,0,0,1,.442.243.637.637,0,0,1,.143.428,1.063,1.063,0,0,1-.347.8,1.259,1.259,0,0,1-.414.238,1.658,1.658,0,0,1-.552.086H95.2l.428-3.492h1.123Zm-.266,3.007a.773.773,0,0,0,.29-.048.484.484,0,0,0,.2-.128.522.522,0,0,0,.114-.2.857.857,0,0,0,.038-.257.4.4,0,0,0-.119-.3.568.568,0,0,0-.395-.114h-.59l-.128,1.051h.59Zm-.285-2.526-.128,1.037h.466a.755.755,0,0,0,.5-.152.576.576,0,0,0,.176-.466.388.388,0,0,0-.124-.319.618.618,0,0,0-.39-.1Z" transform="translate(-90.675 -760.557)"/><path class="d" d="M158.018,760.6a1.846,1.846,0,0,1,.519.062.983.983,0,0,1,.352.181.689.689,0,0,1,.2.276.928.928,0,0,1,.067.352,1.249,1.249,0,0,1-.057.381,1.086,1.086,0,0,1-.162.323,1.1,1.1,0,0,1-.262.252,1.347,1.347,0,0,1-.352.171.414.414,0,0,1,.1.081.7.7,0,0,1,.081.114l.623,1.3h-.561a.208.208,0,0,1-.214-.124l-.514-1.132a.2.2,0,0,0-.071-.09.241.241,0,0,0-.133-.029h-.243l-.171,1.38H156.6l.423-3.492h.994Zm-.209,1.67a.94.94,0,0,0,.324-.052.584.584,0,0,0,.224-.152.562.562,0,0,0,.133-.224.861.861,0,0,0,.043-.276.455.455,0,0,0-.143-.357.627.627,0,0,0-.433-.128h-.366l-.143,1.185h.362Z" transform="translate(-149.154 -760.557)"/><path class="d" d="M211.664,764.092h-.485a.206.206,0,0,1-.128-.038.213.213,0,0,1-.062-.1l-.143-.728h-1.3l-.324.728a.283.283,0,0,1-.086.1.227.227,0,0,1-.138.043H208.5l1.689-3.492h.642Zm-.913-1.313-.238-1.194c-.01-.057-.019-.119-.033-.19s-.024-.152-.038-.238c-.033.086-.062.167-.1.238s-.057.138-.081.2l-.528,1.194h1.013Z" transform="translate(-198.585 -760.557)"/><path class="d" d="M283.46,763.574l-.062.519h-1.9l.428-3.492h.628l-.366,2.974Z" transform="translate(-268.112 -760.557)"/><path class="d" d="M325.045,761.114h-.956l-.366,2.978H323.1l.362-2.978H322.5l.062-.514h2.545Z" transform="translate(-307.161 -760.557)"/><path class="d" d="M365.464,764.092h-.485a.206.206,0,0,1-.128-.038.213.213,0,0,1-.062-.1l-.143-.728h-1.3l-.324.728a.283.283,0,0,1-.086.1.227.227,0,0,1-.138.043H362.3l1.689-3.492h.642Zm-.909-1.313-.238-1.194c-.01-.057-.019-.119-.033-.19s-.024-.152-.038-.238c-.033.086-.062.167-.1.238s-.057.138-.081.2l-.528,1.194h1.013Z" transform="translate(-345.068 -760.557)"/><path class="d" d="M436.718,760.6a1.845,1.845,0,0,1,.519.062.983.983,0,0,1,.352.181.689.689,0,0,1,.2.276.928.928,0,0,1,.067.352,1.249,1.249,0,0,1-.057.381,1.086,1.086,0,0,1-.162.323,1.1,1.1,0,0,1-.262.252,1.347,1.347,0,0,1-.352.171.413.413,0,0,1,.1.081.7.7,0,0,1,.081.114l.623,1.3h-.561a.208.208,0,0,1-.214-.124l-.514-1.132a.2.2,0,0,0-.071-.09.241.241,0,0,0-.133-.029h-.243l-.171,1.38H435.3l.423-3.492h.994Zm-.209,1.67a.941.941,0,0,0,.324-.052.584.584,0,0,0,.224-.152.561.561,0,0,0,.133-.224.86.86,0,0,0,.043-.276.455.455,0,0,0-.143-.357.627.627,0,0,0-.433-.128h-.366l-.143,1.185h.362Z" transform="translate(-414.594 -760.557)"/><path class="e" d="M520.451,761.109a1.839,1.839,0,0,1,.461.052.905.905,0,0,1,.319.152.575.575,0,0,1,.186.243.865.865,0,0,1,.062.319,1.028,1.028,0,0,1-.043.295.906.906,0,0,1-.133.262.861.861,0,0,1-.224.209,1.2,1.2,0,0,1-.314.147.871.871,0,0,1,.466.243.641.641,0,0,1,.157.447,1.089,1.089,0,0,1-.086.438.932.932,0,0,1-.247.343,1.14,1.14,0,0,1-.395.224,1.654,1.654,0,0,1-.523.081H519l.423-3.464h1.028Zm-.276,3.1a1.029,1.029,0,0,0,.338-.052.683.683,0,0,0,.243-.143.622.622,0,0,0,.143-.228.861.861,0,0,0,.048-.3.473.473,0,0,0-.152-.366.69.69,0,0,0-.466-.138h-.68l-.147,1.227Zm-.343-2.75-.147,1.2h.557a1.08,1.08,0,0,0,.343-.052.643.643,0,0,0,.243-.143.592.592,0,0,0,.147-.224.781.781,0,0,0,.048-.285.462.462,0,0,0-.148-.371.738.738,0,0,0-.466-.124h-.576Z" transform="translate(-494.312 -761.033)"/><path class="e" d="M581.065,764.283l-.048.381H579.2l.423-3.464h.452l-.381,3.083Z" transform="translate(-551.648 -761.129)"/><path class="e" d="M626,761.927a2.355,2.355,0,0,1-.138.814,1.943,1.943,0,0,1-.381.638,1.665,1.665,0,0,1-.576.414,1.74,1.74,0,0,1-.723.147,1.4,1.4,0,0,1-.576-.114,1.253,1.253,0,0,1-.433-.314,1.368,1.368,0,0,1-.276-.481,1.923,1.923,0,0,1-.1-.609,2.355,2.355,0,0,1,.138-.814,1.894,1.894,0,0,1,.381-.638,1.725,1.725,0,0,1,.576-.419,1.743,1.743,0,0,1,.723-.152,1.4,1.4,0,0,1,.576.114,1.207,1.207,0,0,1,.433.319,1.446,1.446,0,0,1,.276.48A1.953,1.953,0,0,1,626,761.927Zm-.466.01a1.641,1.641,0,0,0-.067-.476,1.046,1.046,0,0,0-.19-.362.868.868,0,0,0-.3-.233.931.931,0,0,0-.4-.081,1.16,1.16,0,0,0-.933.442,1.547,1.547,0,0,0-.266.514,2.263,2.263,0,0,0-.1.671,1.643,1.643,0,0,0,.067.476,1.047,1.047,0,0,0,.19.362.915.915,0,0,0,.3.233.99.99,0,0,0,.4.081,1.225,1.225,0,0,0,.528-.114,1.177,1.177,0,0,0,.409-.323,1.547,1.547,0,0,0,.266-.514A2.32,2.32,0,0,0,625.531,761.937Z" transform="translate(-593.174 -760.367)"/><path class="e" d="M699.094,763.554a1.243,1.243,0,0,0,.281-.029,1.185,1.185,0,0,0,.219-.067.742.742,0,0,0,.162-.086q.064-.05.114-.086c.033-.024.062-.048.086-.067a.1.1,0,0,1,.062-.029.089.089,0,0,1,.038.01.1.1,0,0,1,.024.019l.157.2a1.66,1.66,0,0,1-.523.385,1.637,1.637,0,0,1-.69.138,1.366,1.366,0,0,1-.557-.109,1.214,1.214,0,0,1-.414-.309,1.4,1.4,0,0,1-.262-.476,1.9,1.9,0,0,1-.09-.609,2.437,2.437,0,0,1,.138-.828,2.011,2.011,0,0,1,.385-.642,1.794,1.794,0,0,1,.576-.419,1.7,1.7,0,0,1,.714-.147,1.435,1.435,0,0,1,.333.033,1.132,1.132,0,0,1,.271.09,1.192,1.192,0,0,1,.224.143,1.41,1.41,0,0,1,.186.19l-.157.19a.311.311,0,0,1-.043.038.119.119,0,0,1-.062.014.122.122,0,0,1-.09-.048.873.873,0,0,0-.133-.1,1.128,1.128,0,0,0-.214-.1.973.973,0,0,0-.343-.048,1.231,1.231,0,0,0-.947.438,1.523,1.523,0,0,0-.281.5,2.082,2.082,0,0,0-.1.666,1.5,1.5,0,0,0,.071.481,1.054,1.054,0,0,0,.2.362.811.811,0,0,0,.295.228A.91.91,0,0,0,699.094,763.554Z" transform="translate(-664.51 -760.367)"/><path class="e" d="M760.685,762.727h.162a.36.36,0,0,0,.138-.024.272.272,0,0,0,.1-.081l1.2-1.313a.278.278,0,0,1,.1-.086.363.363,0,0,1,.128-.024h.385l-1.385,1.5a.579.579,0,0,1-.19.152.465.465,0,0,1,.1.062.406.406,0,0,1,.081.109l1.042,1.641h-.39a.243.243,0,0,1-.124-.024.3.3,0,0,1-.062-.071l-.909-1.38a.245.245,0,0,0-.086-.086.316.316,0,0,0-.152-.024h-.2l-.2,1.589H760l.423-3.464h.452Z" transform="translate(-723.846 -761.129)"/><path class="e" d="M819.094,763.554a1.243,1.243,0,0,0,.281-.029,1.186,1.186,0,0,0,.219-.067.742.742,0,0,0,.162-.086q.064-.05.114-.086c.033-.024.062-.048.086-.067a.1.1,0,0,1,.062-.029.09.09,0,0,1,.038.01.1.1,0,0,1,.024.019l.157.2a1.659,1.659,0,0,1-.523.385,1.637,1.637,0,0,1-.69.138,1.366,1.366,0,0,1-.557-.109,1.213,1.213,0,0,1-.414-.309,1.4,1.4,0,0,1-.262-.476,1.9,1.9,0,0,1-.09-.609,2.437,2.437,0,0,1,.138-.828,2.01,2.01,0,0,1,.385-.642,1.725,1.725,0,0,1,.576-.419,1.7,1.7,0,0,1,.714-.147,1.435,1.435,0,0,1,.333.033,1.131,1.131,0,0,1,.271.09,1.191,1.191,0,0,1,.224.143,1.409,1.409,0,0,1,.186.19l-.157.19a.308.308,0,0,1-.043.038.119.119,0,0,1-.062.014.122.122,0,0,1-.09-.048.871.871,0,0,0-.133-.1,1.124,1.124,0,0,0-.214-.1.972.972,0,0,0-.343-.048,1.231,1.231,0,0,0-.947.438,1.523,1.523,0,0,0-.281.5,2.08,2.08,0,0,0-.1.666,1.5,1.5,0,0,0,.071.481,1.054,1.054,0,0,0,.2.362.81.81,0,0,0,.295.228A.942.942,0,0,0,819.094,763.554Z" transform="translate(-778.801 -760.367)"/><path class="e" d="M883.121,761.3l-.428,3.464h-.452l.2-1.58h-1.689l-.2,1.58H880.1l.423-3.464h.452l-.19,1.556h1.689l.19-1.556Z" transform="translate(-838.232 -761.224)"/><path class="e" d="M945.9,764.664h-.347a.151.151,0,0,1-.1-.029.154.154,0,0,1-.048-.081l-.19-.847h-1.408l-.395.847a.248.248,0,0,1-.067.076.149.149,0,0,1-.1.033H942.9l1.7-3.464h.461Zm-.752-1.28-.319-1.432c-.01-.043-.019-.1-.029-.152s-.019-.119-.029-.186q-.036.1-.071.186c-.024.057-.048.109-.067.152l-.671,1.432Z" transform="translate(-898.044 -761.129)"/><path class="e" d="M1014.752,764.664h-.452l.423-3.464h.452Z" transform="translate(-966.047 -761.129)"/><path class="e" d="M1043.135,761.3l-.428,3.464h-.224a.171.171,0,0,1-.09-.019.264.264,0,0,1-.067-.062l-1.494-2.65c0,.033,0,.062-.01.09a.419.419,0,0,1-.01.081l-.314,2.56h-.4l.423-3.464h.233a.185.185,0,0,1,.086.014.146.146,0,0,1,.057.062l1.494,2.645c0-.038,0-.071.01-.1s0-.067.01-.1l.314-2.522Z" transform="translate(-990.62 -761.224)"/><path class="e" d="M1134.937,761.571l-.143,1.166h1.228l-.048.357h-1.223l-.147,1.2h1.518l-.048.366H1134.1l.423-3.464h1.97l-.048.371Z" transform="translate(-1080.147 -761.129)"/><path class="e" d="M1181.493,762.894l.913,1.87h-.4a.1.1,0,0,1-.076-.029.224.224,0,0,1-.043-.057l-.7-1.513a.24.24,0,0,1-.043.076l-1.042,1.437a.149.149,0,0,1-.067.067.156.156,0,0,1-.081.019h-.447l1.375-1.851-.814-1.613h.409a.1.1,0,0,1,.071.019.168.168,0,0,1,.043.052l.618,1.3c.01-.014.014-.029.024-.043a.419.419,0,0,0,.029-.048l.88-1.213a.181.181,0,0,1,.052-.052.135.135,0,0,1,.062-.019h.466Z" transform="translate(-1123.387 -761.224)"/><path class="e" d="M1247.394,763.554a1.242,1.242,0,0,0,.281-.029,1.186,1.186,0,0,0,.219-.067.742.742,0,0,0,.162-.086q.064-.05.114-.086c.033-.024.062-.048.086-.067a.1.1,0,0,1,.062-.029.09.09,0,0,1,.038.01.1.1,0,0,1,.024.019l.157.2a1.661,1.661,0,0,1-.523.385,1.637,1.637,0,0,1-.69.138,1.366,1.366,0,0,1-.557-.109,1.214,1.214,0,0,1-.414-.309,1.394,1.394,0,0,1-.262-.476,1.9,1.9,0,0,1-.09-.609,2.439,2.439,0,0,1,.138-.828,2.011,2.011,0,0,1,.385-.642,1.725,1.725,0,0,1,.576-.419,1.7,1.7,0,0,1,.714-.147,1.435,1.435,0,0,1,.333.033,1.131,1.131,0,0,1,.271.09,1.189,1.189,0,0,1,.224.143,1.4,1.4,0,0,1,.186.19l-.152.19a.308.308,0,0,1-.043.038.119.119,0,0,1-.062.014.122.122,0,0,1-.09-.048.87.87,0,0,0-.133-.1,1.13,1.13,0,0,0-.214-.1.973.973,0,0,0-.343-.048,1.23,1.23,0,0,0-.947.438,1.523,1.523,0,0,0-.281.5,2.08,2.08,0,0,0-.1.666,1.5,1.5,0,0,0,.071.481,1.055,1.055,0,0,0,.2.362.81.81,0,0,0,.3.228A.887.887,0,0,0,1247.394,763.554Z" transform="translate(-1186.724 -760.367)"/><path class="e" d="M1311.421,761.3l-.428,3.464h-.452l.2-1.58h-1.689l-.2,1.58h-.452l.423-3.464h.452l-.19,1.556h1.689l.19-1.556Z" transform="translate(-1246.155 -761.224)"/><path class="e" d="M1374.2,764.664h-.347a.151.151,0,0,1-.1-.029.154.154,0,0,1-.048-.081l-.19-.847h-1.408l-.395.847a.25.25,0,0,1-.067.076.149.149,0,0,1-.1.033h-.352l1.7-3.464h.462Zm-.752-1.28-.319-1.432c-.01-.043-.019-.1-.029-.152s-.019-.119-.029-.186q-.036.1-.071.186c-.024.057-.048.109-.067.152l-.671,1.432Z" transform="translate(-1305.967 -761.129)"/><path class="e" d="M1445.336,761.3l-.428,3.464h-.224a.171.171,0,0,1-.09-.019.266.266,0,0,1-.067-.062l-1.494-2.65c0,.033,0,.062-.009.09a.419.419,0,0,1-.01.081l-.314,2.56h-.4l.423-3.464h.233a.185.185,0,0,1,.086.014.147.147,0,0,1,.057.062l1.494,2.645c0-.038,0-.071.01-.1s0-.067.01-.1l.314-2.522Z" transform="translate(-1373.684 -761.224)"/><path class="e" d="M1515.317,762.436h.994l-.167,1.323a1.972,1.972,0,0,1-.271.167,1.951,1.951,0,0,1-.29.119,1.775,1.775,0,0,1-.323.071,2.98,2.98,0,0,1-.371.024,1.391,1.391,0,0,1-.571-.114,1.272,1.272,0,0,1-.438-.314,1.454,1.454,0,0,1-.281-.481,1.807,1.807,0,0,1-.1-.614,2.364,2.364,0,0,1,.138-.818,1.832,1.832,0,0,1,.385-.638,1.749,1.749,0,0,1,.58-.414,1.792,1.792,0,0,1,.737-.147,1.745,1.745,0,0,1,.366.033,1.262,1.262,0,0,1,.3.1,1.019,1.019,0,0,1,.243.143,1.409,1.409,0,0,1,.2.181l-.143.19a.134.134,0,0,1-.086.062.128.128,0,0,1-.1-.024,1.059,1.059,0,0,1-.119-.081.806.806,0,0,0-.157-.1,1.066,1.066,0,0,0-.219-.076,1.186,1.186,0,0,0-.309-.033,1.3,1.3,0,0,0-.547.114,1.23,1.23,0,0,0-.423.324,1.492,1.492,0,0,0-.276.509,2.073,2.073,0,0,0-.1.661,1.561,1.561,0,0,0,.071.49,1.157,1.157,0,0,0,.2.371.849.849,0,0,0,.314.233,1.03,1.03,0,0,0,.409.081,1.751,1.751,0,0,0,.233-.014c.071-.01.143-.024.2-.038s.124-.038.186-.062.114-.052.176-.086l.1-.785h-.485a.094.094,0,0,1-.067-.024.075.075,0,0,1-.019-.062Z" transform="translate(-1441.497 -760.557)"/><path class="e" d="M1582.438,761.571l-.143,1.166h1.228l-.048.357h-1.223l-.148,1.2h1.518l-.047.366H1581.6l.423-3.464h1.97l-.047.371Z" transform="translate(-1506.357 -761.129)"/></g><g transform="translate(7.865)"><path d="M177.152,285.6q1.977.029,3.782.029,2.362,0,3.939-.029-.378,5.053-.538,11.228a42.482,42.482,0,0,1-4.3.7,31.154,31.154,0,0,1-3.269.2,18.674,18.674,0,0,1-4.677-.557,9.092,9.092,0,0,1-3.644-1.813,7.817,7.817,0,0,1-2.269-3.3,12.041,12.041,0,0,1-.78-4.325,12.29,12.29,0,0,1,.58-3.759,11.136,11.136,0,0,1,1.718-3.321,10.19,10.19,0,0,1,2.75-2.512,10.344,10.344,0,0,1,3.426-1.375,19.1,19.1,0,0,1,3.835-.371,30.484,30.484,0,0,1,6.39.785q.014,1.713.157,3.592a18.63,18.63,0,0,0-6.118-1.194,10.37,10.37,0,0,0-3.33.528,7.039,7.039,0,0,0-2.707,1.637,7.146,7.146,0,0,0-1.732,2.745,9.881,9.881,0,0,0-.595,3.388,8.5,8.5,0,0,0,.68,3.478,4.895,4.895,0,0,0,2.284,2.379,7.813,7.813,0,0,0,3.682.847,13.273,13.273,0,0,0,1.789-.143,13.847,13.847,0,0,0,2.15-.49l.233-5.3-1.132-.014c-.642,0-1.456.014-2.441.048C177.109,287.338,177.152,286.31,177.152,285.6Z" transform="translate(-165.4 -276.4)"/><path d="M588.3,303.368q.271-3.2.376-5.238t.257-6.956q.157-4.917.157-6.761c0-.371,0-.918-.014-1.646q1.806.029,2.993.029c.8,0,1.789-.014,2.964-.048s2.146-.048,2.907-.048a15,15,0,0,1,2.412.143,6.04,6.04,0,0,1,1.442.428,3.74,3.74,0,0,1,1.061.7,4.043,4.043,0,0,1,.737.98,4.766,4.766,0,0,1,.457,1.223,6,6,0,0,1,.152,1.337,6.533,6.533,0,0,1-.2,1.608,5.142,5.142,0,0,1-.557,1.375,4.308,4.308,0,0,1-.852,1.042,5.247,5.247,0,0,1-.932.671,8.962,8.962,0,0,1-1.189.514,9.455,9.455,0,0,1,1.075.295,4.458,4.458,0,0,1,.861.438,4.1,4.1,0,0,1,.866.756,4.21,4.21,0,0,1,.652.975,5.32,5.32,0,0,1,.381,1.137,6.15,6.15,0,0,1,.138,1.3,5.941,5.941,0,0,1-.595,2.655,4.763,4.763,0,0,1-1.641,1.908,6.167,6.167,0,0,1-2.341.937,39.542,39.542,0,0,1-5.509.233l-3.468-.014Zm4.339-2.945h3.254a11.556,11.556,0,0,0,1.542-.081,4.364,4.364,0,0,0,1.051-.295,3.234,3.234,0,0,0,.79-.452,2.377,2.377,0,0,0,.509-.618,3.476,3.476,0,0,0,.352-.856,3.789,3.789,0,0,0,.128-.99,3.063,3.063,0,0,0-.228-1.223,2.5,2.5,0,0,0-.68-.913,2.837,2.837,0,0,0-1.051-.561,7.235,7.235,0,0,0-1.836-.171h-3.616Zm.352-9.116h2.3a16.007,16.007,0,0,0,1.979-.076,4.93,4.93,0,0,0,1.066-.295,2.31,2.31,0,0,0,.942-.68,2.99,2.99,0,0,0,.566-1.009,3.618,3.618,0,0,0,.176-1.123,2.814,2.814,0,0,0-.2-1.056,1.956,1.956,0,0,0-.595-.823,2.439,2.439,0,0,0-.966-.466,7.193,7.193,0,0,0-1.651-.143h-3.43Z" transform="translate(-568.18 -282.4)"/></g></g></g></g></g></svg>