<svg xmlns="http://www.w3.org/2000/svg" viewBox="-8673 3946 93.29 47.729"><defs><style>.a{fill:#fff;}</style></defs><g transform="translate(-4747.3 -11924)"><path class="a" d="M69.928,40.7a2.776,2.776,0,0,0,.632-.045c.767-.045,2.121-.09,3.385-.135,1.038,0,2.527,0,3.475.045-3.881-5.732-8.034-9.839-9.7-12.547,1.444-2.076,2.979-4.2,4.558-6.364s2.843-3.881,3.7-5.1c-1.264.045-2.257.045-2.843.045-.948,0-1.9,0-2.843-.045-.722,1.128-1.67,2.482-2.934,4.107s-1.715,2.347-2.392,3.295l-4.739-7.4h0a4.12,4.12,0,0,1-.361-.587c-.722-1.173-1.4-2.347-2.166-3.52a8.978,8.978,0,0,1-.632-1.038L55.892,9.65a5.61,5.61,0,0,0-1.219.045c-.406,0-.858.045-1.264.045l-2.437.135q-2.573.135-5.145.406c-.993.135-1.986.271-2.934.406a22.427,22.427,0,0,0-3.43.858c-.677.226-2.663.812-2.934.632a15.507,15.507,0,0,0-.361-2.3c-2.392.09-4.784.09-7.176.135a3.416,3.416,0,0,1-.677.045,2.124,2.124,0,0,1-.767,0c-.181-.09-3.25-6.138-3.25-6.138s-.542-.767-.858-1.128L17.8,1.435S13.6-.054,12.881.172s-.812,2.979-1.083,4.2L10.94,11.41,9.27,18.992l-.948.226s-.993,5.235-1.941,9.974c0,0-.632.767-1.128.858S3.9,32.983,3.4,36.594l-.9,4.694c1.128,0,6.815-.09,6.815-.09s.09-3.791-.09-5.642c-.5-6.093.722-10.516,1.58-14.127.587-2.392,1.444-5.371,1.444-5.371A52.271,52.271,0,0,0,13.287,8.07c.045-.722-.361-6.183,1.535-4.2a13.085,13.085,0,0,0,1.444,1.264s.677,0,.406-.677-.948-2.347.271-1.9a19.156,19.156,0,0,0,3.475.677l.858.361a4.044,4.044,0,0,1,1.941,2.211,24.789,24.789,0,0,0,1.76,3.2c.722,1.264,1.58,2.437,2.3,3.7A4.97,4.97,0,0,0,29.85,14.75c1.173.316,1.219-.135.09-.993a5.365,5.365,0,0,1-1.85-2.437c1.535-.135,3.34-.045,4.919-.226.361-.045,2.031-.451,2.166.135A4.607,4.607,0,0,1,35,12.854c-.135.451-.542.767.226.722a4.408,4.408,0,0,0,1.038-.271c2.3-.5,4.649-1.173,7.041-1.444.722-.09,1.444-.135,2.166-.226.5-.045,1.173-.226,1.535.181.451.542-.09.993-.406,1.354-.226.271-.406.542.135.361,1.038-.451,1.625-1.535,2.618-2.076a2.353,2.353,0,0,1,1.038-.226c.406-.045.9.948,1.173,1.4.271.406,1.805,2.753,2.618,3.972h0l3.881,5.822,2.482,3.836L61.8,28.289l-1.4,2.031L55.937,36.5c-.948,1.264-1.58,2.166-1.986,2.663l-1.219,1.625c1.264-.045,2.257-.045,2.979-.045.632,0,1.625,0,2.843.045.9-1.354,1.986-2.843,3.2-4.468s2.166-2.888,2.753-3.836c.542.9,1.309,2.031,2.211,3.385Z" transform="translate(-3927.027 15869.852)"/><path class="a" d="M1.119,97.328a1.767,1.767,0,0,1,.451-.361,1.249,1.249,0,0,1,.587-.135.669.669,0,0,1,.316.045.345.345,0,0,1,.226.09c.045,0,.09.045.135.045a.234.234,0,0,0,.181.09.271.271,0,0,0,.181.045c.045,0,.09-.045.135-.09l.226-.271-.226-.226a.727.727,0,0,0-.316-.181,3.111,3.111,0,0,0-.361-.135A1.391,1.391,0,0,0,2.2,96.2a3.047,3.047,0,0,0-.632.09,2.76,2.76,0,0,0-.542.226,1.767,1.767,0,0,0-.451.361,2,2,0,0,0-.361.5,2.267,2.267,0,0,0-.226.587,3.484,3.484,0,0,0-.09.677,1.871,1.871,0,0,0,.135.722,1.592,1.592,0,0,0,.361.587,1.232,1.232,0,0,0,.542.406,1.871,1.871,0,0,0,.722.135,5,5,0,0,0,.858-.09,1.964,1.964,0,0,0,.677-.361l.226-1.67H2.066l-.045.451c0,.045,0,.09.045.09.045.045.045.045.09.045h.451l-.045.767a3.111,3.111,0,0,1-.361.135A1.249,1.249,0,0,1,1.8,99.9a1.335,1.335,0,0,1-.451-.09.607.607,0,0,1-.316-.271A.873.873,0,0,1,.8,99.134a1.94,1.94,0,0,1-.09-.542A3.508,3.508,0,0,1,.8,97.87,1.561,1.561,0,0,1,1.119,97.328Z" transform="translate(-3925.6 15817.15)"/><path class="a" d="M8.6,100.5h.722l.542-4.2H9.1Z" transform="translate(-3930.374 15817.096)"/><path class="a" d="M14.943,96.571a.85.85,0,0,0-.406-.181,2.287,2.287,0,0,0-.587-.09H12.6l-.5,4.2h1.489a3.484,3.484,0,0,0,.677-.09,4.922,4.922,0,0,0,.5-.271,1.621,1.621,0,0,0,.316-.451,1.145,1.145,0,0,0,.09-.542.616.616,0,0,0-.181-.5,1.029,1.029,0,0,0-.542-.271.907.907,0,0,0,.361-.181,1.532,1.532,0,0,0,.271-.271.41.41,0,0,0,.135-.316.88.88,0,0,0,.045-.361,1.318,1.318,0,0,0-.09-.406A1.2,1.2,0,0,0,14.943,96.571Zm-.587,2.888a.987.987,0,0,1-.135.226A.248.248,0,0,1,14,99.82a.88.88,0,0,1-.361.045h-.722l.135-1.264h.722a.811.811,0,0,1,.5.135.512.512,0,0,1,.135.361C14.4,99.279,14.357,99.369,14.357,99.459Zm-.09-1.535a.832.832,0,0,1-.587.181h-.542l.135-1.264h.587a.6.6,0,0,1,.451.135.552.552,0,0,1,.135.406A.51.51,0,0,1,14.266,97.925Z" transform="translate(-3932.294 15817.096)"/><path class="a" d="M24.865,96.245l-1.986,4.107-.722-1.489c-.045-.045-.045-.09-.09-.135s-.09-.09-.135-.09a3.578,3.578,0,0,0,.406-.181,1.054,1.054,0,0,0,.316-.316,1.115,1.115,0,0,0,.181-.406,1.6,1.6,0,0,0,.09-.451,1.318,1.318,0,0,0-.09-.406.81.81,0,0,0-.226-.316,1.183,1.183,0,0,0-.406-.226,2.352,2.352,0,0,0-.632-.09H20.4l-.5,4.2h.767l.226-1.67h.271c.09,0,.135,0,.181.045l.09.09.632,1.354a.273.273,0,0,0,.271.135h1.219a.271.271,0,0,0,.181-.045c.045-.045.09-.09.09-.135l.406-.858h1.58l.181.858c0,.045.045.09.09.135a.166.166,0,0,0,.135.045h.587l-.993-4.2h-.948ZM21.3,98.231h-.451l.181-1.444h.451a.963.963,0,0,1,.542.135.44.44,0,0,1,.181.406.669.669,0,0,1-.045.316.83.83,0,0,1-.451.451C21.615,98.231,21.48,98.231,21.3,98.231Zm3.024.632.632-1.444c.045-.045.045-.135.09-.226a.641.641,0,0,0,.09-.271c0,.09.045.181.045.271a1.955,1.955,0,0,0,.045.226l.271,1.444Z" transform="translate(-3936.573 15817.15)"/><path class="a" d="M36.909,96.3h-.767l-.542,4.2h2.3l.09-.632H36.458Z" transform="translate(-3945.188 15817.096)"/><path class="a" d="M43.959,96.3H40.89l-.09.632h1.173l-.451,3.565h.767l.451-3.565h1.128Z" transform="translate(-3948.041 15817.096)"/><path class="a" d="M47.931,96.3,45.9,100.5h.587a.271.271,0,0,0,.181-.045c.045-.045.09-.09.09-.135l.406-.858h1.58l.181.858c0,.045.045.09.09.135a.166.166,0,0,0,.135.045h.587l-.993-4.2Zm-.542,2.618.632-1.444c.045-.045.045-.135.09-.226l.135-.271c0,.09.045.181.045.271a1.954,1.954,0,0,0,.045.226l.271,1.444Z" transform="translate(-3950.839 15817.096)"/><path class="a" d="M57.953,98.2a1.115,1.115,0,0,0,.181-.406,1.6,1.6,0,0,0,.09-.451,1.318,1.318,0,0,0-.09-.406.809.809,0,0,0-.226-.316,1.183,1.183,0,0,0-.406-.226,2.352,2.352,0,0,0-.632-.09H55.7l-.5,4.2h.767l.226-1.67h.271c.09,0,.135,0,.181.045.045,0,.045.045.09.09l.632,1.354a.273.273,0,0,0,.271.135h.677l-.767-1.58c-.045-.045-.045-.09-.09-.135s-.09-.09-.135-.09a3.578,3.578,0,0,0,.406-.181A1.431,1.431,0,0,0,57.953,98.2Zm-.5-.406a.83.83,0,0,1-.451.451,1,1,0,0,1-.406.045h-.451l.181-1.444h.451a.963.963,0,0,1,.542.135.44.44,0,0,1,.181.406C57.5,97.564,57.457,97.7,57.457,97.789Z" transform="translate(-3955.942 15817.096)"/><path class="a" d="M68.463,96.626a.85.85,0,0,0-.406-.181,2.023,2.023,0,0,0-.542-.045H66.3l-.5,4.152h1.354a2.664,2.664,0,0,0,.632-.09,1.076,1.076,0,0,0,.5-.271,2.48,2.48,0,0,0,.316-.406,1.94,1.94,0,0,0,.09-.542.719.719,0,0,0-.181-.542,1.03,1.03,0,0,0-.542-.271.907.907,0,0,0,.361-.181l.271-.271a.727.727,0,0,0,.181-.316.88.88,0,0,0,.045-.361,1.318,1.318,0,0,0-.09-.406A1.533,1.533,0,0,1,68.463,96.626Zm-.542,2.166a.523.523,0,0,1,.181.451.88.88,0,0,1-.045.361.83.83,0,0,1-.451.451,1.25,1.25,0,0,1-.406.045h-.858l.181-1.489h.812A1.5,1.5,0,0,1,67.921,98.792Zm.226-1.038a.944.944,0,0,1-.181.271.727.727,0,0,1-.316.181,1.249,1.249,0,0,1-.406.045h-.677l.181-1.444h.677a.784.784,0,0,1,.542.135.523.523,0,0,1,.181.451A.494.494,0,0,1,68.147,97.754Z" transform="translate(-3961.758 15817.041)"/><path class="a" d="M74.383,96.4h-.542l-.542,4.152h2.211l.045-.451H73.932Z" transform="translate(-3965.873 15817.041)"/><path class="a" d="M82.285,96.8a1.151,1.151,0,0,0-.542-.361,1.811,1.811,0,0,0-.677-.135,1.832,1.832,0,0,0-.858.181,1.885,1.885,0,0,0-.677.5,2.159,2.159,0,0,0-.451.767,3.521,3.521,0,0,0-.181.993,1.871,1.871,0,0,0,.135.722,2.431,2.431,0,0,0,.316.587,1.151,1.151,0,0,0,.542.361,1.811,1.811,0,0,0,.677.135,1.832,1.832,0,0,0,.858-.181,1.885,1.885,0,0,0,.677-.5,2.159,2.159,0,0,0,.451-.767,3.521,3.521,0,0,0,.181-.993,1.871,1.871,0,0,0-.135-.722A2.431,2.431,0,0,0,82.285,96.8Zm-.226,2.166a2.757,2.757,0,0,1-.316.632,1.411,1.411,0,0,1-.5.406,1.442,1.442,0,0,1-.632.135,1.623,1.623,0,0,1-.5-.09,1.086,1.086,0,0,1-.361-.271,1.412,1.412,0,0,1-.226-.451,2.287,2.287,0,0,1-.09-.587,2.186,2.186,0,0,1,.135-.812,2.757,2.757,0,0,1,.316-.632,1.411,1.411,0,0,1,.5-.406,1.442,1.442,0,0,1,.632-.135,1.623,1.623,0,0,1,.5.09.7.7,0,0,1,.361.271,1.412,1.412,0,0,1,.226.451,2.287,2.287,0,0,1,.09.587Z" transform="translate(-3968.945 15817.096)"/><path class="a" d="M91.288,96.435a.837.837,0,0,0-.316-.09,1.249,1.249,0,0,0-.406-.045,1.832,1.832,0,0,0-.858.181,1.885,1.885,0,0,0-.677.5,2.642,2.642,0,0,0-.451.767,2.867,2.867,0,0,0-.09,1.715,2.431,2.431,0,0,0,.316.587,1.28,1.28,0,0,0,.5.361,1.507,1.507,0,0,0,.677.135,1.546,1.546,0,0,0,.812-.181,2.034,2.034,0,0,0,.632-.451l-.181-.226L91.2,99.64h-.045a.14.14,0,0,0-.09.045c-.045,0-.045.045-.09.09s-.09.045-.135.09a.342.342,0,0,1-.181.09c-.09.045-.181.045-.271.09-.09,0-.226.045-.361.045a1.335,1.335,0,0,1-.451-.09.7.7,0,0,1-.361-.271,1.412,1.412,0,0,1-.226-.451,2.287,2.287,0,0,1-.09-.587,2.36,2.36,0,0,1,.135-.812,1.8,1.8,0,0,1,.316-.587,1.411,1.411,0,0,1,.5-.406,1.442,1.442,0,0,1,.632-.135,1,1,0,0,1,.406.045l.271.135c.045.045.135.09.181.135a.14.14,0,0,0,.09.045h.09l.045-.045.181-.226-.226-.226A.451.451,0,0,0,91.288,96.435Z" transform="translate(-3974.158 15817.096)"/><path class="a" d="M97.96,98.376c-.045-.045-.09-.045-.135-.09a.793.793,0,0,0,.226-.181L99.72,96.3h-.451a.166.166,0,0,0-.135.045c-.045,0-.09.045-.135.09l-1.444,1.58c-.045.045-.09.09-.135.09s-.09.045-.181.045h-.226l.226-1.85H96.7l-.5,4.152h.542l.226-1.9h.226c.09,0,.135,0,.181.045a.1.1,0,0,1,.09.09l1.083,1.67.09.09c.045,0,.09.045.135.045h.451L97.96,98.511C98.005,98.466,97.96,98.421,97.96,98.376Z" transform="translate(-3978.437 15817.096)"/><path class="a" d="M106.488,96.435a.837.837,0,0,0-.316-.09,1.249,1.249,0,0,0-.406-.045,1.832,1.832,0,0,0-.858.181,1.885,1.885,0,0,0-.677.5,2.642,2.642,0,0,0-.451.767,2.867,2.867,0,0,0-.09,1.715,2.432,2.432,0,0,0,.316.587,1.28,1.28,0,0,0,.5.361,1.507,1.507,0,0,0,.677.135,1.545,1.545,0,0,0,.812-.181,2.034,2.034,0,0,0,.632-.451l-.181-.226-.045-.045h-.045a.14.14,0,0,0-.09.045c-.045,0-.045.045-.09.09s-.09.045-.135.09a.342.342,0,0,1-.181.09c-.09.045-.181.045-.271.09-.09,0-.226.045-.361.045a1.335,1.335,0,0,1-.451-.09.7.7,0,0,1-.361-.271,1.412,1.412,0,0,1-.226-.451,2.287,2.287,0,0,1-.09-.587,2.36,2.36,0,0,1,.135-.812,1.8,1.8,0,0,1,.316-.587,1.411,1.411,0,0,1,.5-.406,1.442,1.442,0,0,1,.632-.135,1,1,0,0,1,.406.045l.271.135c.045.045.135.09.181.135a.14.14,0,0,0,.09.045h.09l.045-.045.181-.226-.226-.226A.451.451,0,0,0,106.488,96.435Z" transform="translate(-3982.498 15817.096)"/><path class="a" d="M114.514,96.4l-.226,1.85h-2.031l.226-1.85h-.542l-.542,4.152h.542l.226-1.9H114.2l-.226,1.9h.542l.542-4.152Z" transform="translate(-3986.777 15817.041)"/><path class="a" d="M121.431,96.4l-2.031,4.152h.406a.166.166,0,0,0,.135-.045l.09-.09.5-1.038h1.67l.226,1.038a.158.158,0,0,0,.045.09c.045.045.045.045.135.045h.406L121.973,96.4Zm-.767,2.618.812-1.715c.045-.045.045-.135.09-.181.045-.09.045-.135.09-.226a.407.407,0,0,0,.045.226c0,.09.045.135.045.181l.361,1.715Z" transform="translate(-3991.167 15817.041)"/><path class="a" d="M128.4,100.552h.542l.542-4.152H128.9Z" transform="translate(-3996.105 15817.041)"/><path class="a" d="M134.608,99.479v.271L132.8,96.59c-.045-.045-.045-.045-.045-.09H132.4l-.5,4.152h.5l.361-3.069V97.4l1.805,3.2.09.09c.045,0,.045.045.09.045h.271l.5-4.152h-.5Z" transform="translate(-3998.025 15816.986)"/><path class="a" d="M144.367,98.657h1.489l.045-.406h-1.489l.181-1.4h1.85l.045-.451H144.1l-.5,4.152h2.392l.045-.451h-1.85Z" transform="translate(-4004.445 15817.041)"/><path class="a" d="M153.236,96.345H152.6l-.045.045-1.038,1.444a.044.044,0,0,1-.045.045.044.044,0,0,1-.045.045l-.722-1.58a.044.044,0,0,0-.045-.045h-.587l.993,1.941-1.67,2.212h.542c.045,0,.045,0,.09-.045.045,0,.045-.045.09-.09l1.264-1.715c0-.045.045-.045.045-.09l.858,1.805c0,.045.045.045.045.09s.045.045.09.045h.5L151.837,98.2Z" transform="translate(-4007.627 15817.096)"/><path class="a" d="M160.689,96.435a.837.837,0,0,0-.316-.09,1.249,1.249,0,0,0-.406-.045,1.832,1.832,0,0,0-.858.181,1.885,1.885,0,0,0-.677.5,2.642,2.642,0,0,0-.451.767,2.867,2.867,0,0,0-.09,1.715,2.431,2.431,0,0,0,.316.587,1.28,1.28,0,0,0,.5.361,1.507,1.507,0,0,0,.677.135,1.545,1.545,0,0,0,.812-.181,2.034,2.034,0,0,0,.632-.451l-.181-.226-.045-.045h-.045a.14.14,0,0,0-.09.045c-.045,0-.045.045-.09.09s-.09.045-.135.09a.342.342,0,0,1-.181.09c-.09.045-.181.045-.271.09-.09,0-.226.045-.361.045a1.336,1.336,0,0,1-.451-.09.7.7,0,0,1-.361-.271,1.412,1.412,0,0,1-.226-.451,2.287,2.287,0,0,1-.09-.587,2.361,2.361,0,0,1,.135-.812,1.3,1.3,0,0,1,.361-.587,1.411,1.411,0,0,1,.5-.406,1.442,1.442,0,0,1,.632-.135,1,1,0,0,1,.406.045l.271.135c.045.045.135.09.181.135a.14.14,0,0,0,.09.045h.09l.045-.045.181-.226-.226-.226A.944.944,0,0,0,160.689,96.435Z" transform="translate(-4012.236 15817.096)"/><path class="a" d="M168.714,96.4l-.226,1.85h-2.031l.226-1.85h-.542l-.542,4.152h.587l.226-1.9h2.031l-.271,1.9h.587l.5-4.152Z" transform="translate(-4016.515 15817.041)"/><path class="a" d="M175.631,96.4l-2.031,4.152h.406a.166.166,0,0,0,.135-.045l.09-.09.5-1.038h1.715l.226,1.038a.158.158,0,0,0,.045.09c.045.045.045.045.09.045h.406L176.173,96.4Zm-.767,2.618.812-1.715a.342.342,0,0,1,.09-.181c.045-.09.045-.135.09-.226a.407.407,0,0,0,.045.226c0,.09.045.135.045.181l.361,1.715Z" transform="translate(-4020.905 15817.041)"/><path class="a" d="M185.508,99.479v.271L183.7,96.59c-.045-.045-.045-.045-.045-.09H183.3l-.5,4.152h.5l.361-3.069V97.4l1.805,3.2.09.09c.045,0,.045.045.09.045h.271l.5-4.152h-.5Z" transform="translate(-4025.952 15816.986)"/><path class="a" d="M192.638,97.183a1.411,1.411,0,0,1,.5-.406,1.507,1.507,0,0,1,.677-.135.88.88,0,0,1,.361.045c.09.045.181.045.271.09s.135.09.181.09c.045.045.09.09.135.09a.166.166,0,0,0,.135.045.1.1,0,0,0,.09-.09l.181-.226-.226-.226c-.09-.045-.181-.135-.271-.181a3.108,3.108,0,0,0-.361-.135,1.392,1.392,0,0,0-.451-.045,2.021,2.021,0,0,0-.9.181,2.579,2.579,0,0,0-.722.5,2.159,2.159,0,0,0-.451.767,3.521,3.521,0,0,0-.181.993,1.871,1.871,0,0,0,.135.722,2.432,2.432,0,0,0,.316.587,1.151,1.151,0,0,0,.542.361,1.811,1.811,0,0,0,.677.135,1.392,1.392,0,0,0,.451-.045,1.318,1.318,0,0,0,.406-.09c.135-.045.226-.09.361-.135.09-.045.226-.135.316-.181l.181-1.58h-1.173l-.045.316c0,.045,0,.045.045.09a.158.158,0,0,0,.09.045h.587l-.135.948c-.09.045-.135.09-.226.09-.09.045-.135.045-.226.09a1.955,1.955,0,0,0-.226.045h-.271a1.623,1.623,0,0,1-.5-.09.7.7,0,0,1-.361-.271,1.412,1.412,0,0,1-.226-.451,2.287,2.287,0,0,1-.09-.587,2.556,2.556,0,0,1,.135-.812A1.027,1.027,0,0,1,192.638,97.183Z" transform="translate(-4030.781 15817.205)"/><path class="a" d="M203.1,96.851l.045-.451H200.8l-.5,4.152h2.347l.045-.451h-1.805l.181-1.444h1.444l.09-.406h-1.489l.181-1.4Z" transform="translate(-4035.554 15817.041)"/><path class="a" d="M35.136,46.058c0,.858-.045,2.076-.135,3.7,1.173-.045,2.166-.045,2.934-.045h1.354l-.271,6.364a14.892,14.892,0,0,1-2.573.587,13.1,13.1,0,0,1-2.166.181,9.824,9.824,0,0,1-4.423-.993A6,6,0,0,1,27.1,53.008a10.242,10.242,0,0,1-.812-4.2,11.339,11.339,0,0,1,.722-4.062,9.123,9.123,0,0,1,2.076-3.295,8.537,8.537,0,0,1,3.25-1.986,12.912,12.912,0,0,1,4.017-.632,22.511,22.511,0,0,1,7.357,1.444c-.135-1.489-.181-2.934-.181-4.333A36.525,36.525,0,0,0,35.858,35a21.53,21.53,0,0,0-4.6.451,12.511,12.511,0,0,0-4.107,1.67,11.723,11.723,0,0,0-3.295,3.024,14.5,14.5,0,0,0-2.076,3.972A14.971,14.971,0,0,0,21.1,48.63a14.309,14.309,0,0,0,.948,5.19,9.727,9.727,0,0,0,2.708,3.972,11.081,11.081,0,0,0,4.378,2.166,22.114,22.114,0,0,0,5.6.677c1.083,0,2.392-.09,3.927-.226,1.535-.181,3.25-.451,5.145-.858.135-4.965.361-9.433.632-13.495-1.264.045-2.843.045-4.739.045C38.25,46.058,36.716,46.058,35.136,46.058Z" transform="translate(-3937.232 15850.729)"/><path class="a" d="M74.951,54.24c-.09,1.625-.226,3.746-.451,6.273h7.266a49.58,49.58,0,0,0,6.634-.271,6.666,6.666,0,0,0,2.8-1.128,5.525,5.525,0,0,0,1.986-2.3,6.832,6.832,0,0,0,.722-3.2,6.059,6.059,0,0,0-.181-1.58,5.963,5.963,0,0,0-.451-1.354A5.048,5.048,0,0,0,91.47,48.6a7.715,7.715,0,0,0-1.038-.542,10.1,10.1,0,0,0-1.309-.361,9.087,9.087,0,0,0,1.444-.632,5.355,5.355,0,0,0,1.128-.812,5.753,5.753,0,0,0,1.038-1.264,6.165,6.165,0,0,0,.677-1.67,9.133,9.133,0,0,0,.226-1.941,6.059,6.059,0,0,0-.181-1.58,7.254,7.254,0,0,0-.542-1.489,3.883,3.883,0,0,0-.9-1.173,5.182,5.182,0,0,0-1.264-.858,6.358,6.358,0,0,0-1.715-.5,15.614,15.614,0,0,0-2.888-.181c-.9,0-2.076,0-3.475.045s-2.618.045-3.565.045-2.166,0-3.611-.045v1.986c0,1.489-.045,4.2-.181,8.124C75.132,49.817,75.042,52.57,74.951,54.24Zm5.416-15.029h4.107a7.588,7.588,0,0,1,1.986.181,4.031,4.031,0,0,1,1.173.542,2.691,2.691,0,0,1,.722.993,3.915,3.915,0,0,1,.226,1.264,4.727,4.727,0,0,1-.226,1.354,3.25,3.25,0,0,1-.677,1.219,2.9,2.9,0,0,1-1.128.812,4.9,4.9,0,0,1-1.264.361c-.406.045-1.219.09-2.392.09H80.142Zm-.406,10.335h4.333a8.7,8.7,0,0,1,2.212.226,3.226,3.226,0,0,1,2.076,1.76,3.66,3.66,0,0,1,.271,1.489,4.919,4.919,0,0,1-.135,1.173,4.14,4.14,0,0,1-.406,1.038,1.981,1.981,0,0,1-.632.722,4.4,4.4,0,0,1-.948.542,5.823,5.823,0,0,1-1.264.361,17.884,17.884,0,0,1-1.85.09H79.69Z" transform="translate(-3966.531 15850.4)"/></g></svg>