<svg xmlns="http://www.w3.org/2000/svg" viewBox="-2090.188 3040.523 1920.298 391.547"><defs><style>.a{fill:#f5edef;}.b{fill:#cbb2b7;}</style></defs><g transform="translate(-2090)"><path class="a" d="M-170.138,2971.753l-32.161-97.665-55.16,169.123L-274.9,3022.16l-44.313,34.007-28.07-12.956-44.558,35.276L-450.6,3022.16l-138.4,94.188-124.176-182.094-576.748,289.792-280.82-31.269-123.059,22.835h-168.875l-227.519,19.024v30.956l1920.209-.065Z" transform="translate(2090 166.477)"/><path class="b" d="M-1289.54,3224.407l-17.329,7.337-263.411-38.354Z" transform="translate(2090 166)"/><path class="b" d="M-588.94,3116.918l-181.3,117.578,57.14-299.758Z" transform="translate(2090 166)"/><path class="b" d="M-274.872,3022.111v68.06l17.411-46.49Z" transform="translate(2090 166)"/><path class="b" d="M-319.37,3056.114l23.494,9.76-28.847,100.172-22.461-122.837Z" transform="translate(2090 166)"/><path class="b" d="M-450.459,3022.111v104.151l58.676-47.753Z" transform="translate(2090 166)"/><path class="b" d="M-238.77,3103.483-299.47,3266l129.5-.007.06-94.53Z" transform="translate(2090 166)"/><path class="b" d="M-202.443,2900.523l32.553,144.8v-73.173Z" transform="translate(2090 140)"/><path class="b" d="M-529.819,3266l-31.568-41.622L-574,3266Z" transform="translate(2090 165.75)"/></g></svg>