<svg xmlns="http://www.w3.org/2000/svg" viewBox="1040 227 1025.096 1025.997"><defs><style>.a{fill:url(#a);}</style><linearGradient id="a" x1=".211" x2=".811" y1=".013" y2=".966" gradientUnits="objectBoundingBox"><stop offset="0" stop-color="#beb384"/><stop offset=".261" stop-color="#fff7d6"/><stop offset=".635" stop-color="#9d8d68"/><stop offset="1" stop-color="#f4d778"/></linearGradient></defs><path d="M1040 740c0-283.3 229.55-513 512.55-513 283.15 0 512.7 229.7 512.55 513 0 283.3-229.4 513-512.55 513-283 0-512.55-229.7-512.55-513zm317.38-462.1a501.5 501.5 0 0 0-159.3 816.86 501.3 501.3 0 0 0 816.27-159.44A501.64 501.64 0 0 0 1907 385.4a501.3 501.3 0 0 0-549.62-107.5zm-293.8 464.65c0-269.48 218.28-487.92 487.62-487.92s487.62 218.44 487.62 487.92-218.3 487.93-487.62 487.93-487.63-218.44-487.63-487.93zm299.5-445.44a483.35 483.35 0 0 0-295 445.45 477.2 477.2 0 0 0 38.13 188.12A482.95 482.95 0 1 0 1363.1 297.1zm158.4 921.22a2.62 2.62 0 0 1-.6-1.8l2.84-26.88-31.38-37.23 3.16 34.84a2.06 2.06 0 0 1-.6 1.8 2.4 2.4 0 0 1-1.8.6l-19.22-1.8-1.05 22.52a2.07 2.07 0 0 1-.9 1.65 2.4 2.4 0 0 1-1.95.46l-63.96-14.86a2.38 2.38 0 0 1-1.5-1.2 2.25 2.25 0 0 1-.15-1.95l9.46-25.37-21.02-44-5.7 34.54a1.85 1.85 0 0 1-1.05 1.65 2.25 2.25 0 0 1-1.95.15l-18.16-6.6-6.76 21a2.7 2.7 0 0 1-1.35 1.5 2.93 2.93 0 0 1-1.95-.14l-58.26-30.33a2.4 2.4 0 0 1-1.2-1.5 2.22 2.22 0 0 1 .3-1.95l15.32-22.37-9.46-47.74-14.1 32.12a2.22 2.22 0 0 1-1.5 1.35 3 3 0 0 1-1.96-.3l-16.07-10.96-11.7 18.78a2.85 2.85 0 0 1-1.66 1.05 2.63 2.63 0 0 1-1.8-.6l-48.8-43.84a2.54 2.54 0 0 1 0-3.6l20.4-17.73 2.7-48.64-21.6 27.62a2.14 2.14 0 0 1-1.8.9 2.48 2.48 0 0 1-1.8-.75l-12.76-14.56-16.07 15.16a2.06 2.06 0 0 1-1.8.6 2.86 2.86 0 0 1-1.65-1.05l-36.5-54.65a3 3 0 0 1-.3-1.95 2.4 2.4 0 0 1 1.2-1.5l24.18-12 14.7-46.55-27.76 21.32a2.25 2.25 0 0 1-3.45-.75l-8.72-17.27-19.36 10.8a2.25 2.25 0 0 1-1.96.16 2.03 2.03 0 0 1-1.35-1.35l-21.76-62a2.2 2.2 0 0 1 .15-1.94 2.4 2.4 0 0 1 1.5-1.2l26.42-5.56 25.82-41.3-32.13 13.82a2.23 2.23 0 0 1-1.94 0 2.06 2.06 0 0 1-1.2-1.5l-4.2-18.9-21.47 5.7a2.23 2.23 0 0 1-1.96-.3 2.04 2.04 0 0 1-.9-1.66l-5.56-65.46a2.06 2.06 0 0 1 .6-1.8 2.77 2.77 0 0 1 1.8-.75l27.02 1.2 35.28-33.63-34.53 5.25a2.77 2.77 0 0 1-1.95-.6 2.5 2.5 0 0 1-.75-1.8l.9-19.5-22.07.14a2.5 2.5 0 0 1-1.8-.74 1.98 1.98 0 0 1-.45-1.8l10.8-64.7a2.17 2.17 0 0 1 1.06-1.66 2.3 2.3 0 0 1 1.94-.3l25.83 7.8 42.5-23.87-34.85-3.45a2.86 2.86 0 0 1-1.65-1.05 2.3 2.3 0 0 1-.3-1.96l5.4-18.6-21.47-5.42a2.38 2.38 0 0 1-1.5-1.2 2.23 2.23 0 0 1 0-1.95l26.58-60.05a1.83 1.83 0 0 1 1.35-1.2 2.2 2.2 0 0 1 1.95.15l23.12 13.96 47.15-12.46-32.88-12a2.4 2.4 0 0 1-1.35-1.36 2.25 2.25 0 0 1 .15-1.95l9.9-16.68-19.5-10.5a2.4 2.4 0 0 1-1.2-1.5 2.28 2.28 0 0 1 .44-1.96l40.7-51.5a1.73 1.73 0 0 1 1.64-.9 2.5 2.5 0 0 1 1.8.75l18.92 19.38 48.64-.45-28.82-19.82a1.85 1.85 0 0 1-1.05-1.64 2.06 2.06 0 0 1 .6-1.8l13.66-13.66-16.22-15a2.5 2.5 0 0 1-.75-1.8 2.08 2.08 0 0 1 .9-1.67l52.24-39.78a1.97 1.97 0 0 1 1.8-.45 1.8 1.8 0 0 1 1.5 1.05l13.5 23.42 47.3 11.7-22.97-26.4a2.36 2.36 0 0 1-.6-1.96 1.84 1.84 0 0 1 1.06-1.64l16.66-9.76-12-18.62a2.3 2.3 0 0 1-.3-1.95 2.69 2.69 0 0 1 1.34-1.5l60.5-25.52a2.23 2.23 0 0 1 1.95 0 2.4 2.4 0 0 1 1.2 1.5l7.37 26.28 42.8 23.12-15.77-31.23a2.44 2.44 0 0 1 1.5-3.3l18.62-5.4-6.9-21.02a2.25 2.25 0 0 1 .14-1.95 2.85 2.85 0 0 1 1.65-1.05l64.87-9.76a2.08 2.08 0 0 1 1.8.44 2.15 2.15 0 0 1 .75 1.65l.6 27.02 35.73 33.03-7.5-34.23a2.28 2.28 0 0 1 .44-1.96 2.14 2.14 0 0 1 1.8-.9l19.06-.45-1.5-22.06a2.77 2.77 0 0 1 .75-1.8 2.62 2.62 0 0 1 1.8-.6l65.32 6.76a2.07 2.07 0 0 1 1.65.9 3 3 0 0 1 .3 1.95l-6.15 26.27 26.42 40.98 1.35-34.98a2.14 2.14 0 0 1 .9-1.8 2.4 2.4 0 0 1 1.95-.45l18.9 4.2 4.07-21.77a2.32 2.32 0 0 1 1.2-1.65 2.25 2.25 0 0 1 1.95-.15l61.55 22.82a2.3 2.3 0 0 1 1.2 3.3l-12.46 24.02 15.47 46.24 9.9-33.63a2.68 2.68 0 0 1 1.36-1.5 2.22 2.22 0 0 1 1.94 0l16.8 8.56 9.32-20.1a2.38 2.38 0 0 1 1.5-1.2 2.22 2.22 0 0 1 1.95.3l53.9 37.37a2.85 2.85 0 0 1 1.06 1.65 2.62 2.62 0 0 1-.6 1.8l-18 20.12 3.44 48.65 18.02-30.04a2.86 2.86 0 0 1 1.65-1.05 2.76 2.76 0 0 1 1.95.6l14.56 12.92 13.96-17.1a2.14 2.14 0 0 1 1.8-.9 2.5 2.5 0 0 1 1.8.74l43.1 49.7a2.06 2.06 0 0 1 .6 1.8 2.46 2.46 0 0 1-1.06 1.65l-22.52 15.02-8.7 47.9 24.9-24.63a2.4 2.4 0 0 1 1.8-.6 2.86 2.86 0 0 1 1.67 1.04l10.8 16.06 17.88-13.06a2.25 2.25 0 0 1 3.46.75l29.27 58.7a2.23 2.23 0 0 1 0 1.94 2.03 2.03 0 0 1-1.35 1.35l-25.52 8.85-20.42 44.3 30.18-17.73a2.24 2.24 0 0 1 1.95-.15 2.03 2.03 0 0 1 1.35 1.35l6.46 18.17 20.57-8.27a2.92 2.92 0 0 1 1.95.15 2.4 2.4 0 0 1 1.2 1.5l13.8 64.26a2.08 2.08 0 0 1-.44 1.8 2.6 2.6 0 0 1-1.65.9l-26.86 2.26-30.78 37.83 33.63-9.6a2.3 2.3 0 0 1 1.94.3 1.85 1.85 0 0 1 1.05 1.65l1.8 19.36 21.9-2.85a2.06 2.06 0 0 1 1.8.6 1.83 1.83 0 0 1 .76 1.5l-2.55 65.6a2.6 2.6 0 0 1-.9 1.65 1.97 1.97 0 0 1-1.8.45l-26.56-4.5-39.2 28.98 35-.9a2.5 2.5 0 0 1 1.8.75 2.36 2.36 0 0 1 .6 1.95l-3 19.06 21.9 2.7a2.85 2.85 0 0 1 1.66 1.06 2.3 2.3 0 0 1 .3 1.95l-18.92 62.9a2.06 2.06 0 0 1-1.2 1.5 2.22 2.22 0 0 1-1.95 0l-24.62-10.95-45.18 18.3 34.08 7.82a2.38 2.38 0 0 1 1.5 1.2 2.22 2.22 0 0 1 0 1.95l-7.65 17.72 20.56 8.1a2.03 2.03 0 0 1 1.37 1.35 2.25 2.25 0 0 1-.15 1.95l-33.93 56.3a2.17 2.17 0 0 1-1.5 1.05 1.98 1.98 0 0 1-1.8-.45l-21.18-16.82-48.2 6.46 31.08 16.06a2.06 2.06 0 0 1 1.2 1.5 2.27 2.27 0 0 1-.45 1.95l-11.86 15.3 18 12.93a2.04 2.04 0 0 1 .9 1.65 2.77 2.77 0 0 1-.75 1.8l-46.84 46.1a2.4 2.4 0 0 1-1.8.6 2.08 2.08 0 0 1-1.64-.9l-16.36-21.48-48.34-5.7 26.12 23.27a2.48 2.48 0 0 1 .75 1.8 2.14 2.14 0 0 1-.9 1.8l-15.3 11.86 14.1 16.97a2.4 2.4 0 0 1 .45 1.95 1.84 1.84 0 0 1-1.05 1.65l-56.75 32.88a2.3 2.3 0 0 1-3.3-1.2l-10.52-24.93-45.33-17.56 19.5 29.13a2.3 2.3 0 0 1 .3 1.95 2.69 2.69 0 0 1-1.34 1.5l-17.88 7.8 9.46 19.97a2.22 2.22 0 0 1 0 1.94 2.4 2.4 0 0 1-1.5 1.2l-63.2 17.72a2 2 0 0 1-1.8-.3 2.85 2.85 0 0 1-1.05-1.65l-3.9-26.72-39.64-28.37 11.7 33.04a2.24 2.24 0 0 1-.15 1.95 2.46 2.46 0 0 1-1.65 1.04l-19.07 3 4.2 21.77a2.28 2.28 0 0 1-.45 1.96 2.14 2.14 0 0 1-1.8.9l-65.6 1.5a2.48 2.48 0 0 1-1.8-.74zm7.05-28.08l-2.56 24.17 60.2-1.34-3.75-19.22-27.77 4.36a1.97 1.97 0 0 1-1.8-.45 2.6 2.6 0 0 1-.9-1.65l-2.25-20.72zm-110.65-19.82l-8.4 22.82 58.7 13.67 1.04-19.36-28.07-2.7a2.97 2.97 0 0 1-1.65-.9 2.7 2.7 0 0 1-.45-1.8l3-20.72zm222.5 11.4l3.6 24.04 58.1-16.37-8.7-17.57-25.83 11.1a1.9 1.9 0 0 1-1.8 0 2.65 2.65 0 0 1-1.2-1.35l-7.36-19.5zm-72.07-35.72l2.1 13.2a2.76 2.76 0 0 1-.74 2.26l-15.46 10.82 2.25 20.86 25.22-3.9-6.15-31.37a2.43 2.43 0 0 1 1.5-2.56l13.2-4.94-3.14-8.86zm12.02 12.9l5.86 29.6 16.5-2.56-11.1-31.23zm-104.34-6l-1.8 30.2 16.82 1.64-3-33.03zm55.1 13.07l-1.95 18.02 19.97-13.82-.6-5.7zm-6.9 17.27l2.1-19.67a2.4 2.4 0 0 1 2.1-2.1l21.62-1.95a2.47 2.47 0 0 1 2.55 2.1l.6 5.4 12.16-8.56-2.24-13.96a2.3 2.3 0 0 1 1.8-2.55l22.82-5.4a2.1 2.1 0 0 1 2.25.6q.22.45.45.9l3.75 10.5.75-1.04 39.8 28.53-2.86-19.5a2.33 2.33 0 0 1 1.5-2.57l20.4-7.2a2.33 2.33 0 0 1 3 1.35l1.97 5.1 9.6-11.25-5.7-12.9a2.4 2.4 0 0 1 1.04-3l20.87-10.97a2.04 2.04 0 0 1 2.26 0c.3.3.6.45.75.75l6.32 9.3.45-1.2 45.64 17.73-7.65-18.17a2.57 2.57 0 0 1 .9-2.86l18-12.16a2.22 2.22 0 0 1 3.17.6l3.15 4.5 6.6-13.36-8.7-11.12a2.3 2.3 0 0 1 .3-3.15l17.42-15.77a2.44 2.44 0 0 1 2.24-.45 1.3 1.3 0 0 1 .9.45l8.4 7.36.16-1.35 48.64 5.7-11.86-15.6a2.47 2.47 0 0 1 .15-3l14.42-16.23a2.31 2.31 0 0 1 3.15-.15l4.2 3.6 3-14.56-11.26-8.56a2.5 2.5 0 0 1-.45-3.15l12.9-19.67a2.43 2.43 0 0 1 2.1-1.05c.3.15.6.15.9.3l9.9 5.1-.14-1.35 48.5-6.46-15.46-12.15a2.35 2.35 0 0 1-.6-2.86l9.9-19.35a2.1 2.1 0 0 1 3-1.05l4.96 2.4-.6-14.87-13.06-5.55a2.22 2.22 0 0 1-1.2-2.85l7.66-22.22a2.12 2.12 0 0 1 1.65-1.5h1.06l10.8 2.4-.44-1.2 45.34-18.3-18.02-7.97a2.16 2.16 0 0 1-1.35-2.55l4.8-21.17a2.23 2.23 0 0 1 2.7-1.8l5.4 1.06-4.35-14.26-13.96-2.1a2.2 2.2 0 0 1-1.97-2.4l1.8-23.42a2.4 2.4 0 0 1 1.35-1.95 2.13 2.13 0 0 1 .9-.3l11.1-.3-.74-1.05 39.2-29.88-19.38-3.3a2.26 2.26 0 0 1-1.95-2.25l-.6-21.62a2.34 2.34 0 0 1 2.26-2.4l5.4-.3-7.65-12.76-13.96 1.35a2.46 2.46 0 0 1-2.55-1.95l-4.06-23.12a2.2 2.2 0 0 1 .75-2.1l.9-.45 10.65-3.16-1.05-.75 30.93-38-19.67 1.65a2.27 2.27 0 0 1-2.4-1.65l-6-20.87a2.2 2.2 0 0 1 1.5-2.85l5.26-1.65-10.66-10.36-13.2 4.8a2.28 2.28 0 0 1-2.87-1.2l-9.62-21.47a2.04 2.04 0 0 1 .15-2.25 3.25 3.25 0 0 1 .75-.6l9.6-5.7-1.2-.6 20.58-44.45-18.62 6.46a2.43 2.43 0 0 1-2.7-1.05l-10.96-18.76a2.23 2.23 0 0 1 .75-3.15l4.66-2.86-12.92-7.36-11.7 7.96a2.33 2.33 0 0 1-3.17-.45l-14.7-18.33a2.4 2.4 0 0 1-.3-2.25 1.5 1.5 0 0 1 .6-.75l7.96-7.8-1.35-.3 8.86-48.2-16.36 10.96a2.27 2.27 0 0 1-2.85-.3l-15.32-15.46a2.17 2.17 0 0 1 0-3.16l3.76-3.9-14.28-3.9-9.3 10.67a2.34 2.34 0 0 1-3.16.3l-18.76-14.1a2.3 2.3 0 0 1-.9-2.1 2.13 2.13 0 0 1 .3-.9l5.7-9.62-1.35.15-3.46-48.8-13.22 14.7a2.13 2.13 0 0 1-2.85.46l-18.62-11.1a2.37 2.37 0 0 1-.74-3.16l2.7-4.8-14.86-.3-6.3 12.6a2.45 2.45 0 0 1-3 1.06l-21.77-9a2.4 2.4 0 0 1-1.35-1.8.95.95 0 0 1 0-.9l3.15-10.67-1.2.44-15.46-46.4-9.17 17.43a2.25 2.25 0 0 1-2.7 1.2l-20.72-6.16a2.38 2.38 0 0 1-1.5-2.84l1.5-5.26-14.4 3.46-3 13.8a2.3 2.3 0 0 1-2.56 1.8l-23.27-3.3a2.1 2.1 0 0 1-1.8-1.34 1.9 1.9 0 0 1-.15-.9l.45-11.1-1.05.74-26.58-41.14-4.5 19.22a2.57 2.57 0 0 1-2.4 1.8l-21.62-.75a2.44 2.44 0 0 1-2.25-2.4l.15-5.4-13.07 6.9.45 14.1a2.43 2.43 0 0 1-2.1 2.4l-23.42 2.56a2.17 2.17 0 0 1-2.1-.9c-.3-.3-.3-.6-.45-.9l-2.4-10.97-.9.9-35.88-33.2.45 19.68a2.4 2.4 0 0 1-1.8 2.25l-21.17 4.66a2.47 2.47 0 0 1-2.7-1.8l-1.2-5.27-10.96 9.9 4.05 13.52a2.17 2.17 0 0 1-1.36 2.86l-22.07 8.26a2.4 2.4 0 0 1-2.25-.3 1.5 1.5 0 0 1-.6-.75l-5.1-9.9-.6 1.2-43.1-23.27 4.67 18.77a2.25 2.25 0 0 1-1.2 2.7l-19.38 9.76a2.42 2.42 0 0 1-3.15-1.05l-2.55-4.8-8.1 12.47 7.2 12.16a2.2 2.2 0 0 1-.6 3l-19.23 13.5a2.38 2.38 0 0 1-2.26.16 1.5 1.5 0 0 1-.75-.6l-7.37-8.42-.3 1.2-47.44-11.86 9.9 17.12a2.13 2.13 0 0 1-.45 2.85l-16.36 14.25a2.18 2.18 0 0 1-3.17-.15l-3.6-4.05-4.8 14.1 10.06 9.92a2.32 2.32 0 0 1 .14 3.15l-15.3 17.87a2.2 2.2 0 0 1-2.1.74 2.13 2.13 0 0 1-.9-.3l-9.17-6.3v1.35l-48.94.44 13.8 14.1a2.27 2.27 0 0 1 .3 2.86l-12.3 17.87a2.22 2.22 0 0 1-3.16.6l-4.5-3-1.2 14.86 12.17 7.06a2.23 2.23 0 0 1 .9 3l-10.36 21.16a2.52 2.52 0 0 1-1.96 1.35 1.9 1.9 0 0 1-.9-.14L1211 516.9l.3 1.2-47.3 12.6 16.82 10.22a2.1 2.1 0 0 1 .9 2.7l-7.5 20.42a2.12 2.12 0 0 1-2.85 1.35l-5.1-1.8 2.55 14.7 13.5 3.9a2.24 2.24 0 0 1 1.66 2.7l-4.8 22.97a2.36 2.36 0 0 1-1.5 1.65c-.15.15-.6.15-.9.15l-11.1-1.05.6 1.2-42.66 24.04 18.77 5.85a2.27 2.27 0 0 1 1.64 2.4l-2.1 21.63a2.34 2.34 0 0 1-2.55 2.1l-5.4-.45 6 13.5 14.1.46a2.3 2.3 0 0 1 2.25 2.25l1.05 23.42a2.63 2.63 0 0 1-1.05 2.1 2.14 2.14 0 0 1-.9.3l-10.95 1.65.9.9-35.43 33.78 19.66.75a2.27 2.27 0 0 1 2.25 1.95l3.16 21.62a2.33 2.33 0 0 1-1.95 2.55l-5.4.9 9.3 11.56 13.8-3.15a2.15 2.15 0 0 1 2.7 1.5l6.9 22.52a2.1 2.1 0 0 1-.44 2.25 1.5 1.5 0 0 1-.75.6l-10.2 4.36 1.05.75-25.98 41.6 19.52-4.5a2.16 2.16 0 0 1 2.54 1.35l8.56 19.97a2.26 2.26 0 0 1-1.2 3l-4.95 2.25 11.86 9 12.47-6.45a2.38 2.38 0 0 1 3 .9l12.3 20.12a2.4 2.4 0 0 1 0 2.25 1.5 1.5 0 0 1-.6.74l-8.85 6.9 1.2.46-14.7 46.7 17.56-8.72a2.1 2.1 0 0 1 2.85.6l12.6 17.86a2.2 2.2 0 0 1-.44 3.16l-4.2 3.45 13.65 5.7 10.5-9.45a2.18 2.18 0 0 1 3.16 0l16.83 16.36a2.5 2.5 0 0 1 .6 2.25l-.45.9-6.9 8.87h1.34l-2.7 48.94 14.86-12.9a2.26 2.26 0 0 1 2.85 0l17.12 13.36a2.2 2.2 0 0 1 .45 3.16l-3.3 4.35 14.7 2.1 7.82-11.7a2.2 2.2 0 0 1 3-.76l20.4 11.72a2.34 2.34 0 0 1 1.2 1.95 1.9 1.9 0 0 1-.14.9l-4.5 10.2 1.36-.3 9.6 48.05 11.26-16.2a2.3 2.3 0 0 1 2.86-.77l19.8 8.7a2.26 2.26 0 0 1 1.2 3l-2.1 5.1 14.73-1.64 4.64-13.35a2.38 2.38 0 0 1 2.85-1.5l22.66 6.3a2.3 2.3 0 0 1 1.65 1.66v.9l-1.8 11.12 1.2-.6 21.18 44.14 6.9-18.47a2.43 2.43 0 0 1 2.56-1.5l21.32 3.44a2.22 2.22 0 0 1 1.95 2.56l-.74 5.4 13.96-5.26 1.2-14.1a2.43 2.43 0 0 1 2.4-2.1l23.57.44a2.16 2.16 0 0 1 1.94 1.2 2.14 2.14 0 0 1 .3.9l1.06 11.12 1.05-.9zm-58.1-32.28a2.28 2.28 0 0 1-1.5 1.95l-17.57 6.62-3 20.72 25.53 2.4 1.8-31.83a2.55 2.55 0 0 1 2.1-2.1l13.96-1.5-.76-9.3-19.37-.3zm201.92-21.92l5.4 12.3a4.3 4.3 0 0 1 0 2.4l-12.3 14.27 7.35 19.68 23.42-10.2-13.8-28.83a2.36 2.36 0 0 1 .74-2.86l11.57-8.12-5.26-7.65zm-31.08 28.52l2.7 18.02 15.77-18.47-1.97-5.4zm-321.13-33.62l-13.82 19.96 53.45 27.77 6-18.6-26.57-9.62a2.13 2.13 0 0 1-1.35-1.2 1.9 1.9 0 0 1 0-1.8l7.96-19.22zm431.02 21.76l9.46 22.37 52.1-30.17-12.47-15-22.36 17.25a2.08 2.08 0 0 1-1.8.45 2 2 0 0 1-1.5-.9l-12-17.1zm-63.96-7.06l13.06 27.18 15.32-6.6-18.47-27.48zm-262.73 25.98l22.82-8.56.75-5.7-17.26-2.85zm-53-14.4l15.76 5.7 5.4-32.6-12.02-1.8zm.3-33.2a2.55 2.55 0 0 1-1.95 1.5l-18.77 1.96-8.1 19.37 24.03 8.7 9.76-30.47a2.2 2.2 0 0 1 2.54-1.65l13.96 2.1 1.65-9-18.6-5.1zm369.92 6.3l7.06 16.83 10.82-21.92-3.3-4.65zm22.98-35.42l8.26 10.5a2.07 2.07 0 0 1 .3 2.4l-8.27 16.97 12 17.12 20.13-15.62-20.42-24.48a2.28 2.28 0 0 1 0-3l9.16-10.66-6.9-6.15zm-441.1 30.93l24.18-2.55 2.27-5.26-16.07-7.05zm457.9-25.52l19.38 23.13 13.22-10.2-24.77-22.08zm-567.03-24.16l44.74 40.23 10.2-16.5-23.26-15.93a2.56 2.56 0 0 1-.9-1.5 1.97 1.97 0 0 1 .45-1.8l12.6-16.66-25.5-3.75zm630.7 15.16l14.7 19.37 43.1-42.2-15.9-11.4-17.28 22.22a2.6 2.6 0 0 1-1.65.9 2.4 2.4 0 0 1-1.8-.6l-15.9-13.52zm-569.15 7.2l13.8 9.46 13.38-30.32-11.1-4.66zm-25.07-17.1l21.17 14.4 16.96-27.02a2.36 2.36 0 0 1 2.87-.9l13.06 5.4 3.75-8.56-16.8-9.6-7.52 11.1a2.23 2.23 0 0 1-2.25 1.05l-18.6-2.7zm579.66-9.47l11.1 14.57 4.96-23.87-4.35-3.75zm13.36-39.93l10.66 8.1a2.23 2.23 0 0 1 .9 2.1l-3.9 18.47 15.9 13.67 15.78-20.12-25.98-18.62a2.3 2.3 0 0 1-.75-2.85l6.3-12.6-8.24-4.2zm-606.53 24.32l24.17 3.45 3.45-4.5-13.82-10.8zm624.25-23.27l24.47 17.56 10.35-13.2-29.43-15.16zm-717.78-52.1l33.48 50.15 14.1-13.36-18.46-21.32a2.26 2.26 0 0 1-.6-1.65 3.6 3.6 0 0 1 .9-1.65l16.22-13.06-23.87-9.9zm54.04 36.93l11.1 12.6 20.43-25.96-9.6-7.36zm723.2-9.46l19.05 15.17 31.08-51.66-18.16-7.06-11.26 25.83a2.65 2.65 0 0 1-1.35 1.2 2.5 2.5 0 0 1-1.8-.14l-18.76-9.16zm-743.16-13.2l16.96 19.36 23.12-22.07a2.3 2.3 0 0 1 3-.14l11.26 8.4 5.7-7.35-13.8-13.5-10.06 9a2.35 2.35 0 0 1-2.4.46l-17.42-7.2zm724.08-1.8l14.26 11.25-1.2-24.32-5.1-2.55zm3.15-42.04l12.3 5.25a2.14 2.14 0 0 1 1.36 1.95l1.07 18.92 18.76 9.16 10.2-23.42-29.7-11.56a2.44 2.44 0 0 1-1.5-2.7l2.84-13.82-9-2.1zm-734 16.06l22.38 9.46 4.5-3.6-10.66-13.96zm751.27-19.52l28.07 10.96 6.75-15.46-32.28-7.36zm-779.93-27.47l7.5 15 26.42-20.25-7.5-9.46zm-43.25-49.24l19.97 56.9 16.96-9.45-12.76-25.22a2.52 2.52 0 0 1-.15-1.8 2.13 2.13 0 0 1 1.2-1.35l19.07-8.56-20.57-15.62zm874.66 38.14l22.23 9.9 17.27-57.8-19.37-2.4-4.5 27.93a2 2 0 0 1-.9 1.5 2.6 2.6 0 0 1-1.8.3l-20.42-4.2zm-845.23-15.76l11.7 22.82 27.64-15.47a2.33 2.33 0 0 1 3 .6l8.72 11.1 7.35-5.7-10.06-16.5-11.85 6.15a2.04 2.04 0 0 1-2.4-.15l-15-11.4zm823.02 6l16.66 7.36-7.2-23.27-5.56-1.2zm-6-60.8l-1.5 19.22 13.2 2.1a2.48 2.48 0 0 1 1.8 1.65l5.56 18.02 20.57 4.2 4.05-25.22-31.67-3.9a2.27 2.27 0 0 1-1.95-2.26l-.75-14.12zM1124.66 858l19.37 14.7 5.26-2.4-6.9-16.05zm830.83-26.57l.45 12 29.88 3.6 2.7-16.5zm-846.9-25.97l3.6 16.36 30.5-13.06-4.96-10.96zm-24.46 1.65l19.07-4.8-6.15-27.47a2.46 2.46 0 0 1 .3-1.8 2.17 2.17 0 0 1 1.5-1.05l20.57-3.6-16.06-20.27-24.33-1.04zm56.9-13.2l5.7 12.9 8.56-3.6-5.7-18.46-13.06 3a2 2 0 0 1-2.25-.75l-11.72-14.73-20.58 3.6 5.56 25.08 30.77-8.4a2.82 2.82 0 0 1 .4-.03 2.45 2.45 0 0 1 2.3 1.38zm862.2-54.05l2.55 28.07a2.26 2.26 0 0 1-.6 1.65 2.4 2.4 0 0 1-1.66.76l-20.87.9 13.5 22.07 24.03 4.05 2.4-60.05zm-31.38 31.83l.45 17.56 17.88 3-12.6-20.86zm-847.34-4.36l5.7-1.05-2.7-17.26-18.16-.74zm845.84-16.66l9.76 16.06 20.87-1.05-2.4-25.52-31.7 4.2a2.15 2.15 0 0 1-2.4-1.5l-4.04-13.5-9 2.54 3.3 19.06 13.35-1.35a2.12 2.12 0 0 1 .36-.02 2.25 2.25 0 0 1 1.9 1.08zM1964.8 728l3.46 11.55 29.88-3.9-1.5-16.66zm-858-34.7l-.44 16.67 32.73-4.95-2.1-11.86zm34.4-2.84l2.4 13.96 9.15-1.65-.9-19.22-13.36-.3a2.35 2.35 0 0 1-2.1-1.35l-7.67-17.12-20.87-1.65-.9 25.53 31.98-.15a2.4 2.4 0 0 1 2.25 1.96zm-58.26-1.5l19.5-.15.9-28.22a2.4 2.4 0 0 1 .76-1.65 1.87 1.87 0 0 1 1.8-.45l20.72 1.65-10.5-23.57-23.27-7.06zm882.77-22.82l4.8 16.8 18.18-1.5-17.57-16.95zm22.68-38.9l9.46 26.6a2.5 2.5 0 0 1-.15 1.8 2.13 2.13 0 0 1-1.36 1.2l-19.97 6.14 18.47 18.02 24.17-2.1-12.6-59zm-856.5 33.2l5.7.44 1.66-17.42-17.42-5.25zM1959.1 646l13.5 13.2 19.98-6.15-8.56-24.02-29.57 11.86a2.36 2.36 0 0 1-2.86-.9l-7.36-12-8.1 4.66 7.95 17.56 12.6-4.65a2.82 2.82 0 0 1 .9-.15 2.1 2.1 0 0 1 1.5.6zm-10.8-20.57l6.3 10.36 27.92-11.25-5.7-15.77zm-814.02-45.64l31.08 7.82a2.27 2.27 0 0 1 1.65 2.4l-1.2 14.1 9.32.9 3.9-18.9-12.9-3.76a2.07 2.07 0 0 1-1.66-1.8l-3.16-18.62-19.8-6.75zm-5.85 20.58l32.88 3.3 1.06-12-29.28-7.37zm805.45-35.13l8.86 15.16 17.12-6-21.02-12.16zm-823.02 8.7l18.92 4.8 7.96-27.02a2.65 2.65 0 0 1 1.2-1.35 2.52 2.52 0 0 1 1.8-.15l19.66 6.76-4.35-25.54-20.87-12.6zm835.03-52.24l15.76 23.43a2.58 2.58 0 0 1 .3 1.8 2.17 2.17 0 0 1-1.06 1.5l-17.7 10.96 22.36 12.9 22.97-7.96-26.87-53.9zm-780.54 36.94l5.56 1.95 6-16.52-15.62-9.46zm756.96-10.96l16.37 9.3 17.85-10.95-14.4-21.02-25.68 18.93a2.28 2.28 0 0 1-3-.15l-10.06-9.9-6.6 6.6 12 15 11.12-7.65a2.05 2.05 0 0 1 1.3-.47 2.16 2.16 0 0 1 1.1.32zm-15.6-17.26l8.55 8.4 24.32-17.7-9.47-13.98zm-718.84-49.25l28.07 15.32a2.53 2.53 0 0 1 1.2 2.54l-4.65 13.36 8.7 3.15 8.57-17.26-11.56-6.77a2.23 2.23 0 0 1-1.2-2.1l1.5-18.76-17.56-11.57zm-10.8 18.47l31.07 11.4 3.9-11.4-26.58-14.4zm700.65-24.02l12.3 12.46 15.18-10.06-23.4-6.46zm-711.17-6l17.12 9.6 14.4-24.32a2.75 2.75 0 0 1 1.5-1.05 2.6 2.6 0 0 1 1.8.3l17.42 11.4 2.1-25.8-16.96-17.43zm712.07-38.9l21.17 18.77a2.4 2.4 0 0 1 .75 1.65 1.78 1.78 0 0 1-.6 1.65l-14.56 15 24.9 6.92 20.28-13.5-39.48-45.65zm-42.93 29.74l15.46 11.56 8.86-10.06a2.14 2.14 0 0 1 2.4-.75l18.17 4.96 14.55-15-19.22-16.98-20.26 24.77a2.33 2.33 0 0 1-3 .6l-12.17-7.05zm-612.4 7.8l4.8 3.15 9.92-14.4-12.76-12.9zm619.45-19.52l10.5 6 19.08-23.4-12.6-11.12zm-578.45-49.7l23.42 21.78a2.5 2.5 0 0 1 .3 3l-7.8 11.7 7.65 5.26 12.6-14.7-9.6-9.47a1.86 1.86 0 0 1-.45-2.24l6.16-17.86-14.1-15.47zm-15.16 15.02l27.32 18.77 6.6-10.06L1261 402.2zm552.03-11.26l15 9 12.17-13.5-24.32-.45zm-44.44-4.05l17.86 7.35 6-12a2.4 2.4 0 0 1 2.1-1.2l18.76.3 10.36-18.17-22.82-11.7-13.5 28.96a2.42 2.42 0 0 1-2.7 1.2l-13.37-3.6zm-455.05-3.3l3.9 4.2 13.2-11.56-9.15-15.63zm-55.25-12.9l14.4 13.35 19.98-19.97a3.15 3.15 0 0 1 1.66-.6 2.4 2.4 0 0 1 1.65.75l13.98 15.47 8.4-24.48-12.16-21.02zm544.53-23.43l25.07 12.76a2.13 2.13 0 0 1 1.2 1.35 1.93 1.93 0 0 1-.15 1.8l-10.36 18.17 25.82.45 16.22-18.02-49.54-34.38zm-30.48 26.12l11.56 3.3 12.76-27.32-14.86-7.66zm-401.75-46.84l17.27 26.87a2.3 2.3 0 0 1-.46 3l-10.5 9.46 6.15 7.06 15.76-11.12-6.9-11.56a2.02 2.02 0 0 1 .14-2.4l10.36-15.77-9.76-18.6zm-18.47 10.8l21.77 24.93 9-8.1-16.35-25.38zm324.3 9.32l19.05 2.7 2.87-13.06a2.44 2.44 0 0 1 1.8-1.8l18.3-4.36 5.57-20.27-24.92-5.55-5.86 31.38a2.15 2.15 0 0 1-2.25 1.8l-14.1-.3zm45.78-12.9l-1.5 5.54 16.8 4.96 8.42-16.07zm-245.47-42.35l10.06 30.32a2.1 2.1 0 0 1-1.05 2.7l-12.46 6.6 4.2 8.26 18-6.76-3.74-12.9a2.7 2.7 0 0 1 .45-2.26l13.97-12.6-4.8-20.43zm-69.06 40.83l2.7 5.1 15.63-7.8-4.96-17.57zm269.35.3l12 .3 5.56-29.73-16.35-3.75zm-88.13-48.94l2.1 31.83a2.43 2.43 0 0 1-1.8 2.4l-13.66 3.3 1.95 9.15 19.23-2.1-.45-13.52a2.4 2.4 0 0 1 1.2-2.1l16.66-8.7.3-21.02zm111.1 16.06l27.47 6.16a2.17 2.17 0 0 1 1.5 1.05 2 2 0 0 1 .3 1.8l-5.56 20.12 25.07-6 11.27-21.62-56.45-20.87zm-305.82 8.4a2.65 2.65 0 0 1 1.35 1.2l9.76 18.48 14.27-21.62-6.6-23.42-55.55 23.42 10.66 16.5 24.32-14.25a1.84 1.84 0 0 1 1.14-.4 2.72 2.72 0 0 1 .66.1zm62.3-10.8l14.87 29.58 10.66-5.56-9.46-28.67zm111.1-13.2l7.06 32.42 11.7-2.7-2.1-30.03zm51.04 22.66l-.14 5.7 17.56.6 4.2-17.7zm-107.04-.45l1.35 5.56 17.12-3.77-.45-18.16zm106.75-27.32a2.4 2.4 0 0 1 .75 1.66l-.3 20.87 22.82-12 5.55-23.73-60.05-6.16 1.35 19.52 28.23-.75a1.3 1.3 0 0 1 .3-.03 1.96 1.96 0 0 1 1.35.64zm-113.95.3a2.75 2.75 0 0 1 1.05 1.5l4.8 20.27 19.22-17.26-.45-24.3-59.6 8.85 6.15 18.6 27.03-7.8a1.52 1.52 0 0 1 .68-.16 2.52 2.52 0 0 1 1.12.3zm41.43 833.4a2.05 2.05 0 0 1-2.1-2.1v-3.28q-7.32-.4-14.57-1.07l-.6 3.73a1.9 1.9 0 0 1-2.4 1.66l-43.08-7.2a1.98 1.98 0 0 1-1.65-2.4l.5-3.2q-7.4-1.64-14.66-3.57l-1.15 3.3a1.9 1.9 0 0 1-2.56 1.2l-3.06-1.06a4.6 4.6 0 0 1-1.6-.28l-32.27-11.1a6.66 6.66 0 0 1-1.8-.93l-2.55-.9a2.2 2.2 0 0 1-1.36-2.7l.95-2.7q-6.86-2.8-13.6-5.84l-1.76 3.3a2.2 2.2 0 0 1-2.84.9l-38.28-20.72a2.2 2.2 0 0 1-.9-2.85l1.63-3.06c-4.3-2.64-8.54-5.38-12.72-8.2q-.1.1-.2.18l-2.07 2.66a1.96 1.96 0 0 1-2.84.3l-3.03-2.37a8.07 8.07 0 0 1-.72-.47l-26.87-21.02a7.25 7.25 0 0 1-.6-.54l-3.15-2.45a1.96 1.96 0 0 1-.3-2.85l1.9-2.45c-3.7-3.23-7.35-6.54-10.93-9.9l-2.68 2.44a1.95 1.95 0 0 1-2.85-.15l-2.4-2.62a7.08 7.08 0 0 1-.9-.84l-23.13-25.07a6.37 6.37 0 0 1-.8-1.05l-2.35-2.55a1.95 1.95 0 0 1 .15-2.86l2.34-2.13q-4.8-5.82-9.4-11.85l-3 1.98a2.14 2.14 0 0 1-2.86-.6l-23.87-36.63a2.14 2.14 0 0 1 .6-2.85l2.6-1.7q-3.67-6.35-7.1-12.84l-3.3 1.48a2.04 2.04 0 0 1-2.7-1.06l-1.6-3.62a6.33 6.33 0 0 1-.35-.73l-6.8-15.53-8.82-20.05a2.04 2.04 0 0 1 1.06-2.7l2.9-1.3c-1.8-4.78-3.5-9.6-5.1-14.45l-3.37.88a2.18 2.18 0 0 1-2.55-1.5l-10.66-42.34a2.18 2.18 0 0 1 1.5-2.55l2.98-.72q-1.4-7.16-2.52-14.42l-3.6.3a2.04 2.04 0 0 1-2.26-1.8l-.33-3.97a7 7 0 0 1-.13-.86l-2.86-34.08a6.76 6.76 0 0 1 0-1.05l-.3-3.6a2.05 2.05 0 0 1 1.96-2.24l3.17-.25c-.1-3.7-.16-7.4-.16-11.15 0-1.4 0-2.82.02-4.23l-3.5-.27a2.15 2.15 0 0 1-1.94-2.26l3.6-43.54a2.15 2.15 0 0 1 2.25-1.96l3.1.25q.98-7.24 2.24-14.37l-3.37-.9a2.1 2.1 0 0 1-1.5-2.54l.86-3.43a6.64 6.64 0 0 1 .2-1.2l8.4-33.04q.07-.3.17-.6l1.02-4.06a2.1 2.1 0 0 1 2.56-1.5l2.93.77c1.55-4.93 3.17-9.8 4.9-14.65q-.15-.1-.28-.2l-2.74-1.23a2.04 2.04 0 0 1-1.05-2.7l1.54-3.5a7.05 7.05 0 0 1 .26-.7l13.67-31.25a7.1 7.1 0 0 1 .54-.94l1.56-3.55a2.04 2.04 0 0 1 2.7-1.05l2.66 1.2q3.3-6.5 6.82-12.86l-3.02-2a2.14 2.14 0 0 1-.6-2.86l23.87-36.48a2.14 2.14 0 0 1 2.85-.6l2.66 1.76q4.54-6.2 9.33-12.2l-2.53-2.32a2.28 2.28 0 0 1-.15-3l29.56-32.13a1.96 1.96 0 0 1 2.85-.14l2.36 2.15q5.16-5.02 10.52-9.86l-2.06-2.64a1.95 1.95 0 0 1 .3-2.85l3.02-2.36a6.5 6.5 0 0 1 .74-.65l26.87-21.02a5.83 5.83 0 0 1 1.02-.7l2.73-2.15a1.95 1.95 0 0 1 2.86.3l1.84 2.36q6.42-4.5 13.04-8.7l-1.67-3.12a2.06 2.06 0 0 1 .9-2.85l38.43-20.72a2.06 2.06 0 0 1 2.85.9l1.4 2.6c4.34-2.06 8.7-4.02 13.12-5.9l-1.16-3.3a2.2 2.2 0 0 1 1.37-2.7l41.28-14.12a1.97 1.97 0 0 1 2.55 1.35l1 2.83c4.9-1.38 9.86-2.68 14.84-3.88l-.52-3.3a2.17 2.17 0 0 1 1.65-2.4l43.1-7.2a2.17 2.17 0 0 1 2.4 1.66l.47 3.03c4.82-.52 9.65-.96 14.53-1.3v-3.38a2.05 2.05 0 0 1 2.1-2.1H1571a2.05 2.05 0 0 1 2.1 2.1v2.95c5.22.27 10.4.65 15.54 1.14l.53-3.33a1.98 1.98 0 0 1 2.4-1.65l42.94 7.2a1.9 1.9 0 0 1 1.66 2.4l-.45 2.82q7.13 1.6 14.14 3.45l1.03-2.97a2.1 2.1 0 0 1 2.55-1.35l3.3 1.13c.4.07.86.15 1.36.23l32.28 11.1a6.58 6.58 0 0 1 1.26.6l3.1 1.06a1.9 1.9 0 0 1 1.2 2.55l-.94 2.68q7.25 2.94 14.35 6.16l1.6-3a2.02 2.02 0 0 1 2.85-.75l3.92 2.13q.14.06.3.12l30 16.22a6.72 6.72 0 0 1 1.25.86l2.82 1.54a2.2 2.2 0 0 1 .9 2.85l-1.37 2.55q6.16 3.8 12.15 7.83l2.13-2.72a1.96 1.96 0 0 1 2.85-.3l3.25 2.54q.25.15.5.3l26.87 21.03a7.25 7.25 0 0 1 .6.54l3.15 2.46a1.97 1.97 0 0 1 .3 2.85l-1.8 2.3q5.92 5.15 11.6 10.52l2.5-2.3a1.95 1.95 0 0 1 2.86.15l2.78 3.02q.15.16.3.32l1.56 1.72 21.64 23.46a6.37 6.37 0 0 1 .78 1l2.37 2.6a1.95 1.95 0 0 1-.16 2.86l-2.14 1.96q4.6 5.6 9.02 11.4l2.73-1.8a2.14 2.14 0 0 1 2.85.6l2.2 3.36a7.5 7.5 0 0 1 .5.7l18.62 28.52q.06.1.1.17l2.45 3.74a2.14 2.14 0 0 1-.6 2.85l-2.37 1.56q3.9 6.73 7.53 13.63l3.1-1.4a2.04 2.04 0 0 1 2.7 1.06l1.54 3.52a6.32 6.32 0 0 1 .4.83l13.68 31.24a7.03 7.03 0 0 1 .36 1.05l1.45 3.3a2.04 2.04 0 0 1-1.05 2.7l-2.7 1.15c1.7 4.5 3.3 9.08 4.83 13.67l3.27-.86a2.18 2.18 0 0 1 2.55 1.5l10.66 42.33a2.18 2.18 0 0 1-1.5 2.55l-2.84.74q1.48 7.6 2.66 15.3l3.5-.3a2.05 2.05 0 0 1 2.25 1.96l.36 4.4q.05.27.1.56l1.03 13.1 2.1 25.48a2.05 2.05 0 0 1-1.94 2.25l-3.14.25q.14 5.1.14 10.26c0 1.36 0 2.72-.02 4.08l3.47.27a2.15 2.15 0 0 1 1.95 2.27l-3.6 43.53a2.15 2.15 0 0 1-2.25 1.96l-3.06-.25q-1.03 7.68-2.4 15.25l3.5.92a2.1 2.1 0 0 1 1.5 2.55l-10.78 42.33a2.1 2.1 0 0 1-2.55 1.5l-3-.8q-2.2 6.97-4.63 13.8l3.13 1.4a2.04 2.04 0 0 1 1.05 2.7l-8.7 19.78-6.92 15.82q-.12.25-.25.48l-1.7 3.87a2.04 2.04 0 0 1-2.7 1.05l-2.72-1.22c-2.33 4.6-4.73 9.12-7.23 13.6l.06.06 2.98 1.96a2.14 2.14 0 0 1 .6 2.85l-2.42 3.7q-.06.1-.13.2l-18.63 28.54a7.5 7.5 0 0 1-.5.7l-2.2 3.35a2.14 2.14 0 0 1-2.85.6l-2.76-1.83q-4.32 5.88-8.87 11.6l2.6 2.4a1.96 1.96 0 0 1 .16 2.84l-2.33 2.54a6.6 6.6 0 0 1-.82 1.07l-23.1 25.08a5.52 5.52 0 0 1-1.05 1l-2.27 2.46a1.96 1.96 0 0 1-2.85.15l-2.34-2.16q-5.54 5.4-11.3 10.57l2.22 2.85a1.95 1.95 0 0 1-.3 2.85l-2.96 2.3a6.48 6.48 0 0 1-.8.7l-26.86 20.87a5.83 5.83 0 0 1-.96.7l-2.8 2.15a2.08 2.08 0 0 1-2.85-.3l-2-2.54q-6.02 4.2-12.22 8.15l1.75 3.25a2.14 2.14 0 0 1-.76 2.85l-38.43 20.72a2.06 2.06 0 0 1-2.85-.9l-1.5-2.77q-6.9 3.28-13.96 6.28l1.2 3.55a1.97 1.97 0 0 1-1.37 2.56l-3.92 1.34q-.2.1-.43.16l-32.28 11.1c-.2.05-.4.1-.6.13l-4.05 1.37a1.97 1.97 0 0 1-2.56-1.35l-1-3q-7 1.98-14.12 3.7l.55 3.5a2.08 2.08 0 0 1-1.65 2.4l-42.94 7.2a2.08 2.08 0 0 1-2.4-1.64l-.48-3.04c-.03-.06-.06-.12-.08-.18-5.1.56-10.2 1.02-15.35 1.38v3.64a2.05 2.05 0 0 1-2.1 2.1zm-2.1-8.68v-2.9a2.15 2.15 0 0 1 2.1-2.1h43.54a2.05 2.05 0 0 1 2.1 2.1v2.5q7.43-.5 14.8-1.32 0-.17.04-.33l-.4-2.65a1.82 1.82 0 0 1 1.5-2.4l43.08-7.2a2.17 2.17 0 0 1 2.4 1.65l.43 2.75q6.85-1.65 13.62-3.55l-.98-2.96a1.9 1.9 0 0 1 1.2-2.54l3.35-1.15a6.73 6.73 0 0 1 1.14-.5l32.28-11.1c.4-.08.8-.16 1.18-.2l3.32-1.15a2.2 2.2 0 0 1 2.7 1.35l.82 2.45q6.8-2.9 13.47-6.06l-1.5-2.85a2.14 2.14 0 0 1 .74-2.86l3.32-1.8a6.74 6.74 0 0 1 .73-.46l30.02-16.2c.2-.1.42-.2.63-.26l3.72-2a2.06 2.06 0 0 1 2.86.9l1.25 2.33q5.94-3.8 11.75-7.85l-1.9-2.43a1.96 1.96 0 0 1 .3-2.85l2.97-2.3a6.48 6.48 0 0 1 .8-.7l26.86-20.87a6.38 6.38 0 0 1 .6-.4l3.16-2.46a1.95 1.95 0 0 1 2.85.3l1.6 2.06q5.5-4.98 10.86-10.2l-2.25-2.07a1.96 1.96 0 0 1-.15-2.85l29.57-32.13a1.96 1.96 0 0 1 2.85-.15l1.98 1.8q4.4-5.5 8.56-11.16l-2.44-1.6a2 2 0 0 1-.6-2.85l23.87-36.5a2.14 2.14 0 0 1 2.85-.6l2.15 1.43q3.63-6.5 7-13.15l-3-1.33a2.04 2.04 0 0 1-1.04-2.7l8.7-19.78 6.9-15.8q.12-.25.25-.48l1.7-3.9a2.04 2.04 0 0 1 2.7-1.04l2.55 1.14c1.56-4.4 3.03-8.82 4.42-13.3l-2.9-.75a2.06 2.06 0 0 1-1.5-2.55l5.4-21.17 4.2-16.52q.04-.2.1-.4l1.1-4.24a2.1 2.1 0 0 1 2.54-1.5l2.36.62q1.28-7.3 2.28-14.65l-3-.23a2.05 2.05 0 0 1-1.94-2.26l.3-3.67a6.76 6.76 0 0 1 0-1.13l2.85-33.93a7 7 0 0 1 .13-.83l.33-3.97a2.15 2.15 0 0 1 2.25-1.95l2.55.2c0-1.22.02-2.43.02-3.65 0-3.4-.05-6.76-.14-10.14l-2.87.23a2.15 2.15 0 0 1-2.25-1.96l-.3-3.72a7 7 0 0 1-.14-.94l-2.84-34.08a6.76 6.76 0 0 1 0-1.13l-.3-3.67a2.05 2.05 0 0 1 1.95-2.26l2.53-.2q-1.12-7.38-2.54-14.7l-3 .8a2 2 0 0 1-2.54-1.5l-1.03-4.08q-.1-.3-.18-.58l-8.4-33.03a6.64 6.64 0 0 1-.2-1.23l-.86-3.43a2.18 2.18 0 0 1 1.5-2.56l2.63-.7q-2.2-6.63-4.64-13.18l-2.96 1.27a1.93 1.93 0 0 1-2.7-.9l-17.4-39.93a2.04 2.04 0 0 1 1.04-2.7l2.6-1.16q-3.5-6.66-7.28-13.17l-2.83 1.87a2.17 2.17 0 0 1-2.85-.6l-23.87-36.48a2.14 2.14 0 0 1 .6-2.85l2.47-1.62q-4.25-5.56-8.7-10.98l-2.47 2.25a1.9 1.9 0 0 1-2.7-.15l-11.84-12.87-14.58-15.8q-.2-.22-.37-.44l-2.77-3.03a1.95 1.95 0 0 1 .15-2.86l2.06-1.88q-5.5-5.18-11.18-10.13l-2 2.56a1.96 1.96 0 0 1-2.85.3l-3.02-2.38a8.06 8.06 0 0 1-.72-.48l-26.87-21.02a7.24 7.24 0 0 1-.62-.54l-3.15-2.46a1.96 1.96 0 0 1-.3-2.85l1.68-2.15q-5.77-3.87-11.67-7.52l-1.56 2.9a2.35 2.35 0 0 1-2.85.76l-3.55-1.93a5.36 5.36 0 0 1-.65-.33l-30.03-16.2a6.72 6.72 0 0 1-1.25-.88l-2.8-1.55a2.2 2.2 0 0 1-.9-2.85l1.3-2.46q-6.84-3.1-13.8-5.92-.1.16-.2.3l-.98 2.83a1.87 1.87 0 0 1-2.4 1.35l-3.8-1.3a3.77 3.77 0 0 1-.7-.2l-16.14-5.56-20.64-7.05a2.1 2.1 0 0 1-1.36-2.56l1-2.85q-6.73-1.77-13.54-3.3l-.52 3.28a2.27 2.27 0 0 1-2.4 1.65l-3.6-.6h-.16c-.3 0-.6-.15-1.05-.15l-30.66-5.2-7.46-1.25a1.98 1.98 0 0 1-1.65-2.4l.42-2.72q-7.47-.68-15-1.1v3.07a2.15 2.15 0 0 1-2.1 2.1h-43.54a2.05 2.05 0 0 1-2.1-2.1v-2.63q-7.02.5-14 1.26l.48 3.02a1.9 1.9 0 0 1-1.65 2.4l-43.07 7.2a2.08 2.08 0 0 1-2.4-1.64l-.45-2.82q-7.18 1.72-14.27 3.72l1.06 3a2.2 2.2 0 0 1-1.35 2.7l-3.35 1.15a6.74 6.74 0 0 1-1.14.5l-32.27 11.1c-.4.1-.8.16-1.18.22l-3.33 1.14a1.97 1.97 0 0 1-2.55-1.36l-.9-2.57q-6.38 2.73-12.65 5.7l1.54 2.87a2.3 2.3 0 0 1-.9 2.85l-3.17 1.7a6.73 6.73 0 0 1-1.04.7l-30.03 16.2a6.98 6.98 0 0 1-1.1.44l-3.1 1.67a2.06 2.06 0 0 1-2.86-.9l-1.26-2.33q-6.34 4.07-12.54 8.4l1.95 2.5a1.98 1.98 0 0 1-.3 2.85l-3 2.37a6.48 6.48 0 0 1-.74.64l-26.87 21a5.83 5.83 0 0 1-1.03.73l-2.73 2.14a1.95 1.95 0 0 1-2.86-.3l-1.7-2.16q-5.1 4.64-10.08 9.5l2.18 1.97a2.14 2.14 0 0 1 .14 3l-2.15 2.35a6.6 6.6 0 0 1-.85 1.12l-23.12 25.07a5.54 5.54 0 0 1-1.08 1.02l-2.37 2.6a1.96 1.96 0 0 1-2.85.14l-2.03-1.86q-4.65 5.8-9.03 11.76l2.5 1.66a2 2 0 0 1 .6 2.85l-2.45 3.74q-.06.1-.12.17l-18.6 28.54a7.5 7.5 0 0 1-.5.7l-2.2 3.35a2.14 2.14 0 0 1-2.87.6l-2.17-1.45q-3.4 6.12-6.6 12.38l3.08 1.37a2.17 2.17 0 0 1 1.06 2.7l-17.57 39.94a2.04 2.04 0 0 1-2.7 1.05l-2.7-1.2q-2.5 7.04-4.72 14.2l3.06.8a2.1 2.1 0 0 1 1.5 2.55l-10.66 42.34a2.1 2.1 0 0 1-2.55 1.5l-2.58-.7q-1.2 6.87-2.15 13.8l3.08.25a2.14 2.14 0 0 1 1.95 2.25l-3.6 43.54a2.15 2.15 0 0 1-2.25 1.95l-2.68-.22c-.02 1.37-.02 2.74-.02 4.1q0 5.4.15 10.76l3-.24a1.92 1.92 0 0 1 2.25 1.8l3.6 43.54a2.05 2.05 0 0 1-1.95 2.25l-2.6.2q1.1 7 2.43 13.9l3.02-.74a1.92 1.92 0 0 1 2.55 1.35l8.7 34.6.76 2.94q.03.15.06.3l1.13 4.5a2.18 2.18 0 0 1-1.5 2.56l-2.7.7q2.3 7.03 4.9 13.95l2.9-1.3a2.04 2.04 0 0 1 2.7 1.06l1.7 3.9q.13.23.24.47l6.8 15.5 8.82 20.08a2.04 2.04 0 0 1-1.05 2.7l-2.53 1.14q3.3 6.24 6.85 12.37l2.74-1.8a2.14 2.14 0 0 1 2.86.6l23.87 36.63a2.14 2.14 0 0 1-.6 2.85l-2.34 1.53q4.43 5.8 9.1 11.46l2.4-2.18a2.27 2.27 0 0 1 2.84.15l29.58 32.14a1.95 1.95 0 0 1-.16 2.85l-2.05 1.87q5.2 4.88 10.56 9.55l2-2.57a2.25 2.25 0 0 1 2.86-.3l34.37 26.87a1.97 1.97 0 0 1 .3 2.85l-1.7 2.18q6.1 4.1 12.3 7.93l1.4-2.6a2.27 2.27 0 0 1 3-.9l3.17 1.7a11.03 11.03 0 0 1 1.04.4l30.03 16.2a6.72 6.72 0 0 1 1.27.9l2.8 1.5a2.02 2.02 0 0 1 .74 2.87l-1.24 2.33q6.52 2.95 13.15 5.64l1.17-3.32a2.16 2.16 0 0 1 2.55-1.05l4.14 1.43.37.07 32.28 11.1a6.74 6.74 0 0 1 1.1.48l3.4 1.18a2.1 2.1 0 0 1 1.36 2.57l-.93 2.67q7 1.84 14.1 3.4l.5-3.07a2.27 2.27 0 0 1 2.4-1.65l43.08 7.2a1.98 1.98 0 0 1 1.66 2.4l-.4 2.48q7.02.64 14.07 1.02zM1198.1 739.85a357.35 357.35 0 0 1 24.16-129.56.55.55 0 0 1 .15.44l.3 1.35.76 1.64.3.75a355.33 355.33 0 0 0-22.67 125.35c0 94.58 36.77 183.6 103.58 250.42 66.96 66.96 155.7 103.74 250.27 103.74 94.43 0 183.3-36.77 250.27-103.43a352.18 352.18 0 0 0 103.6-250.42c0-94.58-36.8-183.6-103.6-250.42C1738.26 422.77 1649.38 386 1554.95 386a354.92 354.92 0 0 0-314.37 191.1l-2.1.76-1.05.45-.9.46c58.85-116.2 179.4-195.92 318.42-195.92 196.98 0 356.72 159.9 356.72 357s-159.75 357.02-356.87 357.02c-196.97 0-356.7-159.9-356.7-357zm14.55 0a341.74 341.74 0 0 1 17.72-109.3l1.65 4.2a342 342 0 0 0-16.52 105.1 339.45 339.45 0 1 0 678.9.15 342.55 342.55 0 0 0-12-90.38c.74-1.2 1.34-2.4 1.94-3.6A340.8 340.8 0 0 1 1897.4 740c0 189.32-153.28 342.75-342.45 342.75s-342.6-153.44-342.3-342.9zm13.2.15a327.44 327.44 0 0 1 12.17-88.88l1.8 4.5a329.27 329.27 0 0 0-10.95 84.38 325.94 325.94 0 1 0 651.87 0 313.22 313.22 0 0 0-9.76-78.82c.9-.6 1.8-1.2 2.55-1.8a332.15 332.15 0 0 1 9.9 80.62c0 181.8-147.12 329.1-328.78 329.1-181.5 0-328.8-147.3-328.8-329.1zM1541 1052.12a8.67 8.67 0 0 1-3-3.15 15.13 15.13 0 0 1-1.66-4.8 25.1 25.1 0 0 1-.45-6 24.05 24.05 0 0 1 .74-5.86 18.88 18.88 0 0 1 1.95-4.65 10.57 10.57 0 0 1 3.3-3 9.27 9.27 0 0 1 4.64-1.05 11.26 11.26 0 0 1 4.5 1.36 10.56 10.56 0 0 1 3 3.3 12.3 12.3 0 0 1 1.5 4.5 23.77 23.77 0 0 1 .46 5.85 44.75 44.75 0 0 1-.6 4.96 16.05 16.05 0 0 1-1.35 4.06 12.77 12.77 0 0 1-2.1 3.15 7.45 7.45 0 0 1-2.85 1.95 10.37 10.37 0 0 1-3.76.6 8.2 8.2 0 0 1-4.35-1.2zm2.1-23.87a12.28 12.28 0 0 0-2.26 4.2 33.47 33.47 0 0 0-.9 6.16 19.8 19.8 0 0 0 .45 6.16 8.44 8.44 0 0 0 1.94 4.2 4.2 4.2 0 0 0 3.3 1.65 4.56 4.56 0 0 0 3.45-1.5 10.28 10.28 0 0 0 2.24-4.04 18.7 18.7 0 0 0 .9-6 20.8 20.8 0 0 0-.45-6.3 9 9 0 0 0-1.96-4.37 4.2 4.2 0 0 0-3.3-1.66 4.56 4.56 0 0 0-3.45 1.5zm22.8-4.05l3.46-.15 1.05 25.22a19.14 19.14 0 0 1 4.67-2.25l.15 3.15a8.32 8.32 0 0 1-1.2.6 5.9 5.9 0 0 0-1.35.6 8.84 8.84 0 0 0-1.2.6 3.27 3.27 0 0 0-1.2.75l-3.16.15zm24.03 26.72a8.68 8.68 0 0 1-3.45-2.7 12.87 12.87 0 0 1-2.4-4.5 28.1 28.1 0 0 1-1.35-5.85 27.37 27.37 0 0 1-.15-6 16.1 16.1 0 0 1 1.2-4.8 8.68 8.68 0 0 1 2.7-3.46 8.05 8.05 0 0 1 4.35-1.64 9.52 9.52 0 0 1 4.66.6 8.68 8.68 0 0 1 3.44 2.7 21.05 21.05 0 0 1 2.25 4.5c.6 1.65 1.04 3.6 1.64 5.85.15 1.8.15 3.47.15 4.97a18.9 18.9 0 0 1-.76 4.2 11.34 11.34 0 0 1-1.65 3.3 7.46 7.46 0 0 1-2.56 2.25 9.3 9.3 0 0 1-3.6 1.2c-.4.03-.77.05-1.14.05a8.15 8.15 0 0 1-3.37-.65zm1.05-26.27a4.26 4.26 0 0 0-3.15 1.95 10.07 10.07 0 0 0-1.65 4.5 22.16 22.16 0 0 0 0 6.3 20.65 20.65 0 0 0 1.5 6 11.2 11.2 0 0 0 2.7 3.9 4.6 4.6 0 0 0 3.6 1.2 4.26 4.26 0 0 0 3.15-1.94 8.83 8.83 0 0 0 1.65-4.35 21.05 21.05 0 0 0 0-6.15 23.1 23.1 0 0 0-1.5-6.15 10.62 10.62 0 0 0-2.7-4.06 4.94 4.94 0 0 0-3.14-1.23 3.75 3.75 0 0 0-.46.05zm-72.66 26.27l3.15-28.52 3.46.3-2.86 25.07a22.66 22.66 0 0 1 5.1-1.65l-.3 3.15a7.04 7.04 0 0 1-1.35.45 6.12 6.12 0 0 0-1.5.45 10.34 10.34 0 0 1-1.2.45c-.45.15-.9.45-1.35.6zm-21.02-2.7a9.7 9.7 0 0 1-4.2-1.8 7.92 7.92 0 0 1-2.55-3.6 13.22 13.22 0 0 1-.9-4.95 30.03 30.03 0 0 1 .6-6 28.43 28.43 0 0 1 1.65-5.72 12.36 12.36 0 0 1 2.55-4.35 7.6 7.6 0 0 1 3.6-2.55 9.56 9.56 0 0 1 4.66-.3 9.88 9.88 0 0 1 4.2 1.95 16.14 16.14 0 0 1 2.7 3.6 13.23 13.23 0 0 1 .9 4.96 20.05 20.05 0 0 1-.44 5.85c-.45 1.8-.9 3.3-1.35 4.8a18.9 18.9 0 0 1-1.95 3.9 14.65 14.65 0 0 1-2.55 2.7 7.68 7.68 0 0 1-3.15 1.5 7.45 7.45 0 0 1-1.82.24 8.9 8.9 0 0 1-1.93-.22zm1.05-25.37a9.53 9.53 0 0 0-2.85 3.75 28.45 28.45 0 0 0-1.8 6 22.43 22.43 0 0 0-.45 6.16 9.96 9.96 0 0 0 1.35 4.5 4.63 4.63 0 0 0 3.15 2.1 4.05 4.05 0 0 0 3.6-.9 10.76 10.76 0 0 0 2.86-3.76 26.9 26.9 0 0 0 1.8-5.85 22.47 22.47 0 0 0 .46-6.16 10.04 10.04 0 0 0-1.35-4.66 4.62 4.62 0 0 0-3.15-2.1 3.7 3.7 0 0 0-.9-.1 4.5 4.5 0 0 0-2.7 1zm111.55-3.46l3.45-.6 4.96 24.77a17.14 17.14 0 0 1 4.36-3.16l.6 3.17a6.62 6.62 0 0 0-1.2.75 10.22 10.22 0 0 1-1.35.9c-.3.15-.6.45-1.04.75l-1.05 1.05-3 .6zm27.92 22.8a8.3 8.3 0 0 1-3.9-2.1 17.77 17.77 0 0 1-3-4.04 28.23 28.23 0 0 1-2.25-5.7 30.27 30.27 0 0 1-1.05-5.86 17.4 17.4 0 0 1 .45-4.95 7.65 7.65 0 0 1 2.1-3.9 8.93 8.93 0 0 1 4.06-2.26 8.24 8.24 0 0 1 4.65-.16 10.24 10.24 0 0 1 3.9 2.26 14.26 14.26 0 0 1 3 4.05 39.16 39.16 0 0 1 2.1 5.56c.45 1.66.75 3.3 1.05 4.66a21 21 0 0 1 0 4.35 12.65 12.65 0 0 1-1.05 3.6 9.82 9.82 0 0 1-2.25 2.7 7.62 7.62 0 0 1-3.3 1.66 8.56 8.56 0 0 1-2.48.36 10.3 10.3 0 0 1-2.03-.2zm-3-25.96a4.5 4.5 0 0 0-2.85 2.4 10.72 10.72 0 0 0-.9 4.66 35.19 35.19 0 0 0 1.05 6.15 29.63 29.63 0 0 0 2.4 5.7 10.12 10.12 0 0 0 3.16 3.46 4.73 4.73 0 0 0 3.75.6 4.5 4.5 0 0 0 2.85-2.4 8.36 8.36 0 0 0 .9-4.5 23.33 23.33 0 0 0-.9-6 26.5 26.5 0 0 0-2.4-5.85 11.13 11.13 0 0 0-3.3-3.6 4.62 4.62 0 0 0-2.5-.75 5.72 5.72 0 0 0-1.26.14zM1466.97 1041a9.23 9.23 0 0 1-3.9-2.24 8.43 8.43 0 0 1-2.1-3.75 13.3 13.3 0 0 1-.45-4.95 22.98 22.98 0 0 1 1.06-6 26.8 26.8 0 0 1 2.25-5.56 14.26 14.26 0 0 1 3-4.06 8.74 8.74 0 0 1 8.55-1.95 10.8 10.8 0 0 1 4.06 2.4 11.12 11.12 0 0 1 2.25 3.9 17.63 17.63 0 0 1 .3 4.94 21.97 21.97 0 0 1-1.06 5.85 33.5 33.5 0 0 1-1.8 4.65 14.63 14.63 0 0 1-2.25 3.6 14.25 14.25 0 0 1-2.86 2.4 8.53 8.53 0 0 1-3.3 1.05 7.8 7.8 0 0 1-.97.06 12.83 12.83 0 0 1-2.8-.35zm3.76-24.76a9.18 9.18 0 0 0-3.3 3.45 22.53 22.53 0 0 0-2.4 5.7 23 23 0 0 0-1.05 6 10.7 10.7 0 0 0 .9 4.65 4.5 4.5 0 0 0 2.85 2.4 4.74 4.74 0 0 0 3.75-.6 10.45 10.45 0 0 0 3.3-3.45 27.34 27.34 0 0 0 3.46-11.7 11.2 11.2 0 0 0-.9-4.66 4.17 4.17 0 0 0-2.86-2.4 5.72 5.72 0 0 0-1.24-.15 4.62 4.62 0 0 0-2.5.74zm196.52 16.82a9.9 9.9 0 0 1-4.05-1.8 13.92 13.92 0 0 1-3.46-3.76 22.86 22.86 0 0 1-2.85-5.4 30.13 30.13 0 0 1-1.66-5.7 13.9 13.9 0 0 1-.15-4.96 9.9 9.9 0 0 1 1.8-4.05 9.14 9.14 0 0 1 3.9-2.7 8.54 8.54 0 0 1 4.64-.6 7.1 7.1 0 0 1 4.06 1.8 20.34 20.34 0 0 1 3.3 3.74 24.66 24.66 0 0 1 2.7 5.26c.6 1.65 1.2 3.3 1.65 4.95a21.16 21.16 0 0 1 .45 4.2 12.77 12.77 0 0 1-.75 3.6 8.8 8.8 0 0 1-1.95 2.85 11.15 11.15 0 0 1-3.16 1.95 9.14 9.14 0 0 1-3.44.66c-.34 0-.7 0-1.05-.04zm-5.7-25.68a4.17 4.17 0 0 0-2.56 2.7 12.2 12.2 0 0 0-.46 4.8 28.1 28.1 0 0 0 1.65 6 22.88 22.88 0 0 0 2.85 5.4 11.3 11.3 0 0 0 3.6 3.16 4.68 4.68 0 0 0 3.75.15 4.06 4.06 0 0 0 2.7-2.7 6.47 6.47 0 0 0 .3-4.5 18.53 18.53 0 0 0-1.5-6 27.14 27.14 0 0 0-3-5.56 11.3 11.3 0 0 0-3.6-3.16 3.95 3.95 0 0 0-2.12-.6 4.66 4.66 0 0 0-1.64.3zm-220.25 24.47l10.2-26.87 3.3 1.2-9 23.57a19.46 19.46 0 0 1 5.26-.3l-1.2 3H1447c-.3 0-.75.15-1.35.15-.6.15-1.05.15-1.5.3zm-20.12-7.95a9.82 9.82 0 0 1-3.6-2.85 7.86 7.86 0 0 1-1.5-4.06 14.23 14.23 0 0 1 .3-4.96 33.37 33.37 0 0 1 2.1-5.7 32.7 32.7 0 0 1 3-5.1 15.67 15.67 0 0 1 3.6-3.46 8.9 8.9 0 0 1 4.2-1.5 8.62 8.62 0 0 1 4.66.9 9.82 9.82 0 0 1 3.6 2.86 8.37 8.37 0 0 1 1.5 4.2 14.5 14.5 0 0 1-.45 4.95 24.7 24.7 0 0 1-1.96 5.55 23.6 23.6 0 0 1-2.4 4.35 19.3 19.3 0 0 1-2.86 3.15 12 12 0 0 1-3.15 1.95 8.8 8.8 0 0 1-3.45.6 8 8 0 0 1-3.6-.9zm7.66-24.02a9.76 9.76 0 0 0-3.75 3 24.4 24.4 0 0 0-3.3 5.25 26.7 26.7 0 0 0-1.96 5.86 9.54 9.54 0 0 0 .15 4.64 4.17 4.17 0 0 0 2.4 2.86 4.66 4.66 0 0 0 3.74 0 9.28 9.28 0 0 0 3.75-2.86 28.73 28.73 0 0 0 3.3-5.25 30.7 30.7 0 0 0 1.94-6 9.47 9.47 0 0 0-.15-4.67 4.58 4.58 0 0 0-2.4-2.85 4.02 4.02 0 0 0-1.83-.45 4.74 4.74 0 0 0-1.93.45zm262.43 19.66a12.67 12.67 0 0 1-3.75-3.3 27.2 27.2 0 0 1-3.3-5.1 23.96 23.96 0 0 1-2.25-5.55 14.87 14.87 0 0 1-.6-4.96 9.92 9.92 0 0 1 1.35-4.2 10.16 10.16 0 0 1 3.6-3 9.1 9.1 0 0 1 4.65-1.05 7.36 7.36 0 0 1 4.2 1.34 20.1 20.1 0 0 1 3.75 3.45 35.55 35.55 0 0 1 3.16 4.94c.75 1.65 1.35 3.16 2.1 4.5a22.64 22.64 0 0 1 .75 4.2 10.05 10.05 0 0 1-.3 3.76 8.46 8.46 0 0 1-1.65 3 9.27 9.27 0 0 1-3 2.25 9.88 9.88 0 0 1-4.5 1.05 10.64 10.64 0 0 1-4.2-1.36zm-3.6-23.72a4.43 4.43 0 0 0-2.4 3 8.68 8.68 0 0 0 0 4.8 28.97 28.97 0 0 0 2.25 5.86 27.5 27.5 0 0 0 3.46 5.1 9.28 9.28 0 0 0 3.75 2.85 4.64 4.64 0 0 0 3.75-.15 4.58 4.58 0 0 0 2.4-2.85 13.6 13.6 0 0 0 0-4.96 22.43 22.43 0 0 0-2.1-5.7 24.53 24.53 0 0 0-3.45-5.26 10.78 10.78 0 0 0-3.9-2.84 5.7 5.7 0 0 0-1.8-.32 4.3 4.3 0 0 0-1.96.48zm22.67.15a31.2 31.2 0 0 0 4.95 1.5l4.35 7.06a22.79 22.79 0 0 1 3-4.35l1.65 2.7c-.15.15-.3.45-.75 1.05a4.9 4.9 0 0 0-.9 1.2c-.3.15-.45.6-.75 1.05a6.04 6.04 0 0 0-.75 1.35l-2.7 1.65zm-262.43-9.9h7.52a266.87 266.87 0 0 0 170.4 9.6 29.8 29.8 0 0 0 3.3.3 41.3 41.3 0 0 0 10.5-1.5 267.85 267.85 0 0 1-191.7-8.4zm-67.55 11.86c-.3-.3-.6-.46-.75-.76a39.42 39.42 0 0 0 5.86.9l-1.36.46a5.9 5.9 0 0 1-1.27.14 4.2 4.2 0 0 1-2.48-.74zM1479 986.2h4.34a24.48 24.48 0 0 0 4.66-.44 255.35 255.35 0 0 0 66.95 8.86 265.5 265.5 0 0 0 52.55-5.4 23.7 23.7 0 0 0 3.6 2.25 255.38 255.38 0 0 1-56.15 6.16 259.13 259.13 0 0 1-75.97-11.42zm165.9 6.47a32.94 32.94 0 0 1-4.97 1.8zm11.25-7.36a265.7 265.7 0 0 0 30.77-15.15 20.16 20.16 0 0 0 1.06 2.7 273.47 273.47 0 0 1-43.1 19.82 36.48 36.48 0 0 0 11.26-7.36zm-156.75-4.34a21.94 21.94 0 0 0 2.85-2.4 249.06 249.06 0 0 0 96.1 1.95 31.4 31.4 0 0 0 2.1 2.56 248 248 0 0 1-101.05-2.1zm257.63-1.05a32.7 32.7 0 0 0 3.3-6.45 4.67 4.67 0 0 1 .75-1.5l2.1 2.4a8.27 8.27 0 0 0-.6 1.2c-.3.6-.6 1.05-.75 1.35a8.8 8.8 0 0 0-.6 1.2l-.45 1.36-2.4 1.95zm-46.84-10.05a18.62 18.62 0 0 1-5.57-13.36 18.98 18.98 0 0 1 18.47-18.93l52.85-141.72-.9-.9a18.62 18.62 0 0 1-5.56-13.36 18.87 18.87 0 0 1 5.55-13.37 18.62 18.62 0 0 1 13.36-5.56 18.87 18.87 0 0 1 13.37 5.56 18.62 18.62 0 0 1 5.55 13.36 18.87 18.87 0 0 1-5.55 13.35 18.2 18.2 0 0 1-12.3 5.4l-53 142.02c.14.15.44.3.6.6a18.62 18.62 0 0 1 5.54 13.36 19 19 0 0 1-32.42 13.52zm10.05-16.66a4.76 4.76 0 0 0-1.36 3.44 4.66 4.66 0 0 0 1.35 3.3 5.22 5.22 0 0 0 6.75 0 4.66 4.66 0 0 0 1.35-3.3 5 5 0 0 0-1.35-3.45 5.47 5.47 0 0 0-3.45-1.37 4.66 4.66 0 0 0-3.3 1.36zm3.3-14.28zm61.55-160.5a4.7 4.7 0 0 0 0 6.62 5.22 5.22 0 0 0 6.76 0 4.7 4.7 0 0 0 0-6.6 6.2 6.2 0 0 0-3.46-1.36 4.66 4.66 0 0 0-3.3 1.35zm-168.9 191.43a18.6 18.6 0 0 1-5.55-13.36 18.87 18.87 0 0 1 5.55-13.37l.75-.75-81.37-196.83h-.45a18.87 18.87 0 0 1-13.36-5.55 18.6 18.6 0 0 1-5.55-13.36 18.87 18.87 0 0 1 5.55-13.36 18.6 18.6 0 0 1 13.36-5.56 18.87 18.87 0 0 1 13.36 5.56 18.85 18.85 0 0 1 0 26.72l81.67 197.57a18.06 18.06 0 0 1 12.46 5.56 18.6 18.6 0 0 1 5.55 13.36 18.87 18.87 0 0 1-5.55 13.35 18.03 18.03 0 0 1-13.22 5.56 18.27 18.27 0 0 1-13.2-5.55zm9.9-16.66a4.76 4.76 0 0 0-1.34 3.44 4.66 4.66 0 0 0 1.35 3.3 5.22 5.22 0 0 0 6.76 0 4.66 4.66 0 0 0 1.36-3.3 5 5 0 0 0-1.36-3.45 5.47 5.47 0 0 0-3.45-1.37 4.66 4.66 0 0 0-3.3 1.36zM1532 723.5a4.7 4.7 0 0 0 0 6.6 5.22 5.22 0 0 0 6.75 0 4.7 4.7 0 0 0 0-6.6 5.82 5.82 0 0 0-3.45-1.37 4.66 4.66 0 0 0-3.3 1.35zm-157.2 246.35a18.62 18.62 0 0 1-5.54-13.36 18.87 18.87 0 0 1 5.55-13.37 18.6 18.6 0 0 1 13.35-5.56 18.87 18.87 0 0 1 13.37 5.56 19.07 19.07 0 0 1 4.8 8.26h72.2l37.1-94.15a18.86 18.86 0 0 1-4.96-12.76 18.97 18.97 0 0 1 18.9-18.92 18.87 18.87 0 0 1 13.38 5.55 18.6 18.6 0 0 1 5.55 13.36 18.87 18.87 0 0 1-5.56 13.35 18.34 18.34 0 0 1-14.42 5.4l-38.73 97.9a7.02 7.02 0 0 1-6.62 4.5h-78.5a23.06 23.06 0 0 1-3.16 4.35 19.37 19.37 0 0 1-13.36 5.4 18.87 18.87 0 0 1-13.37-5.55zm10.07-16.66a4.78 4.78 0 1 0 6.76 0 6.22 6.22 0 0 0-3.45-1.37 4.4 4.4 0 0 0-3.3 1.36zm141.28-111.86a4.7 4.7 0 0 0 0 6.6 5.22 5.22 0 0 0 6.75 0 4.66 4.66 0 0 0 1.35-3.3 4.42 4.42 0 0 0-1.35-3.3 5.3 5.3 0 0 0-3.45-1.35 4.4 4.4 0 0 0-3.3 1.34zM1666.8 968.8c6-3 11.86-6.15 17.72-9.6a22.37 22.37 0 0 0 .3 3.15 219.6 219.6 0 0 1-19.52 10.35 30.1 30.1 0 0 0 1.5-3.9zm103.74-3a15.97 15.97 0 0 1-4.65-2.1 16.3 16.3 0 0 1-3.3-2.55 12.9 12.9 0 0 0 .14-2.4c0-.9-.15-1.95-.15-2.85.44.45.9 1.05 1.34 1.5a21.96 21.96 0 0 0 4.8 3.9 12.2 12.2 0 0 0 4.5 1.5 4.87 4.87 0 0 0 3.6-1.35 4.75 4.75 0 0 0 1.35-3.46 12.2 12.2 0 0 0-1.5-4.5 24.8 24.8 0 0 0-3.76-4.8 22.54 22.54 0 0 0-4.96-3.9 11.4 11.4 0 0 0-4.5-1.5 4.64 4.64 0 0 0-3.45 1.2 5.52 5.52 0 0 0-1.2-2.26l.45-1.05a6.9 6.9 0 0 1 2.4-1.06 9.16 9.16 0 0 1 4.5.15 14.4 14.4 0 0 1 4.65 2.1 21.3 21.3 0 0 1 4.66 3.74 35 35 0 0 1 3.14 3.75 15.73 15.73 0 0 1 2.1 3.75 10.3 10.3 0 0 1 .75 3.6 8.56 8.56 0 0 1-.6 3.3 9.9 9.9 0 0 1-2.1 3 11.5 11.5 0 0 1-3.9 2.25 6.7 6.7 0 0 1-2.13.34 7.78 7.78 0 0 1-2.23-.34zm-439.88-5.7a9.93 9.93 0 0 1-3-2.1 8.6 8.6 0 0 1-2.26-3.9 7.17 7.17 0 0 1 0-4.36 12.2 12.2 0 0 1 2.1-4.5 21.42 21.42 0 0 1 3.9-4.65 25.53 25.53 0 0 1 4.66-3.76 23.8 23.8 0 0 1 4.65-1.96 7.68 7.68 0 0 1 4.5 0 8.42 8.42 0 0 1 3.9 2.4 8.15 8.15 0 0 1 2.4 4.06 13.03 13.03 0 0 1 .16 3.45c-.1.3-.2.63-.3.96 0 .02 0 .05 0 .08l-.15.38c-.2.64-.42 1.28-.6 1.87l-1.34 2.25a34.83 34.83 0 0 1-3.9 4.5 35.98 35.98 0 0 1-3.9 3.15 22.48 22.48 0 0 1-3.75 1.95 10.33 10.33 0 0 1-3.6.75 8.82 8.82 0 0 1-3.45-.6zm8.1-20.72a21.55 21.55 0 0 0-4.95 3.75 26.14 26.14 0 0 0-3.9 4.8 10.78 10.78 0 0 0-1.5 4.35 4.26 4.26 0 0 0 1.2 3.6 4.76 4.76 0 0 0 3.46 1.35 9.57 9.57 0 0 0 4.5-1.35 21.57 21.57 0 0 0 4.95-3.75 19.17 19.17 0 0 0 4.07-4.8 10.38 10.38 0 0 0 1.65-4.5 4.27 4.27 0 0 0-1.2-3.6 5.38 5.38 0 0 0-3.6-1.35 12.02 12.02 0 0 0-4.66 1.5zm330 17.26v-.45c5.24-2.86 10.35-5.72 15.3-8.87l1.35.45c-.14.75-.3 1.65-.44 2.4-5.25 3.3-10.8 6.46-16.36 9.3 0-.9.15-1.8.15-2.84zM1771.58 929l2.24-2.54 19.22 16.52a16.63 16.63 0 0 1 1.65-5.1l2.4 2.1a6.98 6.98 0 0 0-.44 1.35 6.04 6.04 0 0 1-.45 1.5 4.38 4.38 0 0 1-.3 1.35 6.6 6.6 0 0 0-.3 1.5l-2.1 2.25zm-369.18 7.52a18.6 18.6 0 0 1-5.56-13.36 18.87 18.87 0 0 1 5.56-13.36 18.53 18.53 0 0 1 13.2-5.56 18.87 18.87 0 0 1 13.37 5.56 17.5 17.5 0 0 1 4.04 6.3h21.02l49.1-120.25c-.3-.3-.6-.45-.9-.75a18.6 18.6 0 0 1-5.56-13.36 18.87 18.87 0 0 1 5.56-13.36 18.6 18.6 0 0 1 13.36-5.56 18.27 18.27 0 0 1 13.2 5.56 18.62 18.62 0 0 1 5.56 13.36 18.87 18.87 0 0 1-5.55 13.36 19.46 19.46 0 0 1-12.46 5.55l-51.35 125.5q-.22.47-.45.9l-.15.3c-.15.3-.45.46-.6.77l-.3.3c-.3.3-.6.45-.75.75a4.5 4.5 0 0 1-1.2.6l-.3.15c-.3.15-.6.15-.9.3l-.3.15c-.45 0-.9.15-1.2.15h-25.68a19.77 19.77 0 0 1-4.06 6.3 20.6 20.6 0 0 1-13.5 5.26 18.27 18.27 0 0 1-13.22-5.56zm59-7.8l-.14-.32-.07.07zm-49.1-8.86a4.78 4.78 0 1 0 6.76 0 5.3 5.3 0 0 0-3.45-1.36 4.66 4.66 0 0 0-3.3 1.36zm51.65 6.6l-.22-.15a.5.5 0 0 0-.04.05zm.6-.9l-.3-.17-.03.08zm47.74-146.98a4.7 4.7 0 0 0 0 6.6 5.22 5.22 0 0 0 6.77 0 4.7 4.7 0 0 0 0-6.6 4.9 4.9 0 0 0-6.76 0zm-196.66 162.9c-.6-.3-1.05-.6-1.35-.76a8.97 8.97 0 0 0-1.2-.6l-1.36-.45-1.95-2.4 22.36-18.3 2.25 2.7-19.8 16.05a19.56 19.56 0 0 1 4.8 2.25l-2.56 2.1a8.33 8.33 0 0 0-1.2-.6zm487.93-10.5a15.28 15.28 0 0 1-4.96-1.36 28.62 28.62 0 0 1-5.24-3.16 23.47 23.47 0 0 1-4.5-3.9 14.33 14.33 0 0 1-2.7-4.2 7.3 7.3 0 0 1-.76-4.36 9.8 9.8 0 0 1 5.4-7.36 9.38 9.38 0 0 1 4.5-.6 15.53 15.53 0 0 1 4.8 1.36 26.5 26.5 0 0 1 5.1 3 42.06 42.06 0 0 1 3.76 3.3 25.44 25.44 0 0 1 2.55 3.45c.6 1.05 1.06 2.25 1.66 3.6a8.96 8.96 0 0 1-.15 3.45 11.35 11.35 0 0 1-1.64 3.3 7.88 7.88 0 0 1-3.45 2.85 8.06 8.06 0 0 1-3.3.66c-.32.02-.68 0-1.03-.03zm-10.96-21.33a4.58 4.58 0 0 0-3.3 1.8 4.35 4.35 0 0 0-.74 3.6 10.54 10.54 0 0 0 2.25 4.2 21.78 21.78 0 0 0 4.66 4.35 33.46 33.46 0 0 0 5.4 3 10.78 10.78 0 0 0 4.66.75 4.58 4.58 0 0 0 3.3-1.8 3.6 3.6 0 0 0 .6-3.45 9.26 9.26 0 0 0-2.1-4.2 24.43 24.43 0 0 0-4.5-4.2 25.2 25.2 0 0 0-5.4-3.15 10.9 10.9 0 0 0-4.1-.94 6.33 6.33 0 0 0-.7.05zm-111.84 13.06a18.6 18.6 0 0 1-5.55-13.35 18.87 18.87 0 0 1 5.56-13.36 19.46 19.46 0 0 1 12.46-5.57l70.4-175.5-.3-.3a18.92 18.92 0 0 1 13.37-32.28 18.87 18.87 0 0 1 13.36 5.56 18.6 18.6 0 0 1 5.55 13.37 18.87 18.87 0 0 1-5.54 13.36 18.52 18.52 0 0 1-13.22 5.56l-70.26 175.2a3.98 3.98 0 0 0 .9.74 18.6 18.6 0 0 1 5.56 13.36 18.87 18.87 0 0 1-5.56 13.36 19.1 19.1 0 0 1-13.36 5.4 18.87 18.87 0 0 1-13.36-5.55zm10.06-16.66a4.7 4.7 0 0 0 0 6.6 5.22 5.22 0 0 0 6.75 0 4.7 4.7 0 0 0 0-6.6 5.47 5.47 0 0 0-3.45-1.35 4.66 4.66 0 0 0-3.3 1.34zm82.42-208.08a4.7 4.7 0 0 0 0 6.6 5.22 5.22 0 0 0 6.76 0 4.66 4.66 0 0 0 1.35-3.3 4.4 4.4 0 0 0-1.35-3.3 5.47 5.47 0 0 0-3.46-1.34 4.4 4.4 0 0 0-3.3 1.34zM1317 863.86a59.55 59.55 0 0 0 5.1 3.3 270.2 270.2 0 0 0 42.78 57.95c-.9.6-1.65 1.2-2.4 1.8a271.13 271.13 0 0 1-45.5-63.04zm-14.87 60.65a8.92 8.92 0 0 1-6-3.74 9.16 9.16 0 0 1-1.66-4.2 8.65 8.65 0 0 1 .75-4.36 14.9 14.9 0 0 1 2.86-4.2 31.8 31.8 0 0 1 4.65-3.9 27.32 27.32 0 0 1 5.25-3 16.36 16.36 0 0 1 4.96-1.35 8.65 8.65 0 0 1 4.35.75 9.2 9.2 0 0 1 5.25 7.36 8.65 8.65 0 0 1-.76 4.36 16.74 16.74 0 0 1-2.86 4.05 23.45 23.45 0 0 1-4.5 3.9c-1.5 1.05-3 1.95-4.5 2.85a21.4 21.4 0 0 1-4.05 1.35 10.25 10.25 0 0 1-2.26.25 12.05 12.05 0 0 1-1.5-.1zm8.26-20.4a22.62 22.62 0 0 0-5.57 3 25.76 25.76 0 0 0-4.65 4.05 10.55 10.55 0 0 0-2.25 4.2 4.34 4.34 0 0 0 .75 3.6 4.28 4.28 0 0 0 3.3 1.95 13.24 13.24 0 0 0 4.65-.6 33.45 33.45 0 0 0 5.4-3 27.38 27.38 0 0 0 4.8-4.2 10.54 10.54 0 0 0 2.25-4.2 4.06 4.06 0 0 0-.6-3.75 4.58 4.58 0 0 0-3.3-1.8 7.75 7.75 0 0 0-.77-.04 12.77 12.77 0 0 0-4 .8zm457.9 11.55a273.43 273.43 0 0 0 58.4-125.2q.2-1.13.44-2.26 1.57-10.14 2.7-20.28c1.05-.9 2.1-1.8 3.3-2.85a279.06 279.06 0 0 1-67.86 158.7zm-434.64-44.14a3.82 3.82 0 0 0 1.05.3c.9.16 1.8.16 2.7.3a250.96 250.96 0 0 0 37.4 47.6 17.87 17.87 0 0 0-3 1.2 255.06 255.06 0 0 1-38.14-49.4zm12.3.46l3.16-.45a245.74 245.74 0 0 0 29.88 37.7 25.9 25.9 0 0 0-1.05 3.15 244.05 244.05 0 0 1-31.98-40.4zm452.35 22.07l1.8-2.85 21.63 13.5a25.8 25.8 0 0 1 .75-5.4l2.7 1.8a6.6 6.6 0 0 1-.15 1.37 8.62 8.62 0 0 0-.3 1.5c0 .3-.15.75-.15 1.35v1.5l-1.65 2.55zm-510.9 8.7a4.94 4.94 0 0 0-1.2-.9 8.46 8.46 0 0 0-1.2-.74 6.1 6.1 0 0 0-1.34-.76l-1.65-2.7 24.93-14.7 1.8 3-21.62 12.9a22.75 22.75 0 0 1 4.37 3l-2.85 1.65c-.3 0-.6-.3-1.2-.76zm519.3-22.36l1.66-3 22.37 12.16a32.14 32.14 0 0 1 .45-5.1l2.86 1.5a8.3 8.3 0 0 0-.15 1.35c0 .6-.16 1.2-.16 1.5v2.86l-1.5 2.7zm-22.96-6.15a265.26 265.26 0 0 0 25.67-59.16 29.25 29.25 0 0 0 3.77-2.7 270.7 270.7 0 0 1-34.53 75.37zm-507 9.6a8.48 8.48 0 0 1-3-1.65 11.25 11.25 0 0 1-2.24-3 7.5 7.5 0 0 1-1.05-4.35 7.36 7.36 0 0 1 1.35-4.2 16 16 0 0 1 3.45-3.75 54.07 54.07 0 0 1 5.25-3.16 31.9 31.9 0 0 1 5.56-2.1 14.44 14.44 0 0 1 4.95-.6 8.2 8.2 0 0 1 4.2 1.36 10.17 10.17 0 0 1 3 3.6 8.28 8.28 0 0 1 1.06 4.5 8.9 8.9 0 0 1-1.5 4.2 19.14 19.14 0 0 1-3.45 3.6 24.48 24.48 0 0 1-5.1 3.16c-1.64.75-3.14 1.35-4.5 2.1a14.6 14.6 0 0 1-4.2.75 15.1 15.1 0 0 1-3.74-.44zm11.27-19.06a20.53 20.53 0 0 0-6 2.1 24.4 24.4 0 0 0-5.25 3.3 9.28 9.28 0 0 0-2.85 3.75 4.65 4.65 0 0 0 .15 3.76 4.58 4.58 0 0 0 2.85 2.4 9.66 9.66 0 0 0 5.1 0 27.8 27.8 0 0 0 5.86-2.1 19.68 19.68 0 0 0 5.25-3.3 9.28 9.28 0 0 0 2.86-3.75 4.65 4.65 0 0 0-.14-3.74 4.87 4.87 0 0 0-3-2.4 10.33 10.33 0 0 0-2.24-.23 15.7 15.7 0 0 0-2.56.23zm373.24 8.86a18.6 18.6 0 0 1-5.56-13.37 18.87 18.87 0 0 1 5.56-13.36 3.97 3.97 0 0 1 .9-.76l-84.67-214.24h-43.24l-62.15 158.24a18.92 18.92 0 0 1-13.36 32.28 18.87 18.87 0 0 1-13.36-5.55 18.62 18.62 0 0 1-5.56-13.37 18.87 18.87 0 0 1 5.56-13.36 18.33 18.33 0 0 1 13.66-5.4l63.8-162.44a7.07 7.07 0 0 1 7.5-4.35c.3 0 .6-.15.9-.15h51.05a6.88 6.88 0 0 1 6.9 6.3c.16.3.46.75.6 1.05l85.6 216.5a18.06 18.06 0 0 1 12.45 5.55 18.6 18.6 0 0 1 5.55 13.36 18.87 18.87 0 0 1-5.55 13.36 19.27 19.27 0 0 1-13.2 5.26 18.87 18.87 0 0 1-13.38-5.56zm10.06-16.67a4.7 4.7 0 0 0 0 6.6 5.22 5.22 0 0 0 6.76 0 4.7 4.7 0 0 0 0-6.6 6.2 6.2 0 0 0-3.46-1.35 4.66 4.66 0 0 0-3.3 1.35zm-215.9-56.9a4.78 4.78 0 1 0 6.77 0 5.47 5.47 0 0 0-3.46-1.35 4.66 4.66 0 0 0-3.3 1.35zm-31.37 73.57a18.92 18.92 0 0 1-.6-26.13l-65.45-166.8a18.73 18.73 0 0 1-18.02-18.77 18.87 18.87 0 0 1 5.56-13.36 18.6 18.6 0 0 1 13.36-5.55 18.84 18.84 0 0 1 13.36 32.13 3.98 3.98 0 0 1-.9.75l65 165.44a19.08 19.08 0 0 1 14.42 5.4 18.85 18.85 0 0 1 0 26.72 19 19 0 0 1-13.5 5.7 18.27 18.27 0 0 1-13.22-5.54zm9.9-16.52a4.78 4.78 0 1 0 6.77 0 5.3 5.3 0 0 0-3.45-1.35 4.66 4.66 0 0 0-3.3 1.35zm-78.5-198.32a4.78 4.78 0 1 0 6.75 0 5.07 5.07 0 0 0-3.43-1.35 4.67 4.67 0 0 0-3.32 1.35zm477.86 216.2a38.1 38.1 0 0 1-5.86-1.96 28.45 28.45 0 0 1-5.26-3 13.23 13.23 0 0 1-3.6-3.46 7.8 7.8 0 0 1-.75-8.56 8.5 8.5 0 0 1 2.85-3.6 7.9 7.9 0 0 1 4.2-1.5 14.86 14.86 0 0 1 5.1.3 32.2 32.2 0 0 1 5.7 1.95 29.8 29.8 0 0 1 4.36 2.4 11.83 11.83 0 0 1 3.3 2.7c.9 1.05 1.5 2.1 2.25 3a8.38 8.38 0 0 1-.3 6.9 9.82 9.82 0 0 1-2.86 3.6 8.78 8.78 0 0 1-4.05 1.5c-.6.06-1.22.1-1.83.1a13.37 13.37 0 0 1-3.28-.38zm-9.9-18.48a4.6 4.6 0 0 0-2.87 2.4 4.13 4.13 0 0 0 0 3.75 9.78 9.78 0 0 0 3 3.76 25.76 25.76 0 0 0 5.4 3.3 20.6 20.6 0 0 0 5.86 1.96 10.07 10.07 0 0 0 4.8-.15 4.17 4.17 0 0 0 2.84-2.4 4.75 4.75 0 0 0 0-4.05 12.75 12.75 0 0 0-3-3.6 19.5 19.5 0 0 0-5.24-3.15 21.45 21.45 0 0 0-6-1.95 14.25 14.25 0 0 0-2.33-.2 7.86 7.86 0 0 0-2.48.35zm-448.6 11.26a18.6 18.6 0 0 1-5.56-13.36 18.87 18.87 0 0 1 5.55-13.36l.44-.45-79.12-201.2h-.3a18.87 18.87 0 0 1-13.36-5.54 18.6 18.6 0 0 1-5.55-13.36 18.87 18.87 0 0 1 5.56-13.37 18.62 18.62 0 0 1 13.36-5.55 18.87 18.87 0 0 1 13.37 5.55 18.85 18.85 0 0 1 0 26.73l79.25 201.47a18.7 18.7 0 0 1 18.62 18.77 18.87 18.87 0 0 1-5.55 13.36 18 18 0 0 1-13.37 5.86 18.87 18.87 0 0 1-13.36-5.56zm10.05-16.66a4.78 4.78 0 1 0 6.76 0 5.82 5.82 0 0 0-3.45-1.35 4.66 4.66 0 0 0-3.3 1.35zm-92.33-233.6a4.78 4.78 0 1 0 6.76 0 4.9 4.9 0 0 0-6.76 0zm321.58 246.36a18.62 18.62 0 0 1-5.55-13.36 18.87 18.87 0 0 1 5.55-13.37l-59.75-148.63a19.1 19.1 0 0 1-10.8-5.4 18.62 18.62 0 0 1-5.56-13.36 18.87 18.87 0 0 1 5.54-13.36 18.6 18.6 0 0 1 13.36-5.56 18.87 18.87 0 0 1 13.36 5.56 18.85 18.85 0 0 1 0 26.72 26.1 26.1 0 0 1-2.1 1.8l59 146.68h.3a18.87 18.87 0 0 1 13.37 5.55 18.62 18.62 0 0 1 5.55 13.37 18.87 18.87 0 0 1-5.55 13.36 18.62 18.62 0 0 1-13.37 5.56 18.87 18.87 0 0 1-13.36-5.56zm10.06-16.67a4.65 4.65 0 0 0 3.3 7.95 4.2 4.2 0 0 0 3.3-1.35 4.66 4.66 0 0 0 1.35-3.3 4.4 4.4 0 0 0-1.34-3.3 4.2 4.2 0 0 0-3.3-1.35 4.66 4.66 0 0 0-3.3 1.34zm-70.56-180.62a4.7 4.7 0 0 0 0 6.6 5.22 5.22 0 0 0 6.76 0 4.7 4.7 0 0 0 0-6.6 5.3 5.3 0 0 0-3.46-1.35 4.66 4.66 0 0 0-3.3 1.35zM1265.2 859.8l-1.05-1.05a6.53 6.53 0 0 0-1.05-.9 8.3 8.3 0 0 1-1.2-.9l-1.2-2.85 27.02-10.66 1.35 3.15-23.72 9.3a21.84 21.84 0 0 1 3.9 3.6l-3 1.2a4.8 4.8 0 0 1-1.05-.9zm72.96-8.26a18.5 18.5 0 0 1-12.16-7.8 18.78 18.78 0 0 1-3.15-14.1 17.6 17.6 0 0 1 4.5-9.17l-84.97-214.7a1.14 1.14 0 0 1-.15-.6l.9-.5s0-.03-.02-.04l-.87.25c0-.15-.15-.45-.15-.6v-.45l.9-.26v-.02l-1.05.13v-1.2l1.05-.13v-.04l-1.05-.12a1.14 1.14 0 0 1 .15-.6c0-.15.15-.3.15-.6l1.05.13-.9-.27c0-.15.15-.3.15-.45s.15-.3.3-.45l.95.24a.67.67 0 0 0 .04-.06l-.84-.47c.15-.15.15-.3.3-.45s.3-.3.3-.45l.8.45q0-.02.02-.04l-.67-.56c.15-.15.3-.3.3-.45.15-.15.3-.3.45-.3l.8.67.02-.02-.67-.8c.15-.15.3-.15.45-.3s.3-.15.45-.3l.68.82.03-.02-.55-.95a.55.55 0 0 1 .45-.15l95.63-35.13a19 19 0 0 1 5.4-12.77 18.6 18.6 0 0 1 13.37-5.55 18.87 18.87 0 0 1 13.36 5.55 18.6 18.6 0 0 1 5.55 13.37 18.87 18.87 0 0 1-5.56 13.36 18.85 18.85 0 0 1-26.73 0l-.6-.6-88.73 32.73 81.97 206.88a16.23 16.23 0 0 1 4.67.3 18.58 18.58 0 0 1-3 36.95 24.52 24.52 0 0 1-3.3-.3zm.6-22.37a4.46 4.46 0 0 0-1.95 3 5.12 5.12 0 0 0 .76 3.6 4.45 4.45 0 0 0 3 1.95 5.12 5.12 0 0 0 3.6-.75 4.46 4.46 0 0 0 1.95-3 4.77 4.77 0 0 0-3.9-5.55 1.63 1.63 0 0 0-.74-.15 4.5 4.5 0 0 0-2.7.9zm18.62-270.53a4.78 4.78 0 1 0 6.75 0 4.9 4.9 0 0 0-6.75 0zm468.1 282.1l1.2-3.15 24.03 8.54a14.64 14.64 0 0 1-.44-5.25l3 1.04a8.3 8.3 0 0 1 .15 1.35 6.24 6.24 0 0 1 .16 1.5v1.34c.15.6.15 1.05.3 1.5l-1.05 2.86zm-567.94-1.05a7.33 7.33 0 0 1-2.7-2.1 11.65 11.65 0 0 1-1.8-3.3 9.44 9.44 0 0 1-.3-4.5 9.9 9.9 0 0 1 2.1-3.9 14.6 14.6 0 0 1 4.05-3.17 28.3 28.3 0 0 1 5.7-2.4 31.3 31.3 0 0 1 5.85-1.2 18.35 18.35 0 0 1 5.1.3 7.37 7.37 0 0 1 4.06 1.96 9.14 9.14 0 0 1 2.4 4.04 8.26 8.26 0 0 1-1.8 8.56 17.77 17.77 0 0 1-4.05 3 26.9 26.9 0 0 1-5.55 2.25 36.85 36.85 0 0 1-4.96 1.05c-1.5.15-3 .3-4.5.3a12.67 12.67 0 0 1-3.6-.9zm14.26-17.28a26 26 0 0 0-6.16 1.2 29.26 29.26 0 0 0-5.7 2.55 10.47 10.47 0 0 0-3.45 3.3 4.22 4.22 0 0 0-.46 3.76 4.13 4.13 0 0 0 2.55 2.7 8.96 8.96 0 0 0 4.64.75 24.7 24.7 0 0 0 6.16-1.2 26.45 26.45 0 0 0 5.85-2.55 12.2 12.2 0 0 0 3.46-3.3 4.2 4.2 0 0 0 .46-3.76 4.5 4.5 0 0 0-2.56-2.7 9.16 9.16 0 0 0-3.83-.8q-.46 0-.97.05zm578.76 8.86a31.65 31.65 0 0 1-6-1.05 26.72 26.72 0 0 1-5.56-2.1 13.92 13.92 0 0 1-4.05-2.85 8.7 8.7 0 0 1-2.26-3.76 9.84 9.84 0 0 1 .14-4.65 8.07 8.07 0 0 1 6.16-6.16 14.43 14.43 0 0 1 5.1-.44 30.2 30.2 0 0 1 5.85 1.05 33.58 33.58 0 0 1 4.66 1.66 13.13 13.13 0 0 1 3.76 2.26 8.73 8.73 0 0 1 2.55 2.7 5.4 5.4 0 0 1 1.06 3.3 10.3 10.3 0 0 1-.3 3.6 9.22 9.22 0 0 1-2.25 3.9 10.16 10.16 0 0 1-3.74 2.1 13.25 13.25 0 0 1-3.76.5c-.44.02-.9 0-1.34-.04zm-12.46-16.52a4.5 4.5 0 0 0-2.4 2.86 4.2 4.2 0 0 0 .6 3.75 9.44 9.44 0 0 0 3.6 3.15 20.77 20.77 0 0 0 5.85 2.4 24.4 24.4 0 0 0 6.16.9 10.72 10.72 0 0 0 4.66-.9 4.17 4.17 0 0 0 2.4-2.85 4.28 4.28 0 0 0-.6-3.75 8.9 8.9 0 0 0-3.45-3.16 22.58 22.58 0 0 0-5.7-2.25 20.48 20.48 0 0 0-6.3-1.04 11.44 11.44 0 0 0-4.8.9zm-547.83-32.87l5.55 14.1a255.2 255.2 0 0 0 7.5 27.92 6.03 6.03 0 0 0-.44 2.26c-.15 1.2-.3 2.55-.45 3.75a271.28 271.28 0 0 1-12.16-48.04zm388.54 34.82a18.85 18.85 0 0 1 0-26.73 18.84 18.84 0 0 1 12.92-5.56l72.36-178.2c0-.16.15-.3.3-.46l1.2.3-1.05-.45c.15-.15.15-.3.3-.45s.15-.3.3-.45l1.05.45-.9-.75.45-.45.3-.3.9.75-.75-.9.45-.45a.47.47 0 0 1 .3-.15l.75.9-.6-1.05a1.14 1.14 0 0 1 .6-.3c.15 0 .3-.15.45-.15.45-.15.6-.3.9-.3h.45l.45 1.05-.15-1.05h1.2l.3 1.2v-1.2h.6c.15 0 .45.15.6.15v1.2l.3-1.05c.15 0 .3.15.45.15l21.92 8.4a18.18 18.18 0 0 1 12.76-4.95 18.87 18.87 0 0 1 13.38 5.56 18.62 18.62 0 0 1 5.55 13.35 18.87 18.87 0 0 1-5.55 13.36 18.62 18.62 0 0 1-13.37 5.57 18.87 18.87 0 0 1-13.35-5.56 18.6 18.6 0 0 1-5.55-13.35v-1.05l-14.56-5.55-69.66 171.44c.15.14.45.3.6.6a18.6 18.6 0 0 1 5.56 13.35 18.8 18.8 0 0 1-32.13 13.07zm10.07-16.67a4.7 4.7 0 0 0 0 6.6 5.22 5.22 0 0 0 6.75 0 4.7 4.7 0 0 0 0-6.6 5.46 5.46 0 0 0-3.45-1.35 4.66 4.66 0 0 0-3.3 1.35zm115.75-178.65a4.65 4.65 0 0 0 3.3 7.96 4.2 4.2 0 0 0 3.3-1.35 4.66 4.66 0 0 0 1.35-3.3 4.4 4.4 0 0 0-1.35-3.3 4.76 4.76 0 0 0-3.3-1.35 4.66 4.66 0 0 0-3.3 1.35zm-551.58 189.9a13.77 13.77 0 0 1-3.46-1.34 9.73 9.73 0 0 1-2.55-2.4 9.4 9.4 0 0 1-1.35-7.96 8.05 8.05 0 0 1 2.4-3.6 17.84 17.84 0 0 1 4.35-2.7 27 27 0 0 1 5.86-1.8 30.1 30.1 0 0 1 6-.6 17.16 17.16 0 0 1 4.95.75 9 9 0 0 1 3.75 2.4 9.1 9.1 0 0 1 1.95 4.2 8.1 8.1 0 0 1-.15 4.66 9.3 9.3 0 0 1-2.55 3.76 17.84 17.84 0 0 1-4.35 2.7 28.35 28.35 0 0 1-5.7 1.8 31.73 31.73 0 0 1-4.96.6c-.38.04-.75.06-1.12.06a8.9 8.9 0 0 1-3.08-.5zm5.85-15.9a26.78 26.78 0 0 0-5.86 1.95 9.24 9.24 0 0 0-3.76 2.85 3.95 3.95 0 0 0-.9 3.6 4.55 4.55 0 0 0 2.25 3 11.2 11.2 0 0 0 4.66 1.2 22.47 22.47 0 0 0 6.14-.45 28.2 28.2 0 0 0 6-1.95 11.03 11.03 0 0 0 3.76-3 3.94 3.94 0 0 0 .9-3.6 4.9 4.9 0 0 0-2.25-3 10.08 10.08 0 0 0-4.66-1.2 32.96 32.96 0 0 0-6.3.6zm578.9 3.15l.6-3.45 25.07 4.8a21.28 21.28 0 0 1-1.2-5.1l3.15.6a7.6 7.6 0 0 0 .3 1.35 13.03 13.03 0 0 0 .3 1.5 6.97 6.97 0 0 1 .45 1.35l.46 1.35-.6 3zm17.27-13.06a23.84 23.84 0 0 1-5.86-1.2 21.05 21.05 0 0 1-4.5-2.26 7.88 7.88 0 0 1-2.84-3.46 9.5 9.5 0 0 1-.6-4.65 8.53 8.53 0 0 1 1.65-4.35 7 7 0 0 1 3.46-2.7 17.13 17.13 0 0 1 4.96-1.2 27.3 27.3 0 0 1 6 .15 24.28 24.28 0 0 1 4.96.9 25.38 25.38 0 0 1 4.05 1.65 10.5 10.5 0 0 1 2.85 2.25 7.05 7.05 0 0 1 1.65 3.15 10.35 10.35 0 0 1 .3 3.76 7.88 7.88 0 0 1-1.5 4.2 8.68 8.68 0 0 1-3.45 2.7 17.1 17.1 0 0 1-4.95 1.2c-.75.06-1.55.1-2.4.1a28.6 28.6 0 0 1-3.77-.25zm-4.36-16.08a12.24 12.24 0 0 0-4.5 1.66 4 4 0 0 0-1.94 3.15 4.6 4.6 0 0 0 1.2 3.6 8.98 8.98 0 0 0 4.05 2.55 31.3 31.3 0 0 0 6.17 1.35 21.06 21.06 0 0 0 6.15 0 9.42 9.42 0 0 0 4.5-1.65 4 4 0 0 0 1.96-3.15 4.57 4.57 0 0 0-1.36-3.6 9.32 9.32 0 0 0-3.9-2.55 29.68 29.68 0 0 0-6-1.36 27.28 27.28 0 0 0-3.38-.22 17.8 17.8 0 0 0-2.93.23zm-606.07 14.72c-.3-.6-.6-1.05-.75-1.35s-.45-.6-.75-1.07a8.3 8.3 0 0 0-.9-1.2l-.45-3 28.82-3.6.45 3.46-25.22 3.14a29.66 29.66 0 0 1 2.7 4.5l-3.15.3a5.63 5.63 0 0 1-.75-1.2zm5.26-18.62a28.74 28.74 0 0 1-4.2-1.05 13.4 13.4 0 0 1-3.47-1.95 9.35 9.35 0 0 1-2.1-2.7 7.14 7.14 0 0 1-.9-3.6 10.97 10.97 0 0 1 .9-4.5 9.95 9.95 0 0 1 3-3.16 18.9 18.9 0 0 1 4.66-1.95 37.97 37.97 0 0 1 6.14-.9 25.55 25.55 0 0 1 6 .3 15.05 15.05 0 0 1 4.8 1.5 9.14 9.14 0 0 1 3.3 3 9.3 9.3 0 0 1 1.36 4.5 7.64 7.64 0 0 1-.9 4.5 7.9 7.9 0 0 1-3 3.3 14.5 14.5 0 0 1-4.66 1.96 33.74 33.74 0 0 1-6 .9c-.53.05-1.04.07-1.54.07a33.88 33.88 0 0 1-3.42-.2zm4.34-16.06a23.88 23.88 0 0 0-6.16 1.05 8.7 8.7 0 0 0-4.2 2.26 3.96 3.96 0 0 0-1.35 3.45 4.2 4.2 0 0 0 1.65 3.3 10.65 10.65 0 0 0 4.36 1.96 20.17 20.17 0 0 0 6.15.45 25.07 25.07 0 0 0 6.3-1.04 8.7 8.7 0 0 0 4.2-2.25 4.56 4.56 0 0 0 1.5-3.44 4.88 4.88 0 0 0-1.8-3.3 10.64 10.64 0 0 0-4.36-1.95 18.85 18.85 0 0 0-4.56-.5q-.84 0-1.74.06zm406.1 5.4a18.6 18.6 0 0 1-5.55-13.36 19.02 19.02 0 0 1 5.4-13.22l-66.22-163.18h-65.6a18.16 18.16 0 0 1-5.26 10.2 18.52 18.52 0 0 1-13.2 5.56 18.87 18.87 0 0 1-13.37-5.55 18.92 18.92 0 0 1 13.36-32.27 18.27 18.27 0 0 1 13.22 5.56 15.14 15.14 0 0 1 1.95 2.4h72.97a6.9 6.9 0 0 1 5.4 2.54 6.77 6.77 0 0 1 2.1 2.85l67.4 166.5a17.7 17.7 0 0 1 13.82 5.55 18.6 18.6 0 0 1 5.56 13.36 18.45 18.45 0 0 1-18.77 18.62 18.27 18.27 0 0 1-13.2-5.56zm9.9-16.67a4.7 4.7 0 0 0 0 6.6 5.23 5.23 0 0 0 6.77 0 4.7 4.7 0 0 0 0-6.6 5.47 5.47 0 0 0-3.44-1.36 4.66 4.66 0 0 0-3.3 1.36zm-163.78-179.56a4.7 4.7 0 0 0 0 6.6 5.22 5.22 0 0 0 6.75 0 4.7 4.7 0 0 0 0-6.6 4.9 4.9 0 0 0-6.74 0zm345.45 197.12a21.45 21.45 0 0 1-4.64-1.8 7.96 7.96 0 0 1-3.16-3.15c-.15-.3-.3-.44-.3-.6a38.83 38.83 0 0 0 1.5-9.3 7.07 7.07 0 0 1 2.26-1.95 15.12 15.12 0 0 1 4.8-1.65 37.53 37.53 0 0 1 6-.45 25.28 25.28 0 0 1 4.95.45 15.5 15.5 0 0 1 4.2 1.2 11.18 11.18 0 0 1 3.16 1.95 7.46 7.46 0 0 1 1.95 2.85 9.08 9.08 0 0 1 .6 3.6 8.2 8.2 0 0 1-1.2 4.36 8.67 8.67 0 0 1-3.14 3 15.12 15.12 0 0 1-4.8 1.65 38.23 38.23 0 0 1-6.15.46 24.7 24.7 0 0 1-6-.6zm.16-14.86a10.72 10.72 0 0 0-4.35 2.1 3.98 3.98 0 0 0-1.65 3.3 4.35 4.35 0 0 0 1.5 3.45 9.26 9.26 0 0 0 4.36 2.25 29.1 29.1 0 0 0 12.47.15 11.06 11.06 0 0 0 4.2-2.1 4.2 4.2 0 0 0 1.65-3.3 4.35 4.35 0 0 0-1.5-3.45 8.72 8.72 0 0 0-4.2-2.25 24.68 24.68 0 0 0-6.16-.75 26.47 26.47 0 0 0-6.3.6zm-59.45 9.16a18.85 18.85 0 0 1 0-26.73 19.46 19.46 0 0 1 12.47-5.55l30.63-75.82a18.6 18.6 0 0 1-5.56-13.36 18.87 18.87 0 0 1 5.56-13.36 18.6 18.6 0 0 1 13.36-5.55 18.87 18.87 0 0 1 13.36 5.54 18.6 18.6 0 0 1 5.56 13.36 18.97 18.97 0 0 1-19.22 18.92l-30.33 75.06c.3.3.6.45.9.75a18.6 18.6 0 0 1 5.56 13.37 18.87 18.87 0 0 1-5.57 13.36 19.24 19.24 0 0 1-13.36 5.55 18.87 18.87 0 0 1-13.36-5.54zm10.07-16.67a4.7 4.7 0 0 0 0 6.6 5.23 5.23 0 0 0 6.75 0 4.66 4.66 0 0 0 1.35-3.3 4.4 4.4 0 0 0-1.35-3.3 4.75 4.75 0 0 0-3.45-1.35 4.66 4.66 0 0 0-3.3 1.34zm43.23-108.1a4.7 4.7 0 0 0 0 6.6 5.22 5.22 0 0 0 6.76 0 4.66 4.66 0 0 0 1.35-3.3 4.4 4.4 0 0 0-1.34-3.3 6.22 6.22 0 0 0-3.45-1.35 4.66 4.66 0 0 0-3.3 1.35zm-417.06 123.86l-41.44-101.64a18.85 18.85 0 0 1 .9-37.68 18.27 18.27 0 0 1 13.2 5.55 18.62 18.62 0 0 1 5.57 13.35 18.87 18.87 0 0 1-5.56 13.36 4.02 4.02 0 0 1-.9.76l34.7 84.98 39.78-101.5a18.6 18.6 0 0 1-5.55-13.35 18.87 18.87 0 0 1 5.55-13.37 18.6 18.6 0 0 1 13.36-5.56 18.84 18.84 0 0 1 13.36 32.13 18.6 18.6 0 0 1-13.36 5.56h-.3l-45.2 115.3a3.12 3.12 0 0 1-.9 1.5 6.87 6.87 0 0 1-4.04 4.35 5.9 5.9 0 0 1-2.7.6 6.83 6.83 0 0 1-6.46-4.34zm-44-123.7a4.78 4.78 0 1 0 6.77 0 5.07 5.07 0 0 0-3.43-1.36 4.67 4.67 0 0 0-3.32 1.35zm100-15.77a4.78 4.78 0 1 0 6.75 0 4.9 4.9 0 0 0-6.76 0zm358.2 136.6a8.2 8.2 0 0 1 1.2-4.35 3.6 3.6 0 0 1 .9-1.2 38.92 38.92 0 0 1-1.5 9.3 10.36 10.36 0 0 1-.6-3.75zm-600.8-8.56a4.07 4.07 0 0 0-.46-1.2c-.3-.75-.45-1.2-.6-1.5a8.95 8.95 0 0 0-.6-1.2 5.44 5.44 0 0 0-.76-1.35l.15-3.16 28.83 1.05.06.14-.06-.3h.15v.53l.15.37-.15 2.7-25.52-.75a17.8 17.8 0 0 1 2.1 4.8zm600.96-11.7l-.15-2.1 25.37-1.65a17.07 17.07 0 0 1-2.55-4.67l3.3-.15a8.23 8.23 0 0 1 .6 1.2c.3.6.6 1.05.75 1.35a8.8 8.8 0 0 0 .6 1.2 8.32 8.32 0 0 0 .9 1.2l.15 3-28.52 1.8c-.15-.44-.3-.74-.45-1.2zm-.15 1.2l-.15-1.2c.15.45.3.75.45 1.2zm-587.9-7.5a24.28 24.28 0 0 1-4.97-.9 25.34 25.34 0 0 1-4.05-1.66 9.28 9.28 0 0 1-3-2.25 7.37 7.37 0 0 1-1.65-3 10.35 10.35 0 0 1-.3-3.76 7.9 7.9 0 0 1 1.5-4.2 8.68 8.68 0 0 1 3.45-2.7 13.46 13.46 0 0 1 4.95-1.35 24.1 24.1 0 0 1 5.7 0l1.5 3.9a6.37 6.37 0 0 0-1.64-.3 21.06 21.06 0 0 0-6.16 0 11.3 11.3 0 0 0-4.5 1.65 4 4 0 0 0-1.95 3.16 4.6 4.6 0 0 0 1.2 3.6 9.32 9.32 0 0 0 3.9 2.55 29.67 29.67 0 0 0 6 1.35 22.1 22.1 0 0 0 6.3 0 3.08 3.08 0 0 1 1.66 0l1.34 3.3a11.8 11.8 0 0 1-3.3.75c-.75.06-1.52.1-2.33.1a27.77 27.77 0 0 1-3.66-.25zm592.56-12.62l18.92-2.25a29.55 29.55 0 0 1-2.7-4.5l3.16-.45a5.7 5.7 0 0 1 .75 1.2c.3.6.6 1.05.75 1.35s.45.6.75 1.05a8.26 8.26 0 0 0 .9 1.2l.45 3-24.47 3zm7.36-18.02l9-1.65a20.12 20.12 0 0 1-3-4.35l3.16-.6a6.7 6.7 0 0 0 .75 1.2 10.18 10.18 0 0 1 .9 1.35c.15.3.45.6.76 1.05a6.93 6.93 0 0 1 1.05 1.05l.6 3-14.72 2.55zm-608.48.9a7.6 7.6 0 0 0-.3-1.35 12.78 12.78 0 0 0-.3-1.5 4.38 4.38 0 0 0-.3-1.35 5.36 5.36 0 0 1-.6-1.35l.6-3 3.9.75 1.5 3.75-2.55-.45a23.17 23.17 0 0 1 1.2 5.1zm444.1-8.7a18.6 18.6 0 0 1-5.57-13.36 18.87 18.87 0 0 1 5.57-13.36 19.46 19.46 0 0 1 12.46-5.56l39.48-93.83a6.96 6.96 0 0 1 7.52-4.2 7.5 7.5 0 0 1 3.6.44l35.73 14.26a18.86 18.86 0 0 1 12.77-4.95 18.27 18.27 0 0 1 13.2 5.55 18.62 18.62 0 0 1 5.56 13.36 18.87 18.87 0 0 1-5.55 13.36 18.53 18.53 0 0 1-13.2 5.56 18.87 18.87 0 0 1-13.38-5.56 18.62 18.62 0 0 1-5.55-13.36v-1.05l-30.18-12-36.78 87.53c.3.3.6.45.75.75a18.6 18.6 0 0 1 5.55 13.36 18.87 18.87 0 0 1-5.56 13.36 18.64 18.64 0 0 1-13.07 5.26 18.87 18.87 0 0 1-13.36-5.56zm9.9-16.66a4.66 4.66 0 0 0-1.35 3.3 4.4 4.4 0 0 0 1.35 3.3 5.22 5.22 0 0 0 6.75 0 4.7 4.7 0 0 0 0-6.6 4.9 4.9 0 0 0-6.75 0zm98.18-88.28a4.7 4.7 0 0 0 0 6.6 5.22 5.22 0 0 0 6.76 0 4.7 4.7 0 0 0 0-6.6 4.9 4.9 0 0 0-6.76 0zm-19.96 88.12l3.15-7.95a41.73 41.73 0 0 0 3.5 2.7c-.36-1.02-.72-2.02-1.1-3 1.36.9 2.7 1.8 4.06 2.55.38.96.7 1.9 1.03 2.87a39.07 39.07 0 0 0 8.8 3.4c-.23-.75-.45-1.5-.66-2.22a26.27 26.27 0 0 0 3.3.75l.6 2.16q1.7.27 3.45.4l-3 7.5a38.38 38.38 0 0 0-23.12-9.16zM1334.4 628a249.13 249.13 0 0 1 16.67-27.92 23.12 23.12 0 0 0 3.15.6 262.87 262.87 0 0 0-17.1 28.67c-1.2.9-2.4 1.65-3.6 2.55.3-1.2.6-2.55.9-3.9zm-1.2-19.07c1.96-3.3 3.9-6.45 6-9.6l4.66-1.65c-3.3 4.95-6.6 9.9-9.6 15.16a37.8 37.8 0 0 0-1.05-3.9zm526.97-17.86a343.36 343.36 0 0 0-65.3-91.43 339.25 339.25 0 0 0-480.13 0 354.17 354.17 0 0 0-53.9 69.8l-4.2 1.5c58.85-103.73 170.4-173.84 298.16-173.84 136.47 0 254.17 79.87 309.27 195.32a40.3 40.3 0 0 0-3.9-1.35zm-19.07-7.36a36.8 36.8 0 0 0 .3-4.04 6.1 6.1 0 0 1 0-1.65c2.1 3.76 4.2 7.5 6.16 11.42-1.06.15-2.1.15-3.16.3-1.05-1.95-2.25-4.06-3.3-6zm-286.15-172.8c108.4 0 204.63 52.56 264.53 133.63a54.68 54.68 0 0 0-5.25-2.1 298.77 298.77 0 0 0-28.83-33.03 325.84 325.84 0 0 0-460.9 0 315.57 315.57 0 0 0-42.64 52.55l-4.5 1.65c58.4-91.9 160.8-152.7 277.6-152.7zm0 84.7a242.3 242.3 0 0 0-156.3 56.6c-.3-.9-.6-1.97-.9-3a247.2 247.2 0 0 1 322.5 6.9l-1.2 2.85a242.26 242.26 0 0 0-164.1-63.36zm0-10.22a252.54 252.54 0 0 0-160.5 56.9 14.27 14.27 0 0 0-1.5-2.56 257.24 257.24 0 0 1 331.5 6.46c-.15.45-.45.9-.6 1.35l-.6 1.5a252.67 252.67 0 0 0-168.3-63.65zm224 56.45a21.42 21.42 0 0 0 3.9-4.66 12.22 12.22 0 0 0 1.5-4.5 4.12 4.12 0 0 0-1.2-3.45 4.75 4.75 0 0 0-3.45-1.35 9.57 9.57 0 0 0-4.5 1.35 21.57 21.57 0 0 0-4.96 3.75 27.6 27.6 0 0 0-3.45 4.06l-3.46-1.35c.15-.3.3-.45.45-.75a26.16 26.16 0 0 1 3.9-4.5c1.34-1.2 2.7-2.26 3.9-3.16a22.37 22.37 0 0 1 3.74-1.95 10.3 10.3 0 0 1 3.6-.75 6.74 6.74 0 0 1 3.45.6 9.9 9.9 0 0 1 3 2.1 11.5 11.5 0 0 1 2.25 3.9 8.63 8.63 0 0 1-.15 4.35 12.2 12.2 0 0 1-2.1 4.5c-.75 1.06-1.8 2.1-2.86 3.3zm-449.64-3a19.32 19.32 0 0 1-2.1-3.76 8 8 0 0 1-.9-3.6 8.8 8.8 0 0 1 .6-3.45 8.94 8.94 0 0 1 2.1-3.15 9.88 9.88 0 0 1 3.9-2.4 10.65 10.65 0 0 1 4.36 0 17.18 17.18 0 0 1 4.65 1.95 26.94 26.94 0 0 1 4.2 3.3 38.13 38.13 0 0 0-3.6 1.65 15.26 15.26 0 0 0-3.3-2.4 9.57 9.57 0 0 0-4.5-1.35 4.76 4.76 0 0 0-3.44 1.35 3.8 3.8 0 0 0-1.35 3.45 9.42 9.42 0 0 0 1.5 4.5 8.5 8.5 0 0 1 1.2 1.95 23.06 23.06 0 0 0-2.54 2.86 4 4 0 0 1-.76-.9zm225.65-64.26A263.34 263.34 0 0 0 1388 533.72c-.75-.6-1.5-1.35-2.25-1.95a267.85 267.85 0 0 1 345.15 5.7 13.94 13.94 0 0 0-2.1 2.1 263.05 263.05 0 0 0-173.85-65zm193.82 58.4h2.7l-1.2 1.35zm1.35-.15h-1.5l-1.05-.9 16.97-18.77a17.76 17.76 0 0 1-5.1-1.5l2.1-2.4a7.04 7.04 0 0 0 1.35.45 9.34 9.34 0 0 1 1.5.45 5.56 5.56 0 0 1 1.34.3 6.6 6.6 0 0 0 1.5.3l2.4 2.1-18.17 20.12c-.45 0-.75-.15-1.35-.15zm-389.44-7.8c1.65 0 3.3.14 4.95.3l2.86 3.14-2.7 2.26zm.15-.16l-11.7-13.2a19.56 19.56 0 0 1-2.26 4.8l-2.1-2.4a8.52 8.52 0 0 0 .6-1.2 6.62 6.62 0 0 0 .75-1.36 10.35 10.35 0 0 0 .45-1.2l.45-1.35 2.4-2.1 16.36 18.3c-1.65-.14-3.3-.3-4.95-.3zm374.28-4.35a9.82 9.82 0 0 1-7.35-5.4 8.57 8.57 0 0 1-.6-4.35 13.3 13.3 0 0 1 1.65-4.65 23.55 23.55 0 0 1 3.15-5.1 20.37 20.37 0 0 1 3.3-3.76 13.68 13.68 0 0 1 3.46-2.55 8.27 8.27 0 0 1 3.46-1.36 8.94 8.94 0 0 1 3.45.15 11.35 11.35 0 0 1 3.3 1.64 7.9 7.9 0 0 1 2.86 3.45 8.57 8.57 0 0 1 .6 4.35 22 22 0 0 1-1.5 4.8 27.82 27.82 0 0 1-3.15 5.1 38.38 38.38 0 0 1-4.04 4.35 14.3 14.3 0 0 1-4.2 2.7 8.06 8.06 0 0 1-3.3.66c-.34 0-.7-.02-1.05-.05zm8.42-24a12.2 12.2 0 0 0-4.2 2.1 19.94 19.94 0 0 0-4.36 4.34 27.57 27.57 0 0 0-3.3 5.4 9.43 9.43 0 0 0-.9 4.66 4.58 4.58 0 0 0 1.8 3.3 4.7 4.7 0 0 0 3.76.75 9.73 9.73 0 0 0 4.35-2.1 25.07 25.07 0 0 0 4.35-4.5 28.6 28.6 0 0 0 3.16-5.25 9.16 9.16 0 0 0 .9-4.66 4.58 4.58 0 0 0-1.8-3.3 5.1 5.1 0 0 0-2.74-.86 4.68 4.68 0 0 0-1.02.1zm-368.43 21.6a16.55 16.55 0 0 1-4.2-2.7 28.83 28.83 0 0 1-4.06-4.35 48.46 48.46 0 0 1-2.7-4.2c-.6-1.35-1.2-2.7-1.65-4.05a10.9 10.9 0 0 1-.3-3.76 8.53 8.53 0 0 1 1.04-3.3 8.74 8.74 0 0 1 2.55-2.7 8.02 8.02 0 0 1 4.2-1.8 8.8 8.8 0 0 1 4.34.6 14.95 14.95 0 0 1 4.36 2.7 24.44 24.44 0 0 1 4.2 4.5 27.8 27.8 0 0 1 3.15 5.1 12.66 12.66 0 0 1 1.5 4.8 8.57 8.57 0 0 1-.6 4.36 9.67 9.67 0 0 1-3 3.6 8.48 8.48 0 0 1-4.35 1.8 6.14 6.14 0 0 1-1.2.12 8.92 8.92 0 0 1-3.3-.7zm-7.36-22.66a4.88 4.88 0 0 0-1.8 3.3 14.93 14.93 0 0 0 .6 4.8 28.6 28.6 0 0 0 3.15 5.25 31.4 31.4 0 0 0 4.34 4.5 12.82 12.82 0 0 0 4.36 2.1 4.48 4.48 0 0 0 5.55-4.06 9.45 9.45 0 0 0-.9-4.66 35.42 35.42 0 0 0-3.15-5.4 20.42 20.42 0 0 0-4.2-4.5 9.25 9.25 0 0 0-4.2-2.1 5.63 5.63 0 0 0-1.1-.1 4.43 4.43 0 0 0-2.66.86zm344.7 10.05l13.8-21.17a24.54 24.54 0 0 1-5.25-.76l1.8-2.7a6.6 6.6 0 0 1 1.34.15 8.6 8.6 0 0 0 1.5.3c.3 0 .75.15 1.35.15h1.5l2.55 1.66-15.76 24.17zm-324.6-22.23q-1.1 2.03-2.7 4.5l-1.8-2.7a6.73 6.73 0 0 1 .77-1.2 4.92 4.92 0 0 0 .9-1.2 8.3 8.3 0 0 0 .76-1.2c.15-.45.45-.9.6-1.35l2.7-1.65 15.46 24.32-3 1.8zm305.68 11.7a15 15 0 0 1-3.9-3.14 8.07 8.07 0 0 1-1.2-4.2 20.9 20.9 0 0 1 .75-4.95 40.08 40.08 0 0 1 2.4-5.4 33.98 33.98 0 0 1 2.7-4.2 14.22 14.22 0 0 1 3-3 17.95 17.95 0 0 1 3.3-1.8 6.7 6.7 0 0 1 3.46-.45 8.25 8.25 0 0 1 3.6 1.05 9.14 9.14 0 0 1 3.3 3 7.03 7.03 0 0 1 1.35 4.2 14.87 14.87 0 0 1-.6 4.95 41.38 41.38 0 0 1-2.4 5.56 25.84 25.84 0 0 1-3.3 4.94 15.23 15.23 0 0 1-3.76 3.3 7.36 7.36 0 0 1-4.2 1.35 10.1 10.1 0 0 1-4.5-1.22zm9.3-23.86a9.22 9.22 0 0 0-3.9 2.7 16.26 16.26 0 0 0-3.6 4.97 22.98 22.98 0 0 0-2.4 5.85 8.66 8.66 0 0 0 0 4.8 4.23 4.23 0 0 0 2.26 3 4.65 4.65 0 0 0 3.76.15 10.22 10.22 0 0 0 3.9-2.7 29.98 29.98 0 0 0 3.6-5.1 24.9 24.9 0 0 0 2.25-5.7 9.9 9.9 0 0 0 .14-4.66 4.23 4.23 0 0 0-2.25-3 4.9 4.9 0 0 0-2.23-.55 4.83 4.83 0 0 0-1.54.26zm-290.34 22.23a15.22 15.22 0 0 1-3.76-3.3 25.8 25.8 0 0 1-3.3-4.95 29.22 29.22 0 0 1-1.95-4.5 11.07 11.07 0 0 1-.9-4.05 10.34 10.34 0 0 1 .3-3.76 6.18 6.18 0 0 1 1.5-3.15 8.63 8.63 0 0 1 2.85-2.25 9.88 9.88 0 0 1 4.5-1.05 8.5 8.5 0 0 1 4.2 1.2 18.5 18.5 0 0 1 3.76 3.3 33.7 33.7 0 0 1 3.45 5.1 20.75 20.75 0 0 1 2.25 5.4 20.24 20.24 0 0 1 .6 4.95 8.07 8.07 0 0 1-1.2 4.2 7.85 7.85 0 0 1-3.45 3.15 9.88 9.88 0 0 1-4.5 1.06 7.47 7.47 0 0 1-4.35-1.35zm-3.9-23.57a4.66 4.66 0 0 0-2.26 3 12.85 12.85 0 0 0 0 4.8 27.9 27.9 0 0 0 2.26 5.7 37.53 37.53 0 0 0 3.6 5.1 8.44 8.44 0 0 0 3.9 2.86 4.12 4.12 0 0 0 3.75-.15 4.23 4.23 0 0 0 2.25-3 10.53 10.53 0 0 0-.15-4.8 22.12 22.12 0 0 0-2.25-5.85 23.23 23.23 0 0 0-3.45-5.1 10.22 10.22 0 0 0-3.9-2.7 4.15 4.15 0 0 0-1.7-.4 4.55 4.55 0 0 0-2.06.54zm264.82 14.87l10.36-22.97a30.54 30.54 0 0 1-5.26 0l1.36-3h4.2a4.62 4.62 0 0 0 1.5-.15l2.85 1.2-11.85 26.28zm-231.35-1.96a10.88 10.88 0 0 1-4.06-1.8 20.96 20.96 0 0 1-3.46-3.75 34.4 34.4 0 0 1-2.85-5.25 34.9 34.9 0 0 1-1.5-4.8 21.1 21.1 0 0 1-.46-4.2 9.08 9.08 0 0 1 .6-3.6 6.54 6.54 0 0 1 1.8-2.86 11.16 11.16 0 0 1 3.15-1.94 9.4 9.4 0 0 1 4.5-.6 8.05 8.05 0 0 1 4.04 1.65 15.9 15.9 0 0 1 3.46 3.6 30.1 30.1 0 0 1 2.85 5.4 24.78 24.78 0 0 1 1.8 5.72 18.62 18.62 0 0 1 .15 4.95 8.05 8.05 0 0 1-1.65 4.06 7.86 7.86 0 0 1-3.76 2.7 8.6 8.6 0 0 1-3.65.8c-.32 0-.66-.02-1-.06zm-5.7-25.67a4.17 4.17 0 0 0-2.56 2.7 9.43 9.43 0 0 0-.3 4.66 19.27 19.27 0 0 0 1.64 5.85 21.4 21.4 0 0 0 3 5.56 8.86 8.86 0 0 0 3.6 3.16 4.67 4.67 0 0 0 3.76.15 4.17 4.17 0 0 0 2.55-2.7 10.05 10.05 0 0 0 .3-4.8 21.4 21.4 0 0 0-1.65-6 30.12 30.12 0 0 0-3-5.4 11 11 0 0 0-3.6-3 4.47 4.47 0 0 0-2.02-.48 4.96 4.96 0 0 0-1.73.3zm222.04 21.47l9-23.57a19.46 19.46 0 0 1-5.26.3l1.2-3h2.86c.3 0 .75-.15 1.35-.15.6-.15 1.05-.15 1.5-.3l2.85 1.05-10.36 26.87zm-15.47-5.4l7.65-24.02a18.75 18.75 0 0 1-5.25.6l.9-3a8.3 8.3 0 0 1 1.35-.15c.6 0 1.2-.15 1.5-.15a5.17 5.17 0 0 0 1.35-.15 4.46 4.46 0 0 0 1.5-.3l3 .9-8.7 27.47zm-183.9-22.97a22.1 22.1 0 0 1-3.9 3.45l-1.06-3c.15-.15.6-.45 1.05-.9a9.7 9.7 0 0 0 1.2-1.05 4.88 4.88 0 0 0 .9-.9 6.93 6.93 0 0 0 1.05-1.05l3-.9 8.86 27.32-3.3 1.05zm16.95-4.96a16.42 16.42 0 0 1-4.2 3.3l-.75-3.15a9 9 0 0 1 1.05-.9c.45-.3.9-.76 1.2-.9a6.48 6.48 0 0 1 1.05-.9 6.92 6.92 0 0 0 1.05-1.06l3-.75 7.36 27.76-3.3.9zm146.08 22.97a8 8 0 0 1-4.2-2.1 9.38 9.38 0 0 1-2.55-4.04 17.23 17.23 0 0 1-.6-4.96 28.41 28.41 0 0 1 .76-5.85 33.74 33.74 0 0 1 1.5-4.66 22.2 22.2 0 0 1 2.1-3.76 14.06 14.06 0 0 1 2.7-2.55 5.98 5.98 0 0 1 3.15-1.36 10.7 10.7 0 0 1 3.76.15 8.73 8.73 0 0 1 4.06 2.1 7.72 7.72 0 0 1 2.4 3.74 13.22 13.22 0 0 1 .75 4.95 31.2 31.2 0 0 1-.75 6 39.52 39.52 0 0 1-1.95 5.55 16.84 16.84 0 0 1-2.7 4.2 7.72 7.72 0 0 1-3.76 2.4 8.26 8.26 0 0 1-2.6.42 7.8 7.8 0 0 1-2.04-.26zm2.4-25.5a9.18 9.18 0 0 0-3 3.6 20.64 20.64 0 0 0-2.1 5.84 15.06 15.06 0 0 0-.6 6.16 8.9 8.9 0 0 0 1.05 4.65 4.55 4.55 0 0 0 3 2.26 4.8 4.8 0 0 0 3.76-.74 13.2 13.2 0 0 0 3-3.76 26.56 26.56 0 0 0 2.1-5.85 23.65 23.65 0 0 0 .75-6.16 9.94 9.94 0 0 0-1.2-4.5 4.54 4.54 0 0 0-3-2.26 4.68 4.68 0 0 0-1-.12 5.1 5.1 0 0 0-2.74.87zM1500 464.8a8.4 8.4 0 0 1-3.6-2.54 17.5 17.5 0 0 1-2.55-4.36 13.32 13.32 0 0 1-1.35-5.7 30.4 30.4 0 0 1-.45-4.95 18.98 18.98 0 0 1 .45-4.2 11.85 11.85 0 0 1 1.35-3.46 7.35 7.35 0 0 1 2.4-2.4 10.37 10.37 0 0 1 3.45-1.36 8.96 8.96 0 0 1 4.5.3 8.04 8.04 0 0 1 3.6 2.4 23.77 23.77 0 0 1 2.56 4.35 27.3 27.3 0 0 1 1.65 5.85 41.67 41.67 0 0 1 .46 5.85 24.22 24.22 0 0 1-.9 4.96 8.8 8.8 0 0 1-2.55 3.6 8.9 8.9 0 0 1-4.35 1.95 9.77 9.77 0 0 1-1.74.17 9.28 9.28 0 0 1-2.9-.46zm0-26.1a4.2 4.2 0 0 0-3.15 2.1 9.96 9.96 0 0 0-1.36 4.5 22.47 22.47 0 0 0 .45 6.14 28.4 28.4 0 0 0 1.8 6 8.82 8.82 0 0 0 2.85 3.9 4.4 4.4 0 0 0 3.6.9 4.2 4.2 0 0 0 3.15-2.1 11.27 11.27 0 0 0 1.35-4.65 23.1 23.1 0 0 0-.45-6.32 26.95 26.95 0 0 0-1.8-5.85 9.24 9.24 0 0 0-2.85-3.75 4.75 4.75 0 0 0-2.76-1 3.88 3.88 0 0 0-.84.1zm94.43 24.46a8.55 8.55 0 0 1-4.35-1.65 8.2 8.2 0 0 1-2.7-3.6 17.34 17.34 0 0 1-1.2-4.8 27 27 0 0 1 .15-6 45.08 45.08 0 0 1 1.05-4.8 23.53 23.53 0 0 1 1.8-3.9 11.54 11.54 0 0 1 2.4-2.85 7.35 7.35 0 0 1 3-1.65 10.38 10.38 0 0 1 3.75-.15 8.04 8.04 0 0 1 4.2 1.65 8.68 8.68 0 0 1 2.7 3.45 17.1 17.1 0 0 1 1.2 4.96 27.37 27.37 0 0 1-.15 6 28.15 28.15 0 0 1-1.35 5.87 17.24 17.24 0 0 1-2.4 4.35 8.7 8.7 0 0 1-3.45 2.7 10 10 0 0 1-3.2.57 8.74 8.74 0 0 1-1.45-.14zm0-25.68a11.2 11.2 0 0 0-2.7 3.9 28.6 28.6 0 0 0-1.65 12.47 10 10 0 0 0 1.5 4.5 4.44 4.44 0 0 0 3.15 1.95 4.6 4.6 0 0 0 3.6-1.2 11.2 11.2 0 0 0 2.7-3.9 23.13 23.13 0 0 0 1.5-6.16 21.53 21.53 0 0 0 .15-6.15 10 10 0 0 0-1.5-4.5 4.43 4.43 0 0 0-3.15-1.96 5.84 5.84 0 0 0-.65-.04 4.38 4.38 0 0 0-2.95 1.08zm-22.52 23.12l1.36-25.07a18.92 18.92 0 0 1-4.95 1.95l.16-3.15a3.46 3.46 0 0 0 1.35-.45c.76-.3 1.2-.45 1.5-.6a8.73 8.73 0 0 0 1.2-.6 10.76 10.76 0 0 0 1.36-.75l3.15.15-1.64 28.68zm-34.07-25.07a27.82 27.82 0 0 1-4.8 2.55l-.15-3.15a8.5 8.5 0 0 1 1.2-.6c.6-.3 1.05-.6 1.35-.75a8.94 8.94 0 0 0 1.2-.6 8.3 8.3 0 0 0 1.2-.9l3.16-.15 1.64 28.67-3.45.15zm17.72 24.62l-.45-25.22a14.12 14.12 0 0 1-4.8 2.1v-3.15a8.36 8.36 0 0 1 1.2-.6c.75-.3 1.2-.45 1.5-.6a8.83 8.83 0 0 0 1.2-.6 3.26 3.26 0 0 0 1.2-.75h3.15l.45 28.82z" class="a"/></svg>